<?xml version="1.0" encoding="UTF-8"?>
<svg id="Layer_2" data-name="Layer 2" xmlns="http://www.w3.org/2000/svg" viewBox="0 0 296.75 24.619">
  <defs>
    <style>
      .cls-1 {
        fill: #7c4e31;
      }
    </style>
  </defs>
  <g id="Layer_1-2" data-name="Layer 1">
    <path class="cls-1" d="M183.904,24.412c-.302-.419-.784-.63-1.255-.74-1.123-.753-2.302-1.3-3.51-1.945-1.919-1.024-3.873-1.873-5.87-2.676-3.804-1.53-7.624-2.819-11.672-3.058-4.173-.247-8.362.081-12.536.172-4.095.091-8.219.296-12.291.793-.033.005-.055.018-.072.034-.677.062-1.352.118-2.027.153-2.95.154-5.916.109-8.868.157-6.102.101-12.202.186-18.306.155-12.024-.061-24.034.003-36.058.23-1.369.026-2.738.043-4.104.158-.971.082-2.016.022-2.995.208-.077,0-.154-.001-.231,0-1.44.031-2.835-.104-4.268-.24-2.811-.27-5.615-.19-8.427-.347-2.887-.161-5.762-.523-8.65-.641-2.824-.116-5.653.065-8.479-.015-2.784-.08-5.547-.069-8.324-.357-2.717-.281-5.446-.388-8.174-.342-2.848.049-5.66.441-8.497.675-1.375.113-2.744.242-4.114.415-.005.001-.01.001-.015.002-.367.007-.734.014-1.101.02-.479.009-.959.018-1.439.028-.093-.003-.187-.005-.281-.006-.414-.035-.809-.166-1.224-.119-.245-.167-.465-.385-.652-.677C-.012,15.7-.019,14.396.009,13.511c.02-.647.127-1.319.227-1.956.119-.754.449-1.052.938-1.316,2.552-.42,5.167-.338,7.732-.641,2.798-.331,5.613-.03,8.416.116,2.705.14,5.335-.228,8.026-.408,2.828-.189,5.718.066,8.542.277,5.659.424,11.319.885,16.971,1.415,4.465.42,8.94.077,13.415.232,1.289.024,3.609.213,4.221.157,1.516-.139,3.065-.022,4.586.002,2.844.042,5.689-.088,8.531-.187,6.086-.21,12.167-.231,18.255-.196,5.914.034,11.832.096,17.744-.109,2.964-.101,5.886-.491,8.831-.866,2.881-.366,5.739-.353,8.633-.353,1.064,0,2.101.012,3.163.124.219.022.432.028.643.02.028.022.059.038.092.039,1.259.035,2.511-.121,3.765-.213,1.403-.103,2.813-.078,4.219-.102,2.801-.048,5.602.002,8.404-.012,1.43-.007,2.834.116,4.258.191,1.285.068,2.575-.038,3.861.025.823.041,1.62-.033,2.421-.156.059.073.141.12.226.104.879-.164,1.753-.337,2.626-.499.708-.053,1.416-.083,2.124-.149.102-.009.075-.147.01-.214,1.113-.166,2.232-.291,3.365-.327,3.048-.098,6.069-.586,9.13-.572,2.894.013,5.807.113,8.698.252,2.898.141,5.827.279,8.716.56,5.746.556,11.486,1.279,17.221,1.961,1.413.167,2.828.298,4.247.374,1.471.076,2.941-.004,4.409.148.986.102,1.942.23,2.921.213.018.005.036.007.054.007,2.661.042,5.318.067,7.979.173,2.711.109,5.397.569,8.115.543,2.831-.029,5.66-.242,8.489-.307,1.059-.024,2.114-.251,3.172-.371-.255.168-.507.347-.751.544-.953.767-1.608,2.016-.288,2.761.207.118.238-.234.088-.342-1.398-1.022,1.582-2.562,2.266-2.912.305-.156.616-.301.929-.442.189-.067.371-.147.55-.238,1.69-.707,3.46-1.244,5.148-1.89,2.53-.969,5.011-2.709,7.288-4.278,1.106-.762,2.191-1.573,3.25-2.419.933-.746,1.743-1.643,2.743-2.276.019.012.037.021.057.022.229.018.456.033.685.051-.019.581-.282,1.045-.609,1.514-.216.307-.478.592-.617.943-2.691,1.721-4.945,4.098-7.353,6.28-1.346,1.219-2.534,2.61-3.959,3.721-.62.486-1.198.907-1.904,1.211-.769.331-1.492.863-2.318.988-.229.035-.05.401.128.39.604-.039,1.132-.283,1.677-.576.663-.355,1.376-.507,2.026-.91.611-.38,1.204-.835,1.772-1.332.823.215,1.646.148,2.482.104,1.182-.063,2.371-.048,3.553-.07,2.237-.04,4.474-.054,6.708-.186,2.239-.131,4.465.075,6.695-.036,2.198-.112,4.358-.593,6.556-.509.035.038.084.051.115.005.236.012.475.027.713.055.029.001.049-.005.064-.016.207.065.386.135.436.154.742.278,1.146,1.821,1.198,2.622.067,1.092-.103,2.233-.409,3.264-.233.785-.722.986-1.281,1.096-.654-.19-1.368-.248-1.993-.259-1.314-.02-2.623-.237-3.93-.367-2.874-.289-5.795-.196-8.678-.367-5.873-.346-11.73-.459-17.609-.403-2.928.028-5.807.392-8.725.555-2.897.164-5.81.031-8.71.05-2.916.018-5.829-.236-8.745-.102-1.251.056-2.497.163-3.739-.063-.849-.156-1.851-.322-2.634.186-.002,0-.004.002-.004.003-1.66-.02-3.324-.078-4.975-.114-1.238-.026-2.465-.185-3.7-.234-1.334-.053-2.668.048-4.002-.031-2.661-.156-5.336-.122-7.992-.389-2.703-.273-5.403-.579-8.105-.845-5.288-.521-10.532-1.419-15.808-2.06-2.519-.306-5.046-.641-7.582-.631-1.251.005-2.493.082-3.733.275-.977.152-2.055.311-2.954.825-1.697-1.342-3.339-2.423-5.492-2.736-2.459-.357-5.051-.353-7.444.448-.114.04-.028.224.029.268.12.09.123.083.285.132.121.038.145-.079.101-.166,2.242-.493,4.504-.399,6.765-.096,2.11.281,3.726,1.307,5.366,2.581.03.192.224.386.394.308.255.204.512.412.773.622,1.882,1.525,4.056,2.489,6.178,3.472,2.169,1.004,4.386,2.139,5.792,4.379.041.065.096.105.15.121.001.004.002.008.003.012.154.49-.169.606-.427.251Z"/>
  </g>
</svg>