<?xml version="1.0" encoding="UTF-8"?>
<svg id="Layer_2" data-name="Layer 2" xmlns="http://www.w3.org/2000/svg" viewBox="0 0 155.782 252.603">
  <defs>
    <style>
      .cls-1 {
        fill: #8b5d39;
      }

      .cls-2 {
        fill: #531139;
      }

      .cls-3 {
        fill: #ba8b70;
      }

      .cls-4 {
        fill: #c6a491;
      }

      .cls-5 {
        fill: #fff8ee;
      }
    </style>
  </defs>
  <g id="Layer_1-2" data-name="Layer 1">
    <g>
      <g>
        <path class="cls-1" d="M14.46,139.802C1.674,127.522-.012,106.599,7.256,90.429c7.268-16.17,21.909-28.013,37.742-35.987,18.655-9.395,40.553-14.18,60.624-8.4,20.071,5.781,37.273,23.947,37.544,44.833-44.479,1.374-88.406,17.058-128.706,48.927Z"/>
        <path class="cls-4" d="M138.086,92.547c11.286,38.336,14.791,78.946,10.242,118.649-1.528,13.333-5.442,28.59-17.681,34.094-11.471,5.159-24.752-.847-35.254-7.769-36.107-23.8-63.664-60.295-77.332-101.208,31.169-25.235,69.659-41.315,120.025-43.767Z"/>
        <path class="cls-3" d="M56.537,161.545c-3.188-5.574-6.301-11.208-8.783-17.14-.392-1.001-2.462-6.306-2.861-7.867-1.328-3.296-1.485-7.119-3.084-10.235-2.214-3.224-7.609-.516-6.438,3.208,3.464,13.505,8.388,28.826,18.575,38.672,1.579.788,3.672-.276,4.091-1.965.459-1.735-.833-3.176-1.5-4.673Z"/>
        <path class="cls-3" d="M132.879,238.185c-1.762-16.776-5.468-37.844-10.975-56.689-3.526-11.84-7.413-23.713-12.509-34.947-1.915-2.776-6.6-.462-5.582,2.781,9.306,22.428,15.946,45.956,19.812,69.927.615,4.143,1.087,7.433,1.521,11.632-3.913-6.863-7.76-13.764-11.639-20.647-.426-.73-1.137-1.276-1.951-1.5-2.699-.836-5.195,2.393-3.687,4.796,5.603,10.075,11.182,20.164,16.71,30.281-11.826-8.747-32.938-30.239-41.177-41.637-6.411-7.82-11.348-16.782-16.909-25.101-2.596-2.242-6.596,1.261-4.751,4.17,13.351,23.735,30.661,45.364,51.821,62.592,3.158,2.39,6.079,5.269,9.547,7.167.743.438,1.654.551,2.483.325,1.755-.585,2.387-1.871,2.276-3.215.631.44,1.344.707,2.199.611,3.389-.895,2.756-4.017.989-7.561,1.068-.576,1.875-1.615,1.821-2.984Z"/>
        <path class="cls-3" d="M100.498,190.245c-9.809-17.704-19.478-35.523-27.252-54.238-1.578-3.236-6.016-15.663-8.61-21.805-1.805-2.624-6.228-.433-5.266,2.623,7.284,20.832,16.038,41.183,26.578,60.581,2.906,5.416,5.974,10.744,9.408,15.844.389.666,1.037,1.164,1.779,1.369,2.461.761,4.738-2.181,3.362-4.374Z"/>
        <path class="cls-3" d="M99.938,122.642c-2.172-5.589-3.86-11.468-6.325-16.898-1.934-2.819-6.64-.448-5.619,2.8,2.579,6.92,4.888,13.946,7.711,20.771.61,2.555,4.344,3.035,5.598.731,1.159-2.423-.799-5.024-1.365-7.404Z"/>
        <path class="cls-3" d="M129.968,122c-1.219-8.516-3.893-16.739-6.943-24.758-.366-1.338-1.591-2.511-3.006-2.59-2.451-.5-4.701,2.153-3.967,4.512,2.309,6.038,4.194,12.228,5.854,18.473,1.15,2.598.833,6.275,3.234,8.074,2.41,1.516,5.672-.986,4.827-3.711Z"/>
        <path class="cls-5" d="M139.22,154.805c-.61-4.464-1.272-8.921-1.901-13.383-.323-1.185-1.126-2.221-2.184-2.841-3.486-2.194-8.204,1.426-6.983,5.368,1.593,5.111.589,25.254,8.974,22.243,4.191-1.997,2.24-7.726,2.094-11.387Z"/>
        <path class="cls-5" d="M140.802,183.787c-2.791-2.99-8.249-.732-8.114,3.361-.173,4.937-.698,14.657,7.056,11.506,2.682-1.511,2.42-4.976,2.45-7.647-.119-2.442.587-5.343-1.392-7.22Z"/>
        <path class="cls-2" d="M138.948,78.123c-1.425-.888-6.69-1.149-12.997-.891,5.083-5.326,11.493-13.938,3.306-13.524-2.147,1.272-3.165,3.912-4.788,5.789-.394.472-2.518,3.054-3.117,3.561-.277.349-.605.66-.937.967-5.494-4.763-11.242-9.299-17.207-13.538,2.738-4.846,5.475-9.124,8.034-11.805.118-.092.173-.135.009-.01.002-.002.004-.004.005-.006-.033.026-.033.027-.047.038-.038.029-.059.045-.116.089,1.231-.708,1.795-2.277,1.21-3.449-1.788-3.589-6.304-.593-7.711,1.882-2.011,3.362-3.994,6.762-5.95,10.181-5.025-3.375-10.155-6.592-15.459-9.469.69-.874,1.377-1.771,2.067-2.632,1.732-3.081-2.574-5.859-4.781-3.122-.866.98-1.698,1.992-2.544,2.991-2.164-1.079-4.347-2.113-6.552-3.094-3.081-.596-4.66,3.989-1.892,5.476,1.585.704,3.123,1.465,4.666,2.219-4.005,5.037-7.783,10.262-11.337,15.642-4.76-2.272-9.573-4.446-14.452-6.315.46-.814.895-1.61,1.364-2.432.314-1.61-.708-2.821-2.012-3.298,6.551-3.56,11.142-4.826,15.715-6.071-4.139-14.286-9.176-28.311-15.07-41.967-2.45.683-4.144,3.036-4.769,5.502-.625,2.465-.37,5.057-.111,7.587,1.188,11.601,2.375,23.202,3.563,34.803-1.189-.191-2.456.186-3.127,1.437-.472.788-.913,1.594-1.376,2.387-.738-.239-1.474-.497-2.215-.719-2.976.231-3.318,4.687-.578,5.565-2.916,5.263-5.622,10.644-8.141,16.11-4.622-2.013-10.183-5.038-14.815-4.16-2,1.09-1.588,4.339.638,4.879,4.124.969,8.138,2.345,12.101,3.93-2.736,6.284-5.202,12.683-7.383,19.179-4.675-2.211-9.34-4.457-14.07-6.441-2.667-.52-4.021,3.449-1.634,4.73,4.745,2.038,9.301,4.735,13.959,7.076-.898,2.905-1.75,5.823-2.532,8.761-.06.206-.028.38-.045.572-3.128,2.646-6.087,5.488-8.783,8.58-.919.91-1.282,2.44-.684,3.613.751,2.137,3.826,2.7,5.361,1.064,17.994-20.502,42.236-28.108,69.084-36.287,4.372-.87,3.729-7.082-.851-6.287-6.648,1.514-13.232,3.42-19.701,5.68-.23-.148-.455-.3-.724-.412-2.068-1.116-4.18-2.142-6.273-3.208,3.087-5.585,6.377-11.005,9.802-16.26,2.385,1.14,4.809,2.318,7.299,3.549,1.706.613,3.376,2.109,5.261,1.705,1.708-.429,2.548-2.545,1.646-4.046-.807-1.222-2.334-1.704-3.53-2.465-2.446-1.207-4.909-2.431-7.384-3.651,3.649-5.363,7.407-10.553,11.224-15.538,5.64,3.046,10.98,6.433,16.188,9.953-3.16,5.73-6.155,11.544-8.8,17.474-.553,2.851,3.69,4.308,5.064,1.75,2.569-4.778,5.427-10.553,8.353-16.068,5.604,3.965,11.047,8.082,16.397,12.236,0,.002,0,.004-.001.005-10.015,1.093-19.532,3.274-19.305,6.254-.474,2.337,2.05,4.48,4.3,3.781,11.336-2.891,19.058-3.767,31.388-3.311,2.225.108,4.538.295,6.55-.85,2.375-1.348,1.677-4.81-.751-5.668ZM43.18,100.734c-4.057,1.926-8.044,3.987-11.944,6.178-.353-.728-.957-1.38-1.858-1.732-.645-.287-1.285-.591-1.929-.884,2.252-6.671,4.77-13.045,7.586-19.291,4.268,1.934,8.495,4.069,12.736,6.228-1.593,3.137-3.128,6.303-4.593,9.502ZM55.789,95.284c-1.592.622-3.168,1.285-4.743,1.949.582-1.158,1.205-2.285,1.805-3.43.979.495,1.955.992,2.938,1.48ZM50.148,86.665c-4.312-2.113-8.654-4.164-13.018-6.169,2.568-5.397,5.333-10.768,8.345-16.255,4.647,1.925,9.306,3.985,14.089,6.198-3.327,5.305-6.45,10.734-9.416,16.226Z"/>
      </g>
      <g>
        <path class="cls-2" d="M124.694,252.603c-6.13,0-13.15-2.158-21.203-6.485-40.739-21.899-72.218-59.715-86.367-103.748-.675-2.099.482-4.351,2.581-5.026,2.107-.663,4.353.48,5.028,2.583,13.521,42.081,43.607,78.223,82.543,99.151,10.382,5.584,18.194,6.919,23.872,4.093,6.981-3.481,9.769-12.799,11.42-20.529,9.008-42.202,6.325-86.075-7.758-126.864-.72-2.084.386-4.359,2.474-5.081,2.074-.718,4.357.386,5.081,2.474,14.557,42.163,17.33,87.514,8.019,131.141-2.025,9.482-5.637,21.009-15.671,26.008-3.046,1.522-6.376,2.283-10.019,2.283Z"/>
        <path class="cls-2" d="M14.137,145.019c-.148,0-.296-.008-.445-.023-1.093-.125-2.088-.691-2.749-1.573-15.468-20.572-14.419-51.962,2.386-71.461,11.197-12.99,27.641-20.092,42.173-25.731,17.314-6.712,35.68-12.124,52.687-6.325,9.664,3.297,18.342,10.075,25.101,19.605,5.68,8.007,9.716,17.478,13.5,31.67.32,1.198.064,2.478-.689,3.461-.755.983-1.924,1.561-3.163,1.565-45.098.113-89.924,17.111-126.218,47.864-.726.617-1.643.948-2.583.948ZM92.531,45.412c-11.55,0-23.436,4.121-34.136,8.273-14.259,5.529-29.015,11.898-39.012,23.499-13.531,15.695-15.181,40.36-4.415,57.959,35.691-29.021,78.922-45.519,122.714-46.842-3.118-10.52-6.476-17.919-10.909-24.17-5.699-8.031-13.213-13.95-21.162-16.662-4.253-1.448-8.641-2.057-13.08-2.057Z"/>
        <path class="cls-2" d="M46.91,55.604c-1.906,0-3.592-1.366-3.931-3.305-2.427-13.861-3.861-28.022-4.261-42.097-.22-7.68,3.914-9.556,5.703-10.005,2.65-.667,5.611.39,7.541,2.693,1.354,1.612,1.982,3.492,2.441,4.866,3.957,11.902,7.64,24.061,10.95,36.142.583,2.131-.669,4.328-2.798,4.913-2.127.566-4.328-.675-4.909-2.798-3.272-11.945-6.915-23.967-10.825-35.732-.039-.113-.076-.226-.115-.343v.039c.39,13.689,1.785,27.464,4.144,40.942.38,2.173-1.073,4.246-3.247,4.628-.232.039-.464.059-.693.059Z"/>
      </g>
    </g>
  </g>
</svg>