<?xml version="1.0" encoding="UTF-8"?>
<svg id="Layer_2" data-name="Layer 2" xmlns="http://www.w3.org/2000/svg" viewBox="0 0 990.19 92.89">
  <defs>
    <style>
      .cls-1 {
        fill: #482c13;
      }

      .cls-2 {
        fill: #68411e;
      }

      .cls-3 {
        fill: #311b0e;
      }

      .cls-4 {
        fill: #885730;
      }
    </style>
  </defs>
  <g id="Layer_1-2" data-name="Layer 1">
    <g>
      <g>
        <path class="cls-2" d="M859.103,81.54c-22.736-12.113-41.165-28.311-79.491-40.236-38.331-11.932-289.82,10.79-289.82,10.79h0l.168-10.8c26.132-4.876,112.425-11.426,194.559-12.372,67.448-.777,134.394,3.602,143.2,4.051,19.535.993,18.652-2.032,39.43-1.554,20.775.477,64.588-7.162,82.707-9.745,18.122-2.585,31.952,1.543,13.938,1.888-18.014.348-52.74,6.855-73.823,10.228-21.095,3.372-37.162,4.993-37.162,4.993,0,0,12.969,4.26,22.944,6.15,9.972,1.89,38.547,7.458,57.706,14.851,19.158,7.39,30.534,6.84,44.648,9.966,14.119,3.128,15.712,7.944,4.652,4.64-11.064-3.3-18.473-2.746-28.154-5.629-9.678-2.891,5.203,8.354,12.531,13.201,7.32,4.849,14.37,7.839,14.37,7.839l-4.546,2s-11.909-6.022-21.241-9.596c-9.345-3.577-10.872-10.938-22.841-14.409-11.965-3.469-40.48-11.584-50.836-13.095-10.359-1.512-14.416-2.129-26.948-6.464-12.536-4.328-28.824-4.259-53.615-5.047,8.862,3.336,43.4,24.531,59.296,32.908,5.043,2.661,14.965,14.303-1.672,5.444Z"/>
        <path class="cls-3" d="M834.896,69.041c-10.399-6.406-21.2-12.534-32.813-17.809-9.141-4.151-18.827-8.36-29.516-10.457-18.056-3.546-37.914-3.658-57.061-3.364-29.21.453-196.225,12.821-225.556,15.958h0c-.191.02-.425-1.089-.596-1.071,17.903-1.911,173.294-13.734,191.187-14.706,21.1-1.145,42.339-1.879,63.151-.897,8.953.42,17.96,1.07,26.504,2.669,10.305,1.932,19.682,5.611,28.531,9.557,22.422,10.003,43.101,19.547,61.76,32.847,7.234,5.152,3.691,3.81-4.59-.138l-21-12.588Z"/>
        <path class="cls-3" d="M867.172,83.228c-12.049-5.999-25.711-16.677-37.126-23.257-9.092-5.243-18.066-11.477-28.407-15.51-.272-.102-.338-1.062-.597-1.071,19.877.62,39.387.447,57.134,6.241,13.983,4.569,29.701,6.209,44.208,10.015,8.165,2.146,16.269,4.396,24.328,6.702,8.142,2.333,13.941,5.067,19.428,9.977,6.098,5.461,14.637,8.154,22.661,11.934,2.493,1.175,4.971,2.358,7.409,3.583.844.422,3.903-1.419,4.865-1.838.198.354.395.71.592,1.068-7.487-3.214-14.084-7.389-20.126-11.869-3.64-2.693-8.068-5.517-10.084-9.149-.196-.348-.973-1.541.126-1.548,4.288-.038,8.998,2.074,13.2,2.69,6.023.881,11.873,1.815,17.539,3.401.694.19,7.559,2.234,7.209.248.194.353.388.701.579,1.054-2.509-3.8-11.835-5.01-17.033-5.898-5.493-.941-11.101-1.605-16.571-2.592-14.115-2.554-26.043-8.001-39.375-11.755-20.992-5.909-43.696-8.909-64.16-15.604-.211-.068-.406-1.086-.596-1.065,20.095-2.044,40.045-5.488,59.997-8.793,12.07-1.996,24.191-4.008,36.335-5.329,2.359-.255,23.26-1.483,23.024-2.437.196.356.395.714.588,1.071-2.846-2.442-12.661-1.51-16.662-1.162-5.905.504-11.798,1.519-17.664,2.423-14.318,2.207-28.649,4.444-43.03,6.076-6.951.791-13.95,1.526-20.903,1.774-6.648.237-13.209-.204-19.889.329-9.924.786-19.119,1.742-28.968,1.159-35.245-2.087-73.283-1.768-108.815-2.66-21.189-.529-177.101,7.095-198.521,8.252-8.169.443-16.423,1.024-24.563,2.332-1.28.208-3.182.06-3.197,1.146-.021,1.219-.037,2.435-.056,3.654-.034,2.183-.07,4.367-.102,6.55.002-.186-.15-.357-.296-.534-.152-.173-.302-.353-.3-.537.047-2.666.084-5.334.129-8.002,0-.15-.047-2.781.04-2.795,1.617-.3,3.241-.573,4.868-.805,3.717-.528,7.442-.949,11.176-1.268,9.419-.814,156.27-11.706,165.649-11.892,22.256-.451,44.394.034,66.421.851,20.175.745,40.283,1.785,60.337,2.991,13.194.792,27.008,2.581,40.479,1.921,4.656-.234,9.262-.965,13.911-1.338,5.933-.468,11.694-.224,17.573-.328,11.693-.204,23.547-1.65,35.23-3.21,11.991-1.605,23.947-3.474,35.909-5.301,5.797-.887,11.659-1.913,17.487-2.047,3.062-.071,10.763-.703,12.954,1.166,3.616,3.105-8.109,2.578-9.903,2.666-12.833.631-25.771,2.663-38.52,4.704-23.34,3.733-46.625,8.05-70.124,10.438-.196-.355-.394-.711-.596-1.065,14.041,4.59,29.051,7.095,43.808,10.459,10.607,2.422,21.181,5.052,31.136,8.482,9.355,3.222,18.269,6.639,28.592,8.414,8.964,1.541,18.793,2.193,27.042,5.027,3.097,1.062,5.973,2.119,7.161,4.53.824,1.686-5.274.303-5.703.184-4.752-1.33-9.518-2.44-14.601-3.177-5.167-.742-10.175-1.543-15.042-2.878-1.063-.29-3.673-1.051-3.01.56-.189-.353-.382-.706-.578-1.057,2.657,4.341,8.616,7.901,13.208,11.065,5.093,3.512,10.595,6.791,16.686,9.41.119.049.58,1.074.592,1.068-1.484.651-3.825,2.353-5.238,1.653-2.728-1.356-5.484-2.687-8.274-3.971-4.412-2.034-9.254-3.699-13.566-5.814-3.491-1.711-6.076-3.961-8.717-6.317-5.704-5.09-12.443-7.466-20.798-9.839-7.768-2.206-15.55-4.38-23.425-6.411-14.705-3.794-30.54-5.434-44.582-10.238-16.686-5.713-36.692-5.086-55.429-5.672-.2-.358-.4-.715-.597-1.071,10.712,4.178,19.993,10.658,29.411,16.087,14.143,8.154,38.827,19.355,37.657,24.858l-.937-1.106h0Z"/>
        <path class="cls-1" d="M864.405,84.672c-23.966-10.68-46.605-30.708-84.936-42.633-38.33-11.929-289.815,10.792-289.815,10.792l.168-10.798c2.886-.539,6.09-1.005,9.562-1.411.046,3.157,2.329,8.028,16.387,7.083,20.506-1.38,202.378-15.185,239.853-11.989,37.483,3.192,40.03,8.488,54.402,16.324,14.376,7.842,33.696,19.181,47.056,29.083l7.324,3.549Z"/>
        <path class="cls-1" d="M975.632,90.501c-8.824-3.814-11.242-6.757-17.137-8.665-5.9-1.909-11.53-6.472-14.479-10.752-2.94-4.283-20.62-7.632-32.061-11.269-11.443-3.634-22.574-5.181-36.135-7.526-13.565-2.345-18.836-6.731-30.331-8.456-11.489-1.727-18.509-2.266-29.585-1.209-11.078,1.058-18.693-1.288-16.449.489.779.624,2.023,1.082,3.309,1.42-.537-.243-1.026-.458-1.428-.608,24.791.787,41.085.716,53.615,5.049,12.534,4.33,16.586,4.949,26.953,6.461,10.353,1.514,38.864,9.622,50.835,13.096,11.965,3.471,13.494,10.832,22.837,14.409,9.335,3.574,21.242,9.594,21.242,9.594l1.599-.705c-.995-.508-1.926-.958-2.786-1.329Z"/>
        <path class="cls-4" d="M513.527,41.487c18.101-.519,129.976-8.222,107.816-6.105-22.001,2.104,36.117-1.385,66.281-1.955,30.316-.571,50.678-1.911,78.755-.889,25.805.939,45.972,6.142,33.986,3.306-11.985-2.834,2.514-.874,15.26.41,12.746,1.288,24.642,1.286,37.198-.959,12.552-2.248,20.969-1.216,44.857-5.035,23.886-3.821,33.709-4.442,48.27-6.533,8.116-1.169,12.968-1.444,13.465-2.135-2.956.076-6.246.324-9.694.82-18.126,2.581-61.935,10.22-82.714,9.744-20.775-.478-19.889,2.547-39.421,1.552-16.441-.838-86.704-6.416-159.017-5.134-38.962.689-143.202,9.631-163.266,11.437-2.05.837-2.302,1.781,8.225,1.477h0Z"/>
        <path class="cls-4" d="M868.109,84.335c.721,2.927-6.834-3.756-13.201-7.405-7.013-4.009-20.454-13.863-30.536-19.498-10.086-5.635-27.875-14.196-24.172-13.72.477.06.947.138,1.406.223l-.268-.009c8.857,3.337,50.371,28.543,60.325,34.182l6.447,6.226Z"/>
      </g>
      <g>
        <path class="cls-2" d="M131.087,11.35c22.736,12.113,41.165,28.311,79.491,40.236,38.331,11.932,289.82-10.79,289.82-10.79h0l-.168,10.8c-26.132,4.876-112.425,11.426-194.559,12.372-67.448.777-134.394-3.602-143.2-4.051-19.535-.993-18.652,2.032-39.43,1.554-20.775-.477-64.588,7.162-82.707,9.745-18.122,2.585-31.952-1.543-13.938-1.888,18.014-.348,52.74-6.855,73.823-10.228,21.095-3.372,37.162-4.993,37.162-4.993,0,0-12.969-4.26-22.944-6.15-9.972-1.89-38.547-7.458-57.706-14.851-19.158-7.39-30.534-6.84-44.648-9.966-14.119-3.128-15.712-7.944-4.652-4.64,11.064,3.3,18.473,2.746,28.154,5.629,9.678,2.891-5.203-8.354-12.531-13.201C15.734,6.081,8.684,3.091,8.684,3.091l4.546-2s11.909,6.022,21.241,9.596c9.345,3.577,10.872,10.938,22.841,14.409,11.965,3.469,40.48,11.584,50.836,13.095,10.359,1.512,14.416,2.129,26.948,6.464,12.536,4.328,28.824,4.259,53.615,5.047-8.862-3.336-43.4-24.531-59.296-32.908-5.043-2.661-14.965-14.303,1.672-5.444Z"/>
        <path class="cls-3" d="M155.294,23.849c10.399,6.406,21.2,12.534,32.813,17.809,9.141,4.151,18.827,8.36,29.516,10.457,18.056,3.546,37.914,3.658,57.061,3.364,29.21-.453,196.225-12.821,225.556-15.958h0c.191-.02.425,1.089.596,1.071-17.903,1.911-173.294,13.734-191.187,14.706-21.1,1.145-42.339,1.879-63.151.897-8.953-.42-17.96-1.07-26.504-2.669-10.305-1.932-19.682-5.611-28.531-9.557-22.422-10.003-43.101-19.547-61.76-32.847-7.234-5.152-3.691-3.81,4.59.138l21,12.588Z"/>
        <path class="cls-3" d="M123.018,9.662c12.049,5.999,25.711,16.677,37.126,23.257,9.092,5.243,18.066,11.477,28.407,15.51.272.102.338,1.062.597,1.071-19.877-.62-39.387-.447-57.134-6.241-13.983-4.569-29.701-6.209-44.208-10.015-8.165-2.146-16.269-4.396-24.328-6.702-8.142-2.333-13.941-5.067-19.428-9.977-6.098-5.461-14.637-8.154-22.661-11.934-2.493-1.175-4.971-2.358-7.409-3.583-.844-.422-3.903,1.419-4.865,1.838-.198-.354-.395-.71-.592-1.068,7.487,3.214,14.084,7.389,20.126,11.869,3.64,2.693,8.068,5.517,10.084,9.149.196.348.973,1.541-.126,1.548-4.288.038-8.998-2.074-13.2-2.69-6.023-.881-11.873-1.815-17.539-3.401-.694-.19-7.559-2.234-7.209-.248-.194-.353-.388-.701-.579-1.054,2.509,3.8,11.835,5.01,17.033,5.898,5.493.941,11.101,1.605,16.571,2.592,14.115,2.554,26.043,8.001,39.375,11.755,20.992,5.909,43.696,8.909,64.16,15.604.211.068.406,1.086.596,1.065-20.095,2.044-40.045,5.488-59.997,8.793-12.07,1.996-24.191,4.008-36.335,5.329-2.359.255-23.26,1.483-23.024,2.437-.196-.356-.395-.714-.588-1.071,2.846,2.442,12.661,1.51,16.662,1.162,5.905-.504,11.798-1.519,17.664-2.423,14.318-2.207,28.649-4.444,43.03-6.076,6.951-.791,13.95-1.526,20.903-1.774,6.648-.237,13.209.204,19.889-.329,9.924-.786,19.119-1.742,28.968-1.159,35.245,2.087,73.283,1.768,108.815,2.66,21.189.529,177.101-7.095,198.521-8.252,8.169-.443,16.423-1.024,24.563-2.332,1.28-.208,3.182-.06,3.197-1.146.021-1.219.037-2.435.056-3.654.034-2.183.07-4.367.102-6.55-.002.186.15.357.296.534.152.173.302.353.3.537-.047,2.666-.084,5.334-.129,8.002,0,.15.047,2.781-.04,2.795-1.617.3-3.241.573-4.868.805-3.717.528-7.442.949-11.176,1.268-9.419.814-156.27,11.706-165.649,11.892-22.256.451-44.394-.034-66.421-.851-20.175-.745-40.283-1.785-60.337-2.991-13.194-.792-27.008-2.581-40.479-1.921-4.656.234-9.262.965-13.911,1.338-5.933.468-11.694.224-17.573.328-11.693.204-23.547,1.65-35.23,3.21-11.991,1.605-23.947,3.474-35.909,5.301-5.797.887-11.659,1.913-17.487,2.047-3.062.071-10.763.703-12.954-1.166-3.616-3.105,8.109-2.578,9.903-2.666,12.833-.631,25.771-2.663,38.52-4.704,23.34-3.733,46.625-8.05,70.124-10.438.196.355.394.711.596,1.065-14.041-4.59-29.051-7.095-43.808-10.459-10.607-2.422-21.181-5.052-31.136-8.482-9.355-3.222-18.269-6.639-28.592-8.414-8.964-1.541-18.793-2.193-27.042-5.027-3.097-1.062-5.973-2.119-7.161-4.53-.824-1.686,5.274-.303,5.703-.184,4.752,1.33,9.518,2.44,14.601,3.177,5.167.742,10.175,1.543,15.042,2.878,1.063.29,3.673,1.051,3.01-.56.189.353.382.706.578,1.057-2.657-4.341-8.616-7.901-13.208-11.065-5.093-3.512-10.595-6.791-16.686-9.41-.119-.049-.58-1.074-.592-1.068,1.484-.651,3.825-2.353,5.238-1.653,2.728,1.356,5.484,2.687,8.274,3.971,4.412,2.034,9.254,3.699,13.566,5.814,3.491,1.711,6.076,3.961,8.717,6.317,5.704,5.09,12.443,7.466,20.798,9.839,7.768,2.206,15.55,4.38,23.425,6.411,14.705,3.794,30.54,5.434,44.582,10.238,16.686,5.713,36.692,5.086,55.429,5.672.2.358.4.715.597,1.071-10.712-4.178-19.993-10.658-29.411-16.087-14.143-8.154-38.827-19.355-37.657-24.858l.937,1.106h0Z"/>
        <path class="cls-1" d="M125.785,8.218c23.966,10.68,46.605,30.708,84.936,42.633,38.33,11.929,289.815-10.792,289.815-10.792l-.168,10.798c-2.886.539-6.09,1.005-9.562,1.411-.046-3.157-2.329-8.028-16.387-7.083-20.506,1.38-202.378,15.185-239.853,11.989-37.483-3.192-40.03-8.488-54.402-16.324-14.376-7.842-33.696-19.181-47.056-29.083l-7.324-3.549Z"/>
        <path class="cls-1" d="M14.558,2.389c8.824,3.814,11.242,6.757,17.137,8.665,5.9,1.909,11.53,6.472,14.479,10.752,2.94,4.283,20.62,7.632,32.061,11.269,11.443,3.634,22.574,5.181,36.135,7.526,13.565,2.345,18.836,6.731,30.331,8.456,11.489,1.727,18.509,2.266,29.585,1.209,11.078-1.058,18.693,1.288,16.449-.489-.779-.624-2.023-1.082-3.309-1.42.537.243,1.026.458,1.428.608-24.791-.787-41.085-.716-53.615-5.049-12.534-4.33-16.586-4.949-26.953-6.461-10.353-1.514-38.864-9.622-50.835-13.096-11.965-3.471-13.494-10.832-22.837-14.409C25.278,6.374,13.371.354,13.371.354l-1.599.705c.995.508,1.926.958,2.786,1.329Z"/>
        <path class="cls-4" d="M476.663,51.403c-18.101.519-129.976,8.222-107.816,6.105,22.001-2.104-36.117,1.385-66.281,1.955-30.316.571-50.678,1.911-78.755.889-25.805-.939-45.972-6.142-33.986-3.306,11.985,2.834-2.514.874-15.26-.41-12.746-1.288-24.642-1.286-37.198.959-12.552,2.248-20.969,1.216-44.857,5.035-23.886,3.821-33.709,4.442-48.27,6.533-8.116,1.169-12.968,1.444-13.465,2.135,2.956-.076,6.246-.324,9.694-.82,18.126-2.581,61.935-10.22,82.714-9.744,20.775.478,19.889-2.547,39.421-1.552,16.441.838,86.704,6.416,159.017,5.134,38.962-.689,143.202-9.631,163.266-11.437,2.05-.837,2.302-1.781-8.225-1.477h0Z"/>
        <path class="cls-4" d="M122.081,8.556c-.721-2.927,6.834,3.756,13.201,7.405,7.013,4.009,20.454,13.863,30.536,19.498,10.086,5.635,27.875,14.196,24.172,13.72-.477-.06-.947-.138-1.406-.223l.268.009c-8.857-3.337-50.371-28.543-60.325-34.182l-6.447-6.226Z"/>
      </g>
    </g>
  </g>
</svg>