<?xml version="1.0" encoding="UTF-8"?>
<svg id="Layer_2" data-name="Layer 2" xmlns="http://www.w3.org/2000/svg" viewBox="0 0 811.436 877.99">
  <defs>
    <style>
      .cls-1 {
        fill: #8b5d39;
      }

      .cls-2 {
        fill: #8c5830;
      }

      .cls-3 {
        fill: #d27a3d;
      }

      .cls-4 {
        fill: #531139;
      }

      .cls-5 {
        fill: #ba8b70;
      }

      .cls-6 {
        fill: #c6a491;
      }

      .cls-7 {
        fill: #f2975e;
      }

      .cls-8 {
        fill: #f4d1ba;
      }

      .cls-9 {
        fill: #fff8ee;
      }
    </style>
  </defs>
  <g id="Layer_1-2" data-name="Layer 1">
    <g>
      <g>
        <path class="cls-3" d="M717.548,294.456c37.819-3.05,71.764-30.876,84.777-66.517,13.013-35.641,5.792-77.3-16.182-108.231-21.975-30.931-57.551-51.117-95.022-57.081-57.165-9.099-118.819,15.918-152.228,63.189-33.409,47.27-36.106,114.726-5.279,163.719,20.215,32.129,53.135,56.343,66.311,91.943,9.766,26.387,6.905,57.14-7.562,81.273-14.467,24.133-40.243,41.149-68.636,46.244-.11,9.228-.22,18.457-.33,27.685,62.969,14.545,133.336-10.441,173.031-61.441s46.642-125.348,21.121-180.783Z"/>
        <path class="cls-7" d="M321.959,200.724c1.417-19.627-7.125-39.719-22.242-52.317-6.807-5.673-14.887-9.956-20.518-16.797-6.724-8.17-9.125-18.928-12.294-29.024-3.17-10.095-7.924-20.627-17.184-25.747,4.352-25.353-4.223-49.761-20.672-66.891-2.518-2.623-6.255-5.259-9.483-3.586-2.374,1.23-3.142,4.194-3.664,6.817-2.962,14.869-5.924,29.739-8.885,44.608-31.899-7.95-64.121-1.582-89.539,15.342-10.088-15.826-17.69-31.926-23.006-48.751-9.394,12.111-13.514,27.646-14.292,42.954-.778,15.307,1.552,30.583,3.325,46.672,1.016,23.629-2.914,47.459-11.465,69.511-4.785,12.34-11.104,24.627-11.013,37.862.108,15.557,9.338,29.933,21.333,39.839,11.996,9.906,26.59,16.038,41.012,21.87,20.362,8.234,40.853,16.15,61.462,25.127-11.515,29.752-14.935,62.593-8.634,94.26-19.479,9.685-36.991,23.305-54.794,40.587-21.83,16.95-33.317,44.671-35.853,72.193-2.536,27.522,2.936,55.137,9.74,81.924,6.803,26.788,14.996,53.375,18.065,80.842.724,6.481,1.15,13.124-.417,19.454-1.567,6.33-5.416,12.382-11.306,15.183-5.807,2.761-12.795,1.999-18.702-.541-5.907-2.54-10.956-6.684-15.918-10.773-9.745-8.032-19.489-16.064-29.234-24.096-7.192-5.928-16.711-12.198-25.093-8.121-6.697,3.258-9.017,12.236-6.787,19.342,2.23,7.106,7.892,12.585,13.819,17.095,23.591,17.95,53.449,25.033,82.339,31.673,7.197,1.654,14.829,3.294,21.84.974,13.254-4.387,18.184-20.204,21.214-33.833,5.057-22.747,10.285-46.02,22.742-65.712,12.457-19.693,33.812-35.426,56.176-35.368,1.408,41.742,17.721,82.828,45.33,114.167,27.609,31.339,66.312,52.7,107.543,59.358,7.966,1.286,16.264,2.123,23.269,6.129,7.005,4.006,12.357,12.318,10.027,20.044-2.236,7.415-10.188,11.265-17.332,14.256-20.244,8.476-40.489,16.952-60.733,25.428-6.013,2.517-12.26,5.203-16.472,10.178-4.212,4.975-5.63,12.97-1.367,17.901,5.024,5.812,14.251,4.379,21.641,2.283,33.439-9.486,65.912-22.371,96.759-38.39,16.597-8.619,33.62-19.073,41.87-35.857,13.463-27.387-1.084-59.612-2.207-90.108-1.932-52.437,36.094-97.724,46.897-149.072,6.376-30.308,3.026-61.858-3.178-92.202-22.415-109.628-71.24-213.003-194.118-266.686Z"/>
        <path class="cls-4" d="M154.963,410.127c-5.41-11.04-7.88-23.504-7.089-35.773.08-1.244.207-2.532.836-3.609.628-1.077,1.899-1.878,3.108-1.577,1.382.345,2.069,1.859,2.566,3.194,4.014,10.796,8.028,21.592,12.042,32.389-3.086,1.331-5.854,3.394-11.463,5.376Z"/>
        <path class="cls-8" d="M78.438,257.153c20.013,1.209,40.385-7.564,53.258-22.936,4.451-5.315,8.489-11.686,15.057-13.907,6.6-2.232,13.724.422,20.655,1.128s15.672-2.217,18.022-8.764c38.594,16.624,82.279,21.194,123.478,12.918-6.444,17.958-25.454,27.792-37.316,42.736-14.549,18.328-17.475,43.544-14.627,66.77,2.848,23.226,10.795,45.49,15.826,68.343,5.031,22.853,9.545,57.631-3.441,78.117-3.639-19.754-17.141-48.284-32.815-60.845,5.842-6.077,6.75-16.297,2.07-23.308-4.68-7.011-9.362-10.093-19.271-8.207-1.445-10.595,1.655-19.723,8.475-27.958,6.82-8.236,12.958-19.917,7.408-29.057-3.105-5.114-9.217-7.238-14.533-9.983-49.389-25.5-97.317-30.361-142.246-65.046Z"/>
        <path class="cls-8" d="M356.079,392.924c7.537,34.826,2.385,72.255-14.279,103.75-16.665,31.495-44.712,56.809-77.745,70.169-9.349,3.781-19.291,6.758-27.113,13.124-7.821,6.367-13.008,17.418-12.559,27.209-11.577-3.212-24.175-2.623-35.401,1.656-3.093-20.631-3.607-41.647-5.883-63.286,10.258,7.353,24.204,7.985,36.294,4.362,12.09-3.624,22.673-11.009,32.62-18.779,41.988-32.795,76.837-74.684,104.067-138.205Z"/>
        <path class="cls-8" d="M632.429,244.723c58.467,78.279,92.573,206.691-19.565,287.42,47.236-13.703,87.592-49.393,106.969-94.599,19.377-45.206,17.394-99.043-5.255-142.701-29.089-1.427-57.177-16.843-82.149-50.12Z"/>
        <path class="cls-1" d="M134.083,481.966c-9.024-1.032-15.387-10.416-15.587-19.497s4.39-17.611,9.95-24.794c15.512-20.04,38.778-32.606,62.467-41.609,10.885-4.137,22.736-7.682,34.028-4.839,11.291,2.843,21.115,14.445,17.948,25.65-42.738,2.864-83.517,27.06-108.805,65.089Z"/>
        <path class="cls-6" d="M138.865,480.17c18.513-34.218,54.207-58.559,97.086-63.599,10.094,5.909,17.605,15.527,22.87,25.971s8.479,21.779,12.088,35.181c-6.233,18.303-20.025,33.903-37.426,42.332-2.629,1.273-5.414,2.446-7.397,4.59s-2.904,5.615-1.226,8.005c1.887,2.688,5.822,2.697,9.067,2.19,16.061-2.51,31.11-11.033,41.523-23.517-.159,13.531-1.424,27.049-3.777,40.374-.56,3.173-1.318,6.581-3.748,8.697-3.193,2.781-7.986,2.307-12.165,1.627-15.272-2.484-30.448-5.553-45.485-9.198-12.814-3.106-25.836-6.774-36.525-14.493-17.482-12.624-26.036-33.925-34.885-58.16Z"/>
        <path class="cls-9" d="M138.196,185.073c1.206-6.914,2.286-14.117.351-20.863-1.936-6.746-7.757-12.898-14.775-12.899-4.604,0-8.917,2.633-11.86,6.174-2.943,3.541-4.69,7.914-6.075,12.305-2.134,6.765-3.509,14.102-1.516,20.909,1.993,6.807,8.207,12.792,15.293,12.478,6.805-.302,16.208-4.492,18.582-18.104Z"/>
        <path class="cls-9" d="M237.718,159.17c-2.389-5.794-5.405-12.205-11.325-14.262-5.701-1.981-12.231,1.128-15.815,5.985-3.584,4.857-4.77,11.061-5.272,17.076-.457,5.466-.4,11.138,1.689,16.21,2.088,5.072,6.58,9.447,12.031,10.052,5.155.572,10.194-2.279,13.671-6.128,5.647-6.25,10.316-16.095,5.022-28.933Z"/>
        <path class="cls-4" d="M132.635,158.479c-7.474,2.819-12.987,10.233-13.535,18.202-.548,7.969,3.898,16.068,10.915,19.883,8.82-10.728,11.136-26.413,2.619-38.085Z"/>
        <path class="cls-4" d="M230.256,150.98c-6.306,4.008-10.209,11.526-9.86,18.99.35,7.463,4.939,14.584,11.592,17.984,4.713-5.476,7.45-12.618,7.603-19.841.153-7.223-2.278-14.475-9.336-17.132Z"/>
        <path class="cls-4" d="M185.381,431.431c-5.678-3.39-11.642-6.304-17.786-8.761,1.032-4.043,2.137-8.067,3.383-12.047.46-1.286,1.117-2.775.317-4.061-1.974-2.958-5.494-.788-5.626,2.257-1.09,3.964-2.137,7.952-3.138,11.954-1.724-.598-3.445-1.206-5.196-1.72-3.414-.601-7.161-2.802-10.565-1.841-2.057,1.12-1.632,4.461.655,5.015,4.922.964,9.485,2.233,13.871,3.761-1.571,6.701-2.893,13.449-3.882,20.24-2.51-1.051-5.053-2.035-7.598-2.978-2.369-.835-4.772-1.57-7.177-2.293.244-2.708.564-5.336.992-7.767.134-2.013,1.271-4.14.678-6.112-.756-2.132-4.118-1.902-4.634.295-.937,4.015-1.601,8.087-2.052,12.183-2.013-.534-4.021-1.09-6.053-1.545-1.039-.289-2.299.075-2.906.991-1.248,1.426-.388,3.9,1.436,4.341,2.367.526,4.718,1.115,7.058,1.75-.329,5.655-.216,11.333.307,16.975-.222-.083-.45-.159-.666-.248-5.668-1.666-11.518-3.283-17.397-3.765-.725.038-1.445.461-1.845,1.064-1.277,1.459-.396,3.99,1.469,4.441,6.519.938,12.942,2.506,19.175,4.634.155,1.059.293,2.122.477,3.176.814,3.114,5.557,1.888,4.96-1.129.864.337,1.735.615,2.64.618,1.92-.137,3.018-2.517,2.028-4.127-1.524-1.399-3.482-2.243-5.532-2.936-.576-5.489-.755-11.435-.515-17.214,4.785,1.469,9.509,3.134,14.149,5.011.08.025.159.061.238.09-.03.265-.083.527-.112.792.21,2.733,4.439,3.019,5.071.346.033-.22.075-.439.108-.659.071-.048.137-.072.21-.127.696-.682.938-1.837.514-2.718-.041-.125-.14-.216-.204-.328,1.126-7.08,2.483-14.125,4.112-21.109,5.897,2.392,11.573,5.275,17.473,8.576,3.22.736,4.349-3.594,1.563-5.025Z"/>
        <path class="cls-4" d="M239.14,414.508c-3.52-3.248-7.275-6.281-11.185-9.114,1.197-2.885,2.735-5.604,4.156-8.379.69-1.129.271-2.731-.885-3.375-2.373-1.515-5.369,3.033-7.857,8.582-6.441-4.247-13.259-7.929-20.284-10.905-.284-.055-.543-.031-.797.002-.671-.23-1.429-.2-2.064.242-1.348.78-1.796,2.43-2.527,3.714-1.695,3.433-3.191,6.96-4.592,10.525-3.903-1.915-7.855-3.728-11.884-5.361-2.269-.691-5.351-3.122-7.255-.617-1.305,1.493-.406,4.079,1.502,4.542,4.897,1.855,10.191,4.183,15.57,6.887-1.899,5.541-3.426,11.207-4.53,16.961-.267.96.069,2.121.915,2.683,1.317,1.151,3.6.359,4.007-1.326.98-5.818,2.486-10.939,4.25-15.835,3.919,2.115,7.837,4.35,11.636,6.806,2.264,1.894,6.585,3.653,7.118-.685-.064-2.371-2.566-3.361-4.251-4.529-4.02-2.558-8.161-4.918-12.374-7.141,1.51-3.718,3.12-7.415,4.746-11.261,6.846,3.218,12.984,6.812,18.64,10.699-1.57,4.356-2.632,8.375-2.663,9.784.224,2.922,4.73,3.208,5.403.369.378-1.901,1.142-4.459,1.926-6.799,2.937,2.209,5.758,4.492,8.461,6.862,2.734,3.269,7.587.178,4.819-3.33Z"/>
        <path class="cls-5" d="M232.837,437.404c-3.988-4.922-7.357-10.734-11.973-14.985-2.717-1.328-5.308,2.549-3.102,4.603,6.667,8.035,12.208,16.206,19.084,24.892,1.527,1.346,4.106.02,4.047-1.979-1.652-4.591-5.429-8.395-8.057-12.53Z"/>
        <path class="cls-5" d="M248.688,465.947c-1.766-3.123-6.645-.283-4.793,2.802,3.529,6.589,5.682,11.57,8.018,18.478,1.126,2.325.871,6.062,3.633,7.111,9.367,1.886-5.2-24.802-6.857-28.391Z"/>
        <path class="cls-5" d="M270.772,535.626c-.898-3.714-1.132-9.943-3.792-12.616-1.989-1.249-4.68.812-3.984,3.062,2.952,8.837,2.693,14.604,3.511,23.823.591,1.675,2.966,2.09,4.172.828,2.147-4.346.418-10.367.093-15.097Z"/>
        <path class="cls-5" d="M234.666,493.185c-10.618-20.336-22.852-39.837-36.389-58.356-1.74-3.084-6.602-.292-4.756,2.78,14.208,18.731,26.119,39.112,37.929,59.315,2.493,1.791,4.952-1.419,3.216-3.74Z"/>
        <path class="cls-5" d="M264.874,561.538c-3.106-7.774-6.851-15.298-11.164-22.475-.378-.648-1.011-1.135-1.735-1.334-2.402-.745-4.618,2.129-3.278,4.265,3.941,6.626,6.512,12.156,8.925,18.015-9.042-3.519-24.596-12.791-33.207-22.603-4.306-4.393-6.515-7.874-10.106-12.497-2.116-1.832-5.382,1.031-3.875,3.402,10.996,17.006,27.314,30.62,46.187,38.032,2.503.648,3.44,1.707,5.768.066.169-.163.301-.344.416-.531,1.599-.404,2.849-2.11,2.069-4.34Z"/>
        <path class="cls-5" d="M172.518,494.024c-3.334-4.093-4.522-5.337-6.898-8.676-5.151-7.063-7.16-12.629-9.953-19.197-2.047-2.985-7.037-.476-5.954,2.966,3.44,9.95,8.776,19.336,16.082,26.957,1.377,1.177,2.629,3.045,4.588,3.105,2.598.087,4.034-3.375,2.135-5.156Z"/>
        <path class="cls-5" d="M205.249,498.268c-9.819-10.26-17.713-25.77-25.795-39.924-1.869-3.481-3.685-6.99-5.449-10.525-.391-.669-1.04-1.167-1.786-1.373-2.468-.76-4.757,2.187-3.375,4.39,4.531,8.44,28.353,57.175,37.542,53.638,2.798-1.807.895-4.702-1.138-6.205Z"/>
        <path class="cls-9" d="M189.017,523.468c.67.453-5.37-3.733-8.199-7.481-.197-.277-1.385-1.887-1.681-2.435-.967-1.277-1.325-3.069-2.665-4.016-3.294-2.852-8.32,1.607-6,5.268,2.145,5.392,16.147,22.451,21.637,14.556,1.139-2.471-1.241-4.599-3.092-5.891Z"/>
        <path class="cls-9" d="M205.843,534.461c-1.913-1.674-4.35-4.073-7.016-2.426-2.58,1.401-2.585,5.446,0,6.85,1.901,1.203,3.904,3.274,6.338,2.634,3.361-.945,3.39-5.294.677-7.058Z"/>
        <path class="cls-4" d="M274.45,661.112c-2.788-4.623-2.604-4.256-3.931-8.732-.963-2.683-.811-8.326-.552-9.26.358-1.459.544-3.048-.302-4.383-1.863-3.444-7.455-2.719-8.377,1.095-1.917,9.265.379,19.463,6.658,26.631,1.597,1.863,3.877,4.361,6.547,3.022,5.158-2.565.755-7.338-.044-8.373Z"/>
        <path class="cls-4" d="M115.518,510.692c-.95-3.949-6.747-4.712-8.688-1.136-3.879,8.197-4.711,17.917-1.806,26.549.803,2.975,3.193,6.916,6.775,5.277,2.762-.992,2.79-4.186,2.044-6.569-1.324-6.267-.818-2.439-1.167-8.919-.145-4.159,1.475-9.735,2.363-11.54.641-1.092.816-2.441.479-3.662Z"/>
        <path class="cls-4" d="M332.798,393.275c-2.298-2.461-6.792-.603-6.681,2.767-.124,4.241-.124,5.035-1.964,10.128-.512,1.738.457,3.861,2.192,4.466,5.004,1.876,6.199-5.086,7.075-8.56.231-2.84,1.506-6.442-.622-8.802Z"/>
        <path class="cls-4" d="M211.012,299.751c-2.064-.951-4.515-2.89-6.798-1.587-2.551,1.38-2.011,5.517.81,6.2,2.159.748,2.014.701,5.036,2.372,1.646,1.251,4.354,1.23,5.168-.955,1.215-2.845-2.215-4.736-4.217-6.03Z"/>
        <path class="cls-4" d="M227.095,300.315c-1.572-1.899-3.761-4.529-6.509-3.809-3.086.742-3.677,5.267-.887,6.783.684.488,1.411,1.146,2.163,2.273,1.252,2.039,2.638,4.909,5.536,3.62,3.68-1.616,1.548-6.549-.303-8.867Z"/>
        <path class="cls-8" d="M92.768,98.157c-1.335-10.117-1.862-20.34-1.574-30.54.031-1.11.081-2.258.57-3.256.488-.998,1.538-1.808,2.639-1.663,1.378.182,2.15,1.641,2.695,2.919,2.51,5.881,5.019,11.762,7.529,17.642-4.535,4.448-8.161,9.82-11.859,14.897Z"/>
        <path class="cls-8" d="M222.105,61.83c1.612-7.489,3.224-14.978,4.835-22.467.191-.886.444-1.866,1.211-2.348,1.632-1.027,3.431,1.062,4.174,2.841,3.785,9.066,5.634,18.935,5.386,28.757-5.941-1.619-11.882-3.238-15.606-6.782Z"/>
        <path class="cls-2" d="M627.038,421.754c-2.846.965-3.821,4.218-4.662,6.812-2.002,7.15-3.226,7.924-5.562,14.387-.969,4.954,6.401,7.452,8.773,3.031,2.148-5.077,12.883-24.813,1.45-24.23Z"/>
        <path class="cls-2" d="M632.345,401.182c-.977-3.155-1.517-6.673-3.159-9.528-2.686-3.916-9.21-.617-7.796,3.884,1.854,4.425,3.257,16.859,10.357,12.052,1.753-1.683,1.052-4.311.597-6.408Z"/>
        <path class="cls-2" d="M620.301,365.773c-1.358-1.994-2.36-4.765-4.875-5.487-3.662-1.14-7.036,3.248-4.996,6.498,4.858,7.486,3.539,6.441,6.408,13.079.922,3.576,6.201,4.295,7.576.697,1.228-5.095-1.874-10.344-4.112-14.787Z"/>
        <path class="cls-2" d="M648.055,378.742c-1.955-3.491-4.427-8.505-8.806-9.012-3.899-.133-6.049,5.065-3.204,7.734,2.785,1.892,5.439,8.419,4.574,6.57,1.161,2.844,1.582,7.732,5.787,7.038,5.653-1.07,3.267-8.696,1.649-12.329Z"/>
        <path class="cls-2" d="M653.315,410.311c-1.688-4.746-9.282-3.169-9.097,1.831.502,4.116-1.626,10.881,3.007,13.016,4.112,1.758,6.815-2.405,6.461-6.15-.167-2.859.548-5.968-.371-8.698Z"/>
        <path class="cls-2" d="M539.773,177.495c-1.809-3.341-7.23-2.636-8.124,1.062-.823,4.943-1.931,9.874-2.052,14.899-.04,4.461,6.53,5.356,7.687,1.04,1.514-4.391,2.08-9.027,2.938-13.575.316-1.142.151-2.404-.448-3.425Z"/>
        <path class="cls-2" d="M539.249,216.807c-.018-.108-.03-.181-.044-.266-.255-1.816.306-3.758-.451-5.444-1.615-4.543-8.888-3.036-8.711,1.754-.332,5.931,1.259,13.294,6.572,16.651,2.416,1.191,5.419-.889,5.362-3.538-.552-3.526-1.564-3.047-2.728-9.157Z"/>
        <path class="cls-2" d="M557.982,202.125c-1.688-4.746-9.282-3.169-9.097,1.831.365,3.966-1.235,9.309,2.012,12.299,1.715,1.507,4.787,1.109,6.066-.782,1.488-1.942,1.158-4.677,1.354-6.995-.131-2.09.508-4.387-.335-6.353Z"/>
        <path class="cls-2" d="M670.677,77.395c-4.783-.785-9.713-.349-14.393.841-1.601.366-3.242,1.025-4.066,2.54-2.19,3.478,1.423,8.185,5.356,6.967,5.406-1.519,6.606-1.624,13.288-1.016,1.38.307,7.184,1.398,8.447.342,6.049-5.134-4.18-9.375-8.632-9.675Z"/>
        <path class="cls-2" d="M708.177,90.241c-.59-1.471-2.099-2.423-3.392-3.246-3.174-1.541-7.149-3.358-10.676-2.319-4.3,1.53-2.872,8.41,1.659,8.243.848-.228,5.782,1.909,8.94,2.582,2.584.095,4.633-2.923,3.469-5.259Z"/>
        <path class="cls-2" d="M731.193,97.954c-2.461-1.689-5.517-3.477-8.575-3.298-4.71.356-5.156,7.614-.594,8.693,3.531,1.078,5.007,1.98,8.15,4.88,2.269,2.409,6.618.597,6.535-2.707-.392-3.162-3.129-5.677-5.516-7.568Z"/>
        <path class="cls-2" d="M693.463,105.76c-.282-3.43-4.253-3.843-6.909-4.572-3.567-.609-7.175-1.983-10.78-1.956-5.012.378-5.488,8.104-.632,9.252,4.159.709,8.315,1.507,12.519,1.901,2.943.847,6.393-1.371,5.801-4.625Z"/>
        <path class="cls-8" d="M495.075,506.086c-.763-6.418-2.17-12.726-3.492-19.046-.309-1.135-1.078-2.127-2.091-2.72-3.337-2.102-7.855,1.367-6.686,5.14,1.316,6.3,2.545,12.626,4.414,18.792,1.436,5.119,9.228,2.969,7.854-2.166Z"/>
        <path class="cls-8" d="M495.023,529.908c-2.867-4.175-9.825-.66-8.317,4.144,1.05,4.704.415,10.981-.908,18.024-.393,3.161,2.665,6.216,5.779,4.76,6.094-3.243,6.313-21.424,3.447-26.927Z"/>
        <path class="cls-8" d="M471.6,518.931c-.478-2.048-.561-4.635-2.604-5.784-2.924-1.842-6.882,1.198-5.858,4.503,1.345,5.571,1.302,6.315,1.516,12.439-.006.967.395,1.92,1.078,2.602,1.62,1.699,4.624,1.284,5.779-.745,1.413-4.12.72-8.776.09-13.015Z"/>
        <path class="cls-8" d="M485.861,580.318c-1.934-3.574-7.731-2.819-8.688,1.135-.871,3.608-1.837,7.194-2.62,10.822-1.368,4.447,4.582,7.893,7.785,4.531,1.776-2.01,1.806-4.969,2.627-7.433.467-2.952,2.51-6.184.896-9.056Z"/>
        <path class="cls-8" d="M461.59,557.081c-2.248-2.407-6.644-.59-6.535,2.707-.392,4.05-1.014,8.082-1.18,12.149-.097,3.16,4.072,4.875,6.245,2.587,1.84-2.341,1.328-5.769,1.894-8.577-.022-2.892,1.796-6.468-.423-8.866Z"/>
      </g>
      <g>
        <path class="cls-4" d="M218.311,392.713c-.137,0-.273-.008-.41-.02-2.197-.226-3.793-2.185-3.57-4.382,1.182-11.562,7.004-21.524,12.14-30.316,6.907-11.816,9.295-17.006,5.038-20.814-18.641-16.666-47.392-27.038-75.195-37.071-26.816-9.673-54.541-19.675-73.9-35.506-14.118-11.547-22.726-25.696-24.233-39.841-1.491-14.013,3.645-27.046,8.612-39.654,2.415-6.13,4.913-12.467,6.536-18.715,1.861-7.184,2.665-14.501,3.516-22.25.819-7.453,1.666-15.16,3.547-22.672,7.149-28.591,29.711-53.308,58.88-64.507,27.05-10.38,59.044-9.295,87.76,3.009,18.317,7.84,32.177,19.128,40.083,32.646,3.266,5.58,5.584,11.605,7.824,17.427,2.888,7.492,5.611,14.571,10.13,20.541,4.109,5.424,9.525,9.697,15.258,14.224,5.705,4.503,11.605,9.162,16.272,15.144,11.699,15,13.95,37.211,5.732,56.593-6.977,16.444-21.134,30.913-39.873,40.747-1.959,1.018-4.371.269-5.397-1.682-1.026-1.955-.273-4.37,1.682-5.397,17.107-8.975,29.973-22.04,36.228-36.79,7.106-16.748,5.268-35.81-4.671-48.555-4.078-5.225-9.346-9.385-14.926-13.786-5.877-4.64-11.952-9.435-16.674-15.675-5.202-6.868-8.261-14.813-11.219-22.492-2.224-5.783-4.328-11.242-7.266-16.264-8.889-15.199-24.662-24.342-36.329-29.337-26.816-11.484-56.613-12.546-81.751-2.892-26.777,10.278-47.466,32.88-53.995,58.982-1.744,6.989-2.525,14.091-3.352,21.606-.843,7.691-1.717,15.644-3.727,23.386-1.744,6.72-4.331,13.287-6.837,19.64-4.823,12.249-9.385,23.815-8.101,35.877,1.284,12.042,8.866,24.295,21.345,34.499,18.301,14.969,45.371,24.736,71.555,34.179,28.521,10.29,58.014,20.928,77.814,38.632,9.545,8.534,2.931,19.854-3.469,30.804-4.726,8.089-10.083,17.256-11.086,27.093-.211,2.056-1.947,3.59-3.972,3.59Z"/>
        <path class="cls-4" d="M247.109,272.724c-1.288,0-2.552-.62-3.321-1.772-1.229-1.83-.741-4.316,1.093-5.541,1.303-.878,2.22-2.454,2.337-4.015.164-2.205,2.076-3.879,4.277-3.692,2.201.16,3.855,2.076,3.691,4.277-.296,4.043-2.486,7.808-5.857,10.064-.683.46-1.456.679-2.22.679Z"/>
        <path class="cls-4" d="M264.17,264.518c-1.1,0-2.197-.453-2.985-1.338-1.467-1.651-1.319-4.175.328-5.643,1.779-1.58,2.806-4.039,2.681-6.419-.113-2.201,1.58-4.082,3.785-4.199,2.17-.195,4.082,1.577,4.199,3.785.25,4.811-1.748,9.599-5.35,12.803-.765.679-1.713,1.011-2.657,1.011Z"/>
        <path class="cls-4" d="M85.051,118.76c-1.553,0-3.036-.913-3.68-2.439-11.894-28.076-8.565-67.535,7.742-91.78.683-1.003,2.681-4.082,6.419-3.894,1.904.094,5.264,1.12,6.47,6.946,3.126,15.137,8.905,29.438,17.181,42.507,1.182,1.865.628,4.331-1.237,5.514-1.865,1.19-4.331.628-5.514-1.237-8.487-13.404-14.508-28.029-17.903-43.494-13.868,22.309-16.428,57.23-5.799,82.324.859,2.029-.09,4.374-2.123,5.237-.507.215-1.034.316-1.557.316Z"/>
        <path class="cls-4" d="M250.664,81.318c-.367,0-.741-.051-1.112-.156-2.119-.617-3.34-2.833-2.728-4.952,2.95-10.185,1.854-22.457-3.087-34.562-4.811-11.785-12.561-22.336-19.449-31.299-1.502-1.955-2.271-2.291-2.431-2.345.031.086-.546.753-1.042,3.309l-8.655,44.801c-.414,2.17-2.517,3.602-4.679,3.165-2.17-.417-3.586-2.513-3.165-4.679l8.655-44.801c.402-2.08,1.623-8.405,7.285-9.619,5.416-1.171,9.139,3.699,10.368,5.299,7.203,9.377,15.324,20.448,20.51,33.149,3.976,9.736,7.785,24.545,3.368,39.806-.507,1.748-2.103,2.884-3.84,2.884Z"/>
        <path class="cls-4" d="M167.809,225.555c-5.494,0-10.989-1.896-15.258-5.365-1.713-1.393-1.971-3.91-.581-5.623,1.397-1.709,3.914-1.975,5.623-.578,3.528,2.868,8.316,4.109,12.787,3.364,4.48-.765,8.573-3.532,10.957-7.402,1.151-1.885,3.617-2.474,5.494-1.311,1.881,1.155,2.47,3.617,1.311,5.494-3.57,5.806-9.709,9.954-16.421,11.094-1.292.222-2.603.328-3.914.328Z"/>
        <path class="cls-4" d="M188.35,257.596c-.476,0-.956-.086-1.428-.265-13.701-5.237-23.113-19.671-22.383-34.32.113-2.205,1.978-3.945,4.191-3.793,2.205.109,3.902,1.986,3.793,4.191-.554,11.11,6.864,22.484,17.255,26.461,2.06.788,3.091,3.094,2.302,5.159-.605,1.592-2.123,2.568-3.731,2.568Z"/>
        <path class="cls-4" d="M166.907,259.875c-.741,0-1.491-.207-2.162-.636-1.853-1.198-2.388-3.668-1.194-5.525,2.973-4.609,4.343-10.38,3.762-15.831-.234-2.197,1.354-4.164,3.547-4.398,2.224-.215,4.167,1.354,4.398,3.547.784,7.34-.987,14.805-4.987,21.013-.765,1.182-2.052,1.83-3.364,1.83Z"/>
        <path class="cls-4" d="M328.825,877.99c-7.59,0-13.275-2.817-16.358-8.347-4.487-8.046-.378-17.95,5.764-23.183,5.451-4.648,12.116-6.688,18.563-8.659l1.338-.414c22.258-6.864,43.513-16.674,63.18-29.161,4.171-2.646,8.117-5.619,8.745-9.396,1.495-9.03-15.734-13.139-19.203-13.872-37.765-7.98-90.652-26.231-128.132-67.859-35.576-39.521-48.621-93.789-33.243-138.259.722-2.084,2.997-3.184,5.085-2.47,2.084.722,3.192,2.997,2.47,5.084-14.446,41.757-2.029,92.903,31.627,130.298,36.041,40.029,87.241,57.651,123.848,65.385,17.689,3.734,27.198,12.335,25.431,22.999-1.143,6.895-6.883,11.371-12.343,14.836-20.268,12.87-42.175,22.98-65.108,30.055l-1.358.414c-5.927,1.815-11.527,3.528-15.718,7.098-3.773,3.219-6.29,9.041-3.969,13.209,4.308,7.726,19.082,2.872,23.503,1.198l60.765-22.949c27.784-10.489,55.891-22.769,67.668-47.138,9.677-20.026,6.115-42.401,2.341-66.092-2.669-16.744-5.428-34.058-3.297-50.931,2.751-21.802,13.423-41.172,23.749-59.906,6.517-11.824,13.256-24.053,17.837-36.657,15.663-43.135,6.493-91.982-3.251-129.717-15.511-60.09-36.158-108.493-63.114-147.971-22.871-33.493-62.646-78.06-122.26-100.181-2.068-.769-3.126-3.067-2.357-5.135.769-2.068,3.071-3.133,5.135-2.357,61.588,22.855,102.558,68.718,126.084,103.17,27.487,40.255,48.504,89.477,64.25,150.476,10.029,38.854,19.437,89.247,3.02,134.446-4.788,13.185-11.679,25.692-18.344,37.785-10.419,18.906-20.264,36.763-22.82,57.046-1.986,15.745.679,32.486,3.258,48.676,3.801,23.862,7.734,48.543-3.036,70.829-13.057,27.015-42.749,40.076-72.038,51.134l-60.765,22.949c-6.322,2.388-12.034,3.567-16.947,3.567Z"/>
        <path class="cls-4" d="M229.534,540.528c-1.787,0-3.664-.398-5.428-1.545-2.033-1.323-3.442-3.45-3.961-5.986-.632-3.055.051-6.462,1.818-9.115,2.31-3.469,5.775-5.486,8.834-7.27l.8-.468c28.666-16.861,46.46-50.494,44.274-83.682-.983-14.938-5.744-29.735-10.349-44.044-1.651-5.12-3.297-10.236-4.788-15.379-4.858-16.74-10.259-41.562-1.12-63.758.843-2.037,3.176-2.997,5.217-2.173,2.041.843,3.013,3.176,2.174,5.217-6.232,15.129-5.787,33.711,1.401,58.486,1.475,5.069,3.098,10.114,4.722,15.16,4.753,14.77,9.67,30.043,10.719,45.968,2.376,36.126-16.99,72.737-48.2,91.097l-.831.484c-2.529,1.475-4.921,2.864-6.201,4.792-.585.878-.843,2.111-.644,3.075.09.445.257.745.492.901.788.511,2.548.222,5.217-.866,26.266-10.669,50.873-29.348,71.16-54.022,17.54-21.325,32.513-47.872,44.508-78.906,14.684-37.984,18.602-68.109,12.319-94.796-.503-2.15.827-4.3,2.974-4.807,2.135-.488,4.3.827,4.807,2.974,6.665,28.334,2.646,59.953-12.647,99.51-12.304,31.834-27.709,59.118-45.788,81.099-21.13,25.7-46.83,45.184-74.325,56.356-1.471.597-4.187,1.701-7.157,1.701Z"/>
        <path class="cls-4" d="M173.537,406.406c-1.994,0-3.719-1.487-3.965-3.516-3.824-31.655.137-64.14,11.465-93.953.784-2.064,3.087-3.102,5.155-2.314,2.06.784,3.098,3.091,2.314,5.155-10.868,28.603-14.668,59.778-10.996,90.152.261,2.193-1.299,4.183-3.489,4.449-.164.02-.324.027-.484.027Z"/>
        <path class="cls-4" d="M135.51,486.233c-4.378,0-8.702-1.686-12.37-4.862-5.206-4.511-8.503-11.539-8.604-18.348-.18-12.292,7.356-22.765,13.041-29.575,19.047-22.82,45.453-39.221,74.352-46.182,9.022-2.166,22.274-4.292,33.223,2.275,6.033,3.621,10.376,10.637,11.063,17.872.562,5.927-1.342,11.172-5.362,14.77-1.651,1.475-4.175,1.335-5.643-.312-1.471-1.647-1.331-4.171.312-5.642,2.669-2.388,2.962-5.701,2.735-8.062-.449-4.718-3.348-9.451-7.219-11.773-6.423-3.855-15.078-4.285-27.237-1.354-27.245,6.56-52.133,22.02-70.091,43.529-7.738,9.272-11.293,17.002-11.184,24.338.066,4.53,2.361,9.404,5.845,12.421,1.795,1.557,4.679,3.317,8.3,2.837,2.181-.265,4.191,1.264,4.476,3.453.281,2.189-1.264,4.191-3.453,4.476-.726.094-1.459.14-2.185.14Z"/>
        <path class="cls-4" d="M259.881,568.597c-3.27,0-6.361-.741-8.624-1.28l-35.034-8.394c-12.951-3.106-27.628-6.626-39.955-14.454-22.317-14.173-33.68-39.713-41.851-62.825-.402-1.128-.273-2.372.343-3.395,21.618-35.803,61.175-60.987,100.782-64.168.983-.07,1.971.211,2.755.816,20.127,15.468,33.25,39.822,35.1,65.143.164,2.201-1.491,4.117-3.691,4.277-2.236.199-4.117-1.491-4.277-3.691-1.651-22.574-13.127-44.302-30.788-58.443-36.017,3.446-71.812,26.234-92.053,58.591,7.668,21.337,18.254,44.434,37.964,56.952,11.199,7.11,24.588,10.321,37.535,13.424l35.03,8.394c3.996.956,8.109,1.748,10.758.141,2.611-1.588,3.785-5.572,4.515-8.87,2.365-10.649,3.001-21.544,1.896-32.377-.222-2.197,1.378-4.156,3.57-4.382,2.224-.156,4.16,1.378,4.382,3.571,1.19,11.687.499,23.433-2.045,34.921-1.077,4.843-2.977,10.809-8.167,13.966-2.583,1.569-5.428,2.084-8.148,2.084Z"/>
        <path class="cls-4" d="M155.361,414.136c-1.475,0-2.896-.82-3.59-2.232-5.795-11.792-8.776-25.196-8.616-38.76.012-1.057.445-2.068,1.198-2.806,1.108-1.085,2.486-2.435,4.394-3.309,2.685-1.221,5.725-1.042,7.914.507,2.806,1.986,3.274,5.264,3.555,7.219,1.37,9.689,4.878,19.164,10.146,27.409,1.186,1.857.644,4.328-1.218,5.518-1.85,1.186-4.331.644-5.518-1.217-5.877-9.201-9.794-19.776-11.324-30.582-.055-.375-.148-1.03-.265-1.506-.316.16-.613.355-.894.577.113,11.726,2.798,23.249,7.8,33.422.972,1.982.156,4.374-1.822,5.35-.57.277-1.171.41-1.76.41Z"/>
        <path class="cls-4" d="M115.309,744.07c-5.701,0-11.613-1.229-17.626-2.657-28.751-6.844-64.534-15.363-88.119-40.165-7.406-7.797-13.525-20.264-6.396-29.758,4.831-6.431,13.619-7.578,20.182-5.865,6.54,1.709,11.878,5.76,16.584,9.334l32.657,24.779c8.366,6.349,20.568,14.231,29.887,9.268,10.189-5.424,9.092-21.716,7.531-30.941-3.095-18.305-8.093-36.626-12.924-54.342-2.575-9.439-5.241-19.207-7.598-28.896-5.814-23.897-11.874-55.356-7.079-86.754,4.952-32.376,21.216-59.493,44.622-74.399,1.854-1.182,4.331-.64,5.518,1.225,1.186,1.861.636,4.331-1.225,5.518-21.462,13.665-36.411,38.768-41.016,68.866-4.585,30.012,1.303,60.472,6.946,83.655,2.334,9.584,4.979,19.292,7.543,28.681,4.882,17.903,9.931,36.419,13.096,55.111,3.313,19.597-.827,33.563-11.66,39.33-13.369,7.098-28.353-2.279-38.472-9.955l-32.657-24.779c-4.316-3.278-8.776-6.665-13.771-7.968-3.847-1.011-9.186-.519-11.773,2.931-3.847,5.124.308,13.673,5.795,19.452,21.954,23.085,56.457,31.299,84.178,37.898,9.318,2.217,18.27,3.914,25.364.418,7.203-3.543,11.289-12.105,13.74-18.239,4.21-10.552,7.082-21.891,9.857-32.856,1.374-5.432,2.751-10.864,4.285-16.245,4.144-14.516,10.61-33.005,23.928-47.201,13.767-14.672,33.481-21.564,50.217-17.54,2.146.515,3.469,2.673,2.954,4.819-.519,2.146-2.685,3.45-4.819,2.954-13.997-3.36-30.683,2.618-42.522,15.238-12.147,12.944-18.176,30.273-22.071,43.923-1.514,5.303-2.868,10.657-4.222,16.011-2.841,11.219-5.779,22.82-10.185,33.863-2.938,7.356-7.96,17.685-17.634,22.445-4.195,2.064-8.589,2.841-13.115,2.841Z"/>
        <path class="cls-4" d="M526.924,513.576c-1.959,0-3.668-1.436-3.953-3.43-.312-2.185,1.206-4.211,3.391-4.523,29.68-4.234,57.179-24.467,70.052-51.536,12.877-27.07,11.227-61.167-4.21-86.867-7.664-12.756-18.036-23.222-29.021-34.308-6.798-6.864-13.829-13.958-20.085-21.595-29.817-36.407-41.945-87.55-31.647-133.467,10.302-45.921,43.104-86.988,85.61-107.174,42.514-20.186,95.069-19.655,137.162,1.378,31.623,15.804,56.691,42.522,68.78,73.303,13.029,33.165,10.856,70.505-5.803,99.881-17.575,30.987-50.951,51.173-85.025,51.435-.218,0-.437.004-.652.004-35.588,0-69.088-22.172-81.63-54.108-.808-2.053.203-4.37,2.259-5.178,2.049-.8,4.374.199,5.178,2.259,11.188,28.486,42.339,49.035,74.22,49.035.187,0,.375-.004.562-.004,31.272-.238,61.943-18.84,78.134-47.384,15.484-27.3,17.474-62.072,5.319-93.02-11.375-28.966-35.038-54.143-64.917-69.073-39.939-19.964-89.817-20.463-130.161-1.307-40.333,19.156-71.465,58.127-81.24,101.703-9.771,43.576,1.737,92.107,30.031,126.654,6.017,7.344,12.912,14.305,19.581,21.037,10.832,10.93,22.032,22.235,30.195,35.818,17.033,28.361,18.789,64.538,4.577,94.414-14.212,29.875-43.388,51.341-76.139,56.016-.191.027-.382.039-.57.039Z"/>
        <path class="cls-4" d="M557.509,546.651c-10.431,0-20.853-.948-31.136-2.899-2.17-.41-3.59-2.501-3.18-4.671.41-2.166,2.478-3.598,4.671-3.18,60.64,11.508,126.724-13.58,164.442-62.423,37.719-48.848,45.285-119.122,18.828-174.877-.948-1.994-.097-4.378,1.896-5.323,1.998-.944,4.378-.098,5.323,1.896,27.717,58.404,19.788,132.019-19.726,183.188-33.118,42.881-87.112,68.284-141.119,68.288Z"/>
        <path class="cls-4" d="M118.903,206.251c-6.052,0-11.172-2.829-14.512-8.058-6.926-10.844-4.952-28.545.96-39.393,4.277-7.847,10.473-12.186,17.451-12.218h.074c10.91,0,18.902,10.973,19.449,26.714.542,15.605-6.88,31.916-22.118,32.911-.441.027-.874.043-1.303.043ZM122.836,154.574c-5.038.023-8.476,4.39-10.47,8.05-5.295,9.713-5.861,24.034-1.241,31.264,2.021,3.165,4.796,4.628,8.557,4.343,10.161-.659,15.062-12.905,14.653-24.654-.316-9.162-4.039-19.004-11.461-19.004h-.039ZM122.82,150.578h.039-.039Z"/>
        <path class="cls-4" d="M220.352,199.617c-5.299,0-9.99-2.33-13.431-6.731-7.929-10.138-7.644-27.948-2.794-39.307,3.512-8.218,9.272-13.127,16.214-13.822,10.86-1.104,19.928,9.08,21.973,24.74,2.025,15.48-3.812,32.427-18.887,34.866-1.046.168-2.072.25-3.075.254ZM221.948,147.667c-.265,0-.539.016-.812.043h0c-5.018.499-8.023,5.174-9.658,9.006-4.347,10.177-3.551,24.486,1.737,31.249,2.314,2.958,5.241,4.101,8.932,3.508,10.052-1.627,13.771-14.282,12.245-25.942-1.147-8.764-5.506-17.864-12.444-17.864ZM220.738,143.734h.039-.039Z"/>
        <path class="cls-4" d="M129.435,199.445c-.702,0-1.413-.183-2.057-.574-7.906-4.757-12.889-13.794-12.69-23.023.199-9.229,5.572-18.044,13.685-22.457,1.935-1.05,4.367-.34,5.42,1.604,1.054,1.935.336,4.363-1.604,5.42-5.553,3.02-9.373,9.291-9.51,15.605-.137,6.318,3.407,12.749,8.819,16.007,1.893,1.136,2.501,3.594,1.362,5.483-.749,1.245-2.072,1.935-3.426,1.935Z"/>
        <path class="cls-4" d="M231.196,192.133c-.714,0-1.44-.191-2.092-.593-7.539-4.648-12.483-13.026-12.901-21.872-.421-8.842,3.707-17.654,10.774-22.992,1.76-1.334,4.265-.987,5.596.781,1.331,1.76.98,4.265-.78,5.596-4.913,3.711-7.902,10.087-7.605,16.237.289,6.154,3.867,12.214,9.108,15.445,1.881,1.159,2.462,3.621,1.307,5.498-.757,1.225-2.064,1.9-3.407,1.9Z"/>
      </g>
    </g>
  </g>
</svg>