<?xml version="1.0" encoding="UTF-8"?>
<svg id="Layer_2" data-name="Layer 2" xmlns="http://www.w3.org/2000/svg" viewBox="0 0 1338.755 477.781">
  <defs>
    <style>
      .cls-1 {
        fill: #8c5830;
      }

      .cls-2 {
        fill: #d27a3d;
      }

      .cls-3 {
        fill: #531139;
      }

      .cls-4 {
        fill: #f2975e;
      }

      .cls-5 {
        fill: #f4d1ba;
      }

      .cls-6 {
        fill: #fff8ee;
      }
    </style>
  </defs>
  <g id="Layer_1-2" data-name="Layer 1">
    <g>
      <g>
        <path class="cls-4" d="M740.227,116.924c52.029-3.863,110.194,5.632,156.227,30.186-17.697-35.464-13.137-75.081,8.243-102.626-30.076,8.105-59.27,16.064-88.463,24.024-42.938,6.88-82.742,5.795-121.142-2.138-65.431-18.735-136.949-16.25-198.487,10.251-28.383,12.223-54.436,29.205-81.971,43.237-27.535,14.032-57.493,25.279-88.39,24.633-30.897-.646-62.905-15.177-77.744-42.285,11.754-32.591,9.923-68.069-5.407-96.668-10.762,25.658-27.964,47.898-49.427,64.756-5.443-1.809-13.765-2.638-21.853-1.602-3.476-25.391-16.921-46.27-36.114-58.508-1.43,23.095-4.237,45.517-9.755,67.252-40.837,13.173-68.749,67.578-84.138,78.747-5.249,3.81-11.126,6.763-16.003,11.038-4.877,4.275-8.783,10.37-8.26,16.834.523,6.465,7.009,12.47,11.813,13.17-1.493,9.207-2.058,19.198,2.532,27.318,4.591,8.12,16.086,12.871,22.588,6.293,3.587,2.12,7.173,4.24,10.174,5.224,5.233,13.85,19.57,21.798,33.184,27.616,13.615,5.818,28.413,11.281,37.207,23.191,8.636,11.695,9.633,27.757,5.58,41.719s-12.578,26.181-21.757,37.455c-27.22,33.429-61.558,61.032-100.056,80.431-4.598,2.317-9.446,4.675-12.477,8.837-3.031,4.162-3.434,10.75.582,13.971,2.971,2.382,7.186,2.19,10.974,1.808,68.327-6.892,134.014-37.64,179.727-87.315,59.871,5.855,118.575-16.659,173.81-40.488,55.235-23.83,111.591-49.848,173.168-54.022,24.296,24.289,59.735,34.789,94.083,35.479s68.197-7.448,101.522-15.793c41.509-10.394,85.182-22.476,114.246-55.196,2.983,24.052,6.043,48.414,15.048,70.915,9.005,22.501,24.782,43.307,46.929,53.15,3.224,1.433,6.977,2.618,10.194,1.17,3.82-1.719,5.283-6.639,4.45-10.744-.833-4.105-3.394-7.609-5.778-11.053-15.639-22.593-26.276-48.628-36.659-79.355,13.907,11.523,30.522,19.755,48.115,23.84,3.685.855,7.857,1.45,10.997-.659,4.767-3.202,4.072-10.836.439-15.284-3.633-4.448-10.853-11.905-15.668-15.036-22.283-14.488-31.43-50.746-36.878-69.896-3.617-12.716-1.019-29.472-12.781-35.509-15.824-8.121-41.21,1.204-58.996,1.077-30.087-.216-75.72-13.187-83.63-49.445Z"/>
        <path class="cls-2" d="M706.251,123.512c64.497-24.139,137.518-5.155,199.004,25.862,61.486,31.017,116.858,73.682,180.114,100.908,63.256,27.226,139.802,37.02,198.855,1.589,23.903-14.341,44.409-37.149,48.628-64.703,3.543-23.143-4.71-46.587-16.106-67.039-27.406-49.187-74.291-87.167-128.096-103.765-80.573-24.856-167.326-2.165-248.181,21.756-80.856,23.922-166.158,49.293-248.108,29.441,18.631,9.569,27.676,34.384,13.89,55.951Z"/>
        <path class="cls-5" d="M520.976,266.422c-117.506-17.535-242.444,25.855-322.617,115.161,60.336,9.52,120.506-14.127,176.525-38.48,56.018-24.353,114.465-50.454,175.391-46.084-8.789-9.813-17.579-19.625-29.299-30.597Z"/>
        <path class="cls-5" d="M203.282,87.501c7.975-9.961,15.951-19.922,23.926-29.883,1.461-1.825,2.986-3.703,5.065-4.774s4.88-1.11,6.534.543c1.646,1.645,1.638,4.284,1.36,6.594-1.542,12.803-8.235,24.912-18.255,33.03-3.302,2.675-7.18,5.003-11.429,5.093-4.248.09-12.2-4.359-7.202-10.602Z"/>
        <path class="cls-5" d="M41.477,200.394c1.337-10.225,12.28-16.761,22.567-17.483,10.287-.722,20.343,2.717,30.486,4.579,20.387,3.741,41.919.969,60.693-7.813,10.94-5.118,20.976-12.215,32.398-16.141,22.294-7.663,58.302,5.436,36.229,41.883-19.78,32.662-73.714,27.967-85.512,82.76-8.42-14.035-23.439-21.106-54.46-32.461-15.431-5.649-22.355-19.788-25.741-23.77-9.198,4.564-21.533,1.329-27.307-7.162-5.774-8.491-4.247-21.152,3.379-28.027,2.163,1.01,4.326,2.021,7.267,3.635Z"/>
        <path class="cls-6" d="M137.229,148.593c1.033-6.066,2.012-12.366.386-18.301-1.626-5.935-6.609-11.411-12.76-11.563-5.543-.137-10.293,3.897-13.803,8.19-4.972,6.08-8.684,13.186-10.835,20.74-1.389,4.877-2.083,10.303.121,14.87,3.499,7.251,13.509,9.531,20.929,6.406,7.42-3.125,14.169-9.809,15.963-20.343Z"/>
        <path class="cls-3" d="M111.714,125.715c6.923,4.898,10.64,13.951,9.156,22.301-1.484,8.35-8.094,15.568-16.281,17.779-5.206-12.973-2.713-28.716,7.125-40.08Z"/>
        <path class="cls-5" d="M1147.857,269.623c-53.28-22.82-86.288-76.711-134.482-108.91-62.259-41.596-142.151-42.736-215.279-37.327,65.584-5.565,126.718,30.913,181.128,67.95,54.411,37.037,119.674,69.065,168.632,78.287Z"/>
        <path class="cls-3" d="M256.426,360.991c-2.912.602-6.34.316-8.911,1.868-3.571,2.449-.562,8.397,3.541,7.107,3.569-1.043,8.58-.268,11.046-3.413,2.024-3.882-2.004-6.841-5.676-5.562Z"/>
        <path class="cls-3" d="M293.045,353.184c-2.539-3.979-8.799.42-8.958.09-3.288,1.716-7.269,1.839-10.456,3.545-3.84,2.634-.606,9.035,3.81,7.647,4.596-1.055,18.392-4.751,15.604-11.282Z"/>
        <path class="cls-3" d="M266.465,341.826c-2.934,1.505-8.088,1.758-8.156,5.964-.1,3.048,3.559,5.154,6.145,3.526,1.979-1.156,4.607-1.578,6.125-3.346,2.389-2.749-.663-7.237-4.114-6.144Z"/>
        <path class="cls-3" d="M506.114,276.895c-3.398,1.878-10.459,7.975-4.992,11.198,2.242,1.111,4.005-1.02,5.39-2.494,1.962-2.129,1.625-1.021,4.239-3.422,2.513-2.902-1.417-7.321-4.637-5.282Z"/>
        <path class="cls-3" d="M485.037,277.906c-2.762,2.536-6.359,6.145-5.906,10.16.595,2.362,3.516,3.521,5.593,2.275,1.258-.749,1.813-2.161,2.666-3.306.314-.377.915-1.095,1.216-1.374.907-1.19,2.501-1.866,2.999-3.33,1.905-3.882-3.644-7.569-6.568-4.426Z"/>
        <path class="cls-3" d="M158.668,385.564c-1.307,4.049-1.898,4.657-5.734,7.262-1.942,1.335-4.525.96-4.47,5.461,1.359,6.598,9.88,2.812,13.186-.186,3.296-2.939,6.359-7.362,6.271-11.906-.38-5.012-8.103-5.489-9.252-.632Z"/>
        <path class="cls-3" d="M636.058,300.2c-1.957-1.106-4.272-.057-6.392-.164-9.173.292-12.815.044-20.845-2.21-5.329-1.445-7.566,6.654-2.25,8.162,8.242,2.495,17.079,3.49,25.601,1.974,1.917-.363,4.257-.453,5.299-2.378,1.076-1.851.438-4.299-1.412-5.383Z"/>
        <path class="cls-1" d="M972.261,44.136c-7.757,1.533-15.072,5.114-21.546,9.596-1.124.654-1.885,2.049-1.604,3.348.155,2.307,3.065,3.671,4.996,2.455,7.938-5.792,13.388-6.782,22.31-10.283,3.09-3.048-.147-6.4-4.155-5.116Z"/>
        <path class="cls-1" d="M1012.185,34.761c-5.6.4-11.2.801-16.8,1.202-4.995.015-4.996,7.625,0,7.656,4.784-.331,9.568-.662,14.352-.992,2.617-.38,6.165.328,7.754-2.299,1.958-3.616-1.877-6.38-5.306-5.568Z"/>
        <path class="cls-1" d="M1006.494,51.838c-6.004.554-11.785,2.582-17.657,3.881-.952.259-1.784.905-2.282,1.755-1.762,2.799,1.146,6.589,4.311,5.608,4.333-1.106,8.689-2.128,12.998-3.325,2.006-.691,4.832-1.012,5.74-3.204,1.04-2.096-.79-4.799-3.11-4.714Z"/>
        <path class="cls-1" d="M1053.638,29.63c-3.9-.177-10.328-.369-12.952,2.899-1.738,2.762,1.131,6.497,4.251,5.53,3.814-1.442,8.754-1.271,10.883-.927,2.217.444,5.346,1.361,6.375-1.428,1.654-4.785-5.278-5.567-8.557-6.074Z"/>
        <path class="cls-1" d="M1049.209,47.698c-2.501-2.886-3.347-1.337-5.834-1.344-1.366.261-8.369,1.108-12.891.543-5.177.016-5.176,7.901,0,7.933,4.378.29,22.093.421,18.725-7.132Z"/>
        <path class="cls-1" d="M1216.904,235.736c-.87-2.459-3.638-2.065-5.707-1.797-6.049.607-11.188.243-14.811-.524-3.007-.608-5.953-1.513-8.781-2.701-.949-.263-1.995-.125-2.844.372-2.771,1.502-2.19,6.001.882,6.744,8.166,3.366,17.31,4.602,26.042,3.128,2.833-.312,6.644-1.651,5.219-5.223Z"/>
        <path class="cls-1" d="M1253.072,226.076c-1.097-.688-2.42-.459-3.592-.108-6.141,2.107-9.524,2.671-11.178,2.72-2.885.575-6.405-1.157-8.742,1.105-2.606,2.435-.641,7.198,2.932,7.08,4.921,1.472,28.595-2.982,20.58-10.796Z"/>
        <path class="cls-1" d="M1281.64,211.743c-1.754-1.529-3.879-.04-5.525.895-2.54,1.697-5.433,3.105-7.641,5.199-2.393,2.765,1.35,6.975,4.417,5.032,2.771-2.497,13.528-6.685,8.749-11.125Z"/>
        <path class="cls-1" d="M1225.822,215.214c-4.674-1.434-9.902.023-14.742.068-2.473.419-5.488-.287-7.435,1.608-2.714,2.535-.666,7.493,3.053,7.37,6.075-.597,12.212-.874,18.21-2.05,3.192-.781,3.788-5.412.914-6.997Z"/>
        <path class="cls-1" d="M1262.147,194.751c-2.77-.592-5.011,1.816-7.49,2.701-1.103.859-5.274,1.668-8.929,3.443-3.645,2.499-.575,8.573,3.615,7.256,4.727-1.106,22.604-7.814,12.803-13.401Z"/>
        <path class="cls-5" d="M531.13,85.287c-6.022.86-11.712,3.391-16.98,6.352-1.701,1.084-3.887,1.984-4.417,4.127-1.133,3.643,3.231,7.002,6.467,4.971,7.61-4.92,12.081-6.146,21.738-8.529,1.293-.332,2.246-1.384,2.636-2.637,1.068-5.791-5.745-4.954-9.444-4.285Z"/>
        <path class="cls-5" d="M576.648,74.833c-5.947,1.342-12.659.974-18.207,3.351-4.175,2.866-.66,9.826,4.144,8.317,5.698-.859,11.395-1.718,17.093-2.577,2.013-.346,4.085-1.664,4.558-3.765,1.099-4.417-4.01-6.482-7.588-5.326Z"/>
        <path class="cls-5" d="M625.482,77.385c-1.832-2.696-5.74-2.304-8.63-2.636-3.704.1-7.683-.666-11.262.287-4.617,1.643-3.086,9.033,1.782,8.854,3.98.003,7.963.041,11.934-.269,3.495-.059,8.338-1.965,6.176-6.235Z"/>
        <path class="cls-5" d="M562.438,105.037c-2.359-.463-4.704.751-7.032,1.079-4.792,1.161-9.526,2.542-14.262,3.907-5.801,1.627-3.364,10.457,2.454,8.9,6.334-1.772,12.658-3.592,18.84-5.847,1.542-.422,2.895-1.834,2.986-3.465.409-2.008-1.066-4.029-2.986-4.573Z"/>
      </g>
      <g>
        <path class="cls-3" d="M41.343,204.452c-.25,0-.503-.023-.759-.07-6.023-1.159-16.996-4.585-22.812-14.501-4.872-8.296-4.054-21.22,4.928-27.233,2.925-1.955,6.072-2.817,9.114-3.649,1.643-.449,3.194-.874,4.603-1.444,7.617-3.102,12.514-11.145,17.25-18.922l1.214-1.986c15.894-25.868,36.583-46.003,59.834-58.236,24.896-13.104,55.887-17.431,80.875-11.316,2.144.527,3.455,2.689,2.931,4.835-.527,2.142-2.704,3.45-4.831,2.931-23.183-5.678-52.014-1.6-75.252,10.622-21.983,11.566-41.605,30.706-56.748,55.349l-1.196,1.959c-5.159,8.472-11.004,18.071-21.064,22.165-1.851.757-3.709,1.264-5.508,1.756-2.538.695-4.934,1.35-6.778,2.579-5.157,3.453-5.447,11.492-2.48,16.549,3.087,5.256,9.439,9.155,17.431,10.692,2.168.418,3.586,2.513,3.169,4.679-.367,1.912-2.041,3.243-3.92,3.243Z"/>
        <path class="cls-3" d="M42.052,219.132c-1.852,0-3.514-1.296-3.908-3.18-2.566-12.292,2.837-25.883,13.141-33.055,1.809-1.272,4.302-.816,5.563.995s.814,4.3-.997,5.561c-7.75,5.397-11.814,15.62-9.882,24.869.451,2.158-.935,4.277-3.094,4.726-.277.059-.55.086-.821.086Z"/>
        <path class="cls-3" d="M48.241,240.13c-4.099,0-8.306-1.307-11.757-3.891-5.395-4.031-8.92-10.758-9.668-18.453-.556-5.709.302-11.878,2.7-19.417.671-2.099,2.929-3.262,5.02-2.595,2.103.671,3.266,2.919,2.597,5.022-2.06,6.47-2.811,11.621-2.365,16.217.533,5.459,2.901,10.134,6.499,12.827,3.697,2.759,8.95,3.087,12.225.776,1.799-1.284,4.296-.855,5.57.948,1.276,1.799.851,4.296-.95,5.568-2.827,2.006-6.31,2.997-9.872,2.997Z"/>
        <path class="cls-3" d="M71.73,239.502c-9.435,0-18.797-3.57-25.778-9.982-1.625-1.491-1.733-4.019-.24-5.646,1.491-1.623,4.019-1.733,5.644-.238,6.462,5.931,15.503,8.795,24.199,7.621,8.694-1.159,16.68-6.279,21.359-13.697,1.176-1.869,3.637-2.431,5.512-1.249,1.865,1.178,2.425,3.645,1.247,5.51-5.929,9.4-16.046,15.89-27.062,17.357-1.621.218-3.252.324-4.882.324Z"/>
        <path class="cls-3" d="M15.117,477.781c-7.955,0-13.262-3.02-14.762-8.526-1.52-5.584,2.259-10.665,3.5-12.331,9.654-12.951,23.821-20.83,37.521-28.451,3.959-2.201,7.914-4.398,11.746-6.712,19.25-11.636,37.968-28.053,57.224-50.19,10.456-12.019,21.8-26.558,26.66-43.299,4.991-17.201,1.664-35.202-8.475-45.862-7.479-7.871-18.405-12.085-28.97-16.163-1.801-.695-3.6-1.389-5.377-2.099-11.348-4.523-27.157-12.241-33.414-26.933-.864-2.029.08-4.378,2.109-5.241,2.033-.866,4.378.078,5.243,2.111,5.034,11.816,18.155,18.305,29.024,22.641,1.75.699,3.52,1.381,5.293,2.064,11.391,4.398,23.167,8.94,31.883,18.114,12.247,12.873,16.216,33.411,10.36,53.593-5.293,18.235-17.279,33.649-28.306,46.319-19.808,22.773-39.147,39.713-59.12,51.782-3.914,2.365-7.951,4.612-11.995,6.86-13.56,7.543-26.367,14.664-34.995,26.238-1.789,2.404-2.529,4.242-2.199,5.459.628,2.302,5.299,2.895,9.632,2.509,70.38-6.677,137.4-41.055,183.873-94.324,1.452-1.662,3.978-1.834,5.637-.386,1.664,1.452,1.836,3.976.384,5.639-47.804,54.794-116.744,90.16-189.141,97.024-1.157.113-2.269.164-3.334.164Z"/>
        <path class="cls-3" d="M127.196,79.672c-.338,0-.683-.043-1.024-.133-2.135-.566-3.405-2.755-2.841-4.886,5.738-21.657,8.058-43.986,6.897-66.365-.076-1.463.654-2.849,1.902-3.614,1.251-.769,2.821-.784,4.086-.055,21.519,12.425,37.003,35.428,40.409,60.035.302,2.185-1.225,4.203-3.41,4.503-2.172.32-4.205-1.225-4.507-3.411-2.733-19.753-14.089-38.362-30.23-50.131.357,20.611-2.132,41.121-7.42,61.081-.474,1.791-2.091,2.974-3.861,2.974Z"/>
        <path class="cls-3" d="M235.08,115.997c-1.136,0-2.265-.484-3.055-1.42-1.424-1.686-1.21-4.207.476-5.631,12.456-10.512,19.542-28.252,19.445-48.668-.074-15.375-3.873-30.55-8.243-45.355-13.447,26.012-32.3,49.308-54.968,67.816-1.709,1.389-4.226,1.143-5.621-.566-1.397-1.709-1.141-4.226.568-5.623,24.385-19.913,44.185-45.578,57.261-74.216.691-1.514,2.271-2.408,3.898-2.33,1.657.109,3.073,1.233,3.559,2.821,5.625,18.418,11.441,37.465,11.539,57.413.109,22.793-8.013,42.772-22.282,54.818-.749.632-1.664.94-2.575.94Z"/>
        <path class="cls-3" d="M921.709,385.034c-4.047,0-8.55-1.694-13.455-5.077-17.006-11.734-30.991-30.449-40.446-54.112-7.141-17.864-11.445-36.747-14.844-65.647-36.177,33.922-87.253,47.689-132.718,57.932-40.509,9.123-83.452,17.037-123.973,5.096-51.037-15.035-85.119-57.811-104.723-91.05-1.12-1.9-.488-4.351,1.413-5.471,1.897-1.12,4.347-.492,5.471,1.413,18.871,31.998,51.56,73.143,100.095,87.444,38.694,11.394,80.475,3.664,119.961-5.229,46.873-10.559,99.802-24.896,134.637-61.549,1.069-1.132,2.712-1.53,4.179-1.034,1.479.503,2.529,1.818,2.689,3.368,3.461,32.868,7.73,52.988,15.234,71.761,8.87,22.2,21.856,39.662,37.562,50.498,3.336,2.302,7.996,4.706,11.246,3.149,2.981-1.44,3.801-6.013,2.849-9.428-1.097-3.933-3.855-7.403-6.774-11.074l-.983-1.241c-22.769-28.9-34.975-65.069-34.367-101.855.039-2.326.125-4.675.215-7.028.398-10.778.773-20.959-3.239-29.926-7.504-16.776-28.619-23.6-45.874-24.389-8.234-.382-16.752.164-24.986.687-11.242.722-22.871,1.459-34.414-.055-35.615-4.648-66.977-32.131-76.264-66.825-.55-2.053.605-4.179,2.626-4.835,43.775-14.2,126.501-14.66,215.592,30.773,24.295,12.39,48.044,26.683,71.012,40.509,34.819,20.959,70.821,42.628,109.031,57.776,73.022,28.95,145.259,25.91,193.24-8.124,12.588-8.932,29.005-24.034,35.736-45.261,7.301-23.035,1.221-47.127-5.166-63.278-22.301-56.395-79.757-100.786-149.953-115.848-72.206-15.484-147.163-.281-197.256,12.507-19.726,5.038-39.584,11.168-60.605,17.661-47.142,14.551-95.885,29.602-143.008,31.487-33.563,1.334-64.406-4.48-94.222-10.111-42.752-8.07-83.144-15.691-131.539-4.246-40.844,9.658-78.504,30.636-111.735,49.148-33.715,18.781-62.833,34.999-89.532,37.371-35.258,3.126-79.059-10.107-97.428-46.729-.989-1.971-.191-4.374,1.781-5.362,1.977-.995,4.372-.191,5.364,1.779,11.63,23.195,44.618,46.339,89.573,42.351,25.005-2.22,53.437-18.055,86.355-36.396,33.684-18.762,71.859-40.029,113.78-49.94,50.057-11.843,93.169-3.699,134.864,4.171,29.383,5.549,59.785,11.238,92.419,9.978,46.081-1.846,94.32-16.736,140.967-31.14,20.194-6.236,41.071-12.678,60.991-17.767,50.865-12.994,127.04-28.435,200.908-12.577,72.772,15.617,132.436,61.873,155.705,120.718,6.864,17.361,13.365,43.357,5.354,68.632-7.399,23.343-25.146,39.728-38.725,49.367-50.194,35.608-125.268,38.983-200.811,9.037-38.823-15.39-75.113-37.235-110.21-58.361-22.851-13.751-46.479-27.975-70.52-40.235-57.479-29.309-142.758-50.034-205.782-31.436,9.631,29.899,37.27,53.206,68.495,57.284,10.762,1.405,21.501.722,32.868,0,8.444-.538,17.166-1.097,25.86-.695,25.431,1.163,45.168,12.046,52.805,29.11,4.768,10.665,4.339,22.266,3.926,33.485-.086,2.298-.168,4.593-.207,6.864-.577,34.948,11.016,69.319,32.65,96.774l.964,1.214c3.286,4.136,6.688,8.413,8.214,13.904,1.834,6.56-.023,15.367-7.071,18.769-1.811.874-3.746,1.311-5.803,1.311Z"/>
        <path class="cls-3" d="M942.161,306.865c-3.227,0-6.872-.722-10.813-2.181-15.714-5.818-30.504-14.934-42.768-26.355-1.615-1.502-1.705-4.031-.199-5.646,1.502-1.612,4.035-1.701,5.647-.199,11.496,10.708,25.36,19.249,40.099,24.709,5.03,1.861,11.188,2.72,13.373-.457,1.393-2.033.628-5.334-.843-7.543-1.709-2.564-4.374-4.601-7.196-6.759l-1.253-.96c-25.454-19.714-42.222-49.359-46.007-81.337-.16-1.358-.308-2.743-.457-4.136-1.089-10.212-2.213-20.767-9.244-26.332-6.439-5.088-15.94-4.565-25.93-3.5-24.494,2.595-46.534,4.304-68.253-1.05-25.438-6.275-45.683-22.859-52.832-43.283-.73-2.08.367-4.363,2.451-5.088,2.092-.745,4.363.371,5.088,2.451,6.271,17.903,24.358,32.525,47.205,38.163,20.467,5.046,41.773,3.375,65.498.862,11.234-1.194,22.941-1.772,31.729,5.178,9.67,7.648,11.031,20.451,12.237,31.752.144,1.362.289,2.716.445,4.046,3.531,29.864,19.191,57.546,42.963,75.952l1.21.933c3.219,2.458,6.548,5.003,8.995,8.675,2.97,4.452,4.359,11.277.78,16.495-2.544,3.715-6.688,5.611-11.925,5.611Z"/>
        <path class="cls-3" d="M198.801,390.813c-2.172,0-3.951-1.74-3.994-3.918-.041-2.209,1.713-4.031,3.92-4.074,88.344-1.69,138.664-25.817,187.329-49.152,45.663-21.899,88.794-42.581,159.494-45.062,2.236-.137,4.058,1.647,4.132,3.851.078,2.205-1.647,4.058-3.851,4.132-69.03,2.427-111.431,22.757-156.318,44.282-49.437,23.706-100.554,48.219-190.634,49.94h-.078Z"/>
        <path class="cls-3" d="M115.113,176.142c-.464,0-.933-.016-1.407-.047-6.423-.441-11.517-4.004-14.343-10.036-4.901-10.466-2.353-27.495,5.803-38.764,5.918-8.179,13.863-12.109,22.381-11.09,10.438,1.26,16.296,11.465,14.922,25.996-1.604,16.994-12.206,33.941-27.356,33.941ZM124.917,124.04c-6.171,0-10.585,4.222-13.277,7.941-6.388,8.827-8.696,22.882-5.038,30.691,1.604,3.422,4.107,5.206,7.65,5.447,10.516.819,18.99-13.209,20.26-26.671.256-2.7,1.071-16.221-7.921-17.306h0c-.572-.07-1.13-.102-1.674-.102Z"/>
        <path class="cls-3" d="M105.486,168.232c-1.699,0-3.278-1.093-3.812-2.802-.657-2.107.515-4.347,2.622-5.007,6.21-1.943,11.217-7.281,12.754-13.603,1.537-6.322-.457-13.361-5.081-17.935-1.569-1.553-1.58-4.082-.029-5.65,1.555-1.573,4.084-1.577,5.652-.031,6.573,6.505,9.408,16.518,7.223,25.505-2.187,8.987-9.305,16.58-18.136,19.339-.396.125-.798.183-1.194.183Z"/>
        <path class="cls-3" d="M202.943,228.783c-1.506,0-2.95-.855-3.627-2.314-.929-2.002-.059-4.378,1.943-5.307,11.627-5.393,21.207-15.234,26.283-26.999,5.079-11.765,5.67-25.485,1.623-37.644-.697-2.092.435-4.355,2.529-5.053,2.105-.679,4.355.437,5.053,2.533,4.659,13.993,3.978,29.789-1.869,43.334-5.844,13.541-16.871,24.869-30.256,31.081-.544.254-1.116.371-1.68.371Z"/>
        <path class="cls-3" d="M182.773,237.184c-1.463,0-2.87-.804-3.572-2.197-.993-1.974-.199-4.374,1.772-5.369,4.488-2.259,7.19-7.878,6.154-12.795-.455-2.158.927-4.277,3.087-4.733,2.152-.457,4.279.929,4.733,3.087,1.777,8.429-2.685,17.708-10.38,21.583-.575.289-1.19.425-1.793.425Z"/>
        <path class="cls-3" d="M163.494,242.491c-1.467,0-2.88-.808-3.578-2.213-.987-1.975-.185-4.37,1.789-5.358,4.497-2.248,7.33-7.5,6.735-12.491-.259-2.193,1.305-4.179,3.496-4.441,2.179-.265,4.179,1.307,4.441,3.496.993,8.358-3.571,16.822-11.102,20.584-.574.285-1.182.421-1.781.421Z"/>
      </g>
    </g>
  </g>
</svg>