<?xml version="1.0" encoding="UTF-8"?>
<svg id="Layer_2" data-name="Layer 2" xmlns="http://www.w3.org/2000/svg" viewBox="0 0 1017.045 808.629">
  <defs>
    <style>
      .cls-1 {
        fill: #8c5830;
      }

      .cls-2 {
        fill: #d27a3d;
      }

      .cls-3 {
        fill: #531139;
      }

      .cls-4 {
        fill: #f2975e;
      }

      .cls-5 {
        fill: #f4d1ba;
      }

      .cls-6 {
        fill: #fff8ee;
      }
    </style>
  </defs>
  <g id="Layer_1-2" data-name="Layer 1">
    <g>
      <g>
        <g>
          <path class="cls-4" d="M410.093,104.212c3.089,21.407,8.964,42.41,17.431,62.312,7.426,17.456,16.914,34.31,20.542,52.93,6.053,31.062-6.22,65.008-30.74,88.109,12.388,34.57,22.239,70.048,28.866,110.711,5.801,18.521,20.867,32.754,37.216,43.213,16.349,10.459,34.426,17.988,50.81,28.392,39.513,25.092,67.251,66.053,82.7,110.237,15.449,44.184,19.448,91.61,18.978,138.414-.114,11.375-.611,23.239-6.074,33.217-9.987,18.241-34.445,26.941-54.769,31.349-6.325,1.372-12.32-.222-16.574-5.1-5.963-6.837.965-17.485,8.803-22.053,7.838-4.568,17.748-7.976,20.777-16.527,2.249-6.351-.419-13.63-5.023-18.549-4.604-4.92-10.849-7.929-17.018-10.639-32.109-14.107-66.453-23.112-105.197-25.951-27.798-1.284-55.596-2.568-86.374-3.944-25.646,35.551-52.582,72.265-91.058,93.27-3.345,1.826-7.35,3.55-10.831,1.997-5.229-2.333-5.093-9.804-3.414-15.278,8.887-28.979,36.172-49.853,40.973-77.078-31.261-1.722-63.918-3.201-92.482,9.618-36.474,16.369-63.214,54.742-102.968,58.977-6.467.689-14.634-.729-16.553-6.943-2.491-8.068,7.489-13.679,13.528-19.581,11.115-10.862,10.094-28.711,8.279-44.145-1.853-15.751-3.705-31.502-7.211-46.686-21.439,40.449-50.471,76.858-85.132,106.763-5.811,5.014-14.741,9.877-20.419,4.713-3.833-3.486-3.418-9.89-.706-14.305,2.712-4.414,7.128-7.44,11.093-10.776,23.574-19.838,32.387-52.528,32.982-83.333.595-30.805-5.679-61.362-6.345-92.166-1.114-51.566,13.6-102.505,35.544-149.182,21.944-46.677,53.548-93.853,84.194-137.266-17.096-14.762-24.655-39.69-18.636-61.461,9.462-34.227,47.692-56.313,52.698-91.431-18.941-37.721-13.227-86.468,16.612-119.479.727,23.895,7.5,47.582,18.727,70.704,37.371-25.515,88.903-28.569,128.573-8.184,8.917-18.065,17.834-36.13,26.752-54.194,20.731,23.272,26.548,60.291,21.446,89.325Z"/>
          <path class="cls-2" d="M544.64,501.28c10.814-31.608,41.644-51.956,72.613-64.483,30.969-12.526,64.346-19.86,92.758-37.431,28.412-17.571,51.698-49.568,52.641-91.562-50.774-26.558-80.478-88.275-69.558-144.525,10.92-56.25,61.559-102.371,118.582-108.002,38.181-3.77,77.025,9.357,107.702,32.399,30.677,23.042,53.553,55.433,68.974,90.564,21.286,48.493,28.863,103.446,18.137,155.308-10.725,51.862-40.317,100.195-83.625,130.677-37.957,26.716-94.712,45.764-140.958,49.74-46.247,3.976-82.555-6.613-128.898-9.244-28.464-1.616-60.853-1.299-80.319,19.531-6.295-11.877-16.949-21.38-28.049-22.972Z"/>
          <path class="cls-5" d="M824.089,333.37c-21.528-1.361-46.126-12.792-63.688-20.807,2.936,34.352-19.16,66.971-47.691,86.329-28.53,19.358-62.783,27.992-96.249,36.284,35.471-10.327,73.035,7.378,109.929,5.466,27.449-1.422,54.126-14.303,72.31-34.914,18.184-20.611,31.039-43.586,25.388-72.358Z"/>
          <path class="cls-5" d="M363.026,329.489c17.814-4.091,35.911-9.181,50.602-20.056,14.69-10.875,25.454-28.749,23.157-46.882-1.641-12.954-9.47-24.169-17.114-34.754-2.291-3.172-5.089-6.634-8.991-6.919-4.02-.294-7.312,2.887-10.66,5.131-11.153,7.474-28.061,4.26-35.334-5.19-41.224,19.081-86.215,29.982-131.601,31.887-8.479.356-17.997.843-23.702,7.126-8.1,8.92-3.242,23.368,3.929,33.05,10.67,14.406,25.705,25.533,47.053,32.239-64.35,63.945-103.892,152.246-111.975,242.481,8.458,26.503,33.887,43.024,55.606,60.41,10.859,8.693,21.405,18.41,27.528,30.9,6.123,12.49,7.036,28.344-.887,39.777,26.876-1.923,53.959-.935,79.086,5.564,21.067-32.657,31.646-71.968,29.813-110.787-1.082-22.903-6.345-45.824-3.35-68.556,3.583-27.202,18.588-51.369,27.68-77.255,12.895-36.712,13.642-77.579-.838-118.165Z"/>
          <path class="cls-5" d="M372.716,702.424c10.179-15.735,20.359-31.469,31.094-46.95,18.099,23.384,44.369,40.314,73.142,47.135-33.258,3.873-66.961,3.918-104.236-.185Z"/>
          <path class="cls-6" d="M289.514,154.576c.669-8.578-7.478-16.173-16.065-16.722-8.586-.55-16.781,4.624-21.877,11.556-5.096,6.932-7.571,15.421-9.425,23.822-1.855,8.406-2.998,17.879,1.788,25.034,5.028,7.517,15.723,9.95,24.216,6.845,8.493-3.105,14.74-10.793,17.863-19.279,3.124-8.487,2.448-17.782,3.499-31.256Z"/>
          <path class="cls-6" d="M419.676,151.233c-6.587.679-12.147,5.893-14.477,12.092-2.33,6.199-1.817,13.172.089,19.514,2.252,7.494,6.594,14.593,13.158,18.853,6.564,4.259,15.518,5.213,22.25,1.225-5.408-12.158-10.35-24.523-14.81-37.059-1.611-4.527-3.099-9.791-6.209-14.624Z"/>
          <path class="cls-5" d="M203.956,112.772c-6.611-13.543-8.827-29.189-6.239-44.036.226-1.295.508-2.631,1.294-3.685s2.218-1.739,3.445-1.268c1.037.398,1.636,1.461,2.151,2.445,4.211,8.057,8.421,16.114,12.632,24.172-6.61,4.882-11.146,12.483-13.283,22.372Z"/>
          <path class="cls-5" d="M379.056,78.913c1.987-6.181,3.974-12.362,5.961-18.543.524-1.63,1.072-3.305,2.173-4.618,1.1-1.312,2.9-2.189,4.543-1.705,1.928.569,2.904,2.67,3.563,4.57,3.63,10.474,4.766,21.803,3.29,32.79-2.756-3.116-5.539-6.256-8.88-8.735-3.341-2.479-7.326-4.278-10.649-3.76Z"/>
          <path class="cls-3" d="M289.609,154.637c-6.868-1.32-13.837,3.13-17.494,9.092s-4.66,13.139-5.277,20.105c-.346,3.903-.559,8.018,1.131,11.553,1.69,3.535,5.937,6.159,9.577,4.708,9.453-11.724,13.767-27.448,12.063-45.458Z"/>
          <path class="cls-3" d="M420.567,157.699c-2.2,4.315-4.431,8.721-5.188,13.505-.757,4.784.19,10.097,3.618,13.518,4.242,4.233,11.168,4.68,15.583,8.734-4.609-10.866-9.218-21.733-14.013-35.757Z"/>
          <path class="cls-3" d="M495.221,682.93c-7.134-1.672-9.525-4.3-13.53-9.136-3.411-2.955-8.616,1.666-6.214,5.456,4.056,6.325,10.894,11.061,18.444,11.846,2.247.176,5.383.038,6.299-2.427,1.473-3.446-2.075-5.365-5-5.738Z"/>
          <path class="cls-3" d="M417.922,553.282c-2.34-2.505-6.915-.615-6.802,2.817-.3,5.003-1.064,8.499-2.736,15.187-.393,1.415.101,3.138,1.352,3.965,3.828,2.722,6.309-1.573,6.991-4.941,1.318-4.629,2.058-9.411,2.362-14.211.007-1.048-.428-2.079-1.167-2.817Z"/>
          <path class="cls-3" d="M69.274,532.944c-.276-3.128,1.244-7.844,1.59-8.5.602-1.025.766-2.292.45-3.438-.892-3.709-6.334-4.424-8.156-1.066-3.26,7.195-3.64,15.917-.267,23.139.907,2.427,3.173,5.122,6.001,3.768,2.575-.943,2.764-3.995,1.691-6.166-1.201-4.649-1.057-3.594-1.308-7.738Z"/>
          <path class="cls-3" d="M277.958,315.413c-1.681.569-2.976,1.796-4.431,2.76-1.999,1.743-4.974,2.224-6.674,4.233-3.319,3.835,1.872,9.675,6.127,6.979,4.153-2.077,9.241-5.173,10.057-10.103.234-2.719-2.55-4.671-5.079-3.869Z"/>
          <path class="cls-3" d="M295.546,322.636c-1.715-1.799-4.077-1.31-6.158-.56-1.225.533-2.735.422-3.728,1.412-4.177,2.864-.657,9.817,4.14,8.309,4.211-.427,9.562-5.084,5.745-9.162Z"/>
          <path class="cls-3" d="M368.987,320.418c-3.53.795-2.57,1.557-4.792,2.837,1.503-1.156.042-.028-.574.403-1.674,1.425-3.968,2.148-5.414,3.787-2.763,3.191,1.558,8.052,5.099,5.808,3.128-2.363,8.486-5.242,9.198-9.317.042-1.879-1.64-3.551-3.517-3.517Z"/>
          <path class="cls-3" d="M310.75,326.318c-1.779-.254-4.152.465-5.203,1.987-1.405,2.229.914,5.245,3.432,4.464,4.212-.663,5.682-4.732,1.771-6.451Z"/>
          <path class="cls-3" d="M194.677,575.364c.063.081.127.164.181.235-.06-.08-.123-.158-.184-.238-.043-.046-.054-.1-.1-.145-.128-.158-.181-.224-.214-.264-.133-.175-.267-.348-.401-.522.172.214-1.429-1.93-1.768-2.576-2.137-3.879-2.143-4.351-2.419-7.323-.018-6.131-9.355-6.126-9.392,0,.129,6.623,3.353,13.754,9.573,16.675,3.706,2.203,7.589-2.75,4.725-5.843Z"/>
          <path class="cls-3" d="M219.569,596.913c-.345-1.458-1.631-2.295-2.876-2.95-4.116-2.34-3.55-1.865-6.29-4.631-.164-.186-.317-.381-.474-.573-.297-.417-.774-1.1-.958-1.465-.564-.966-1.511-1.697-2.591-1.993-3.588-1.119-6.896,3.183-4.896,6.368,2.787,4.627,7.196,8.664,12.563,9.888,3.02,1.004,6.401-1.325,5.522-4.643Z"/>
          <path class="cls-3" d="M222.399,574.985c-.382-1.335-1.402-2.221-2.648-2.752q-1.95-1.181-2.269-1.437c-.298-.282-1.316-1.199-1.949-1.901-.251-.361-1.025-1.465-1.211-1.955-.133-.263-.256-.53-.374-.8.037.086.094.22.152.36-.352-1.086-.941-2.11-1.965-2.678-3.053-1.925-7.189,1.252-6.118,4.704,1.771,5.279,6.103,9.973,11.663,11.18,2.747.851,5.565-1.974,4.718-4.719Z"/>
          <path class="cls-3" d="M353.01,434.852c-1.776-3.283-7.103-2.59-7.982,1.043-.629,3.697-1.302,7.405-1.505,11.155-.175,1.807.12,3.767,1.84,4.738,1.444.867,3.354.581,4.545-.586,2.042-2.862,2.244-6.712,3.04-10.069.239-2.076,1.262-4.335.062-6.28Z"/>
          <path class="cls-3" d="M345.157,464.59c-.95-3.949-6.741-4.706-8.681-1.135-1.384,3.547-4.436,7.204-3.497,11.164.524,2.065,2.86,3.382,4.902,2.783,2.912-.751,3.988-3.757,5.315-6.129.922-2.122,2.689-4.251,1.962-6.684Z"/>
          <path class="cls-3" d="M333.162,448.658c-1.649-4.637-9.066-3.096-8.887,1.789.16,1.171-1.585,5.349-2.455,8.068-.707,3.453,3.528,6.165,6.462,4.33,2.328-1.655,3.335-4.618,4.36-7.179.462-2.228,1.444-4.814.519-7.009Z"/>
          <path class="cls-5" d="M113.963,386.633c-4.121-1.917-6.92,3.279-8.607,6.26-1.488,3.064-3.831,5.905-4.714,9.183-.903,4.619,5.967,6.945,8.178,2.825,1.918-3.511,3.969-6.957,5.711-10.56,1.193-2.312,2.064-6.063-.568-7.708Z"/>
          <path class="cls-5" d="M135.509,350.47c-.379-.434-1.579-.441-2.345-.389.025-.004.029-.003.056-.007-.14.024-.281-.004-.421-.017.108.016.151.022.239.034-.007,0-.014.001-.022.002-.555-.045-1.286-.061-1.625.111-1.556.528-2.895,1.489-4.073,2.621-3.942,4.333-8.165,9.876-8.547,15.858.38,5.006,8.096,5.485,9.245.631.921-2.997,3.184-6.82,5.46-9.267,1.003-1.128,2.086-2.226,2.825-3.553.335-.363.517-1.413.579-1.991.49-1.488.053-3.24-1.372-4.034Z"/>
          <path class="cls-5" d="M141.462,378.3c-.73-2.099-3.533-3.242-5.521-2.246-1.671.619-2.508,2.449-3.614,3.746-2.281,3.715-5.259,7.397-6.593,11.529-.969,4.953,6.396,7.444,8.766,3.029,1.987-3.431,4.208-6.734,5.922-10.314.702-1.795,2.055-3.818,1.04-5.742Z"/>
          <path class="cls-5" d="M566.014,546.291c-2.775-5.206-7.843-11.596-13.454-13.626-4.953-.967-7.445,6.395-3.029,8.766,2.705,1.503,9.014,9.261,11.911,12.834,1.99,2.118,5.974.826,6.193-2.105.195-2.027-.834-4.041-1.621-5.869Z"/>
          <path class="cls-5" d="M583.309,573.762c-1.614-2.447-2.489-5.587-4.653-7.58-3.681-3.185-9.285,1.796-6.698,5.88,1.699,2.961,3.285,5.99,5.115,8.875,1.069,1.75,2.612,3.587,4.843,3.573,2.31.049,4.113-2.07,3.98-4.322-.142-2.331-1.614-4.357-2.587-6.426Z"/>
          <path class="cls-5" d="M594.105,601.106c-.911-1.472-1.931-3.077-3.728-3.503-3.932-1.225-7.554,3.487-5.364,6.977,3.144,4.022,1.862,4.798,4.3,10.328,2.691,4.309,8.502,1.24,8.101-3.336-.089-3.703-1.463-7.291-3.309-10.465Z"/>
          <path class="cls-5" d="M571.282,595.558c-1.469-2.57-2.519-5.672-4.679-7.718-3.646-3.157-9.198,1.78-6.635,5.826,2.408,3.994,6.833,14.602,12.186,8.176,1.25-2.032.042-4.367-.872-6.284Z"/>
          <path class="cls-5" d="M140.59,660.841c-.073-.316-.121-.636-.174-.956-.008-.085-.015-.157-.026-.264-.102-.543-.01-1.885.037-2.537.371-1.882,1.214-3.825.044-5.594-1.849-3.419-7.397-2.697-8.312,1.086-1.528,5.424-1.269,12.382,2.951,16.528,1.837,1.612,5.005.93,6.167-1.178,1.381-2.31-.296-4.728-.687-7.086Z"/>
          <path class="cls-5" d="M147.331,693.327c-.975-3.322-1.141-4.979-1.185-5.486-.382-2.482.565-5.445-1.487-7.37-2.758-2.952-8.151-.724-8.017,3.321-.284,5.62,2.23,24.518,11.104,18.576,2.64-2.628.444-6.13-.415-9.04Z"/>
          <path class="cls-5" d="M164.185,678.969c-.858-2.871-.802-6.252-2.428-8.792-2.793-4.073-9.576-.641-8.106,4.039.876,3.181,1.743,6.365,2.689,9.526.438,1.603,1.908,3.012,3.603,3.105,4.736.523,5.588-4.307,4.242-7.879Z"/>
          <path class="cls-1" d="M753.514,488.645c-3.325-2.269-8.328-1.196-9.197-1.863-3.903-.674-7.795-1.492-11.52-2.864-1.22-.338-2.568-.161-3.66.479-3.569,1.932-2.817,7.725,1.135,8.681,5.721,1.9,11.777,2.94,17.814,2.664,1.854-.2,4.026.084,5.428-1.388,1.559-1.491,1.55-4.213,0-5.71Z"/>
          <path class="cls-1" d="M789.784,486.92c-1.178-3.156-4.767-2.787-7.275-1.574-4.503,1.345-4.684,1.207-7.315,1.41-7.881-1.627-10.252,8.38-2.465,9.441,4.947.472,19.538-2.099,17.055-9.276Z"/>
          <path class="cls-1" d="M823.297,474.774c-2.538-1.423-5.227.512-7.665,1.308-3.267,1.573-7.249,2.586-9.847,5.14-3.319,3.835,1.871,9.675,6.127,6.979,4.004-2.512,18.759-7.569,11.386-13.427Z"/>
          <path class="cls-1" d="M764.493,468.797c-4.118-1.286-8.749-.945-13.058-1.204-2.401.095-5.239-.573-7.079,1.378-2.986,2.789-.732,8.243,3.359,8.108,4.916.066,9.822-.181,14.714-.659,1.075.007,2.135-.44,2.893-1.198,1.889-1.801,1.427-5.141-.828-6.425Z"/>
          <path class="cls-1" d="M798.869,456.468c-4.079-.292-2.879.776-5.675,1.36-4.414,1.509-2.963.232-7.58,1.335-4.742,1.686-3.167,9.275,1.83,9.09,5.079.003,11.352-1.521,14.174-6.063,1.104-2.209-.387-5.135-2.748-5.722Z"/>
          <path class="cls-1" d="M979.144,262.971c-2.79-2.983-8.243-.734-8.108,3.359.776,9.331-.36,18.642-.728,27.957-.106,3.459,4.459,5.339,6.838,2.832,3.247-5.591,3.045-12.765,3.582-19.089-.328-4.53,1.197-11.386-1.584-15.059Z"/>
          <path class="cls-1" d="M965.375,318.05c-.85,3.987-1.667,7.977-2.138,12.03-1.252,6.22,5.845,8.908,7.993,2.581,1.55-4.463,3.129-9.281,3.39-13.98-.378-5.007-8.098-5.484-9.245-.631Z"/>
          <path class="cls-1" d="M956.344,303.661c-1.932-3.571-7.725-2.816-8.681,1.135-.974,3.438-2.049,6.869-2.492,10.424-1.338,4.719,5.374,7.556,7.827,3.299,1.684-3.583,2.762-7.395,3.825-11.198.338-1.22.161-2.569-.479-3.66Z"/>
          <path class="cls-1" d="M779.62,91.915c-2.737-6.403-10.96-1.505-14.896,1.18-3.153,2.21-5.926,4.913-8.147,8.062-1.083,1.276-1.654,3-1.169,4.645.952,3.948,6.74,4.707,8.681,1.135,2.176-3.022,4.755-5.924,10.682-8.611.848-.347,2.571-1.121,2.958-1.654,1.451-1.086,2.437-2.933,1.891-4.756Z"/>
          <path class="cls-1" d="M807.488,77.772c-5.122.423-11.121,1.279-14.991,4.872-3.317,3.836,1.87,9.674,6.127,6.979,3.354-1.612,5.725-2.435,10.908-2.347,3.124.133,7.842.922,8.963-2.956,1.042-5.802-6.821-6.71-11.007-6.548Z"/>
          <path class="cls-1" d="M850.247,84.555c-3.994-1.749-8.363-2.434-12.531-3.681-1.22-.338-2.569-.161-3.66.479-3.57,1.933-2.817,7.725,1.135,8.681,4.408,1.047,8.708,2.683,13.232,3.131,5.668.246,6.991-6.508,1.823-8.609Z"/>
          <path class="cls-1" d="M805.899,108.708c-1.551-8.198-19.894-2.243-23.66,1.869-3.319,3.836,1.87,9.675,6.127,6.979,4.361-2.716,8.199-3.245,12.539-3.848,2.746.071,5.551-2.041,4.995-5Z"/>
        </g>
        <path class="cls-3" d="M254.336,325.413c-.113,0-.23-.004-.347-.016-28.318-2.451-61.475-16.42-84.475-35.588-24.837-20.713-35.674-53.671-26.355-80.155,4.702-13.361,13.779-24.194,22.559-34.663,5.479-6.544,11.148-13.306,15.546-20.502,5.038-8.245,8.717-17.575,12.276-26.601,3.734-9.463,7.594-19.249,13.108-28.178,14.793-23.963,42.007-41.262,72.791-46.276,26.808-4.363,56.43.008,85.692,12.655,22.188,9.588,37.005,21.427,45.289,36.193,6.404,11.418,8.671,24.264,10.864,36.692,1.647,9.346,3.352,19.008,6.821,27.686,2.786,6.977,6.002,13.634,9.108,20.073,7.52,15.593,14.625,30.32,15.917,48.742,1.014,14.43-5.896,34.667-18.032,52.808-13.209,19.745-29.657,32.728-45.121,35.623-2.189.414-4.257-1.022-4.667-3.188-.406-2.17,1.026-4.257,3.192-4.663,28.502-5.338,58.56-52.972,56.66-80.018-1.186-16.892-7.968-30.948-15.148-45.831-3.165-6.56-6.439-13.345-9.33-20.58-3.773-9.443-5.553-19.519-7.27-29.262-2.174-12.311-4.222-23.94-9.962-34.171-7.398-13.182-20.966-23.901-41.488-32.767-27.858-12.034-55.938-16.221-81.236-12.101-28.537,4.644-53.686,20.564-67.282,42.585-5.139,8.323-8.866,17.774-12.467,26.913-3.684,9.338-7.496,19-12.893,27.834-4.71,7.707-10.575,14.699-16.245,21.466-8.702,10.384-16.924,20.19-21.142,32.185-8.234,23.398,1.608,52.742,23.936,71.363,21.825,18.192,53.245,31.444,80.042,33.766,2.201.191,3.828,2.127,3.637,4.324-.18,2.084-1.924,3.652-3.976,3.652Z"/>
        <path class="cls-3" d="M198.156,128.942c-1.296,0-2.568-.628-3.336-1.787-12.487-18.851-14.606-48.703-10.243-68.452,4.952-22.406,16.834-42.187,26.632-56.917.948-1.424,2.708-2.095,4.363-1.647,1.658.445,2.845,1.896,2.954,3.606,1.491,23.593,7.797,47.279,18.235,68.499.972,1.982.156,4.374-1.822,5.35-1.971.964-4.378.16-5.35-1.822-9.182-18.664-15.3-39.158-17.93-59.879-7.762,12.647-15.605,27.924-19.277,44.536-4,18.102-2.158,45.32,9.104,62.31,1.217,1.842.714,4.32-1.124,5.541-.679.449-1.448.663-2.205.663Z"/>
        <path class="cls-3" d="M407.837,107.074c-.55,0-1.112-.113-1.647-.359-2.01-.909-2.899-3.278-1.986-5.288,5.319-11.726,6.021-26.601,1.967-41.894-3.286-12.393-9.026-23.901-16.639-36.985l-20.631,48.282c-.874,2.033-3.231,2.97-5.244,2.107-2.033-.87-2.974-3.215-2.107-5.244l21.899-51.244c1.725-4.043,4.741-4.987,6.981-4.48,2.439.519,3.637,2.529,4.09,3.286,8.893,15.02,15.589,27.944,19.378,42.233,4.523,17.064,3.664,33.844-2.419,47.24-.667,1.475-2.119,2.345-3.641,2.345Z"/>
        <path class="cls-3" d="M14.757,773.642c-4.819,0-9.837-1.869-12.663-6.22-3.824-5.904-1.904-13.455,1.694-18.317,2.622-3.539,5.982-6.08,9.229-8.534.851-.64,1.697-1.28,2.525-1.939,25.626-20.295,30.929-55.079,31.807-74.009.8-17.181-.886-34.757-2.517-51.755-1.073-11.184-2.185-22.746-2.595-34.203-1.838-50.955,9.709-105.039,34.324-160.759,23.6-53.421,55.946-101.344,84.467-141.173,1.284-1.791,3.789-2.205,5.576-.925,1.795,1.288,2.209,3.781.925,5.576-28.291,39.502-60.347,86.995-83.655,139.753-24.123,54.603-35.444,107.505-33.653,157.239.406,11.219,1.502,22.664,2.564,33.727,1.658,17.275,3.372,35.139,2.548,52.894-.944,20.284-6.72,57.639-34.827,79.901-.878.691-1.772,1.37-2.669,2.049-2.927,2.209-5.689,4.3-7.625,6.915-1.955,2.638-3.067,6.653-1.413,9.209,1.658,2.552,5.818,3.102,8.913,2.15,3.855-1.198,7.133-4.093,10.712-7.477,70.665-66.798,117.288-160.548,127.914-257.213.242-2.193,2.17-3.793,4.409-3.535,2.193.242,3.777,2.216,3.535,4.409-10.832,98.519-58.349,194.068-130.372,262.145-4.156,3.929-8.343,7.597-13.829,9.303-1.658.515-3.477.788-5.323.788Z"/>
        <path class="cls-3" d="M278.311,801.929c-2.306,0-4.659-.468-6.989-1.608-8.538-4.171-10.719-14.93-8.436-22.937,2.021-7.086,6.61-12.608,11.047-17.942l.898-1.085c51.087-61.74,72.194-145.513,56.457-224.087-.433-2.162.968-4.269,3.133-4.702,2.162-.449,4.269.968,4.702,3.133,16.206,80.912-5.526,167.174-58.135,230.752l-.909,1.096c-4.086,4.917-7.949,9.56-9.506,15.027-1.385,4.846-.148,11.41,4.257,13.564,4.32,2.111,10.423-.141,18.172-6.669,66.778-56.285,115.372-133.912,136.827-218.577,21.458-84.658,15.695-176.055-16.218-257.357-.808-2.052.203-4.374,2.259-5.178,2.049-.796,4.374.203,5.178,2.259,32.521,82.844,38.39,175.977,16.53,262.243-21.864,86.27-71.379,165.367-139.425,222.722-3.067,2.583-11.094,9.342-19.843,9.346Z"/>
        <path class="cls-3" d="M571.116,808.629c-.269,0-.542-.004-.816-.016-7.285-.234-15.597-4.706-17.388-12.791-2.131-9.635,5.9-17.661,13.424-21.614,1.682-.882,3.434-1.693,5.186-2.505,4.835-2.232,9.4-4.343,12.175-7.988,5.393-7.078,2.056-18.04-4.129-24.139-6.887-6.79-16.822-9.978-27.257-12.901-13.607-3.812-26.149-6.641-38.277-9.381-38.721-8.733-69.303-15.636-99.787-46.323-1.557-1.569-1.549-4.097.016-5.65,1.565-1.561,4.093-1.549,5.65.016,28.845,29.04,58.427,35.713,95.881,44.165,12.225,2.759,24.869,5.611,38.671,9.478,11.484,3.215,22.473,6.774,30.714,14.906,8.784,8.659,13.01,23.995,4.878,34.671-3.98,5.221-9.674,7.855-15.183,10.399-1.631.753-3.258,1.506-4.823,2.33-5.428,2.849-10.419,7.914-9.334,12.811.866,3.914,5.686,6.396,9.841,6.532,5.315.144,10.442-2.092,15.511-4.277,17.392-7.512,33.629-15.453,41.133-29.918,6.302-12.144,5.377-27.058,4.562-40.22-2.376-38.199-4.831-77.697-14.961-115.15-11.223-41.48-31.061-75.121-57.374-97.293-12.752-10.747-27.62-19.339-41.995-27.647-7.843-4.534-15.956-9.221-23.714-14.243-28.295-18.329-45.269-38.078-51.895-60.375-.628-2.115.578-4.343,2.693-4.971,2.142-.613,4.339.585,4.971,2.693,6.056,20.397,21.95,38.694,48.578,55.946,7.586,4.909,15.609,9.549,23.366,14.032,14.676,8.479,29.852,17.252,43.147,28.455,27.561,23.226,48.286,58.26,59.934,101.32,10.345,38.23,12.827,78.141,15.226,116.738.835,13.494,1.877,30.289-5.443,44.395-8.718,16.803-26.289,25.47-45.063,33.575-5.385,2.322-11.457,4.94-18.118,4.94Z"/>
        <path class="cls-3" d="M385.462,233.411h-.164c-9.135-.051-17.989-3.859-24.299-10.454-1.526-1.596-1.471-4.125.125-5.65,1.592-1.526,4.128-1.467,5.65.125,4.749,4.964,11.691,7.953,18.563,7.988h.121c6.829,0,13.748-2.911,18.52-7.801,1.549-1.58,4.078-1.604,5.65-.07,1.58,1.541,1.612,4.074.07,5.65-6.341,6.497-15.168,10.212-24.236,10.212Z"/>
        <path class="cls-3" d="M373.661,296.627c-1.69,0-3.34-.441-4.749-1.342-3.539-2.259-5.034-6.813-4.101-12.495,1.381-8.413,5.518-16.257,11.664-22.149,6.708-9.958,6.641-20.034,5.389-26.765-.402-2.17,1.03-4.253,3.2-4.659,2.17-.414,4.253,1.03,4.659,3.2,1.959,10.548.176,21.123-5.03,30.141.074.148.141.304.199.468,2.642,7.441,2.759,15.679.336,23.195-.738,2.287-2.049,5.604-4.917,7.972-1.947,1.608-4.335,2.435-6.649,2.435ZM378.563,270.306c-3.009,4.039-5.046,8.784-5.869,13.779-.398,2.431-.031,4.113.519,4.464.304.199,1.264.094,2.01-.523.952-.784,1.717-2.138,2.396-4.257,1.401-4.339,1.713-8.987.944-13.463Z"/>
        <path class="cls-3" d="M260.951,212.089c-.89,0-1.791-.047-2.708-.148-8.198-.901-14.614-6.033-18.067-14.442-6.052-14.754-2.166-37.598,8.663-50.92,7.176-8.827,16.655-12.663,26.711-10.797h0c13.451,2.501,20.479,17.763,17.494,37.976-2.888,19.542-14.727,38.331-32.092,38.331ZM270.62,143.313c-7.192,0-12.362,4.351-15.582,8.304-9.022,11.102-12.444,30.722-7.469,42.846,2.353,5.744,6.24,8.952,11.547,9.533,13.693,1.475,23.604-15.062,26.02-31.405,1.924-13.029-.745-27.034-11.047-28.95-1.202-.226-2.361-.328-3.469-.328Z"/>
        <path class="cls-3" d="M429.818,208.991c-5.295,0-10.774-2.201-14.957-5.584-7.863-6.361-11.149-16.498-12.936-23.569-1.483-5.877-2.728-12.784-.718-19.488,2.056-6.844,8.515-13.498,16.694-13.139,2.205.109,3.902,1.986,3.793,4.191-.113,2.201-2.021,3.879-4.191,3.793-3.836-.296-7.492,3.633-8.639,7.449-1.452,4.843-.406,10.419.812,15.234,2.427,9.607,5.576,15.566,10.212,19.316,4.909,3.965,12.272,5.498,16.108,1.167,1.459-1.655,3.996-1.799,5.643-.336,1.651,1.463,1.799,3.988.336,5.643-3.329,3.75-7.68,5.323-12.155,5.323Z"/>
        <path class="cls-3" d="M272.267,204.706c-.706,0-1.424-.187-2.072-.581-6.232-3.789-10.107-11.43-10.111-19.94-.004-7.157,2.466-13.896,5.135-20.116,1.647-3.848,3.539-7.871,6.911-11.02,4.226-3.961,9.993-5.33,14.707-3.485,2.053.808,3.063,3.126,2.256,5.182-.804,2.052-3.137,3.055-5.182,2.255-1.787-.698-4.39.07-6.322,1.881-2.24,2.096-3.711,5.264-5.026,8.335-2.333,5.436-4.491,11.25-4.488,16.959.004,5.658,2.466,10.805,6.271,13.119,1.885,1.147,2.486,3.606,1.338,5.49-.753,1.237-2.068,1.92-3.418,1.92Z"/>
        <path class="cls-3" d="M434.442,197.511c-.308,0-.621-.035-.933-.109-8.729-2.084-16.268-8.538-19.671-16.846-3.407-8.308-2.564-18.196,2.197-25.805,1.167-1.873,3.633-2.443,5.506-1.268,1.869,1.171,2.439,3.637,1.268,5.506-3.418,5.467-4.023,12.569-1.576,18.539,2.447,5.966,7.859,10.606,14.134,12.101,2.146.511,3.469,2.665,2.958,4.815-.437,1.834-2.076,3.067-3.883,3.067Z"/>
        <path class="cls-3" d="M217.468,639.501c-.597,0-1.202-.133-1.772-.418-30.859-15.32-56.297-40.743-71.632-71.59-.983-1.978-.176-4.374,1.799-5.358,1.982-.991,4.374-.176,5.358,1.799,14.563,29.294,38.722,53.44,68.027,67.992,1.978.979,2.786,3.379,1.803,5.354-.698,1.409-2.111,2.22-3.582,2.22Z"/>
        <path class="cls-3" d="M573.169,524.62c-1.494,0-2.927-.839-3.613-2.279-.948-1.99-.102-4.374,1.892-5.326,39.67-18.883,84.471-14.501,127.785-10.259,16.721,1.635,34.012,3.328,50.658,3.629,1.327.023,2.689.035,4.062.035,71.547,0,209.634-32.997,246.314-160.002,12.3-42.588,11.671-89.021-1.768-130.743-15.737-48.871-38.159-87.62-66.646-115.162-34.187-33.063-79.093-50.327-120.188-46.104-43.353,4.429-83.628,33.223-102.6,73.357-18.727,39.599-16.428,88.209,6.002,126.852,21.778,37.535,62.591,64.616,106.51,70.677,2.185.3,3.715,2.318,3.41,4.503-.3,2.185-2.275,3.723-4.503,3.41-46.299-6.384-89.341-34.964-112.333-74.579-23.729-40.883-26.148-92.338-6.314-134.282,20.147-42.604,62.935-73.182,109.016-77.892,43.381-4.421,90.691,13.63,126.556,48.313,29.438,28.467,52.551,68.32,68.698,118.455,13.919,43.221,14.571,91.307,1.838,135.41-17.014,58.911-57.971,105.406-118.443,134.454-50.026,24.03-104.984,31.869-139.757,31.288-16.963-.308-34.417-2.017-51.294-3.668-42.233-4.14-85.899-8.413-123.571,9.525-.554.261-1.14.386-1.713.386Z"/>
        <path class="cls-3" d="M547.094,502.276c-.476,0-.96-.086-1.432-.265-2.06-.792-3.091-3.102-2.298-5.163,10.602-27.624,36.579-49.733,77.217-65.709,9.572-3.766,19.476-7.133,29.052-10.392,21.751-7.402,44.243-15.055,63.5-27.655,25.111-16.428,48.465-48.637,40.395-80.537-.538-2.138.757-4.312,2.896-4.854,2.135-.531,4.312.757,4.854,2.895,6.54,25.86-4.456,63.465-43.767,89.185-20.104,13.15-43.08,20.97-65.303,28.529-9.49,3.231-19.304,6.571-28.701,10.267-38.464,15.121-62.919,35.689-72.682,61.136-.609,1.588-2.127,2.564-3.73,2.564Z"/>
      </g>
      <path class="cls-3" d="M488.339,711.418c-.226,0-.457-.019-.687-.059-19.8-3.43-41.461-3.695-64.398-3.976-15.699-.195-31.928-.394-47.497-1.709-2.201-.183-3.832-2.119-3.645-4.316s2.142-3.824,4.316-3.645c15.281,1.288,31.37,1.487,46.924,1.678,22.243.273,45.238.554,65.666,4.093,2.174.379,3.629,2.447,3.254,4.62-.335,1.943-2.025,3.313-3.933,3.313Z"/>
      <path class="cls-3" d="M110.15,775.707c-2.365,0-4.702-.152-7.012-.46-2.763-.367-6.255-1.132-8.733-3.844-1.842-2.025-2.728-4.546-2.564-7.297.383-6.361,6.201-12.034,8.686-14.177,22.055-19.039,19.62-33.149,15.933-54.51-2.517-14.563-5.646-32.689-.613-56.203.46-2.158,2.591-3.547,4.741-3.071,2.158.46,3.535,2.583,3.071,4.741-4.706,22.005-1.846,38.565.675,53.175,3.699,21.423,6.891,39.927-18.586,61.916-3.414,2.946-5.799,6.407-5.931,8.608-.035.601.101,1.003.492,1.428.741.812,2.568,1.136,3.879,1.311,15.671,2.072,33.227-4.195,52.122-18.656,5.327-4.078,10.575-8.561,15.648-12.897,10.021-8.565,20.385-17.423,32.271-23.983,33.914-18.723,75.605-16.342,109.105-14.43,2.205.125,3.89,2.013,3.762,4.214-.125,2.205-2.185,3.871-4.214,3.762-32.49-1.853-72.897-4.164-104.789,13.447-11.176,6.173-21.224,14.758-30.944,23.066-5.155,4.406-10.481,8.959-15.983,13.166-17.962,13.751-35.088,20.693-51.013,20.693Z"/>
    </g>
  </g>
</svg>