<?xml version="1.0" encoding="UTF-8"?>
<svg id="Layer_2" data-name="Layer 2" xmlns="http://www.w3.org/2000/svg" viewBox="0 0 1421.904 654.408">
  <defs>
    <style>
      .cls-1 {
        fill: #8c5830;
      }

      .cls-2 {
        fill: #d27a3d;
      }

      .cls-3 {
        fill: #531139;
      }

      .cls-4 {
        fill: #f2975e;
      }

      .cls-5 {
        fill: #f4d1ba;
      }

      .cls-6 {
        fill: #fff8ee;
      }
    </style>
  </defs>
  <g id="Layer_1-2" data-name="Layer 1">
    <g>
      <path class="cls-5" d="M602.932,242.507c-4.049.156-8.081.996-11.768,2.702-1.343.461-2.491,1.485-2.851,2.891-1.058,3.398,3.013,6.528,6.03,4.635,1.819-.893,5.789-2.068,9.194-2.021,2.723.052,6.87.135,7.305-3.38.476-4.223-4.75-4.924-7.91-4.827Z"/>
      <path class="cls-5" d="M646.451,249.189c-1.76-2.009-4.86-2.273-7.337-2.883-3.001-.406-6.038-1.452-9.05-1.396-4.585.346-5.023,7.415-.578,8.466,3.434.642,6.859,1.345,10.324,1.799,1.934.18,4.324.661,5.953-.645,1.665-1.124,2.013-3.831.688-5.341Z"/>
      <g>
        <path class="cls-4" d="M824.274,506.277c31.537-29.057,46.298-75.18,37.491-117.148-16.238-71.867-73.834-128.706-142.432-143.861-46.76-17.801-92.287-25.066-137.763-22.011-32.118,2.157-63.698,9.433-95.766,12.238-32.068,2.805-65.73.781-94.105-14.42-28.375-15.201-50.084-46.024-46.893-78.055,19.871-7.012,39.708-24.965,49.525-47.505,1.442-3.31,2.608-7.379.521-10.326-2.531-3.573-7.902-3.025-12.172-2.057-17.851,4.048-35.573,8.669-53.127,13.855-3.604-13.033-10.709-23.677-20.428-30.863,4.06-20.273,13.431-36.616,26.97-48.178,3.044-2.6,6.665-6.034,5.508-9.867-1.225-4.06-6.658-4.713-10.877-4.283-25.781,2.629-50.093,17.229-64.528,38.752-29.27-5.51-60.847.106-87.464,14.861-11.131,6.171-21.801,14.029-34.348,16.162-6.087,1.035-12.637.735-18,3.796-4.502,2.569-7.595,7.455-7.992,12.623-.397,5.168,1.914,10.469,5.971,13.695-4.175,6.559-8.642,13.733-9.818,21.819-1.176,8.086,1.86,17.385,9.618,18.703-2.215,6.543-2.348,13.774-1.579,21.031-26.548-22.667-48.325-50.895-63.512-82.326-3.95-8.174-7.525-16.669-13.243-23.721-5.718-7.052-14.1-12.607-23.177-12.43s-18.155,7.668-17.834,16.741c.382,10.796,11.87,17.002,19.967,24.152,12.734,11.244,18.702,28.355,21.424,45.123,2.721,16.769,2.718,33.926,6.08,50.578,10.455,51.785,56.349,94.404,110.211,100.597,2.895,8.425,7.676,16.196,14.535,23.519-17.062,27.04-29.085,57.249-36.8,91.488-9.585-.928-19.012,3.028-27.171,8.144-8.159,5.116-15.531,11.456-23.943,16.144-12.109,6.748-26.22,9.849-40.042,8.801-6.08-.461-12.252-1.697-18.209-.395-5.957,1.302-11.756,6.157-11.567,12.251.195,6.292,6.263,10.599,11.825,13.547,27.664,14.666,59.308,21.731,90.583,20.225,16.336-.787,32.52-3.864,48.199-8.516,40.775-12.098,78.052-34.883,105.644-61.652,52.938-7.77,108.353,2.446,157.049,26.907-6.267,26.352,3.675,54.585,20.623,75.715,16.947,21.13,40.198,36.209,63.785,49.525,6.581,3.715,14.288,9.542,12.526,16.891-1.189,4.959-6.614,7.924-11.711,8.077-5.097.153-9.98-1.83-14.761-3.603-25.419-9.425-52.734-13.703-79.817-12.501-5.355.238-11.423,1.077-14.503,5.465-3.738,5.327-.615,13.225,4.796,16.841s12.256,4.104,18.753,4.481c47.842,2.775,95.684,5.55,143.526,8.324,5.85.339,12.209.541,16.989-2.849,6.819-4.836,7.411-14.82,5.476-22.953-2.965-12.462-10.088-23.469-15.078-35.266-4.99-11.797-7.723-25.76-3.689-38.233,28.519,11.223,60.569,13.266,91.939,6.071,28.407,29.345,66.429,49.226,105.417,58.46-38.149,10.554-73.716,30.318-102.824,57.14-4.151,3.825-8.499,8.627-7.927,14.243.517,5.083,5.215,8.998,10.219,10.033,5.003,1.035,10.197-.256,14.986-2.037,19.511-7.254,34.977-22.274,52.764-33.088,17.211-10.464,36.794-17.002,56.839-18.975,7.418-.73,14.945-.853,22.176-2.66,7.231-1.807,14.338-5.579,18.258-11.918,6.026-9.746,3.042-22.314-.126-33.326-4.359-15.154-8.717-30.308-16.966-41.997Z"/>
        <path class="cls-2" d="M852.165,353.459c19.861,26.959,49.514,46.538,82.108,54.213,32.594,7.675,67.867,3.385,97.671-11.88,47.578-24.369,77.322-72.793,102.78-119.797,25.459-47.004,50.628-96.816,93.887-128.22,24.953-18.115,55.062-29.041,85.825-31.145,28.371-1.94,59.275,4.742,78.089,26.067,14.584,16.532,23.195,42.732,24.908,64.71,4.93,63.267-18.814,130.675-54.993,182.811-36.179,52.136-77.281,91.081-134,119.539-59.725,29.967-137.394,41.927-203.859,35.036-66.465-6.89-131.549-39.504-168.229-95.93,10.098-11.688,6.681-73.673-4.186-95.405Z"/>
        <path class="cls-5" d="M298.909,174.531c-5.393,21.427-21.523,38.445-42.49,47.506-21.614,32.593-61.256,58.207-82.723,87.251-18.612-34.715-25.671-73.27-18.577-110.052-10.435-4.021-19.479-11.558-25.316-21.097-5.837-9.539-8.432-21.022-4.643-33.299-7.64-1.293-12.403-9.725-12.188-17.47.215-7.746,4.146-14.851,12.51-23.413,6.899,7.732,18.272,9.362,28.633,9.524,10.361.162,21.26-.535,30.508,4.139,13.734,6.942,19.378,23.163,28.38,35.644,18.861,26.148,57.288,35.898,85.905,21.266Z"/>
        <path class="cls-5" d="M275.27,403.897c55.627-36.296,126.433-45.027,191.654-32.454,65.22,12.572,125.302,44.987,178.374,85.266,2.995,19.445,11.057,38.087,25.709,55.827-45.968,6.086-92.559-6.243-135.335-24.14-42.776-17.898-83.042-41.375-125.819-59.27-42.777-17.895-89.37-30.219-134.583-25.228Z"/>
        <path class="cls-5" d="M944.945,524.328c93.42,12.283,190.614-6.047,273.142-51.515,82.528-45.467,149.954-117.83,189.486-203.36-7.635,84.856-60.643,161.993-131.496,209.308s-157.761,66.801-242.958,66.211c-20.274-.141-42.793-2.376-88.174-20.643Z"/>
        <path class="cls-6" d="M250.041,130.442c3.847-6.81,5.538-15.116,3.23-22.589-2.307-7.473-9.115-13.723-16.928-14.084-5.553-.256-10.983,2.39-14.92,6.315-3.937,3.924-6.519,9.024-8.328,14.281-1.6,4.649-2.644,9.72-1.35,14.464,2.116,7.758,10.436,12.815,18.476,12.658,8.039-.157,16.058-4.385,19.82-11.045Z"/>
        <path class="cls-3" d="M213.844,130.992c7.516-3.242,14.09-8.637,18.734-15.378,2.235-3.244,4.053-6.863,4.635-10.758.582-3.896-.185-8.103-2.652-11.173-7.341,2.703-13.654,8.105-17.459,14.941-3.805,6.835-5.071,15.047-3.257,22.369Z"/>
        <path class="cls-3" d="M166.735,243.465c-.643,4.404-4.671,17.193,4.044,14.304,2.004-1.305,2.262-3.955,2.897-6.081.409-2.529,1.366-5.109,1.256-7.664-.335-4.44-7.18-4.862-8.197-.56Z"/>
        <path class="cls-3" d="M175.868,260.043c-.399,3.496-3.564,8.352-.263,11.133,2.804,2.269,6.16-.413,6.507-3.524.455-2.336,1.609-4.699,1.477-7.082-.315-4.183-6.763-4.579-7.721-.527Z"/>
        <path class="cls-3" d="M365.037,391.725c-3.436-1.458-7.178-2.034-10.89-2.171-.933-.006-1.853.382-2.511,1.04-2.233,2.086-.547,6.164,2.511,6.063,4.96.378,2.995.065,9.143,1.404,4.142,1.122,5.871-5.167,1.747-6.337Z"/>
        <path class="cls-3" d="M380.411,390.829c-1.847-1.711-3.473-4.488-6.225-4.583-3.377-.117-5.24,4.388-2.775,6.699,2.108,1.808,3.945,3.896,5.867,5.892,1.964,3.105,6.845,2.302,6.953-1.595-.234-2.535-2.369-4.458-3.82-6.414Z"/>
        <path class="cls-3" d="M395.65,393.28c-3.469-3.004-8.751,1.694-6.313,5.542,2.439,2.795,4.389,8.422,8.886,7.54,6.517-2.434.12-9.957-2.574-13.082Z"/>
        <path class="cls-3" d="M602.373,492.372c-1.055-1.113-2.564-.878-3.951-1.023-3.548-.749-3.357-.697-6.361-2.676-.406-.347-1.069-.923-1.289-1.21-.71-.933-1.753-1.637-2.963-1.606-2.964-.103-4.601,3.852-2.436,5.881,3.214,3.719,8.019,5.959,12.927,6.087,3.454.485,6.68-2.226,4.073-5.453Z"/>
        <path class="cls-3" d="M633.786,492.531c-4.312-.632-2.901.213-6.354.252-5.259.477-5.564-.381-10.095-.693-3.855.291-4.225,6.237-.486,7.121,4.636,1.113,9.533,1.332,14.186.197,1.599-.565,3.745-1.025,4.419-2.773.738-1.48-.106-3.559-1.669-4.103Z"/>
        <path class="cls-3" d="M617.72,475.821c-2.855-.57-5.731-1.825-8.635-1.828-3.812.288-4.175,6.164-.481,7.038,3.998.325,13.833,5.445,14.384-1.133.055-2.898-3.026-3.529-5.268-4.076Z"/>
        <path class="cls-3" d="M773.157,539.179c.517.381-10.31-2.509-10.255-3.08-4.68-2.534-4.767-2.659-8.014-5.66-.784-.786-1.88-1.246-2.992-1.24-3.64-.125-5.654,4.732-2.993,7.225,6.437,6.266,14.959,10.616,23.978,11.308,3.008.401,7.16-.277,7.123-4.093-.782-5.121-4.686-3.831-6.847-4.46Z"/>
        <path class="cls-3" d="M105.156,224.047c-.483-1.786-2.272-2.429-3.64-3.45-3.549-2.934-4.415-4.002-6.291-6.972-1.889-2.851-.423-2.411-2.91-4.486-2.72-1.715-6.406,1.115-5.452,4.191,2.63,6.485,7.756,12.717,14.488,15.044,2.357.498,4.504-2.07,3.804-4.327Z"/>
        <path class="cls-3" d="M207.533,419.673c-1.072-1.033-2.53-1.408-3.972-1.05-.804.06-3.156,2.162-3.717,2.718-1.753,1.341-4.357,3.31-8.39,5.054-1.086.377-4.311,1.511-5.193,1.546-2.269.821-2.015-.694-5.401,1.687-2.88,2.69-.707,7.956,3.241,7.824,8.067-.732,16.015-4.131,21.7-9.97,2.123-2,4.358-5.258,1.733-7.809Z"/>
        <path class="cls-5" d="M321.63,112.918c10.21-2.408,20.421-4.815,30.631-7.223,1.793-.423,3.958-.745,5.233.583,1.716,1.787.273,4.731-1.332,6.617-8.865,10.414-21.532,16.679-33.83,22.663-.09-7.852-.18-15.704-.702-22.64Z"/>
        <path class="cls-1" d="M1312.968,141.89c-6.444.712-12.817,2.339-18.617,5.28-1.555.907-3.51,1.689-3.973,3.616-.841,2.852,2.004,5.728,4.866,4.866,5.239-1.668,10.48-3.399,15.917-4.311,2.626-.775,1.698.694,5.048-1.626,2.881-2.691.707-7.955-3.241-7.824Z"/>
        <path class="cls-1" d="M1265.966,161.319c-4.124,2.632-18.987,10.357-12.682,16.06,4.715,2.719,7.096-2.295,9.443-3.179,2.774-2.419,6.498-3.692,9.111-6.193,3.18-3.674-1.793-9.272-5.872-6.688Z"/>
        <path class="cls-1" d="M1235.981,194.394c-2.082,3.579-4.301,7.097-5.983,10.889-.497.845-.632,1.89-.371,2.835,1.773,4.526,6.222,2.721,7.987-.814,1.981-3.37,4.765-6.576,5.943-10.293.837-4.281-5.528-6.433-7.576-2.618Z"/>
        <path class="cls-1" d="M1298.191,168.536c-5.627,3.439-11.105,7.253-15.757,11.952-2.25,1.851-4.194,5.195-1.264,7.403,2.624,2.209,5.354-.569,7.475-2.124,4.565-3.344,9.135-6.705,14.066-9.5,5.033-2.97.546-10.642-4.519-7.731Z"/>
        <path class="cls-1" d="M980.465,426.931c-4.45-.078-9.214-1.459-13.545-.464-4.723,1.681-3.156,9.241,1.823,9.057,5.659.263,11.322.401,16.988.405,1.637.009,3.344-1.028,3.877-2.608,1.991-6.196-4.993-6.058-9.144-6.39Z"/>
        <path class="cls-1" d="M1027.503,417.201c-2.886-.159-5.652,1.375-8.399,2.129-6.105,2.077-7.454,1.473-11.965,2.564-4.744,1.687-3.171,9.283,1.832,9.097,5.511-.515,11.03-1.599,16.091-3.901,2.282-1.144,5.481-2.58,5.873-5.384.422-2.07-1.32-4.366-3.432-4.506Z"/>
        <path class="cls-1" d="M1062.269,400.455c-.695-1.211-2.2-1.979-3.581-1.716-2.123.07-4.733,2.683-8.061,5.498,2.1-1.235-5.935,3.602-6.275,3.132-5.975,1.674-3.464,10.772,2.527,9.167,6.221-2.264,14.909-6.398,15.763-13.724-.31,2.451.484-1.58-.373-2.358Z"/>
        <path class="cls-1" d="M1004.968,447.531c-2.851-1.617-5.783.784-8.723,1.008-1.371.234-3.465.617-7.424.189-.016-.003-.023-.004-.04-.006-1.516-.37-3.166-.567-4.553.313-3.573,1.933-2.819,7.731,1.136,8.688,6.589,1.401,13.629.674,19.605-2.515,2.885-1.567,2.881-6.108,0-7.676Z"/>
        <path class="cls-1" d="M1047.6,435.326c-3.047-.767-5.336,1.996-8.043,2.92-.239.12-.51.246-.751.356-.537.219-1.076.431-1.624.619-.757.393-3.749,1.016-5.022,1.281-7.431-.505-9.089,8.74-1.701,9.698,5.995-.436,12.063-2.164,16.938-5.77,1.646-1.191,3.551-2.573,3.451-4.837-.029-1.949-1.339-3.765-3.248-4.265Z"/>
        <path class="cls-5" d="M679.357,258.474c-1.124-2.029-3.538-2.647-5.551-3.458-3.107-.782-6.144-2.78-9.356-2.736-4.395.332-4.814,7.107-.554,8.114,4.332,1.117,8.734,4.263,13.282,3.438,2.253-.56,3.406-3.385,2.18-5.359Z"/>
        <path class="cls-5" d="M631.596,268.717c-3.932-1.225-8.05-1.773-12.147-2.076-1.099-.007-2.181.449-2.955,1.224-2.627,2.454-.645,7.253,2.955,7.134,4.583.301,6.14.652,12.096,2.054,2.295.806,5.516,1.144,6.529-1.656,1.742-4.178-3.478-5.663-6.478-6.68Z"/>
      </g>
      <g>
        <path class="cls-3" d="M150.088,117.607h-.035c-8.756-.074-20.867-1.975-28.841-10.583-4.363-4.714-6.622-11.426-6.048-17.958.48-5.443,2.929-10.095,6.897-13.1,4.753-3.602,10.596-4.285,15.751-4.886,1.202-.137,2.398-.277,3.572-.453,11.071-1.655,21.052-6.997,31.618-12.655,3.282-1.756,6.562-3.512,9.871-5.151,28.145-13.935,58.127-18.5,84.412-12.846,30.552,6.579,55.62,27.179,65.42,53.753.765,2.068-.295,4.367-2.365,5.131-2.062.761-4.368-.297-5.131-2.369-8.731-23.667-32.127-42.784-59.606-48.703-24.531-5.28-52.65-.948-79.183,12.198-3.235,1.6-6.439,3.317-9.646,5.034-10.7,5.728-21.766,11.652-34.209,13.513-1.26.187-2.542.336-3.828.488-4.542.527-8.835,1.026-11.851,3.313-2.751,2.084-3.563,5.194-3.76,7.434-.377,4.257,1.137,8.788,3.951,11.824,6.035,6.517,15.862,7.96,23.046,8.023,2.207.019,3.98,1.822,3.961,4.031-.019,2.193-1.805,3.961-3.996,3.961Z"/>
        <path class="cls-3" d="M324.668,151.942c-1.9,0-3.586-1.362-3.93-3.297-.386-2.174,1.061-4.246,3.233-4.632,28.634-5.092,54.945-24.182,68.667-49.819.827-1.541,1.731-3.457,1.395-4.597-.254-.87-1.51-1.69-2.925-1.916-1.992-.304-4.331.215-6.599.722l-66.608,14.871c-2.146.492-4.29-.874-4.77-3.028-.48-2.154.876-4.289,3.03-4.769l66.604-14.871c2.716-.609,6.089-1.378,9.59-.816,4.544.714,8.214,3.684,9.348,7.559,1.143,3.902-.378,7.555-2.019,10.618-14.85,27.745-43.324,48.403-74.311,53.913-.238.043-.472.062-.704.062Z"/>
        <path class="cls-3" d="M308.92,68.303c-.316,0-.636-.035-.958-.117-2.142-.527-3.453-2.689-2.927-4.831,4.542-18.489,14.906-35.611,29.181-48.212l.49-.429c1.413-1.241,2.747-2.408,3.469-3.684.527-.925.597-1.975.33-2.337-.164-.222-.985-.948-4.593-.605-24.502,2.24-47.858,15.394-62.478,35.186-1.309,1.775-3.81,2.154-5.588.843-1.775-1.311-2.15-3.812-.839-5.588C280.959,16.93,306.446,2.574,333.184.128c2.08-.187,8.388-.765,11.763,3.836,2.203,3.001,2.273,7.324.178,11.012-1.389,2.447-3.387,4.199-5.149,5.748l-.472.414c-13.065,11.531-22.549,27.202-26.707,44.122-.449,1.822-2.082,3.044-3.877,3.044Z"/>
        <path class="cls-3" d="M130.366,133.122c-2.154,0-3.929-1.713-3.992-3.883-.17-5.881.739-11.675,2.702-17.232.736-2.084,3.024-3.157,5.098-2.439,2.082.737,3.172,3.02,2.437,5.1-1.633,4.624-2.39,9.451-2.25,14.344.064,2.205-1.672,4.043-3.879,4.109h-.117Z"/>
        <path class="cls-3" d="M147.852,156.301c-.656,0-1.311-.027-1.965-.078-6.682-.531-13.137-3.801-17.638-8.776-.946.367-1.967.597-3.042.683-3.342.262-6.79-.933-9.217-3.196-3.151-2.934-4.968-7.402-5.399-13.271-.743-10.15,2.097-20.303,8.003-28.599,1.276-1.795,3.769-2.216,5.572-.936,1.797,1.28,2.216,3.773.937,5.572-4.757,6.681-7.141,15.203-6.54,23.378.277,3.797,1.245,6.493,2.874,8.011.782.73,2.047,1.14,3.147,1.073.441-.035,1.04-.168,1.379-.601.798-1.015,2.072-1.592,3.329-1.526,1.292.059,2.474.742,3.174,1.826,3.053,4.733,8.436,7.949,14.052,8.394,5.586.414,11.435-1.885,15.195-6.076,1.471-1.647,3.996-1.787,5.643-.312,1.643,1.475,1.781,4,.308,5.643-4.95,5.525-12.397,8.792-19.813,8.792Z"/>
        <path class="cls-3" d="M160.936,207.307c-.529,0-1.065-.105-1.58-.328-24.141-10.411-41.184-36.041-41.441-62.33-.021-2.205,1.75-4.011,3.957-4.035h.039c2.189,0,3.974,1.764,3.996,3.957.228,23.226,15.285,45.874,36.614,55.072,2.027.874,2.96,3.223,2.088,5.248-.652,1.514-2.125,2.416-3.672,2.416Z"/>
        <path class="cls-3" d="M256.173,225.175c-1.764,0-3.379-1.175-3.857-2.962-.572-2.13.693-4.324,2.825-4.893,25.081-6.724,44.698-29.43,47.702-55.22.254-2.197,2.242-3.769,4.431-3.508,2.191.254,3.762,2.24,3.506,4.429-3.373,28.966-25.403,54.467-53.571,62.017-.345.094-.695.137-1.036.137Z"/>
        <path class="cls-3" d="M230.049,225.889c-2.097,0-3.859-1.635-3.984-3.758-.133-2.205,1.547-4.097,3.75-4.226,7.681-.46,15.178-5.385,18.65-12.257.997-1.967,3.403-2.759,5.37-1.764,1.969.995,2.759,3.399,1.764,5.369-4.788,9.471-14.721,15.995-25.308,16.627-.082.004-.162.008-.242.008Z"/>
        <path class="cls-3" d="M213.951,219.759c-2.033,0-3.771-1.545-3.972-3.61-.215-2.193,1.393-4.148,3.588-4.363,4.911-.48,9.65-2.209,13.708-5.003,1.826-1.249,4.308-.788,5.557,1.03,1.251,1.815.792,4.304-1.026,5.557-5.17,3.555-11.209,5.76-17.462,6.368-.133.012-.263.02-.392.02Z"/>
        <path class="cls-3" d="M808.38,519.568c-1.432,0-2.817-.773-3.533-2.123-1.034-1.951-.293-4.37,1.656-5.405,41.66-22.09,63.303-77.728,50.344-129.412-11.168-44.528-44.502-85.087-93.865-114.209-48.122-28.392-105.369-42.671-161.182-40.208-20.034.886-40.317,3.883-59.934,6.782-13.468,1.994-27.393,4.05-41.207,5.428-42.565,4.249-75.084.48-102.325-11.859-35.371-16.019-59.108-47.864-60.474-81.127-.092-2.205,1.623-4.066,3.828-4.156,2.248-.18,4.066,1.619,4.156,3.828,1.225,29.809,23.643,59.618,55.788,74.173,25.909,11.734,57.12,15.289,98.236,11.188,13.625-1.358,27.456-3.403,40.831-5.381,19.815-2.927,40.308-5.959,60.751-6.86,57.356-2.54,116.157,12.144,165.595,41.309,51.216,30.215,85.862,72.53,97.553,119.15,13.827,55.146-9.537,114.65-54.348,138.419-.597.316-1.239.464-1.869.464Z"/>
        <path class="cls-3" d="M678.339,654.408c-5.065.004-9.869-1.647-12.546-6.15-3.469-5.83-1.467-13.33,5.637-21.115,25.514-27.975,58.904-48.766,95.219-59.516-26.086-7.613-54.071-17.802-77.638-35.568-30.133-22.719-47.823-56.316-46.167-87.682.117-2.205,2.021-3.871,4.201-3.781,2.203.117,3.896,1.998,3.779,4.203-1.518,28.747,14.959,59.739,42.998,80.877,26.828,20.225,60.152,30.359,89.282,38.269,1.777.48,2.993,2.115,2.946,3.957s-1.346,3.411-3.145,3.805c-40.294,8.756-77.786,30.359-105.572,60.824-2.111,2.314-6.794,8.081-4.673,11.648,1.717,2.884,7.221,2.689,11.915,1.206,13.855-4.37,25.678-12.85,38.195-21.829,11.82-8.476,24.043-17.244,38.134-22.211,11.065-3.898,22.74-5.256,34.031-6.567,11.232-1.307,21.842-2.54,31.971-6.052,7.412-2.576,11.978-6.064,13.572-10.376,1.658-4.484.228-9.794-1.664-15.773l-17.367-54.904c-.665-2.103.501-4.351,2.605-5.014,2.101-.671,4.351.499,5.016,2.603l17.367,54.904c1.807,5.713,4.283,13.537,1.539,20.955-2.46,6.661-8.669,11.761-18.45,15.152-10.955,3.801-22.5,5.143-33.666,6.442-11.353,1.319-22.079,2.568-32.296,6.169-13.018,4.585-24.246,12.639-36.132,21.165-12.477,8.952-25.378,18.204-40.452,22.961-2.729.858-5.728,1.401-8.639,1.401Z"/>
        <path class="cls-3" d="M108.26,480.378c-31.68,0-60.952-8.195-84.516-23.971-4.056-2.716-9.465-7.082-9.613-13.642-.086-3.777,1.465-7.18,4.489-9.841,5.305-4.671,13.627-5.845,19.533-4.971,27.534,4.179,42.253-4.897,59.29-15.394,11.394-7.016,23.161-14.262,39.738-18.383,12.103-43.666,31.504-97.075,73.621-128.807,1.764-1.327,4.267-.972,5.596.788,1.327,1.76.976,4.269-.788,5.596-40.922,30.831-59.627,83.971-71.352,126.821-.39,1.428-1.535,2.521-2.979,2.845-16.524,3.707-28.277,10.946-39.644,17.946-17.607,10.844-34.248,21.068-64.675,16.495-4.647-.706-10.272.613-13.059,3.067-1.637,1.44-1.801,2.778-1.781,3.66.051,2.158,1.978,4.441,6.07,7.18,29.364,19.659,68.292,26.839,109.603,20.225,67.73-10.856,96.788-35.018,124.888-58.381,22.635-18.82,44.013-36.599,83.214-45.133,2.166-.48,4.287.901,4.755,3.055.47,2.158-.898,4.285-3.053,4.757-37.295,8.117-57.944,25.286-79.806,43.467-27.581,22.929-58.841,48.922-128.733,60.125-10.436,1.674-20.738,2.497-30.796,2.497Z"/>
        <path class="cls-3" d="M641.352,518.085c-31.411,0-65.703-8.261-103.919-24.958-20.561-8.979-40.694-19.577-60.166-29.825-20.365-10.719-41.424-21.801-62.858-30.964-29.409-12.577-86.227-32.021-136.321-21.048-2.168.472-4.288-.89-4.759-3.048-.474-2.154.89-4.285,3.046-4.757,52.272-11.461,110.889,8.55,141.175,21.501,21.731,9.291,42.934,20.451,63.438,31.241,19.347,10.185,39.35,20.713,59.645,29.579,50.012,21.848,92.884,28.853,131.067,21.423,2.162-.437,4.263.991,4.685,3.157.421,2.166-.991,4.265-3.159,4.686-10.3,2.006-20.914,3.013-31.873,3.013Z"/>
        <path class="cls-3" d="M580.058,608.249c-2.103,0-4.027-.121-5.607-.219l-150.521-9.467c-4.659-.293-15.572-.983-19.513-9.447-3.251-6.989.757-15.105,6.509-18.918,5.229-3.469,11.498-4.207,17.494-4.484,23.708-1.104,47.946,2.864,70.07,11.511l1.795.71c5.369,2.131,10.432,4.128,15.494,3.832,4.585-.285,9.615-3.707,9.486-7.867-.14-4.527-5.738-8.031-11.197-10.86-28.463-14.762-48.539-30.125-63.182-48.352-18.53-23.062-27.093-50.736-23.493-75.929.308-2.189,2.328-3.703,4.521-3.391,2.183.312,3.701,2.337,3.389,4.523-3.286,23.007,4.665,48.446,21.813,69.795,13.923,17.326,33.19,32.025,60.632,46.261,4.934,2.56,15.201,7.882,15.505,17.704.279,8.983-8.556,15.574-16.982,16.093-6.835.406-12.984-2.017-18.933-4.378l-1.758-.695c-21.083-8.245-44.167-12.034-66.786-10.973-5.607.262-10.038.898-13.449,3.157-2.886,1.912-5.051,5.943-3.68,8.889,1.715,3.688,7.726,4.523,12.77,4.843l150.519,9.467c6.729.425,14.235.507,18.05-3.863,3.945-4.519,2.607-12.12.576-19.655-1.904-7.059-4.749-13.279-7.759-19.866-6.119-13.377-12.444-27.21-10.269-48.009.228-2.193,2.195-3.797,4.39-3.555,2.195.226,3.789,2.193,3.559,4.39-1.949,18.625,3.654,30.878,9.588,43.849,3.014,6.595,6.13,13.408,8.206,21.107,1.631,6.048,5.026,18.637-2.269,26.991-5.018,5.756-12.766,6.806-18.965,6.806Z"/>
        <path class="cls-3" d="M160.561,289.229c-.185,0-.371-.012-.558-.039-54.529-7.605-102.07-52.289-113.044-106.241-1.937-9.525-2.829-19.265-3.691-28.685-.724-7.91-1.473-16.085-2.837-23.956-3.485-20.1-10.903-34.8-22.049-43.701-1.286-1.026-2.652-2.014-4.023-3.012-5.584-4.051-11.911-8.643-13.845-16.225-1.272-4.995-.158-10.29,3.139-14.91,3.791-5.311,10.027-8.928,16.272-9.439,9.865-.773,20.252,4.449,27.785,14.048,5.077,6.462,8.386,13.907,11.584,21.111.72,1.615,1.436,3.231,2.173,4.831,14.21,30.909,36.316,57.756,63.93,77.638,1.791,1.288,2.197,3.785.907,5.576-1.284,1.791-3.783,2.201-5.578.909-28.732-20.689-51.733-48.621-66.521-80.783-.749-1.631-1.481-3.278-2.214-4.928-3.139-7.063-6.103-13.736-10.567-19.421-5.869-7.484-13.671-11.617-20.849-11.012-3.965.32-7.957,2.665-10.417,6.115-1.104,1.549-2.819,4.683-1.9,8.292,1.221,4.784,5.871,8.16,10.795,11.734,1.471,1.069,2.934,2.131,4.314,3.235,12.721,10.154,21.111,26.496,24.939,48.578,1.419,8.187,2.183,16.526,2.921,24.592.843,9.205,1.715,18.727,3.565,27.823,10.321,50.74,55.033,92.763,106.317,99.919,2.185.304,3.711,2.322,3.405,4.507-.279,2.002-1.99,3.446-3.951,3.446Z"/>
        <path class="cls-3" d="M175.073,310.711c-1.266,0-2.513-.601-3.288-1.721-12.522-18.067-19.765-39.225-20.947-61.183-.119-2.205,1.571-4.086,3.775-4.207,2.154-.172,4.086,1.573,4.205,3.777,1.087,20.186,8.025,40.45,19.534,57.062,1.258,1.815.806,4.304-1.009,5.561-.693.48-1.487.71-2.271.71Z"/>
        <path class="cls-3" d="M231.132,144.575c-1.602,0-3.254-.16-4.95-.499-7.795-1.545-13.414-6.665-15.825-14.407-3.227-10.364.08-23.702,7.865-31.713,6.392-6.579,14.811-8.834,23.698-6.337h.002c14.707,4.121,18.485,17.7,15.704,29.325-2.907,12.163-12.916,23.632-26.494,23.632ZM235.009,98.627c-5.075,0-8.719,2.494-11.055,4.897-5.771,5.939-8.337,16.159-5.966,23.768,1.061,3.41,3.613,7.726,9.752,8.948,11.151,2.217,19.729-7.18,22.116-17.154,1.834-7.676.146-16.904-10.089-19.772h0c-1.707-.476-3.291-.687-4.757-.687Z"/>
        <path class="cls-3" d="M216.756,133.368c-1.875,0-3.547-1.323-3.918-3.235-.421-2.166.993-4.261,3.159-4.683,5.764-1.12,10.953-5.088,13.548-10.356,2.593-5.268,2.573-11.804-.053-17.057-.987-1.975-.187-4.374,1.787-5.362,1.98-.983,4.376-.187,5.362,1.787,3.719,7.441,3.748,16.697.072,24.158-3.674,7.465-11.028,13.088-19.191,14.672-.257.051-.515.074-.767.074Z"/>
        <path class="cls-3" d="M1060.198,550.075c-9.572,0-19.123-.34-28.642-1.03-76.783-5.541-142.305-41.999-175.273-97.524-1.126-1.9-.501-4.351,1.395-5.475,1.902-1.136,4.349-.503,5.477,1.393,31.159,52.485,95.908,88.361,168.977,93.637,66.61,4.796,135.086-7.652,198.044-36.037,112.356-50.654,175.396-184.757,182.627-259.441,4.351-44.918-4.082-80.178-24.393-101.968-14.594-15.659-35.362-23.702-59.758-22.945-45.367,1.19-90.203,19.866-123.005,51.244-28.935,27.678-48.317,64.3-67.063,99.717-3.161,5.974-6.322,11.941-9.517,17.86-22.828,42.241-49.835,84.596-92.548,108.305-32.573,18.091-71.89,22.914-107.884,13.264-35.984-9.654-67.607-33.516-86.761-65.475-1.134-1.893-.519-4.347,1.373-5.479,1.895-1.136,4.347-.523,5.483,1.374,18.096,30.191,47.976,52.742,81.977,61.861,34,9.123,71.155,4.558,101.933-12.53,40.916-22.715,67.145-63.945,89.395-105.121,3.188-5.896,6.333-11.843,9.486-17.802,19.043-35.974,38.733-73.178,68.601-101.75,34.222-32.731,80.994-52.215,128.32-53.46,26.948-.702,49.616,8.105,65.814,25.489,21.915,23.511,31.081,60.925,26.5,108.188-7.629,78.809-70.778,213.423-187.294,265.954-55.173,24.876-114.533,37.75-173.263,37.75Z"/>
      </g>
    </g>
  </g>
</svg>