<?xml version="1.0" encoding="UTF-8"?>
<svg id="Layer_2" data-name="Layer 2" xmlns="http://www.w3.org/2000/svg" viewBox="0 0 1333.953 875.354">
  <defs>
    <style>
      .cls-1 {
        fill: #8b5d39;
      }

      .cls-2 {
        fill: #8c5830;
      }

      .cls-3 {
        fill: #d27a3d;
      }

      .cls-4 {
        fill: #531139;
      }

      .cls-5 {
        fill: #ba8b70;
      }

      .cls-6 {
        fill: #c6a491;
      }

      .cls-7 {
        fill: #f2975e;
      }

      .cls-8 {
        fill: #f4d1ba;
      }

      .cls-9 {
        fill: #fff8ee;
      }
    </style>
  </defs>
  <g id="Layer_1-2" data-name="Layer 1">
    <g>
      <g>
        <path class="cls-3" d="M648.537,596.75c-43.962,3.047-87.304-11.214-127.642-28.957-40.338-17.742-79.248-39.222-121.42-52.01-74.503-22.591-157.417-16.099-227.496,17.812-70.079,33.911-126.622,94.901-155.139,167.342-7.84,19.914-13.676,40.941-13.663,62.343.014,21.401,6.316,43.311,20.395,59.429,27.992,32.045,68.132,33.172,108.483,19.672,84.554-28.289,153.285-104.32,228.539-152.137,80.125-50.912,202.964-69.089,268.162-40.121-.962-12.691,9.798-44.419,19.779-53.373Z"/>
        <path class="cls-7" d="M1131.365,297.882c20.522-1.633,40.755-6.844,59.514-15.327-2.722,20.112,1.575,36.003,9.715,49.626,11.747-8.009,23.402-14.218,35.057-20.427,3.545-1.888,7.84-3.795,11.385-1.907,5.633,3,3.468,11.531.253,17.044-27.615,47.361-75.117,79.067-120.987,109.093,11.395,31.092,15.685,61.832,16.547,92.278.862,30.446-1.586,60.876-2.615,91.316-.667,19.738-.535,40.396,8.5,57.957,5.053,9.821,12.626,18.097,20.438,25.905,20.085,20.074,42.386,37.929,66.367,53.137,6.103,3.871,12.929,8.447,14.06,15.585.885,5.582-2.29,11.282-6.931,14.508-4.64,3.226-10.488,4.287-16.139,4.217-17.4-.215-33.006-10.116-47.547-19.674-25.239-16.591-84.631-61.466-153.982-72.742-56.743,10.502-84.934,2.346-154.704,37.699-11.683,5.92-22.773,13.62-30.699,24.047-7.926,10.427-12.035,24.505-7.868,36.922,8,23.84,38.69,29.046,59.413,43.289,8.39,5.766,15.941,16.791,10.642,25.484-4.121,6.761-13.438,7.659-21.354,7.501-62.065-1.24-123.595-22.088-173.631-58.831-33.815-24.832-63.205-58.237-74.11-98.748-12.319-45.767.644-95.669,26.162-135.61,25.518-39.941,62.525-71.188,101.128-98.688,40.78-29.052,86.053-56.943,107.852-102.019,1.119-32.557,10.535-62.823,29.501-89.801-9.224-12.957-18.553-26.11-24.07-41.028-5.517-14.917-6.862-32.068-.103-46.465,5.088-10.839,14.198-19.148,21.722-28.462,15.416-19.084,24.424-43.255,25.533-67.836-7.822-34.75,1.566-72.947,26.971-99.619-2.302,22.436,1.465,45.465,11.238,67.035,39.741-17.427,87.697-14.793,129.575,10.152,15.932-15.985,29.959-33.868,41.689-53.149,1.78,15.255,3.563,30.594,2.789,45.933-.773,15.339-4.235,30.82-11.038,45.826,1.701,31.074,3.599,62.981,16.465,91.318,4.786,10.542,11.14,20.794,12.127,32.329,1.587,18.541-10.86,35.021-18.865,52.128Z"/>
        <path class="cls-6" d="M1317.324,276.379c-6.398,32.515-24.532,62.591-50.302,83.426-6.883,5.565-14.604,10.617-23.351,11.965-8.748,1.348-18.694-1.859-23.053-9.562,10.072-10.914,19.17-22.727,27.152-35.251,1.833-2.876,3.65-5.908,4.054-9.294.404-3.386-.995-7.226-4.101-8.634-3.431-1.554-7.367.281-10.676,2.08-12.187,6.625-24.375,13.251-36.562,19.876-11.687-26.647-12.494-52.625-7.945-75.265,41.087-11.199,86.851-3.881,124.784,20.66Z"/>
        <path class="cls-1" d="M1320.54,279.749c-17.368-14.985-39.989-22.811-62.714-25.937-22.725-3.126-45.798-1.871-69.064,4.103-4.919-12.903-1.345-28.158,7.394-38.85,8.739-10.691,22.011-17.069,35.641-19.278s27.641-.539,41.055,2.739c16.743,4.091,33.492,11.121,44.779,24.146,11.288,13.024,15.671,33.121,2.909,53.078Z"/>
        <path class="cls-8" d="M560.317,635.188c-90.738-31.987-197.799-5.469-271.194,56.739-60.943,51.654-103.716,131.966-174.083,147.323,41.645-2.788,80.261-23.054,113.97-47.667,33.709-24.613,63.829-53.867,97.577-78.427,58.915-42.876,128.623-77.603,233.731-77.968Z"/>
        <path class="cls-8" d="M864.807,735.606c24.629-18.41,28.904-64.21,18.761-93.239-10.142-29.029-28.651-54.941-35.79-84.85-10.038-42.054,5.454-89.163,33.334-117.46,17.816,34.317,59.385,51.069,98.028,49.753,38.644-1.316,75.104-17.49,116.229-39.743-4.802,39.391,4.005,79.055,5.339,118.716,1.334,39.66-6.886,83.249-37.379,108.644-51.882,43.208-140.594,20.302-198.523,58.179Z"/>
        <path class="cls-8" d="M1112.63,304.339c.784-17.846-5.635-35.907-17.507-49.255-11.872-13.348-29.06-21.83-46.876-23.133-15.405-1.126-32.175,2.617-44.622-5.037-22.091-6.123-46.39-3.897-66.999,6.139-20.61,10.036-37.346,27.792-45.436,48.681,13.266,15.014,33.364,21.822,52.78,26.766,19.416,4.944,39.686,8.88,56.304,20.071,9.872,6.648,17.994,15.578,27.512,22.725,9.517,7.147,31.529,10.904,51.789,8.432-.811-13.905-2.801-28.401-9.011-42.521,12.792,1.011,25.899-2.564,42.067-12.868Z"/>
        <path class="cls-9" d="M977.216,165.271c-3.507-4.296-10.265-4.731-15.236-2.273-4.972,2.457-8.454,7.139-11.245,11.931-2.603,4.468-4.806,9.266-5.548,14.384-.743,5.117.101,10.613,3.131,14.804,3.03,4.19,8.454,6.787,13.509,5.696,3.795-.819,6.925-3.499,9.437-6.46,7.994-9.422,16.202-25.526,5.953-38.081Z"/>
        <path class="cls-9" d="M1088.935,181.739c-3.022-5.06-7.958-9.672-13.852-9.666-5.381.006-10.137,3.991-12.558,8.797-2.421,4.806-2.93,10.324-3.202,15.699-.293,5.777-.331,11.74,1.78,17.126s6.847,10.112,12.613,10.577c5.43.438,10.645-3.028,13.511-7.661,2.866-4.632,3.724-10.239,3.82-15.685.096-5.447,2.22-11.934-2.112-19.187Z"/>
        <path class="cls-4" d="M964.52,159.068c3.29,8.099,3.102,17.544-.506,25.505s-10.588,14.328-18.847,17.192c-2.481-14.993,3.721-31.112,19.354-42.697Z"/>
        <path class="cls-4" d="M1071.472,174.51c4.639,6.024,6.352,14.2,4.521,21.58-1.83,7.379-7.166,13.807-14.082,16.966-5.373-12.037-2.818-27.185,9.561-38.546Z"/>
        <path class="cls-9" d="M1286.793,294.754c-1.997,4.757-4.442,9.302-6.899,13.833-1.145,2.847-4.128,5.992-2.52,9.133,6.055,8.795,16.524-15.383,18.074-19.975.955-4.888-6.315-7.352-8.656-2.99Z"/>
        <path class="cls-9" d="M1274.519,330.854c-.899-3.741-6.385-4.457-8.222-1.075-.853,1.339-2.313,2.491-2.39,4.17-.645,3.045,2.674,5.815,5.587,4.912,2.578-1.011,5.879-5.123,5.025-8.007Z"/>
        <path class="cls-4" d="M1327.879,267.296c-.41-1.981-1.94-3.269-3.394-4.536-1.215-1.076-2.096-1.834-2.907-2.499-.006-.145.016-.284-.017-.435-.758-7.798-2.138-15.758-4.437-23.378.879-.204,1.751-.433,2.631-.627,1.532-.272,3.537-.815,3.678-2.662.285-3.924-4.18-2.954-6.631-2.268-.457.118-.951.242-1.421.361-1.395-3.762-3.023-7.416-4.993-10.866-2.093-1.803-5.287,1.014-3.813,3.347,1.49,2.78,2.744,5.735,3.847,8.78-4.444,1.13-9.137,2.379-13.625,3.869-2.117-6.183-4.506-12.273-7.177-18.238,2.861-.993,5.751-1.959,8.711-2.88,2.308-1.586.372-5.454-2.299-4.614-2.919.777-5.808,1.663-8.68,2.599-.759-1.683-1.523-3.373-2.581-4.824-.363-9.513,1.828-19.113,6.289-27.524,1.373-2.589,2.995-5.188,3.203-8.111.208-2.923-1.639-6.257-4.563-6.455-1.73-.117-3.329.856-4.754,1.844-11.812,8.19-21.003,20.102-25.927,33.607,8.731,2.878,15.476,4.494,21.894,5.903-1.054.821-1.487,2.453-.737,3.646.655,1.269,1.225,2.497,1.84,3.744-6.34,2.308-12.535,5.008-18.541,8.082-3.312-5.728-6.89-11.303-10.732-16.692,1.418-.885,2.833-1.769,4.258-2.659,1.199-1.958-1.068-4.371-3.121-3.366-1.305.705-2.598,1.444-3.895,2.171-.017-.023-.034-.048-.051-.072-.385-.658-1.026-1.152-1.76-1.354-2.435-.754-4.688,2.159-3.327,4.327.008.011.016.023.025.034-4.997,2.94-9.913,6.051-14.71,9.34-1.384-1.751-2.784-3.485-4.19-5.202-2.474-2.081-5.063-8.132-8.746-6.832-1.898.664-2.395,3.398-.945,4.758,3.456,3.696,6.398,7.135,9.142,10.615-5.133,3.714-10.108,7.628-14.844,11.778-.434-.979-.747-.985-1.114-1.623-2.536-2.897-4.011-6.613-6.31-9.586-2.386-2.065-6.023,1.165-4.344,3.814,1.934,3.778,4.292,7.362,7.14,10.515.109.11.248.186.376.277-4.282.682-8.514,1.69-12.629,3.05-2.848,1.381-7.71,1.658-8.974,4.86-.86,2.772,2.457,5.329,4.921,3.783,6.498-3.187,21.511-6.285,27.528-6.488,1.248-.208,2.611-.032,3.791-.489,1.874-.638,2.346-3.34.927-4.671-1.924-1.386-4.521-.993-6.909-.879,4.372-3.619,8.897-7.017,13.535-10.282,2.72,3.686,5.345,7.536,8.188,11.913-.394.04-.788.063-1.182.108-1.205-.008-2.442.754-2.838,1.909-.947,1.918.714,4.372,2.838,4.302,29.985-3.144,59.865,6.771,80.512,25.175,2.587,1.859,4.429,5.005,7.62,5.828,2.461.76,4.994-1.755,4.225-4.226ZM1246.38,233.695c-1.225.01-2.451.015-3.675.07-2.623-5.22-5.91-10.08-9.424-14.774,4.75-3.212,9.602-6.327,14.519-9.421,3.786,5.26,7.255,10.737,10.558,16.312-3.727,2.08-7.378,4.299-10.928,6.673-.532.3-.837.707-1.051,1.14ZM1255.434,234.005c1.911-1.178,3.827-2.3,5.749-3.371.09.16.192.313.282.474.755,1.174,1.358,2.476,1.996,3.751-2.665-.384-5.344-.652-8.028-.854ZM1270.082,236.021c-.317-1.248-1.016-2.436-1.549-3.579-.756-1.501-1.564-2.973-2.361-4.451,5.942-3.026,11.988-5.634,18.224-7.969,2.732,5.955,5.057,11.879,7.15,18.273-1.788.723-3.46,1.517-5.05,2.354-4.369-1.575-8.815-2.934-13.324-4.015-1.023-.238-2.061-.402-3.09-.612ZM1315.511,255.709c-4.995-3.593-10.298-6.741-15.808-9.479.055-.558-.01-1.142-.283-1.703-.293-.986-.621-1.962-.929-2.944,4.498-1.444,9.033-2.773,13.611-3.938,1.81,6.109,3.094,12.461,4.159,18.612-.25-.183-.473-.344-.751-.547Z"/>
        <path class="cls-5" d="M1208.768,257.079c-1.784,10.8-3.177,21.724-3.066,32.689.041,1.62.01,3.585,1.608,4.489,2.02,1.22,4.533-.461,4.53-2.74,1.025-12.997,2.184-22.568,3.8-33.969-.282-3.715-6.019-4.082-6.872-.469Z"/>
        <path class="cls-5" d="M1214.797,318.74c-.665-3.449-.478-7.658-1.062-12.928-1.144-3.214-6.293-2.151-6.167,1.242.154,3.897-.512,21.937,6.713,17.345,1.381-.767.587-5.408.517-5.659Z"/>
        <path class="cls-5" d="M1242.573,255.883c-1.157-2.127-4.617-1.69-5.189.678-4.318,16.191-6.354,32.994-6.027,49.747.074,1.931-.529,4.696,1.758,5.536,4.332,1.25,4.049-3.274,3.765-6.189-.141-12.508.862-23.14,2.867-33.966.855-4.579,1.894-9.123,3.113-13.618.202-.733.096-1.533-.286-2.188Z"/>
        <path class="cls-5" d="M1266.794,259.088c-1.557-1.658-4.594-.413-4.52,1.872-.772,12.845-2.26,22.49-5.238,35.474-.2,1.497-1.042,3.151-.245,4.581.795,1.435,2.903,1.69,4.042.521.923-1.04,1.038-2.542,1.464-3.823,2.907-12.045,4.592-24.385,5.273-36.753.005-.698-.285-1.38-.775-1.872Z"/>
        <path class="cls-5" d="M1250.49,343.685c-1.136-2.091-4.531-1.655-5.093.665-.618,4.705-3.868,14.622-4.73,16.304-.8,2.774-4.045,6.084-1.908,8.862.964,1,2.722,1,3.685,0,3.127-3.954,4.344-9.207,6.028-13.903.756-3.787,2.967-8.145,2.018-11.928Z"/>
        <path class="cls-5" d="M1287.435,269.613c-.677,4.198-2.021,8.241-3.498,12.216-.949,1.792-1.184,4.466,1.099,5.307,5.227,2.479,8.493-13.5,8.692-17.094-.258-3.407-5.511-3.734-6.293-.43Z"/>
        <path class="cls-4" d="M1073.479,623.155c-1.571-2.902-6.279-2.289-7.056.922-.853,4.538-1.16,4.811-2.65,7.868-1.276,1.64-1.52,4.259.366,5.547,4.05,2.888,6.894-3.016,8.219-6.1.881-2.533,2.398-5.64,1.121-8.237Z"/>
        <path class="cls-4" d="M1055.384,646.808c-2.349,2.406-4.842,4.682-7.084,7.188-3.987,3.342.654,9.171,4.607,5.688,2.764-2.336,5.164-5.073,7.755-7.597.693-.691,1.098-1.659,1.093-2.639.111-3.212-4.173-4.985-6.372-2.639Z"/>
        <path class="cls-4" d="M1051.137,632.068c-1.574-2.908-6.217-2.339-7.128.79-.867,2.041-2.005,3.955-3.281,5.765-1.734,1.831-2.8,5.001-.346,6.719,3.323,2.588,6.341-1.496,8.058-4.044,1.417-2.724,4.311-6.09,2.697-9.23Z"/>
        <path class="cls-4" d="M878.148,475.681c-.774-3.218-5.494-3.836-7.075-.925-2.577,3.801-4.751,8.855-3.667,13.472.777,2.201,3.895,2.747,5.482,1.088,2.069-3.518,1.77-5.85,3.031-7.601.836-1.986,2.97-3.687,2.229-6.034Z"/>
        <path class="cls-4" d="M873.664,507.084c.014.101.028.203.04.303-.524-2.142.313-4.478-.406-6.524-1.31-3.684-7.206-2.46-7.063,1.422-.164,3.252-.164,6.939,1.584,9.781,1.319,1.983,4.598,1.703,5.716-.351,1.003-3.108.212-1.924.128-4.631Z"/>
        <path class="cls-4" d="M893.719,496.539c.337,2.62-.121-1.042-.147-1.974-.235-1.602.3-3.363-.427-4.854-1.567-4.406-8.618-2.943-8.446,1.7.182,4.542-.059,10.566,3.631,13.761,1.862,1.141,4.518.436,5.587-1.465,1.275-4.227-.069-3.445-.197-7.168Z"/>
        <path class="cls-4" d="M1050.188,320.206c-1.333,4.433-1.67,4.309-3.97,6.936-2.963,2.978,1.392,7.61,4.552,4.825,3.488-2.571,6.389-6.873,6.456-11.28-.288-3.812-6.164-4.175-7.038-.481Z"/>
        <path class="cls-4" d="M1032.413,322.931c-2.537,2.524-8.6,5.795-5.027,9.816,2.416,2.43,5.27.222,7.244-1.585,1.303-1.339,3.245-2.284,4.006-4.038,1.805-3.678-3.453-7.171-6.223-4.194Z"/>
        <path class="cls-8" d="M928.877,93.739c-3.262-12.283-2.658-25.563,1.705-37.499.602-1.647,1.51-3.48,3.219-3.871,2.604-.596,4.424,2.472,5.28,5.003,2.466,7.294,4.574,14.71,6.314,22.21-6.91,2.905-12.78,8.22-16.518,14.157Z"/>
        <path class="cls-8" d="M1098.623,88.733c4.241-5.505,8.482-11.01,12.723-16.514,1.376-1.786,3.231-3.772,5.451-3.379,2.754.488,3.499,4.058,3.47,6.855-.119,11.197-2.704,22.361-7.519,32.471-2.548-6.429-7.156-12.023-14.125-19.433Z"/>
        <path class="cls-2" d="M45.69,728.322c-4.038-.211-5.538,4.928-6.919,7.933-2.904,8.173-3.934,17.025-3.258,25.662-.009,1.692,1.062,3.452,2.693,4.004,2.703,1.347,6.17-1.015,6.069-4.004-.539-8.847-.12-12.249,1.731-19.753.516-4.012,5.779-12.231-.317-13.841Z"/>
        <path class="cls-2" d="M53.944,694.312c-2.11,2.974-3.251,6.494-4.718,9.803-.63,2.18-2.324,4.29-2.048,6.61.334,4.417,7.142,4.839,8.155.557,1.757-4.713,4.083-9.317,4.928-14.307,1.08-3.808-4.337-6.099-6.317-2.663Z"/>
        <path class="cls-2" d="M73.9,661.684c-3.301,1.175-5.201,4.524-7.061,7.298-1.517,3.036-3.798,6.318-3.755,9.78.343,4.518,7.306,4.949,8.342.57.843-2.991,3.366-7.089,6.262-12.044,1.723-2.666-.532-6.539-3.787-5.603Z"/>
        <path class="cls-2" d="M73.393,723.289c-5.178-1.975-6.597,5.125-8.415,8.488-1.506,3.3-2.874,6.657-4.215,10.026-.339,1.221-.161,2.571.479,3.663,1.934,3.573,7.731,2.819,8.688-1.135,1.853-4.481,3.553-9.024,5.103-13.618,1.003-2.558,1.562-6.248-1.64-7.424Z"/>
        <path class="cls-2" d="M235.84,532.789c-7.858,2.042-15.331,5.68-21.657,10.784-1.288.856-2.084,2.352-2.07,3.899-.138,4.09,5.312,6.348,8.114,3.361,2.764-2.387,10.766-7.039,16.26-8.366,4.382-1.688,10.455-1.183,10.505-6.779-.909-4.943-7.555-3.699-11.153-2.899Z"/>
        <path class="cls-2" d="M292.681,525.242c-6.345-2.311-13.498-.518-20.03.199-3.576.986-8.516.499-10.849,3.801-2.129,3.385,1.385,7.966,5.212,6.78,8.255-1.908,11.186-2.258,18.193-2.978,2.577-.419,5.404-.246,7.719-1.596,2.403-1.313,2.229-5.067-.244-6.206Z"/>
        <path class="cls-2" d="M272.727,549.22c-4.694-1.628-10.09.023-14.828.964-2.317.767-5.261,1.017-6.59,3.333-2.196,3.486,1.428,8.204,5.368,6.983,8.758-2.936,10.144-2.015,15.515-3.304,3.398-1.178,3.638-6.281.536-7.976Z"/>
        <path class="cls-2" d="M433.006,545.186c-3.546-1.02-7.092-3.227-10.786-3.241-4.899.371-5.367,7.923-.618,9.046,4.727,1.476,9.4,3.191,14.298,4.016,1.363.398,2.812-.052,3.828-1.012,4.072-5.067-2.99-7.322-6.722-8.809Z"/>
        <path class="cls-2" d="M473.983,565.087c-4.227-3.896-9.884-5.841-14.774-8.78-1.092-.641-2.442-.816-3.663-.479-3.951.951-4.712,6.746-1.135,8.688,5.682,2.538,10.89,7.128,17.224,7.69,3.771.033,5.051-4.792,2.348-7.118Z"/>
        <path class="cls-2" d="M440.582,570.818c-3.884-2.035-9.117-5.909-13.556-3.967-3.574,1.935-2.819,7.731,1.136,8.689,3.895,1.185,5.198,1.74,9.592,4.885,2.217,1.943,5.501,3.676,7.941,1.158,3.786-4.208-1.744-8.533-5.112-10.764Z"/>
        <path class="cls-2" d="M395.766,534.26c-3.465-.285-7.902-1.758-10.82.694-2.748,2.567-.674,7.585,3.09,7.461,5.76.003,6.318.263,10.716.954,2.383.863,5.481.39,6.195-2.412,1.078-5.066-5.629-5.822-9.181-6.697Z"/>
        <path class="cls-2" d="M398.563,560.255c-1.578-2.605-4.972-2.552-7.656-3.032-4.208-.495-8.464-.175-12.623.568-1.185.322-2.221,1.127-2.841,2.184-2.196,3.486,1.428,8.203,5.368,6.983,2.028-.918,11.858-.043,14.404.112,3.161-.19,4.999-4.188,3.348-6.815Z"/>
        <path class="cls-4" d="M863.106,684.233c.008-1.25-.512-2.48-1.392-3.361-2.793-2.986-8.249-.735-8.114,3.361,1.396,10.869-2.659,20.117-7.369,25.88-1.151,1.957-3.843,2.57-2.52,6.957,5.676,8.967,13.294-5.414,15.683-10.405,3.182-6.965,4.575-14.808,3.712-22.432Z"/>
        <path class="cls-4" d="M985.632,454.122c-1.758-.548-3.397.501-5.1.797-3.227.55-2.356.64-7.1.492-.837.19-6.552-1.368-6.823-1.75-1.457-.83-3.088-1.606-4.79-1.063-3.95.95-4.712,6.747-1.136,8.688,6.849,3.758,15.299,4.817,22.728,2.225,2.49-.855,5.497-2.055,5.436-5.163.028-1.952-1.365-3.685-3.216-4.225Z"/>
        <path class="cls-8" d="M702.731,554.294c-4.16,3.154-22.092,23.955-11.932,26.47,2.668.542,3.977-2.163,5.05-4.103,2.759-4.748,5.432-8.706,7.301-10.833,1.92-3.054,6.356-4.785,6.716-8.579.122-3.595-4.672-5.583-7.135-2.956Z"/>
        <path class="cls-8" d="M684.201,595.774c-1.891-3.493-7.558-2.756-8.494,1.11-1.485,5.665-3.898,11.348-4.22,17.2.33,4.372,7.071,4.789,8.073.551,1.6-3.69,2.741-7.553,3.94-11.387.595-2.423,2.176-5.084.701-7.475Z"/>
        <path class="cls-8" d="M673.953,640.144c.008-1.249-.511-2.48-1.392-3.361-2.791-2.988-8.25-.733-8.114,3.361.863,6.285-.225,13.364,2.509,19.165,2.22,3.256,7.766,1.331,7.613-2.584.556-5.512-.411-11.062-.616-16.581Z"/>
        <path class="cls-8" d="M700.073,619.521c-1.688-4.745-9.282-3.17-9.098,1.831-.073,4.95-1.621,10.188-.531,15.026,1.051,2.977,5.267,3.714,7.413,1.471,2.177-2.629,1.51-6.574,2.059-9.781-.029-2.806,1.132-5.865.157-8.548Z"/>
      </g>
      <g>
        <path class="cls-4" d="M1072.619,321.992c-2.013,0-3.746-1.518-3.968-3.563-.238-2.197,1.346-4.168,3.539-4.406,21.911-2.38,40.329-9.65,53.269-21.033,15.179-13.361,22.644-33.126,19.012-50.346-1.545-7.32-4.897-14.083-8.444-21.24-2.08-4.187-4.226-8.519-5.998-12.998-5.779-14.657-7.356-30.507-8.881-45.835-1.772-17.771-3.442-34.554-11.102-49.527-7.992-15.624-22.652-28.642-41.289-36.653-15.726-6.766-34.101-10.165-56.184-10.392-21.47-.254-60.125,3.52-78.988,31.108-7.235,10.579-10.548,23.148-14.056,36.454-3.883,14.719-7.894,29.945-17.728,42.202-3.539,4.409-7.695,8.245-11.714,11.956-5.908,5.451-11.492,10.602-14.891,17.189-5.853,11.332-4.999,26.223,2.614,45.519,4.979,12.631,19.378,42.351,45.437,45.492,2.189.265,3.75,2.255,3.488,4.449-.265,2.185-2.232,3.75-4.449,3.489-21.353-2.575-40.274-20.982-51.915-50.494-8.507-21.571-9.252-38.62-2.279-52.122,4.047-7.836,10.415-13.712,16.573-19.398,3.976-3.668,7.734-7.137,10.899-11.082,8.772-10.934,12.397-24.681,16.237-39.24,3.527-13.373,7.172-27.206,15.187-38.924,20.959-30.652,62.677-34.788,85.669-34.589,23.156.238,42.542,3.851,59.259,11.039,20.338,8.749,36.408,23.081,45.246,40.36,8.343,16.315,10.169,34.644,11.937,52.371,1.471,14.785,2.993,30.074,8.366,43.693,1.643,4.164,3.715,8.343,5.717,12.382,3.617,7.289,7.356,14.828,9.108,23.144,4.218,19.995-4.242,42.756-21.552,57.994-14.184,12.475-34.129,20.42-57.682,22.976-.148.016-.293.023-.437.023Z"/>
        <path class="cls-4" d="M921.229,109.396c-1.775,0-3.399-1.194-3.863-2.997-9.498-36.762,1.526-78.052,28.08-105.195,1.217-1.253,3.114-1.561,4.663-.769,1.557.788,2.419,2.494,2.135,4.214-3.539,21.353-.851,44.091,7.57,64.035.859,2.033-.094,4.374-2.127,5.233-2.025.862-4.374-.094-5.233-2.127-7.305-17.294-10.575-36.564-9.529-55.407-18.586,24.72-25.579,57.998-17.825,88.018.554,2.135-.73,4.316-2.868,4.866-.336.09-.671.129-1.003.129Z"/>
        <path class="cls-4" d="M1119.516,126.086c-.581,0-1.171-.125-1.733-.398-1.986-.956-2.821-3.344-1.861-5.334,11.898-24.674,15.726-53.55,10.895-80.58-10.345,15.89-22.18,30.839-35.272,44.54-1.522,1.592-4.047,1.658-5.65.125-1.592-1.522-1.651-4.054-.125-5.65,14.957-15.648,28.229-32.97,39.443-51.489.831-1.374,2.392-2.107,4-1.881,1.588.234,2.884,1.397,3.286,2.95,8.14,31.424,4.722,66.22-9.381,95.459-.687,1.428-2.115,2.259-3.602,2.259Z"/>
        <path class="cls-4" d="M976.672,493.013c-25.911,0-49.593-7.004-67.801-20.245-26.262-19.09-42.507-52.305-43.455-88.849-.788-30.418,8.811-63.539,27.756-95.779,1.12-1.897,3.567-2.544,5.471-1.42,1.9,1.12,2.536,3.567,1.42,5.471-18.192,30.952-27.409,62.599-26.656,91.518.882,34.082,15.897,64.956,40.161,82.598,19.952,14.504,47.201,20.896,76.721,18.048,28.79-2.794,55.747-13.521,78.317-23.643,76.643-34.382,135.683-79.039,175.482-132.729,2.521-3.399,4.983-7.297,4.125-10.45-.878-3.227-5.342-4.905-8.987-4.46-4.374.542-8.444,3.11-12.756,5.826l-.613.39c-53.569,33.695-117.811,49.593-180.898,44.778-2.201-.168-3.848-2.088-3.68-4.289.168-2.201,2.107-3.832,4.289-3.68,61.393,4.69,123.906-10.782,176.032-43.576l.605-.382c4.64-2.923,9.896-6.24,16.038-6.997,7.094-.859,15.621,2.728,17.681,10.29,1.756,6.45-1.752,12.37-5.412,17.31-40.626,54.802-100.727,100.31-178.635,135.258-23.159,10.388-50.877,21.4-80.814,24.307-4.858.472-9.662.706-14.391.706Z"/>
        <path class="cls-4" d="M1113.752,359.109c-1.709,0-3.289-1.1-3.82-2.817-1.413-4.593-3.906-8.858-7.207-12.347-1.518-1.6-1.452-4.128.152-5.646,1.604-1.518,4.132-1.452,5.647.152,4.144,4.371,7.274,9.728,9.049,15.484.648,2.111-.535,4.347-2.642,4.999-.394.121-.788.176-1.179.176Z"/>
        <path class="cls-4" d="M1230.95,793.888c-.691,0-1.378-.02-2.06-.055-29.559-1.573-54.307-18.984-78.239-35.822-6.4-4.499-13.014-9.155-19.542-13.361-35.947-23.175-77.486-37.235-120.125-40.657-2.201-.18-3.84-2.103-3.664-4.304.18-2.197,2.068-3.805,4.304-3.664,43.95,3.528,86.765,18.02,123.817,41.906,6.665,4.296,13.345,8.998,19.808,13.544,23.011,16.186,46.803,32.927,74.068,34.374,6.743.367,17.119-1.635,18.196-8.597.644-4.152-2.283-8.678-9.209-14.247-8.058-6.481-16.631-12.663-24.927-18.641-9.974-7.188-20.284-14.621-29.906-22.711-21.458-18.052-35.26-36.275-42.19-55.715-8.245-23.121-6.805-48.009-5.416-72.074l.086-1.452c2.915-50.615,4.277-104.079-13.502-152.466-.761-2.072.301-4.367,2.373-5.127,2.072-.765,4.37.3,5.127,2.372,18.309,49.823,16.943,104.228,13.978,155.682l-.082,1.452c-1.346,23.273-2.735,47.337,4.964,68.928,6.443,18.067,19.464,35.171,39.806,52.282,9.393,7.902,19.581,15.246,29.438,22.348,8.378,6.037,17.041,12.28,25.263,18.894,5.9,4.745,13.576,12.159,12.097,21.7-1.666,10.751-13.466,15.41-24.459,15.41Z"/>
        <path class="cls-4" d="M849.051,752.407c-.991,0-1.986-.367-2.759-1.108-1.596-1.522-1.654-4.05-.129-5.647,24.654-25.809,61.054-33.192,99.33-39.037,5.853-.894,11.746-1.717,17.646-2.536,28.724-4,58.424-8.136,84.084-21.333,32.072-16.491,46.163-41.5,47.111-83.616.055-2.205,1.733-3.961,4.086-3.906,2.205.051,3.953,1.881,3.906,4.086-1.026,45.449-16.413,72.526-51.45,90.547-26.867,13.814-57.249,18.048-86.633,22.137-5.869.819-11.722,1.635-17.54,2.521-36.86,5.631-71.843,12.671-94.765,36.657-.784.823-1.834,1.237-2.888,1.237Z"/>
        <path class="cls-4" d="M875.199,875.354c-22.168,0-51.439-5.51-74.216-12.573-70.267-21.786-157.816-66.891-175.845-158.074-8.714-44.091,5.081-92.962,38.846-137.611,25.836-34.156,60.246-65.713,108.294-99.311,3.52-2.462,7.059-4.901,10.602-7.34,16.163-11.133,32.88-22.644,47.189-36.271,19.456-18.524,31.854-39.108,35.857-59.528.425-2.162,2.497-3.586,4.69-3.153,2.166.425,3.578,2.525,3.153,4.69-4.324,22.051-17.529,44.106-38.191,63.781-14.766,14.056-31.744,25.751-48.165,37.063-3.528,2.427-7.051,4.854-10.555,7.305-47.345,33.106-81.185,64.113-106.499,97.586-32.377,42.803-45.652,89.411-37.379,131.235,17.263,87.323,102.175,130.852,170.366,151.994,46.124,14.301,92.345,15.601,96.443,6.599.823-1.811.859-3.531.109-5.412-1.885-4.757-8.991-10.243-18.098-13.974-14.317-5.869-27.042-11.492-37.773-20.873-12.713-11.11-19.632-26.078-18.508-40.04,1.463-18.2,14.727-30.987,27.553-43.357,4.515-4.355,9.182-8.858,13.135-13.447,14.723-17.08,22.285-39.779,20.752-62.275-1.53-22.5-12.105-43.966-29.005-58.892-1.655-1.463-1.811-3.988-.351-5.643,1.467-1.651,3.988-1.807,5.643-.351,18.465,16.307,30.016,39.759,31.69,64.339,1.674,24.58-6.591,49.378-22.672,68.039-4.199,4.87-8.998,9.502-13.646,13.981-12.296,11.859-23.913,23.062-25.13,38.245-.921,11.453,4.983,23.932,15.8,33.383,9.806,8.573,21.899,13.9,35.541,19.491,5.455,2.236,18.563,8.507,22.5,18.422,1.538,3.871,1.444,7.906-.265,11.667-3.352,7.379-15.726,10.302-31.865,10.302Z"/>
        <path class="cls-4" d="M89.579,852.108c-6.24,0-12.296-.476-18.153-1.424-27.858-4.523-52.063-21.021-63.165-43.057-10.353-20.533-10.969-46.756-1.881-80.174,21.844-80.295,78.434-152.143,151.374-192.187,72.944-40.048,163.943-49.218,243.411-24.549,29.122,9.041,56.98,22.414,83.917,35.35,11.995,5.756,24.397,11.711,36.712,17.185,33.797,15.023,78.504,31.807,124.734,28.131,2.236-.129,4.125,1.471,4.3,3.668.176,2.201-1.467,4.125-3.668,4.3-48.005,3.805-93.949-13.385-128.612-28.794-12.425-5.522-24.877-11.504-36.923-17.287-26.679-12.807-54.268-26.055-82.832-34.921-77.435-24.045-166.109-15.101-237.191,23.924-71.082,39.018-126.224,109.031-147.511,187.278-8.546,31.424-8.117,55.786,1.303,74.477,9.974,19.792,31.935,34.644,57.311,38.764,21.236,3.442,45.468.148,72.027-9.802,48.848-18.309,90.566-52.09,130.907-84.756,27.354-22.153,55.641-45.059,86.227-63.329,24.529-14.653,68.413-34.32,118.022-45.574,57.62-13.072,109.398-11.679,149.739,4.047,2.056.8,3.071,3.118,2.271,5.174-.804,2.056-3.126,3.075-5.174,2.271-84.744-33.009-204.92,7.59-260.76,40.942-30.094,17.977-58.158,40.704-85.294,62.677-40.84,33.071-83.066,67.266-133.135,86.032-20.658,7.742-40.072,11.632-57.955,11.632Z"/>
        <path class="cls-4" d="M1126.196,302.512c-2.127,0-3.894-1.678-3.988-3.824-.098-2.205,1.615-4.07,3.82-4.164,21.404-.929,42.386-5.33,62.365-13.084,2.041-.8,4.37.222,5.17,2.283.796,2.056-.222,4.37-2.283,5.17-20.791,8.066-42.631,12.647-64.909,13.615-.059.004-.117.004-.176.004Z"/>
        <path class="cls-4" d="M1197.77,333.8c-1.608,0-3.126-.979-3.734-2.572-9.303-24.373-10.949-51.743-4.644-77.064.531-2.138,2.677-3.43,4.847-2.911,2.138.535,3.442,2.704,2.911,4.847-5.92,23.749-4.371,49.417,4.355,72.28.784,2.06-.25,4.37-2.31,5.159-.468.179-.948.261-1.424.261Z"/>
        <path class="cls-4" d="M1240.663,376.849c-9.279,0-17.923-4.304-22.149-11.418-1.124-1.9-.499-4.351,1.397-5.479,1.896-1.124,4.347-.499,5.479,1.397,3.933,6.626,12.752,8.339,19.265,7.145,8.448-1.553,15.784-7.157,21.232-11.863,23.55-20.334,39.744-48.36,45.593-78.922.418-2.166,2.505-3.578,4.679-3.173,2.166.418,3.586,2.509,3.172,4.679-6.189,32.318-23.316,61.959-48.223,83.464-6.212,5.365-14.668,11.773-25.009,13.673-1.818.336-3.637.496-5.436.496Z"/>
        <path class="cls-4" d="M1321.856,283.598c-.8,0-1.604-.238-2.298-.73-37.188-26.168-86.371-35.1-131.551-23.885-2.088.499-4.218-.71-4.808-2.782-4.089-14.329.816-30.995,12.503-42.456,9.982-9.794,24.443-15.773,40.723-16.834,12.479-.804,26.129,1.093,42.928,5.994,14.965,4.367,33.656,11.351,45.445,26.722,12.214,15.936,12.206,39.58-.02,52.699-.78.839-1.85,1.272-2.923,1.272ZM1227.095,246.25c33.43,0,66.595,9.658,93.988,27.975,8.28-11.765,5.42-29.239-2.63-39.736-10.372-13.529-27.542-19.886-41.34-23.913-15.878-4.632-28.638-6.442-40.165-5.689-14.372.936-27.034,6.107-35.65,14.563-8.464,8.3-12.706,20.264-11.203,30.831,12.183-2.704,24.611-4.031,37.001-4.031Z"/>
        <path class="cls-4" d="M1283.611,210.081c-.137,0-.277-.008-.418-.019-2.193-.23-3.789-2.193-3.563-4.39,1.011-9.689,3.629-19.07,7.785-27.881l.336-.706c1.065-2.24,2.072-4.355,1.986-6.197-.035-.761-.46-1.456-.823-1.815-12.077,8.768-20.674,19.85-25.563,32.958-.769,2.068-3.075,3.118-5.139,2.345-2.068-.769-3.118-3.071-2.345-5.139,5.639-15.121,15.652-27.784,29.77-37.64.492-.343,1.054-.57,1.647-.667,2.302-.359,4.636.285,6.556,1.846,2.263,1.838,3.75,4.804,3.883,7.746.18,3.836-1.381,7.11-2.755,9.997l-.324.683c-3.77,7.996-6.146,16.506-7.059,25.298-.215,2.052-1.951,3.582-3.972,3.582Z"/>
        <path class="cls-4" d="M1018.917,239.203c-1.182,0-2.365-.102-3.524-.308-5.561-.991-10.719-4.409-13.798-9.147-1.202-1.85-.675-4.328,1.175-5.529,1.85-1.206,4.324-.675,5.529,1.174,1.892,2.919,5.069,5.026,8.495,5.635,3.411.593,7.125-.269,9.919-2.357,1.768-1.327,4.273-.96,5.592.808,1.323,1.764.96,4.269-.808,5.592-3.578,2.677-8.097,4.132-12.581,4.132Z"/>
        <path class="cls-4" d="M1031.041,275.801c-4.843.004-9.81-2.119-13.49-5.935-2.189-2.275-3.922-5.077-5.139-8.296-1.928,3.024-4.597,6.006-8.261,8.144-6.306,3.68-14.173,3.555-19.577-.308-1.795-1.284-2.209-3.781-.925-5.576,1.284-1.791,3.777-2.205,5.576-.925,2.841,2.029,7.317,1.994,10.899-.094,3.368-1.963,6.185-5.662,7.937-10.415,1.705-4.624,2.349-9.83,2.974-14.864.269-2.17,2.162-3.777,4.417-3.477,2.177.246,3.75,2.201,3.524,4.382-.499,4.784-1.015,9.732-.484,14.387.386,3.364,1.537,8.093,4.811,11.492,2.743,2.845,6.724,4.125,9.915,3.192,2.119-.624,4.339.601,4.96,2.712.62,2.119-.597,4.339-2.712,4.96-1.436.418-2.923.62-4.425.62Z"/>
        <path class="cls-4" d="M957.715,215.259c-1.057,0-2.138-.101-3.231-.308-5.818-1.1-10.075-5.287-11.984-11.781-3.649-12.421,1.662-31.381,11.359-40.575,5.58-5.287,12.218-6.946,18.66-4.675h0c10.399,3.668,14.446,15.952,10.314,31.3-3.633,13.502-13.213,26.035-25.119,26.039ZM966.803,164.909c-2.529,0-4.987,1.155-7.445,3.485-7.535,7.145-11.999,22.949-9.19,32.525,1.58,5.381,4.757,5.982,5.803,6.181,8.206,1.491,16.175-8.928,19.148-19.96,2.427-9.014,1.744-19.214-5.252-21.681h-.004c-1.034-.367-2.053-.55-3.059-.55Z"/>
        <path class="cls-4" d="M1072.884,228.874c-5.639,0-10.485-3.098-13.693-8.776-6.364-11.266-5.49-30.936,1.873-42.089,4.242-6.419,10.36-9.521,17.123-8.784h0c10.961,1.217,17.685,12.272,17.131,28.162-.531,15.215-8.183,30.913-21.79,31.471-.215.008-.429.016-.644.016ZM1076.189,177.107c-3.329,0-6.103,1.744-8.456,5.307-5.721,8.663-6.489,25.068-1.584,33.754,2.755,4.874,5.959,4.73,7.051,4.706,8.339-.343,13.736-12.354,14.13-23.764.328-9.334-2.65-19.121-10.025-19.94h0c-.379-.043-.753-.062-1.116-.062Z"/>
        <path class="cls-4" d="M946.695,203.416c-1.982,0-3.703-1.471-3.961-3.489-.277-2.189,1.268-4.191,3.457-4.472,6.107-.776,11.812-4.909,14.883-10.778,2.938-5.623,3.473-12.655,1.463-19.292-.64-2.115.554-4.343,2.665-4.983,2.123-.648,4.343.558,4.983,2.665,2.611,8.624,1.869,17.852-2.033,25.314-4.261,8.152-12.292,13.9-20.947,15.004-.172.02-.343.031-.511.031Z"/>
        <path class="cls-4" d="M1061.115,216.945c-1.697,0-3.274-1.089-3.812-2.794-.663-2.103.507-4.347,2.611-5.014,5.869-1.85,10.782-6.864,12.51-12.776,1.729-5.908.297-12.78-3.648-17.505-1.417-1.694-1.186-4.214.507-5.627,1.697-1.417,4.218-1.186,5.627.507,5.689,6.813,7.676,16.342,5.186,24.869-2.497,8.53-9.311,15.484-17.778,18.157-.398.125-.804.183-1.202.183Z"/>
      </g>
    </g>
  </g>
</svg>