<?xml version="1.0" encoding="UTF-8"?>
<svg id="Layer_2" data-name="Layer 2" xmlns="http://www.w3.org/2000/svg" viewBox="0 0 731.961 951.223">
  <defs>
    <style>
      .cls-1 {
        fill: #8c5830;
      }

      .cls-2 {
        fill: #d27a3d;
      }

      .cls-3 {
        fill: #531139;
      }

      .cls-4 {
        fill: #f2975e;
      }

      .cls-5 {
        fill: #f4d1ba;
      }

      .cls-6 {
        fill: #fff8ee;
      }
    </style>
  </defs>
  <g id="Layer_1-2" data-name="Layer 1">
    <g>
      <g>
        <path class="cls-4" d="M381.794,776.188c-5.437,1.763-5.439,10.285-1.196,14.114,4.243,3.829,10.468,4.235,16.179,4.442,32.849,1.193,67.96,1.811,95.772-15.709,21.026-13.246,35.227-35.794,41.347-59.879,6.12-24.085,4.684-49.613-.761-73.86,29.452-2.75,55.106-11.894,76.066-27.451,20.96-15.557,37.141-37.464,45.848-62.071,17.925-.23,34.377.241,50.83.711,7.978.228,17.961-.809,20.745-8.29,2.527-6.791-3.392-14.145-10.168-16.713-6.776-2.567-14.289-2.07-21.415-3.38-10.089-1.855-19.432-7.51-25.755-15.587-6.706-8.567-10.872-20.328-21.016-24.258-7.81-3.025-16.489-.242-24.69,1.457-22.97,4.758-43.45-.472-63.39-12.828-13.495-8.362-28.951-19.243-42.668-27.234-13.718-7.991-31.827-11.655-45.091-2.932-12.722-11.149-19.757-24.073-21.743-37.786,7.85-46.706,1.385-93.997-17.279-135.946-9.613,30.506-19.227,61.013-28.84,91.519-37.948-23.504-89.098-23.035-128.498-.47-7.705-34.693-8.648-67.993-4.899-100.759-37.607,38.035-53.508,96.213-38.681,149.269-5.333,11.945-11.095,23.699-17.742,36.043-41.529-1.229-83.346,12.16-116.2,39.266-12.492-2.987-26.525,1.985-34.35,12.172-5.865,7.635-8.395,17.716-15.466,24.251-4.951,4.576-11.545,6.849-17.934,9.003-6.741,2.273-13.481,4.545-20.222,6.818-3.223,1.086-6.904,2.645-7.743,5.941-.726,2.854,1.196,5.852,3.752,7.314,2.556,1.461,5.601,1.733,8.538,1.934,19.039,1.301,38.189.974,57.979-1.651,5.01,45.426,37.73,86.653,83.818,100.322-1.637,43.105,7.919,86.588,27.479,125.035,10.545,20.727,25.369,40.41,28.087,63.506,6.785,57.661-4.412,57.572-5.315,84.439-.169,5.021-.267,21.284,9.474,22.154,4.509.403,11.384-6.645,14.019-10.327,2.634-3.682,3.884-8.152,5.006-12.538,6.744-26.36,10.595-53.398,17.451-79.729,6.855-26.331,17.018-52.409,35.224-72.062,30.282,8.623,63.04,8.347,93.449,1.746Z"/>
        <path class="cls-2" d="M405.404,360.086c14.099-25.806,23.647-54.089,28.074-83.16,11.297,21.296,18.148,44.937,19.986,68.974,22.256-35.008,41.238-60.028,61.743-92.503,20.504-32.475,39.338-71.551,43.25-109.758,3.913-38.206-3.711-81.101-32.185-106.875-16.163-14.631-36.849-23.505-58.019-28.714-46.18-11.363-103.126-.74-145.73,20.393-42.604,21.134-70.529,52.612-89.424,96.255-14.775,34.128-19.931,71.851-19.227,109.034.704,37.183,7.093,74.022,14.064,112.163,5.99-30.763,21.106-59.69,42.939-82.174-2.985,33.295-2.074,66.937,3.177,100.911,37.734-23.546,86.98-27.53,131.352-4.548Z"/>
        <path class="cls-5" d="M458.416,719.233c8.468-12.299,5.977-28.885,2.047-43.291-7.508-27.522-19.045-53.941-34.128-78.155,5.965.222,12.045.431,17.79-1.189,5.745-1.62,11.205-5.399,13.307-10.985,2.69-7.15-.624-15.055-4.21-21.801-14.141-26.593-33.571-50.359-56.821-69.505-9.225-7.596-19.769-14.736-31.703-15.35-9.627-.495-18.901,3.331-28.432,4.771-9.531,1.44-20.915-.458-23.52-7.63-19.91,10.646-38.594,23.581-55.567,38.469-11.787,10.339-23.085,22.143-28.208,36.961-5.123,14.818-2.534,33.276,12.676,45.772,27.066,10.784,50.212,31.125,64.384,56.581,14.172,25.456,19.269,55.845,14.838,85.574-15.125,8.459-27.901,21.071-36.553,36.086,57.34,11.344,119.008-1.073,168.503-31.959-1.256-9.301,1.835-18.883,5.598-24.348Z"/>
        <path class="cls-6" d="M290.615,450.955c7.234-7.696,10.417-19.004,8.26-29.343-.914-4.384-2.782-8.65-5.88-11.884-3.097-3.234-7.512-5.337-11.983-5.098-7.353.394-12.974,6.648-16.797,12.942-3.442,5.666-6.169,11.766-8.094,18.11-1.692,5.575-2.663,11.98.4,16.936,3.133,5.069,9.767,7.073,15.683,6.357,5.916-.715,12.696-1.938,18.412-8.02Z"/>
        <path class="cls-6" d="M407.162,412.299c-4.876-2.833-11.396-1.879-15.882,1.538-4.486,3.418-7.069,8.913-7.871,14.495-.802,5.582.021,11.278,1.329,16.764,1.15,4.825,2.716,9.643,5.56,13.707,2.845,4.064,7.128,7.326,12.04,8.021,6.468.915,13.011-2.881,16.568-8.36,3.556-5.479,4.473-12.331,3.89-18.837-.846-9.432-3.535-20.299-15.634-27.327Z"/>
        <path class="cls-3" d="M294.379,412.964c-7.693,3.494-13.868,10.195-16.721,18.148-2.854,7.953-2.349,17.051,1.368,24.639,7.301-3.896,13.908-9.575,17.474-17.043,3.566-7.468,3.654-16.868-2.121-25.744Z"/>
        <path class="cls-3" d="M391.908,414.242c-8.196,12.187-12.252,28.583-3.781,40.579,2.434,3.447,10.066,7.491,14.258,7.974,3.626-7.694,4.565-16.624,2.621-24.904-1.944-8.281-6.76-15.858-13.099-23.648Z"/>
        <path class="cls-5" d="M243.619,391.033c-4.516-16.8-4.237-34.86.796-51.512.469-1.551,1.003-3.135,2.067-4.357,1.064-1.221,2.791-2.004,4.333-1.507,1.932.622,2.777,2.83,3.37,4.771,3.472,11.356,6.944,22.713,10.417,34.069-7.847,4.727-14.793,10.943-20.983,18.536Z"/>
        <path class="cls-5" d="M420.146,372.715c3.643-9.782,7.287-19.564,10.93-29.345.977-2.622,2.591-5.716,5.389-5.717,3.195-.002,4.664,3.931,5.131,7.092,2.305,15.611,1.591,31.663-2.093,47.007-3.406-6.699-8.389-12.589-19.357-19.037Z"/>
        <path class="cls-3" d="M325.84,653.47c-1.39-2.667-2.054-6.032-4.178-8.18-3.1-2.682-7.82,1.512-5.641,4.952,2.02,3.927,3.409,8.479,6.342,11.805,1.787,1.553,4.805.478,5.377-1.779.443-2.373-1.161-4.614-1.899-6.798Z"/>
        <path class="cls-3" d="M335.516,684.933c-.622-3.885-.71-7.941-1.606-11.742-1.377-3.873-7.58-2.59-7.429,1.496.578,4.424.957,8.878,1.691,13.28.276,2.208,1.84,4.851,4.394,4.404,3.508-.471,3.327-4.751,2.95-7.437Z"/>
        <path class="cls-3" d="M351.188,666.119c-1.069-2.757-1.589-5.864-3.084-8.4-2.468-3.598-8.463-.567-7.163,3.569,1.087,3.068,2.041,6.187,3.306,9.188.683,2.357,3.04,4.564,5.569,3.341,3.271-1.252,2.241-5.133,1.373-7.698Z"/>
        <path class="cls-3" d="M449.87,711.44c-2.353-3.43-8.066-.541-6.828,3.402.459,2.775.719,2.438-.642,6.783-2.341,3.596,1.711,7.88,5.176,4.842,3.551-3.841,4.843-10.375,2.294-15.027Z"/>
        <path class="cls-3" d="M434.429,727.517c-1.465-4.12-8.058-2.751-7.897,1.59-.107,3.852-2.448,11.765,3.78,11.381,2.861-.203,3.386-3.285,3.657-5.597.159-2.403,1.312-5.056.459-7.374Z"/>
        <path class="cls-3" d="M274.413,593.711c-2.014-2.31-2.331-1.214-5.402-3.284-2.553-1.34-2.174-2.134-5.435-4.407-3.443-1.689-6.715,3.233-3.926,5.827,3.072,3.325,8.897,7.811,13.606,6.273,1.504-.838,2.05-2.939,1.156-4.409Z"/>
        <path class="cls-3" d="M287.256,590.934c-1.714-.963-3.168-2.739-5.162-3.028-4.049-.792-6.083,5.228-2.475,7.164,3.142,1.944,10.07,6.668,11.003.283.019-2.049-1.935-3.27-3.366-4.419Z"/>
        <path class="cls-3" d="M302.735,591.488c-2.951-.578-4.433,3.809-1.804,5.22,1.584,1.259,4.112,2.164,5.362-.015,1.41-2.406-1.438-4.689-3.559-5.206Z"/>
        <path class="cls-3" d="M411.376,590.9c-.706-2.936-5.011-3.498-6.453-.843-2.427,3.846-1.318,1.463-4.027,4.277-1.863,2.117-.03,5.681,2.739,5.601,2.324-.174,4.221-2.028,5.664-3.72,1.145-1.506,2.644-3.3,2.077-5.315Z"/>
        <path class="cls-3" d="M387.435,591.65c-1.563,1.822-3.394,4.91-.867,6.736,2.993,2.344,6.432-1.865,7.167-4.56.697-3.561-4.598-5.349-6.3-2.177Z"/>
        <path class="cls-3" d="M209.964,770.061c-.714-.873-1.975-2.197-3.387-5.317-.318-.874-.999-2.775-1.04-3.429-.552-.846.676-2.497-1.571-5.333-2.666-2.855-7.881-.7-7.752,3.211.227,6.263,2.815,12.508,7.474,16.764,1.75,1.7,4.154,3.314,6.556,1.845,3.1-1.794,2.344-5.88-.28-7.742Z"/>
        <path class="cls-3" d="M605.564,585.018c-2.887,4.165-3.375,4.727-7.644,9.433-1.562,1.671-3.255,3.38-3.852,5.656-.869,2.866,2.128,5.573,4.913,4.595,3.56-.956,5.992-4.089,8.455-6.639,2.361-3.184,5.837-6.145,6.901-10.014.968-4.957-6.4-7.451-8.773-3.031Z"/>
        <path class="cls-5" d="M108.717,580.285c-3.208-6.957-4.859-11.345-8.478-21.257-2.736-3.988-9.388-.631-7.945,3.959,2.469,7.95,4.955,16.766,10.974,22.772,3.397,2.092,7.515-2.072,5.448-5.473Z"/>
        <path class="cls-5" d="M131.825,602.053c-2.549-2.446-5.354-4.603-8.104-6.815-1.466-1.499-3.962-1.821-5.76-.743-3.091,1.681-3.099,6.526,0,8.209,3.301,2.377,6.379,5.212,10.101,6.911,5.361,2.405,8.081-4.201,3.763-7.562Z"/>
        <path class="cls-5" d="M137.739,578.557c-2.063-2.798-1.593-1.915-3.139-4.12-1.984-2.325-2.6-5.703-4.811-7.745-3.838-3.322-9.683,1.873-6.985,6.132,1.976,4.445,4.881,8.686,8.835,11.581,3.942,3.439,9.283-2.018,6.1-5.848Z"/>
        <path class="cls-5" d="M504.17,632.54c-2.711-3.953-9.298-.624-7.87,3.921,1.663,4.533,2.727,9.258,3.838,13.949.316,1.884.862,3.987,2.97,4.516,8.725,1.745,3.43-18.565,1.062-22.387Z"/>
        <path class="cls-5" d="M513.341,668.126c-1.555-4.374-8.556-2.921-8.385,1.688.848,3.911.143,9.268,3.497,12.003,2.481,1.516,5.931-.439,5.856-3.361.052-3.427-.099-7.031-.968-10.33Z"/>
        <path class="cls-5" d="M492.138,660.413c-1.688-4.746-9.283-3.169-9.098,1.831.847,4.22.189,10.408,3.792,13.307,2.651,1.619,6.337-.469,6.257-3.591.144-3.826.01-7.858-.951-11.547Z"/>
        <path class="cls-5" d="M267.833,751.576c-3.497-.486-4.771,3.801-6.489,6.075-2.226,4.364-5.25,8.538-6.826,13.145-.869,4.446,5.743,6.684,7.871,2.719,2.701-5.176,5.607-10.266,7.835-15.671,1.43-2.346.714-5.963-2.39-6.268Z"/>
        <path class="cls-5" d="M283.553,728.441c-2.775.082-4.31,2.796-6.032,4.615-1.652,2.413-4.415,4.511-5.003,7.442-.946,4.836,6.244,7.266,8.557,2.957,2.693-3.885,11.499-13.349,2.478-15.013Z"/>
        <path class="cls-5" d="M264.237,728.004c-.848-3.318-5.341-4.528-7.714-2.036-2.012,2.945-6.386,6.051-4.082,9.984,1.68,3.092,6.527,3.098,8.208,0,1.475-2.47,4.492-4.771,3.587-7.947Z"/>
        <path class="cls-5" d="M512.385,702.868c-1.873-3.462-7.489-2.73-8.416,1.1-.241,3.58-1.743,7.447-.739,10.948.845,2.431,4.107,3.441,6.261,2.11,2.322-1.345,2.33-4.245,2.786-6.598.136-2.496,1.456-5.226.109-7.56Z"/>
        <path class="cls-5" d="M551.014,493.247c-4.023-4.055-5.093-1.986-7.574-7.144-3.157-5.348-11.298-.575-8.209,4.798,2.249,4.722,7.274,8.809,12.653,8.718,2.956-.178,4.674-3.915,3.13-6.372Z"/>
        <path class="cls-5" d="M575.858,501.992c-3.073-2.007-6.693-2.951-10.07-4.324-1.22-.338-2.571-.161-3.663.479-3.574,1.934-2.818,7.731,1.136,8.688,3.583,1.158,7.164,3.254,11.005,3.066,3.938-.287,5.051-6.064,1.593-7.91Z"/>
        <path class="cls-5" d="M556.229,517.137c-.743-2.729-3.744-3.405-5.941-4.631-2.509-.818-4.928-2.924-7.675-2.199-3.952.95-4.71,6.747-1.135,8.688,3.588,1.268,7.171,3.749,11.021,3.743,2.619-.174,4.478-3.132,3.731-5.601Z"/>
        <path class="cls-1" d="M239.056,249.686c-.919-5.155-.367-10.589-1.321-15.652-1.639-4.605-9.013-3.08-8.833,1.778.307,5.025.402,31.068,9.789,24.017,2.409-2.796.241-6.831.365-10.143Z"/>
        <path class="cls-1" d="M240.131,202.367c-2.717-2.908-8.028-.713-7.896,3.271.037,4.638-2.37,11.731,1.118,15.362,5.611,3.448,7.069-4.03,7.4-8.124.002-3.423,2-7.68-.621-10.509Z"/>
        <path class="cls-1" d="M251.41,214.458c-2.205,5.326-3.147,27.299,7.196,21.021,1.599-1.508,1.261-3.843.972-5.811-.278-1.111-.476-9.312.999-12.682,1.622-5.99-7.475-8.495-9.167-2.528Z"/>
        <path class="cls-1" d="M241.49,172.035c-.799,4.632-6.902,14.358,1.026,15.378,3.697.043,4.271-4.134,5.49-6.785.702-2.637,2.543-5.226,2.322-7.99-.361-4.789-7.741-5.243-8.838-.604Z"/>
        <path class="cls-1" d="M514.526,68.505c-1.149-3.215-1.822-7.194-4.325-9.61-3.839-3.322-9.682,1.873-6.985,6.132.68,1.446,2.294,5.497,3.611,10.046.742,1.99.77,4.565,2.849,5.698,1.971,1.147,4.578.465,5.732-1.503,1.359-3.363-.234-7.338-.881-10.762Z"/>
        <path class="cls-1" d="M523.13,94.867c-.322-1.185-1.127-2.221-2.184-2.841-3.486-2.194-8.204,1.426-6.983,5.368,1.986,7.235,2.105,8.266,2.299,15.332.027,3.368-.54,8.933,3.913,9.551,4.234.609,5.413-4.512,5.525-7.787.285-6.612-.678-13.29-2.57-19.624Z"/>
        <path class="cls-1" d="M523.715,138.441c-1.934-3.574-7.731-2.819-8.688,1.135-.953,4.508-1.864,9.301-1.01,13.88.736,4.674,7.276,5.517,8.661.827.895-4.769.43-8.223,1.046-10.031.392-1.922,1.164-4.005-.008-5.812Z"/>
        <path class="cls-1" d="M500.643,105.333c-1.23-4.736-1.551-10.035-3.739-14.39-2.865-4.177-9.825-.659-8.317,4.144,1.261,5.229,2.452,10.49,4.068,15.621.528,1.382,1,2.914,2.403,3.652,2.001,1.164,4.648.472,5.819-1.526,1.253-2.32.118-5.067-.235-7.5Z"/>
      </g>
      <g>
        <path class="cls-3" d="M247.523,604.115c-.125,0-.254-.004-.382-.02-25.938-2.466-49.792-18.215-62.26-41.098-12.467-22.882-12.76-51.47-.773-74.602,4.043-7.801,9.326-14.805,14.434-21.583,3.75-4.971,7.629-10.118,10.879-15.425,4.554-7.441,8.179-15.699,11.687-23.682,2.864-6.524,5.83-13.271,9.334-19.698,20.229-37.098,60.312-63.161,102.113-66.392,42.393-3.254,85.747,16.666,110.51,50.803,6.072,8.374,11.07,17.513,15.905,26.348,5.416,9.904,11.016,20.143,18.02,28.997,3.719,4.702,7.996,9.217,12.136,13.587,7.262,7.672,14.774,15.605,20.042,25.22,13.728,25.06,9.303,58.958-10.762,82.426-17.868,20.904-46.943,33.087-77.739,32.638-2.209-.035-3.969-1.85-3.937-4.054.035-2.189,1.815-3.937,3.996-3.937h.059c28.47.398,55.208-10.719,71.551-29.836,17.665-20.67,21.798-51.536,9.826-73.396-4.772-8.71-11.605-15.929-18.84-23.565-4.253-4.495-8.659-9.143-12.596-14.126-7.422-9.381-13.189-19.925-18.766-30.117-4.714-8.616-9.588-17.529-15.363-25.493-23.163-31.935-63.766-50.541-103.424-47.525-39.174,3.028-76.745,27.464-95.713,62.248-3.34,6.13-6.236,12.717-9.034,19.086-3.613,8.23-7.352,16.74-12.19,24.646-3.453,5.635-7.449,10.938-11.312,16.061-5.135,6.813-9.986,13.248-13.72,20.448-10.618,20.494-10.345,46.834.695,67.102,11.043,20.272,33.024,34.78,56,36.969,2.197.207,3.809,2.158,3.598,4.355-.195,2.068-1.936,3.617-3.972,3.617Z"/>
        <path class="cls-3" d="M230.892,416.923c-1.807,0-3.442-1.233-3.883-3.067-13.025-54.408,3.914-115.329,43.162-155.202,1.198-1.221,3.036-1.545,4.589-.796,1.541.745,2.435,2.388,2.224,4.089-4.058,32.817-3.707,66.052,1.042,98.78.32,2.185-1.194,4.21-3.379,4.526-2.217.347-4.211-1.194-4.527-3.379-4.265-29.36-5.057-59.126-2.38-88.65-31.514,37.746-44.419,90.905-32.958,138.774.515,2.146-.812,4.3-2.958,4.815-.312.074-.624.109-.933.109Z"/>
        <path class="cls-3" d="M450.991,412.713c-.258,0-.519-.023-.784-.078-2.162-.429-3.57-2.533-3.137-4.698,8.163-41.082,3.676-84.24-12.588-122.763-6.556,26.141-14.469,52.122-23.577,77.4-.745,2.072-3.028,3.165-5.112,2.404-2.076-.745-3.153-3.036-2.404-5.112,10.31-28.615,19.074-58.15,26.051-87.784.386-1.643,1.768-2.864,3.446-3.056,1.662-.172,3.293.699,4.035,2.217,20.845,42.616,27.233,91.713,17.985,138.255-.375,1.9-2.045,3.215-3.914,3.215Z"/>
        <path class="cls-3" d="M217.882,951.223c-2.025,0-4.031-.464-5.966-1.389-8.511-4.074-10.7-14.294-6.509-30.371,7.445-28.568,7.102-58.673-.995-87.058-5.135-18.005-13.447-35.366-21.486-52.157-7.18-14.996-14.606-30.5-19.897-46.651-18.251-55.68-10.263-118.373,21.361-167.701,1.186-1.861,3.664-2.404,5.522-1.206,1.857,1.19,2.396,3.664,1.206,5.522-30.34,47.326-38.003,107.474-20.494,160.895,5.131,15.656,12.444,30.925,19.511,45.691,8.183,17.088,16.643,34.757,21.965,53.413,8.487,29.758,8.846,61.319,1.042,91.264-3.091,11.847-2.341,18.961,2.224,21.146,1.682.808,3.293.812,5.061.023,4.808-2.127,9.131-9.311,10.922-15.304,3.773-12.651,6.158-25.996,8.464-38.905,2.494-13.939,5.069-28.353,9.416-42.198.913-2.907,1.857-6.142,2.872-9.631,8.121-27.854,21.708-74.473,64.535-100.606,1.877-1.155,4.343-.558,5.49,1.331,1.151,1.881.554,4.339-1.331,5.49-40.181,24.521-52.722,67.547-61.022,96.021-1.034,3.547-1.99,6.837-2.919,9.791-4.195,13.357-6.727,27.514-9.174,41.211-2.345,13.123-4.769,26.699-8.675,39.783-2.146,7.192-7.453,16.83-15.34,20.326-1.908.843-3.851,1.268-5.783,1.268Z"/>
        <path class="cls-3" d="M394.265,800.719c-2.002,0-4.027-.191-6.072-.679-4.835-1.151-9.307-4.495-11.671-8.733-1.873-3.36-2.291-7.067-1.175-10.442,1.873-5.643,7.168-8.667,11.574-10.673,16.9-7.687,35.467-10.879,53.909-9.272,4.714-20.397,15.304-39.592,30.074-54.385,1.561-1.569,4.097-1.561,5.65-.008,1.565,1.561,1.565,4.09.008,5.65-14.524,14.551-24.697,33.676-28.654,53.854-.402,2.053-2.33,3.43-4.402,3.2-18.169-2.205-36.606.648-53.277,8.234-2.927,1.331-6.4,3.208-7.297,5.912-.418,1.257-.226,2.614.566,4.035,1.268,2.275,3.898,4.226,6.544,4.854,4.394,1.038,9.197.109,14.282-.874,1.093-.211,2.181-.422,3.27-.613,9.361-1.655,18.906-1.854,28.135-2.049,10.633-.222,20.682-.429,30.542-2.661,42.428-9.592,66.727-55.173,68.05-93.192,1.253-36.216-12.362-74.68-41.625-117.581-1.245-1.822-.773-4.308,1.05-5.553,1.83-1.233,4.312-.773,5.553,1.05,30.258,44.356,44.325,84.381,43.006,122.361-1.424,41.004-27.94,90.234-74.27,100.712-10.649,2.408-21.575,2.634-32.138,2.856-8.928.187-18.157.379-26.913,1.924-1.042.187-2.088.39-3.137.593-3.777.73-7.637,1.479-11.582,1.479Z"/>
        <path class="cls-3" d="M331.167,783.206c-15.96,0-31.893-1.772-47.384-5.393-2.15-.503-3.485-2.65-2.981-4.8.499-2.15,2.65-3.481,4.8-2.981,54.736,12.795,115.201,1.608,161.75-29.914,1.826-1.233,4.308-.765,5.549,1.069,1.237,1.826.757,4.312-1.069,5.549-35.182,23.827-78.028,36.47-120.664,36.47Z"/>
        <path class="cls-3" d="M80.716,516.335c-.57,0-1.147-.121-1.697-.378-1.994-.94-2.853-3.321-1.916-5.319,10.384-22.086,31.51-40.208,59.493-51.017,24.658-9.525,51.021-12.553,76.514-15.48,2.216-.265,4.171,1.323,4.425,3.512.254,2.193-1.319,4.175-3.512,4.425-24.997,2.872-50.842,5.838-74.547,14.996-26.055,10.068-45.636,26.746-55.138,46.967-.683,1.448-2.119,2.294-3.621,2.294Z"/>
        <path class="cls-3" d="M156.875,658.024c-.355,0-.714-.047-1.069-.144-26.621-7.359-50.846-24.646-66.462-47.427-15.617-22.785-23.003-51.614-20.26-79.094.222-2.193,2.135-3.758,4.374-3.578,2.193.219,3.797,2.177,3.578,4.374-2.556,25.633,4.332,52.523,18.902,73.779,14.567,21.251,37.164,37.379,61.998,44.243,2.127.589,3.375,2.79,2.786,4.917-.488,1.772-2.095,2.931-3.848,2.931Z"/>
        <path class="cls-3" d="M17.493,560.255c-2.739,0-5.623-.246-8.46-1.299-4.394-1.623-8.893-5.795-9.03-11.457-.121-4.952,3.251-9.689,8.589-12.073,3.169-1.413,6.396-1.857,9.517-2.287.742-.101,1.487-.207,2.224-.32,12.311-1.951,23.991-8.53,32.037-18.052,2.283-2.7,4.292-5.619,6.419-8.706,2.907-4.218,5.912-8.577,9.709-12.397,6.341-6.388,17.482-12.358,27.998-8.156,2.049.815,3.051,3.137,2.232,5.19-.812,2.049-3.137,3.059-5.19,2.232-6.458-2.568-14.384,1.346-19.374,6.368-3.286,3.309-5.963,7.192-8.792,11.301-2.146,3.11-4.363,6.325-6.899,9.326-9.268,10.961-22.711,18.539-36.891,20.783-.792.125-1.588.238-2.384.347-2.685.371-5.221.718-7.352,1.666-1.947.87-3.898,2.724-3.851,4.581.035,1.58,1.674,3.368,3.812,4.156,2.654.991,5.912.835,9.065.706l49.05-2.142c2.337-.18,4.07,1.619,4.168,3.816.097,2.205-1.612,4.07-3.816,4.167l-49.05,2.142c-1.202.051-2.451.105-3.73.105Z"/>
        <path class="cls-3" d="M705.094,559.576c-15.039,0-30.098-1.405-44.856-4.183-2.17-.406-3.598-2.497-3.188-4.663.406-2.17,2.505-3.586,4.663-3.188,16.487,3.098,33.348,4.433,50.151,3.941,4.343-.125,9.061-.628,11.141-3.387.999-1.327,1.225-2.966.667-4.87-1.019-3.489-4.425-7.02-8.097-8.394-3.652-1.362-7.683-1.787-11.948-2.236-4.051-.425-8.241-.866-12.366-2.162-11.246-3.532-19.285-12.362-27.062-20.904-8.257-9.069-16.054-17.638-26.746-18.816-5.533-.609-11.133.909-17.068,2.521-3.617.979-7.359,1.994-11.211,2.548-25.384,3.61-47.868-12.971-67.684-27.624l-2.271-1.678c-26.402-19.484-48.2-25.392-64.788-17.56-2.002.948-4.378.086-5.319-1.908-.941-1.998-.086-4.378,1.908-5.319,19.464-9.17,44.005-3.001,72.944,18.356l2.279,1.686c19.491,14.411,39.611,29.306,61.799,26.133,3.368-.48,6.712-1.389,10.251-2.345,6.396-1.736,13.022-3.512,20.034-2.755,13.693,1.514,22.89,11.613,31.783,21.384,7.383,8.113,14.36,15.773,23.546,18.656,3.36,1.054,6.977,1.436,10.809,1.838,4.573.484,9.303.983,13.904,2.7,6.041,2.255,11.254,7.738,12.975,13.642,1.264,4.331.57,8.561-1.955,11.913-4.113,5.463-11.051,6.388-17.291,6.571-2.334.066-4.671.102-7.005.102Z"/>
        <path class="cls-3" d="M533.171,648.784c-2.197,0-3.98-1.772-3.996-3.969-.016-2.209,1.764-4.008,3.968-4.023,31.073-.199,62.057-12.331,85.005-33.286,22.945-20.959,37.836-50.713,40.856-81.634.211-2.197,2.224-3.777,4.363-3.59,2.197.215,3.805,2.17,3.59,4.363-3.208,32.868-19.035,64.492-43.42,86.761-24.393,22.27-57.319,35.163-90.34,35.377h-.027Z"/>
        <path class="cls-3" d="M454.636,353.415c-.636,0-1.284-.152-1.885-.472-1.943-1.042-2.677-3.465-1.635-5.412,11.18-20.869,24.326-40.942,37.036-60.355,9.069-13.849,18.446-28.17,26.995-42.612,24.927-42.112,37.457-77.474,39.432-111.29,2.486-42.616-14.028-82.368-43.104-103.748-25.821-18.992-62.763-25.458-109.8-19.253-49.648,6.56-89.399,22.738-118.158,48.079-34.328,30.258-56.625,77.579-62.79,133.244-5.713,51.532,2.099,103.162,10.59,151.628.379,2.174-1.073,4.246-3.247,4.628-2.197.363-4.249-1.077-4.628-3.247-8.589-49.039-16.487-101.313-10.661-153.891,6.384-57.643,29.629-106.78,65.452-138.356,29.969-26.41,71.149-43.236,122.396-50.007,49.144-6.493,88.037.484,115.583,20.736,31.229,22.964,48.988,65.366,46.343,110.654-2.049,35.135-14.93,71.644-40.532,114.896-8.64,14.594-18.067,28.993-27.183,42.916-12.62,19.269-25.665,39.194-36.677,59.754-.722,1.342-2.103,2.107-3.528,2.107Z"/>
        <path class="cls-3" d="M271.869,463.125c-2.591,0-5.311-.34-8.148-1.073-6.095-1.573-10.224-6.142-11.617-12.862-2.763-13.31,5.666-33.961,17.677-43.322,6.798-5.299,14.134-6.466,20.666-3.297,13.864,6.72,16.065,23.998,11.074,37.594-4.487,12.214-15.066,22.961-29.653,22.961ZM282.932,408.814c-2.611,0-5.369,1.124-8.237,3.36-9.603,7.48-16.916,25.013-14.766,35.393.776,3.734,2.669,5.943,5.791,6.751,14.895,3.844,24.553-6.708,28.299-16.908,3.754-10.22,2.536-23-7.059-27.651h0c-1.299-.628-2.642-.944-4.027-.944Z"/>
        <path class="cls-3" d="M404.063,468.12c-12.12,0-20.685-10.029-24.135-21.329-4.538-14.887-.57-33.727,15.734-39.326,6.13-2.099,12.659-.414,18.352,4.788,9.716,8.858,15.152,26.184,12.124,38.616-2.045,8.394-7.656,14.216-15.796,16.393-2.185.585-4.281.859-6.279.859ZM400.91,414.574c-.894,0-1.775.152-2.65.449v.004c-11.687,4.011-14.224,17.841-10.688,29.43,2.685,8.792,9.724,18.013,20.701,15.086,5.342-1.432,8.741-4.983,10.099-10.567,2.369-9.728-2.092-23.842-9.744-30.82-2.611-2.384-5.198-3.582-7.719-3.582ZM396.961,411.245h.039-.039Z"/>
        <path class="cls-3" d="M277.277,458.657c-1.623,0-3.153-.999-3.75-2.611-3.208-8.682-3.161-18.625.129-27.272,3.286-8.647,9.845-16.112,18.005-20.475,1.947-1.042,4.367-.308,5.408,1.639s.308,4.367-1.639,5.408c-6.482,3.465-11.695,9.396-14.306,16.268-2.61,6.868-2.65,14.762-.097,21.661.765,2.072-.297,4.37-2.365,5.135-.457.168-.925.246-1.385.246Z"/>
        <path class="cls-3" d="M405.218,464.538c-.285,0-.574-.031-.862-.094-2.158-.476-3.52-2.607-3.044-4.761,3.098-14.067-1.518-29.7-11.754-39.83-1.569-1.553-1.584-4.082-.031-5.65,1.549-1.573,4.086-1.58,5.65-.031,12.14,12.015,17.611,30.55,13.939,47.228-.41,1.865-2.064,3.137-3.898,3.137Z"/>
        <path class="cls-3" d="M332.747,487.783c-.757,0-1.514-.027-2.271-.086-7.941-.609-15.496-4.394-20.736-10.384-1.452-1.662-1.284-4.187.379-5.639,1.654-1.456,4.179-1.292,5.639.378,3.871,4.429,9.459,7.227,15.328,7.676,5.849.445,11.808-1.475,16.307-5.264,1.69-1.432,4.214-1.202,5.631.48,1.424,1.69,1.206,4.21-.48,5.631-5.51,4.64-12.62,7.207-19.796,7.207Z"/>
        <path class="cls-3" d="M339.997,536.986c-1.299,0-2.575-.632-3.344-1.803-9.689-14.754-12.834-33.762-8.413-50.846.55-2.142,2.724-3.442,4.866-2.868,2.138.55,3.422,2.731,2.868,4.866-3.863,14.941-1.112,31.561,7.36,44.462,1.21,1.846.699,4.32-1.147,5.533-.675.445-1.436.656-2.189.656Z"/>
        <path class="cls-3" d="M319.253,539.077c-.749,0-1.51-.211-2.185-.652-1.846-1.21-2.365-3.684-1.155-5.533,5.369-8.206,9.049-17.665,10.645-27.347.351-2.177,2.384-3.699,4.589-3.293,2.177.355,3.653,2.411,3.293,4.589-1.772,10.774-5.865,21.294-11.839,30.429-.769,1.171-2.045,1.807-3.348,1.807Z"/>
      </g>
    </g>
  </g>
</svg>