<?xml version="1.0" encoding="UTF-8"?>
<svg id="Layer_2" data-name="Layer 2" xmlns="http://www.w3.org/2000/svg" viewBox="0 0 1431.061 772.345">
  <defs>
    <style>
      .cls-1 {
        fill: #f5d1ba;
      }

      .cls-2 {
        fill: #fff7ed;
      }

      .cls-3 {
        fill: #bbbdbf;
      }

      .cls-4 {
        fill: #fff;
      }

      .cls-5 {
        fill: #d0d2d3;
      }

      .cls-6 {
        fill: #521039;
      }

      .cls-7 {
        fill: #a6a8ab;
      }
    </style>
  </defs>
  <g id="Layer_1-2" data-name="Layer 1">
    <g>
      <path class="cls-5" d="M457.238,73.685c-15.784,6.413-28.999,18.926-34.356,30.755-63.488,31.19-118.954,80.975-150.345,144.364-31.391,63.388-36.897,140.633-8.223,205.296,15.784,35.595,40.86,66.128,61.274,99.286,20.414,33.158,36.609,71.497,31.438,110.09-6.721,50.158-50.934,90.777-100.595,100.515-49.661,9.738-102.232-8.234-141.181-40.545-38.949-32.311-65.399-77.627-82.749-125.166C-13.64,471.851,4.259,322.119,85.18,214.579,166.102,107.038,309.624,48.025,457.238,73.685Z"/>
      <path class="cls-3" d="M356.862,144.105c-43.564,32.461-87.683,65.456-121.163,108.242-33.48,42.786-55.608,97.294-48.277,151.125,10.669,78.343,79.902,136.344,152.321,168.075-32.032-55.358-88.003-104.934-88.944-209.337-.702-77.922,33.576-155.216,106.063-218.106Z"/>
      <g>
        <path class="cls-7" d="M1374.994,271.98c5.659,5.104,10.777,10.808,15.241,16.985,2.225,3.078,4.374,6.576,4.135,10.367-.361,5.735-6.345,9.841-12.088,10.036-5.743.195-11.156-2.524-16.09-5.47.9,4.99-5.095,7.706-10.588,7.606-5.493-.1-10.676-2.362-15.819-4.293-26.74-10.037-56.17-11.771-84.434-7.657-28.264,4.114-55.466,13.901-81.221,26.248-9.38,4.497-18.974,9.441-29.369,9.829-13.568.507-26.436-7.033-35.532-17.114-9.096-10.08-15.039-22.54-20.857-34.808-34.044-11.897-70.221-9.985-104.678-4.215-34.457,5.77-68.33,15.248-103.112,18.539-34.782,3.291-71.542-.155-101.321-18.425-6.774,25.092-28.732,42.197-52.799,51.076-24.066,8.88-50.214,10.394-75.86,9.854-39.099-.823-78.1-6.223-115.952-16.054,2.898,4.198-.341,8.997-4.517,10.927-4.176,1.93-8.982,1.729-13.576,1.489-33.022-1.723-66.525-3.534-97.871-14.063-13.767-4.624-27.874-11.717-34.716-24.527-5.606-10.495-5.375-23.03-4.758-34.913,1.5-28.911,4.456-57.746,8.855-86.36.966-6.287,2.061-12.73,5.304-18.202s9.146-9.832,15.492-9.404c-1.535-26.828,13.331-51.094,33.445-66.32s44.873-22.856,69.365-28.902c32.971-8.138,67.107-13.948,100.829-9.934,35.146,4.184,68.08,18.794,97.15,32.4,70.829-24.766,147.706-26.266,222.53-20.663,74.824,5.603,149.14,18.028,224.144,20.159,28.738.817,58.7-.165,82.886-11.983,3.408-23.217,16.589-44.84,35.665-58.506-2.891,16.376-1.878,33.428,1.843,51.379,38.263-16.157,86.361-3.599,106.676,14.932,13.702-12.757,27.403-29.106,41.105-41.863,5.792,22.941.728,48.38-15.331,68.953,5.79,12.451,11.618,25.012,14.735,38.385,3.117,13.373,2.45,38.233-1.855,51.272-5.813,17.606-17.534,33.572-17.534,33.572-.946,25.219-18.719,42.934-29.52,49.667Z"/>
        <path class="cls-4" d="M783.616,231.959c51.775-4.24,103.889-8.478,155.583-3.335,51.693,5.142,103.493,20.259,145.107,51.354-32.746-12.17-69.186-9.183-103.376-2.013-34.191,7.17-67.626,18.35-102.342,22.246-34.716,3.896-72.082-.362-98.666-23.064,7.23-13.323,8.762-29.62,3.695-45.188Z"/>
      </g>
      <path class="cls-6" d="M821.775,274.208c-.71-2.494-3.568-2.987-5.479-4.303-4.208-2.338-4.884-3.482-7.419-4.917-4.087-2.005-7.972,3.838-4.661,6.917,2.623,2.14,5.422,4.119,8.566,5.418,1.857.676,3.795,1.889,5.82,1.651,2.228-.148,3.81-2.664,3.174-4.765Z"/>
      <path class="cls-6" d="M834.898,273.24c-1.173-.69-2.172-1.934-3.586-2.053-3.491-.684-5.243,4.507-2.133,6.176,2.464,1.428,6.191,4.906,8.44,1.388,1.429-2.424-.839-4.31-2.72-5.511Z"/>
      <path class="cls-6" d="M852.385,274.558c-4.621-4.058-10.232,1.438-5.421,5.308,1.476.557,2.934,1.666,4.576,1.157,2.942-.707,3.505-5.021.845-6.465Z"/>
      <path class="cls-6" d="M716.76,306.398c-2.134-3.023-5.738-1.432-8.163.29-5.309,2.629-1.898,1.502-8.672,3.394-4.198,1.155-10.159-.193-14.855-2.049-5.23-1.026-7.87,6.762-3.2,9.264,9.222,4.56,20.819,4.246,29.69-1.005,3.138-2.044,8.345-5.81,5.201-9.894Z"/>
      <path class="cls-6" d="M410.477,151.838c-2.033,0-3.77-1.541-3.972-3.606-2.24-22.941,8.359-47.283,28.35-65.116,15.562-13.876,35.849-23.858,63.855-31.413,57.546-15.523,120.48-13.97,177.199,4.398,12.717,4.117,25.497,9.139,37.851,13.997,32.56,12.799,66.209,26.016,100.677,23.156,2.197-.23,4.132,1.448,4.312,3.649.187,2.197-1.448,4.128-3.649,4.312-36.318,3.052-70.856-10.54-104.263-23.678-12.245-4.815-24.904-9.791-37.387-13.833-55.267-17.884-116.586-19.413-172.656-4.281-26.761,7.215-46.022,16.639-60.617,29.657-18.098,16.143-27.713,37.965-25.719,58.373.215,2.197-1.393,4.152-3.586,4.367-.133.012-.265.019-.394.019Z"/>
      <path class="cls-6" d="M522.263,340.579c-.406,0-.792-.004-1.159-.008-29.801-.261-59.688-3.59-88.822-9.9-18.001-3.898-40.095-10.641-51.244-28.314-10.224-16.206-8.296-37.098-6.891-52.352l5.806-62.931c1.19-12.862,3.352-27.272,14.06-35.455,9.818-7.504,22.719-6.813,35.202-4.956,37.758,5.635,74.824,15.784,110.174,30.176,2.045.831,3.028,3.161,2.193,5.206-.831,2.045-3.173,3.028-5.206,2.193-34.761-14.149-71.211-24.131-108.341-29.668-10.743-1.6-21.712-2.298-29.169,3.403-8.14,6.22-9.876,18.149-10.953,29.836l-5.807,62.931c-1.69,18.297-2.427,34.491,5.689,47.357,9.506,15.07,28.677,20.974,46.179,24.763,28.603,6.197,57.94,9.467,87.198,9.72,3.129.031,5.904-.039,7.894-1.194,1.342-.784,2.119-2.505,1.717-3.219-1.089-1.92-.41-4.359,1.51-5.444,1.912-1.085,4.359-.414,5.444,1.51,2.891,5.108-.074,11.394-4.655,14.06-3.578,2.08-7.726,2.287-10.821,2.287Z"/>
      <path class="cls-6" d="M658.559,346.101c-18.809,0-37.137-2.111-53.8-4.507-48.153-6.938-86.551-17.025-120.839-31.748-12.346-5.299-28.166-12.897-41.024-24.678-13.369-12.261-21.548-27.452-23.031-42.772-.215-2.197,1.393-4.152,3.59-4.363,2.209-.203,4.152,1.393,4.363,3.59,1.296,13.357,8.565,26.73,20.479,37.652,11.968,10.969,27.011,18.176,38.776,23.226,33.629,14.442,71.387,24.35,118.826,31.179,28.4,4.089,61.705,7.324,93.399.328,33.169-7.32,60.133-25.571,73.982-50.065,15.667-27.725,12.038-63.528-8.444-83.281-1.588-1.53-1.635-4.062-.102-5.65,1.534-1.588,4.062-1.631,5.65-.101,23.023,22.203,27.257,62.17,9.849,92.966-14.961,26.469-43.833,46.128-79.211,53.936-14.091,3.11-28.412,4.288-42.464,4.288Z"/>
      <path class="cls-6" d="M232.299,772.345c-33.598,0-68.429-10.84-99.416-31.483-35.393-23.581-65.448-59.009-89.329-105.305-55.996-108.532-58.143-244.441-5.6-354.694,18.067-37.914,60.749-109.281,143.569-161.219,80.007-50.178,173.207-67.231,277.032-50.682,2.181.347,3.664,2.396,3.317,4.573s-2.392,3.691-4.573,3.317c-101.859-16.241-193.209.437-271.53,49.562-81.107,50.865-122.907,120.757-140.604,157.89-51.486,108.04-49.382,241.23,5.49,347.588,23.249,45.074,52.406,79.499,86.66,102.319,40.009,26.652,86.593,36.244,127.812,26.312,45.375-10.934,81.369-46.483,89.571-88.467,6.411-32.825-3.176-70.973-28.494-113.378-7.414-12.413-15.671-24.685-23.659-36.556-14.547-21.618-29.586-43.974-40.341-68.339-28.174-63.816-25.778-141.966,6.411-209.048,29.93-62.381,83.897-114.311,151.955-146.231,2.01-.94,4.382-.074,5.315,1.92.936,1.998.078,4.378-1.92,5.315-66.396,31.14-119.009,81.731-148.147,142.453-31.19,65.003-33.547,140.655-6.302,202.364,10.466,23.718,25.306,45.773,39.662,67.106,8.042,11.956,16.362,24.319,23.885,36.919,26.359,44.149,36.279,84.19,29.477,119.005-8.792,44.996-47.185,83.054-95.541,94.706-11.269,2.712-22.91,4.05-34.702,4.05Z"/>
      <path class="cls-2" d="M1309.681,169.12c2.88-6.961,5.816-14.248,5.232-21.759s-5.888-15.234-13.395-15.865c-4.064-.342-8.089,1.43-11.214,4.051-3.125,2.621-5.47,6.037-7.643,9.488-4.308,6.841-8.232,14.928-6.118,22.731,1.693,6.249,7.486,11.167,13.927,11.825,6.441.658,15.52-1.548,19.211-10.471Z"/>
      <path class="cls-1" d="M1256.364,72.244c-1.346-7.209-.898-14.746,1.292-21.744.327-1.043.705-2.1,1.406-2.939.701-.839,1.791-1.43,2.871-1.259,1.587.251,2.488,1.918,3.074,3.413,1.673,4.274,2.757,8.777,3.212,13.344.257,2.578.304,5.246-.56,7.689-.864,2.443-2.793,4.638-5.32,5.21-2.527.571-5.456-.936-5.975-3.713Z"/>
      <path class="cls-6" d="M1420.763,179.435c-5.192,1.375-8.867,6.269-10.262,11.455-1.395,5.187-.897,10.675-.268,16.009,8.143-6.621,12.973-17.131,10.529-27.465Z"/>
      <path class="cls-6" d="M1296.802,137.291c-2.531-1.013-5.482-.484-7.866.906-2.385,1.39-4.27,3.558-5.856,5.872-5.342,7.793-7.669,17.729-6.353,27.128,5.158-1.94,10.484-3.986,14.433-7.953,6.344-6.373,7.795-16.316,5.643-25.953Z"/>
      <path class="cls-6" d="M1005.82,257.655c-2.389-1.074-4.77-2.363-7.26-3.126-2.751-.538-4.136,3.553-1.682,4.87,2.661.745,6.3,3.71,8.942,2.619,1.631-.912,1.648-3.455,0-4.364Z"/>
      <path class="cls-6" d="M984.695,260.854c-2.111-.481-4.423-1.942-6.509-.684-2.863,1.548-2.257,6.191.909,6.957,2.122.239,4.445,1.527,6.468.376,2.737-1.48,2.157-5.918-.869-6.65Z"/>
      <path class="cls-6" d="M1197.48,204.051c-.144-.328-.192-.435-.208-.471-.059-.137-.128-.299-.22-.515-.599-1.511-1.137-3.048-1.485-4.638-.69-1.584.636-1.946-1.534-4.945-2.486-2.662-7.348-.652-7.227,2.994.181,4.37,3.016,14.627,8.723,13.597,2.623-.676,3.442-3.91,1.952-6.023Z"/>
      <path class="cls-6" d="M1212.951,210.105c-.922-1.772-1.346-4.077-2.988-5.325-3.564-3.086-8.988,1.74-6.484,5.693,1.734,3.257,4.437,9.622,8.962,6.36,2.361-1.599,1.518-4.57.511-6.728Z"/>
      <path class="cls-6" d="M1228.643,215.02c-1.094-1.334-1.664-3.406-3.434-3.964-2.25-.701-4.322,1.995-3.069,3.992,1.232,1.54,2.081,4.429,4.518,4.013,1.867-.125,2.968-2.479,1.985-4.04Z"/>
      <path class="cls-6" d="M1158.667,305.327c-.285-1.141-1.073-1.998-2.029-2.637-.497-.431-2.214-.647-2.905-.695-5.841-1.056-7.399-1.575-11.223-3.814-5.673-3.283-10.695,5.321-5.067,8.668,4.591,3.23,22.498,8.677,21.223-1.521Z"/>
      <g>
        <g>
          <path class="cls-4" d="M139.74,698.107c-1.757-3.505-5.52-5.709-7.996-8.74-5.511-5.574-6-7.417-10.643-13.05-3.778-3.27-9.54,1.843-6.881,6.041,5.222,7.864,11.534,15.289,19.663,20.251,2.943,1.835,6.858-1.182,5.856-4.502Z"/>
          <path class="cls-4" d="M175.037,718.258c-1.393-1.029-3.277-1.21-4.897-1.766-6.377-1.763-9.705-5.015-13.232-9.147-3.905-3.382-9.861,1.907-7.112,6.244,4.363,6.227,11.302,10.878,18.957,11.621,2.302.186,5.408.328,6.965-1.672,1.312-1.493.965-4.167-.681-5.28Z"/>
          <path class="cls-4" d="M216.399,725.073c-1.493-1.625-3.751-.989-5.685-.894-5.486.542-7.801.396-10.73-.273-2.118-.515-4.388-1.678-6.444-.332-3.569,1.932-2.817,7.725,1.135,8.681,5.022,2.818,27.993,2.403,21.724-7.182Z"/>
          <path class="cls-4" d="M162.486,684.36c-2.884-2.045-3.569-2.402-7.259-6.122-3.336-2.95-1.531-3.432-5.679-5.517-3.866-1.204-7.431,3.43-5.275,6.862,2.785,4.605,20.102,21.397,22.931,10.701.633-3.114-2.635-4.457-4.717-5.924Z"/>
        </g>
        <g>
          <path class="cls-4" d="M173.283,150.147c-4.295,2.564-24.574,16.143-15.643,20.892,2.645,1.309,4.656-1.28,6.429-2.86,4.545-4.309,5.759-5.263,9.709-8.065,1.986-1.634,5.133-2.339,5.888-5.06,1.12-3.596-3.191-6.913-6.384-4.908Z"/>
          <path class="cls-4" d="M135.303,181.875c-2.879,4.238-18.094,16.403-8.028,19.574,2.979.352,5.205-2.461,7.142-4.342,2.85-3.316,6.356-6.301,8.658-9.994,2.252-4.592-4.311-8.959-7.772-5.238Z"/>
          <path class="cls-4" d="M105.886,215.526c-3.176,5.202-13.247,21.034-7.897,26.097,1.321,1.163,3.661,1.161,4.981,0,3.383-3.846,3.655-7.687,4.896-9.613,1.664-4.778,5.306-8.746,6.952-13.399.986-5.044-6.517-7.587-8.932-3.086Z"/>
          <path class="cls-4" d="M132.964,219.501c-2.203,4.97-15.033,18.116-6.412,21.411,4.283.994,6.413-3.836,8.568-6.645,2.123-3.92,5.583-7.398,6.88-11.644.998-5.104-6.593-7.674-9.036-3.122Z"/>
          <path class="cls-4" d="M162.344,189.962c-1.77,3.734-4.218,7.3-5.453,11.224-.549,2.596,2.28,4.959,4.765,4.189,2.354-.729,3.123-3.373,4.525-5.164,1.288-2.508,3.548-4.72,4.163-7.485.884-4.521-5.838-6.793-8-2.764Z"/>
        </g>
        <g>
          <path class="cls-4" d="M46.724,391.09c-1.002-4.162-7.108-4.965-9.154-1.197-3.451,7.807-5.387,16.577-4.258,25.109.365,2.977.962,7.708,5.018,7.078,3.805-.393,3.294-4.698,3.566-7.515.637-5.922.394-6.062,1.942-12.47,1.11-5.949,3.325-6.223,2.886-11.005Z"/>
          <path class="cls-4" d="M44.343,456.608c-.035-.236-.053-.356-.074-.491-.879-5.414.938-4.761-.682-8.97-2.367-4.37-9.521-2.443-9.354,2.533-.32,5.695.669,15.739,6.967,17.738,2.106.428,4.441-1.343,4.583-3.49.252-2.496-1.152-4.855-1.441-7.319Z"/>
          <path class="cls-4" d="M68.536,430.486c-.685-3.386-.799-2.643-.471-7.209.084-.469.199-1.056.31-1.424.543-1.529.593-3.265-.276-4.685-2.041-3.774-8.164-2.977-9.174,1.199-1.785,6.516-1.54,14.846,3.226,20.018,2.04,1.79,5.556,1.033,6.847-1.308,1.369-2.168.06-4.394-.462-6.591Z"/>
        </g>
      </g>
      <path class="cls-6" d="M1356.049,280.357c-6.064,0-11.551-2.7-14.376-7.207-1.171-1.873-.605-4.339,1.264-5.51,1.869-1.171,4.331-.609,5.51,1.264,1.768,2.829,5.803,3.742,8.987,3.383,4.199-.461,8.413-2.697,12.132-4.671,7.508-3.968,16.85-8.913,22.11-16.623,7.8-11.437,6.201-26.753,3.699-42.756-.34-2.181,1.151-4.222,3.332-4.566,2.17-.328,4.226,1.155,4.566,3.333,2.646,16.947,4.445,34.651-4.995,48.493-6.38,9.35-16.686,14.801-24.97,19.183-4.136,2.193-9.283,4.925-15,5.553-.761.082-1.514.125-2.259.125Z"/>
      <path class="cls-6" d="M1318.927,279.795c-13.685,0-27.249-5.288-37.235-14.727-3.485-3.293-6.482-7.004-9.381-10.598-4.093-5.077-7.96-9.869-12.924-13.279-11.414-7.843-26.847-7.215-42.994-5.799l-79.035,6.946c-2.232.242-4.136-1.428-4.331-3.629s1.432-4.14,3.629-4.331l79.035-6.946c17.654-1.553,34.62-2.174,48.223,7.172,5.924,4.07,10.345,9.549,14.618,14.848,2.86,3.543,5.557,6.887,8.647,9.81,9.806,9.26,23.647,13.864,37.036,12.226,13.392-1.604,25.762-9.318,33.098-20.635,1.202-1.846,3.676-2.38,5.525-1.178,1.85,1.198,2.38,3.672,1.179,5.525-8.608,13.283-23.132,22.34-38.85,24.225-2.076.246-4.16.371-6.24.371Z"/>
      <path class="cls-6" d="M1242.304,83.292c-1.982,0-3.699-1.471-3.961-3.485-3.933-30.597,10.829-62.408,36.731-79.164,1.389-.905,3.196-.851,4.534.133,1.335.983,1.928,2.689,1.487,4.288-5.366,19.433-3.695,41.117,4.585,59.493.905,2.014.008,4.378-2.002,5.288-2.033.901-4.382.004-5.288-2.002-7.531-16.729-10.052-35.967-7.278-54.194-18.149,16.003-27.948,40.989-24.841,65.135.281,2.189-1.264,4.191-3.453,4.476-.176.02-.347.031-.515.031Z"/>
      <path class="cls-6" d="M1410.804,102.534c-.874,0-1.752-.285-2.49-.874-1.725-1.377-2.006-3.89-.628-5.615,6.443-8.07,10.864-18.637,13.143-31.401,1.561-8.745,2.01-17.763,2.158-26.289l-34.031,31.76c-1.619,1.506-4.14,1.416-5.65-.195-1.502-1.616-1.416-4.144.195-5.65l40.836-38.109c1.175-1.089,2.868-1.377,4.328-.738,1.459.636,2.404,2.084,2.396,3.676-.047,11.375-.101,24.268-2.365,36.95-2.513,14.091-7.48,25.86-14.766,34.983-.788.987-1.951,1.502-3.126,1.502Z"/>
      <path class="cls-6" d="M1181.32,188.074c-1.374,0-2.712-.706-3.453-1.978-8.858-15.152-7.297-36.439,3.976-54.229,9.67-15.25,24.162-26.184,39.42-36.958,1.811-1.276,4.3-.843,5.568.956,1.276,1.803.847,4.296-.956,5.568-14.579,10.298-28.396,20.697-37.281,34.71-9.693,15.293-11.195,33.317-3.828,45.917,1.112,1.904.472,4.355-1.432,5.467-.636.371-1.331.546-2.014.546Z"/>
      <path class="cls-6" d="M1150.266,80.362c-33.25,0-66.595-3.887-98.866-8.632-10.111-1.487-20.225-3.063-30.347-4.644-50.225-7.828-102.14-15.933-153.294-12.503-23.585,1.577-47.427,5.647-70.485,9.58-28.736,4.905-58.447,9.974-88.197,10.352h-.051c-2.185,0-3.969-1.756-3.996-3.945-.027-2.209,1.74-4.019,3.945-4.047,29.126-.367,58.525-5.385,86.953-10.239,23.257-3.968,47.306-8.074,71.301-9.677,52.005-3.469,104.399,4.686,155.054,12.584,10.103,1.573,20.194,3.149,30.281,4.632,59.883,8.807,123.442,14.625,182.545-2.31,2.127-.617,4.335.62,4.94,2.739.609,2.123-.617,4.335-2.739,4.94-28.4,8.14-57.682,11.168-87.042,11.168Z"/>
      <path class="cls-6" d="M1143.453,338.125c-4.889,0-9.783-.773-14.637-2.583-15.64-5.83-24.529-20.069-33.122-33.836-2.794-4.476-5.682-9.1-8.71-13.252-17.033-23.347-45.566-38.198-74.462-38.76-2.205-.043-3.961-1.869-3.918-4.074.043-2.181,1.822-3.918,3.996-3.918h.078c31.342.613,62.287,16.721,80.76,42.038,3.2,4.386,6.165,9.139,9.038,13.736,8.245,13.213,16.038,25.696,29.134,30.582,16.713,6.232,34.889-2.685,52.469-11.312,2.451-1.202,4.882-2.396,7.285-3.535,47.579-22.574,103.443-25.766,153.286-8.749,6.325,2.162,11.863,3.758,15.656,1.385,2.099-1.307,2.837-3.52,3.087-5.147.535-3.492-.605-7.484-2.903-10.169-4.909-5.736-13.4-11.367-20.186-13.392-2.115-.628-3.321-2.852-2.689-4.968.628-2.111,2.849-3.325,4.967-2.689,8.23,2.451,18.091,8.967,23.979,15.851,3.805,4.445,5.615,10.797,4.729,16.58-.71,4.636-3.11,8.44-6.755,10.715-7.317,4.566-16.077,1.577-22.469-.605-47.88-16.342-101.558-13.279-147.276,8.405-2.373,1.128-4.772,2.302-7.192,3.492-13.775,6.759-28.943,14.204-44.146,14.204Z"/>
      <path class="cls-6" d="M1383.637,313.026c-5.885,0-11.679-1.428-16.912-4.183-1.955-1.026-2.704-3.446-1.674-5.397,1.026-1.951,3.446-2.7,5.397-1.674,4.667,2.455,10.122,3.582,15.39,3.176,1.92-.148,3.192-.535,3.773-1.139.765-.796.847-2.724.203-4.687-1.202-3.645-3.976-6.918-6.657-10.083l-11.117-13.123c-1.428-1.682-1.218-4.207.464-5.631,1.686-1.432,4.21-1.217,5.631.464l11.121,13.123c3.028,3.574,6.458,7.629,8.144,12.744,1.635,4.948.878,9.705-2.021,12.725-2.677,2.79-6.376,3.375-8.92,3.574-.941.074-1.885.109-2.821.109Z"/>
      <path class="cls-6" d="M856.997,301.374c-30.082,0-55.778-6.368-76.631-19.031-1.889-1.143-2.49-3.602-1.342-5.486,1.143-1.889,3.602-2.486,5.487-1.342,25.103,15.234,57.955,20.783,97.648,16.444,20.003-2.177,40.111-6.524,59.555-10.727,13.669-2.954,27.799-6.006,41.871-8.312,42.799-7.004,75.886-4.975,104.091,6.427,2.045.827,3.032,3.153,2.205,5.202-.827,2.045-3.153,3.036-5.202,2.205-26.785-10.825-58.502-12.717-99.803-5.943-13.872,2.271-27.905,5.303-41.472,8.234-19.647,4.246-39.962,8.635-60.379,10.86-9.002.979-17.689,1.471-26.028,1.471Z"/>
      <path class="cls-6" d="M1290.016,182.658c-1.713,0-3.481-.23-5.295-.718-6.446-1.74-10.747-6.716-12.101-14.013-2.252-12.116,4.191-28.451,14.071-35.666,6.485-4.733,13.837-5.315,20.693-1.627,10.879,5.846,10.957,20.783,6.423,32.189-4.164,10.481-12.85,19.831-23.792,19.835ZM1298.281,136.241c-2.318,0-4.62.823-6.879,2.474-7.41,5.412-12.62,18.641-10.926,27.752.784,4.226,2.915,6.837,6.329,7.754,8.632,2.341,16.069-5.526,19.577-14.348,3.368-8.48,3.496-18.828-2.782-22.2h0c-1.775-.956-3.555-1.432-5.319-1.432Z"/>
      <path class="cls-6" d="M1275.618,169.834c-1.241-.387-2.138-1.605-2.156-3.122-.021-1.934,1.398-3.619,3.171-3.762,5.368-.435,10.794-3.686,14.156-8.486,3.366-4.802,4.772-11.303,3.68-16.97-.362-1.87.753-3.802,2.488-4.312,1.731-.518,3.437.586,3.796,2.459,1.499,7.751-.351,16.301-4.954,22.87-4.607,6.572-11.741,10.848-19.088,11.441-.384.032-.75-.013-1.094-.12Z"/>
      <path class="cls-6" d="M1410.726,213.563c-1.545,0-3.016-.898-3.668-2.408-3.052-7.032-3.262-15.191-.585-22.383,2.685-7.192,8.187-13.221,15.101-16.545,1.994-.968,4.378-.113,5.334,1.869.956,1.99.117,4.378-1.869,5.334-5.073,2.439-9.108,6.86-11.078,12.132-1.963,5.276-1.807,11.258.425,16.416.878,2.021-.051,4.374-2.076,5.252-.515.226-1.058.332-1.584.332Z"/>
      <path class="cls-6" d="M1401.131,230.459c-.905,0-1.818-.308-2.568-.937-1.69-1.42-1.908-3.937-.488-5.631,29.13-34.69,31.534-88.853,5.588-125.982-25.953-37.129-77.63-53.495-120.227-38.074-2.068.741-4.367-.32-5.12-2.396-.749-2.076.324-4.367,2.396-5.12,45.878-16.612,101.551,1.018,129.498,41.008,27.948,39.997,25.36,98.339-6.017,135.707-.788.94-1.92,1.424-3.063,1.424Z"/>
      <path class="cls-6" d="M1363.693,252.718c-6.47,0-12.936-2.236-17.853-6.661-1.639-1.475-1.772-4.004-.297-5.642,1.479-1.639,4-1.768,5.643-.297,6.493,5.842,17.306,6.146,24.104.687,1.729-1.374,4.242-1.1,5.619.617,1.381,1.721,1.104,4.238-.617,5.619-4.733,3.797-10.669,5.678-16.6,5.678Z"/>
    </g>
  </g>
</svg>