<?xml version="1.0" encoding="UTF-8"?>
<svg id="Layer_2" data-name="Layer 2" xmlns="http://www.w3.org/2000/svg" viewBox="0 0 850.939 898.396">
  <defs>
    <style>
      .cls-1 {
        fill: #b98a70;
      }

      .cls-2 {
        fill: #8c5830;
      }

      .cls-3 {
        fill: #f5d1ba;
      }

      .cls-4 {
        fill: #fff7ed;
      }

      .cls-5 {
        fill: #f7931e;
      }

      .cls-6 {
        fill: #c7b299;
      }

      .cls-7 {
        fill: #f2f2f2;
      }

      .cls-8 {
        fill: #521039;
      }

      .cls-9 {
        fill: #998675;
      }
    </style>
  </defs>
  <g id="Layer_1-2" data-name="Layer 1">
    <g>
      <path class="cls-9" d="M332.374,185.222c19.65,17.47,14.824,60.728,32.596,87.071,17.772,26.342,68.206,43.114,97.937,66.879,29.731,23.765,70.244,68.855,93.548,149.014,23.304,80.16-9.48,178.061-18.22,196.877-8.74,18.816-39.463,76.75-45.988,94.772-6.525,18.022,4.661,47.945,6.836,63.078,2.175,15.132-11.217,25.79-29.519,29.519-18.302,3.729-68.018,18.426-89.49,21.129-21.471,2.703-23.951-6.763-19.265-15.847,4.686-9.084,72.032-33.922,72.032-33.922-23.088-5.108-44.766-16.453-62.124-32.511-57.415-13.593-121.113-13.4-180.83,2.248-6.626,25.098-31.152,46.278-58.155,48.138-13.581.936-27.18-2.53-40.761-1.596-22.78,1.568-43.555,15.331-66.383,15.863-7.061.165-15.198-1.679-18.418-7.966-2.984-5.827-.238-13.29,4.659-17.636,4.896-4.346,11.431-6.269,17.77-7.903,23.199-5.979,46.963-9.766,70.872-11.294-23.033-24.676-38.278-54.663-41.106-85.944-2.828-31.281,6.793-63.517,26.303-88.131,9.791-12.353,21.931-22.833,30.569-36.018,8.637-13.185,13.355-30.554,6.442-44.719-17.813-4.81-35.712-10.075-52.287-18.381-16.575-8.306-31.924-19.911-41.917-35.528-6.094-9.524-10.081-21.599-5.899-32.104,4.146-10.414,15.475-16.547,26.62-17.742,11.145-1.195,22.283,1.655,33.13,4.481,3.837,1,8.279,2.56,9.383,6.368,1.468,5.067-4.295,9.372-9.493,10.269-5.199.897-10.991.32-15.263,3.415,9.56,22.996,31.616,35.471,52.164,32.11,1.315,24.223,13.122,50.298,33.1,67.676,19.978,17.378,48.028,25.471,73.977,20.202,25.949-5.269,48.989-24.209,58.07-49.081,9.081-24.873,3.307-54.837-15.211-73.763-13.261,11.149-29.315,19.189-46.296,23.94-3.459.968-7.068,1.807-10.617,1.251s-7.05-2.813-8.068-6.258c-1.486-5.027,2.567-9.852,6.309-13.524,11.141-10.934,22.4-21.748,33.774-32.44-12.91-11.9-29.267-19.229-46.283-21.19-2.64-29.904-22.865-56.611-50.091-67.236-5.199,8.959-15.459,14.315-26.104,15.006-10.645.691-21.511-3.293-29.186-10.701-7.379,4.286-15.353,1.359-20.652-4.227-5.3-5.586-7.803-13.703-6.57-21.304-14.146-10.851-20.044-29.858-19.402-47.675.642-17.817,6.885-34.894,9.077-52.291-3.357-20.858.837-42.85,11.637-61.007,10.8-18.158,28.122-32.342,47.719-39.459,7.026-31.094,29.616-58.259,58.907-70.838,2.649-1.138,6.68-1.587,7.534,1.167.309.998.008,2.071-.292,3.072-5.057,16.865-10.114,33.731-14.114,51.635,39.846-8.778,82.641-3.516,118.268,14.576,9.089-13.915,18.179-27.83,27.268-41.746,2.198-3.365,5.364-7.18,9.319-6.461,3.758.683,5.473,5.002,6.406,8.706,5.25,20.859,6.809,42.64,5.778,67.979Z"/>
      <path class="cls-9" d="M403.49,304.364c74.15,33.009,127.5,94.401,150.731,172.17,23.231,77.769,10.828,165.432-32.503,239.765,71.921-34.008,111.329-115.934,116.821-195.3,5.492-79.366-17.048-157.696-44.498-236.033,37.428,39.929,92.883,67.266,146.617,56.884,62.314-12.04,107.563-75.187,108.086-138.651.522-63.464-33.013-125.093-86.157-159.787-77.302-50.465-191.98-50.602-267.787,2.082-75.807,52.685-108.073,161.752-91.31,258.869Z"/>
      <path class="cls-6" d="M305.092,443.833c-14.754-35.525-44.35-64.61-80.127-78.744,20.136-.699,40.487-10.241,53.813-25.972-12.585-20.343-35.794-30.434-58.31-30.644-22.515-.21-44.342,8.295-63.703,19.791-9.495,5.638-18.608,12.047-28.792,16.317s-21.842,6.259-32.284,2.665c-8.627,11.896-23.569,15.661-29.705,10.143.141,5.189.292,10.44,1.695,15.437,1.403,4.997,4.212,9.796,8.616,12.543,4.404,2.747,10.547,3.005,12.912-1.191,8.534,5.794,19.139,8.466,29.4,7.41,10.261-1.057,20.098-5.835,29.383-14.13,27.693,9.688,47.983,37.572,49.344,65.439,16.847,1.867,32.819,10.676,44.007,26.209,17.387-13.728,38.755-22.351,63.75-25.274Z"/>
      <path class="cls-7" d="M385.768,545.35c11.785,25.801,23.222,55.123,13.38,81.726-6.777,18.318-22.455,31.629-33.822,47.512-28.393,39.673-26.934,98.137,3.404,136.343-57.604-11.324-120.9-11.462-181.953.231,20.666-70.648,16.636-141.707-12.982-200.004,30.457,17.226,72.612,9.928,95.506-16.533,22.894-26.462,24.053-69.229,2.051-97.631,5.803-3.544,13.682-.505,18.224,4.554,4.542,5.06,6.829,11.687,10.075,17.662,7.601,13.989,21.052,24.678,36.396,28.924,15.344,4.246,32.376,1.991,49.72-2.783Z"/>
      <path class="cls-3" d="M287.111,190.686c6.39-12.028,12.78-24.056,19.169-36.084,1.212-2.282,2.982-4.898,5.562-4.749,1.982.114,3.503,1.984,3.896,3.929.393,1.946-.078,3.95-.546,5.879-2.823,11.617-5.646,23.233-8.469,34.85-.63,2.591-1.301,5.27-2.95,7.365-2.478,3.147-7.112,4.381-10.826,2.882-3.714-1.499-9.812-6.587-5.835-14.072Z"/>
      <path class="cls-3" d="M565.924,235.794c-6.641,59.104,14.08,117.421,33.229,173.73,19.149,56.309,37.241,116.137,31.571,176.425,15.936-99.521,3.967-203.361-31.835-297.58-14.233-12.26-25.274-28.193-32.965-52.575Z"/>
      <path class="cls-5" d="M243.651,467.916c-15.044,8.347-27.959,20.498-37.207,35.006-1.824,2.861-3.543,5.915-3.962,9.282-.418,3.367.745,7.132,3.623,8.931,3.952,2.471,9.071.429,13.25-1.637,16.906-8.357,33.812-16.714,50.718-25.07,15.499,19.684,21.349,45.716,15.094,68.684-6.254,22.968-24.225,42.283-46.485,50.717-22.26,8.434-48.243,5.981-68.831-5.967-28.883-16.761-44.88-48.996-55.996-80.486-20.829-.499-38.539-11.311-45.319-27.434,5.325-.65,10.542-2.183,15.371-4.519,3.176-1.536,6.47-3.806,7.149-7.268.554-2.821-.868-5.751-2.993-7.687-2.125-1.936-4.864-3.044-7.584-3.974-11.19-3.825-23.183-5.283-34.963-4.248-12.89-28.546-15.911-60.903-8.987-91.062.609-2.654,1.322-5.355,2.88-7.588,2.793-4.003,7.928-5.841,12.809-5.867,4.881-.026,9.623,1.494,14.388,2.978,1.436,5.122,3.584,10.421,7.948,13.464s11.465,2.601,15.466-4.096c7.473,7.869,18.38,12.355,29.227,12.022,10.847-.334,21.458-5.481,29.845-14.926,13.954,4.095,26.496,12.853,35.147,24.542,8.651,11.689,13.362,26.242,13.196,42.616,8.253,1.476,16.585,2.974,24.31,6.233,7.725,3.259,14.9,8.475,21.906,17.352Z"/>
      <path class="cls-4" d="M210.26,261.273c-1.935-6.182-3.921-12.469-7.604-17.799s-9.39-9.65-15.855-10.053c-8.448-.526-16.231,5.971-19.208,13.894-2.977,7.924-1.931,16.848.662,24.906,1.706,5.3,4.127,10.494,7.999,14.495,3.872,4.001,9.37,6.685,14.918,6.211,6.069-.519,11.382-4.751,14.447-10.015,3.065-5.264,7.689-11.902,4.641-21.64Z"/>
      <path class="cls-8" d="M169.741,242.765c5.316-.863,10.786,1.61,14.559,5.453,3.773,3.843,6.064,8.901,7.715,14.028,2.561,7.951,3.702,16.825.455,24.521-1.163,2.757-3.176,5.5-6.114,6.064-3.177.61-6.211-1.521-8.492-3.814-11.211-11.268-14.312-29.799-8.122-46.252Z"/>
      <path class="cls-8" d="M370.542,515.967c-2.796-2.083-5.554,1.402-7.932,2.656-6.632,3.954-9.755,3.504-17.322,2.426-4.156.312-4.558,6.728-.524,7.679,8.02,2.291,17.235.566,23.623-4.877,2.082-1.77,5.038-5.586,2.154-7.884Z"/>
      <path class="cls-8" d="M89.122,696.96c-7.289,8.918-9.874,21.506-6.637,32.566.952,2.435,1.647,6.11,4.891,6.118,5.808-.63,2.783-6.25,2.127-9.833-2.054-5.992,1.437-19.516,5.022-23.078,3.87-3.614-1.57-9.46-5.402-5.773Z"/>
      <path class="cls-8" d="M374.656,753.827c-2.118-2.119-1.718-1.463-3.265-4.481-.178-.548-.521-1.617-.69-2.394-.011-.115-.028-.301-.058-.629-.256-3.119.41-1.594.482-5.257-.304-4.046-6.546-4.434-7.472-.51-1.966,6.462.182,14.049,5.397,18.383,1.785,1.484,4.662,3.17,6.791,1.442,2.563-1.939,1.08-5.097-1.185-6.553Z"/>
      <path class="cls-8" d="M221.674,709.05c-.245-.902-.857-1.689-1.662-2.161-2.651-1.669-6.24,1.085-5.311,4.083,1.489,5.806,1.438,9.465,1.495,16.818-.022,1.108.616,2.102,1.538,2.681,2.216,1.321,4.677-.573,4.846-2.945,1.171-6.127.539-12.449-.906-18.476Z"/>
      <path class="cls-8" d="M222.005,743.883c-2.267-2.426-6.699-.595-6.59,2.73.381,4.78-.975,9.007-2.013,11.36-.72,1.481-1.017,3.28-.12,4.76,1.736,2.925,5.905,1.702,7.023-1.135,2.183-4.644,3.137-9.866,2.83-14.985.007-1.015-.415-2.014-1.131-2.73Z"/>
      <path class="cls-8" d="M243.032,725.151c-1.461-4.109-8.037-2.744-7.876,1.585.527,3.677-.93,9.12,2.388,11.615,3.707,1.874,6.09-1.574,5.845-5.055-.119-2.678.449-5.579-.356-8.146Z"/>
      <path class="cls-8" d="M237.613,391.677c-2.752-1.479-5.414-3.522-8.404-4.397-3.837-.751-5.767,4.955-2.346,6.791,3.147,1.7,6.255,3.507,9.607,4.78,1.184.469,2.641.609,3.65-.298,3.059-2.577.046-5.481-2.507-6.876Z"/>
      <path class="cls-8" d="M259.045,410.885c-2-1.776-3.583-4.242-5.911-5.555-3.586-1.758-6.994,3.366-4.089,6.068,3.262,2.528,6.263,8.206,10.819,7.763,4.386-1.555,1.601-6.207-.819-8.275Z"/>
      <path class="cls-8" d="M236.855,415.482c-1.913-1.559-3.619-3.547-5.753-4.765-3.423-1.679-6.675,3.213-3.903,5.792,2.348,1.893,4.697,3.783,7.123,5.578,1.031.625,2.318.568,3.36,0,2.858-1.78,1.53-5.067-.827-6.604Z"/>
      <path class="cls-3" d="M535.674,539.081c-1.025-5.711-2.11-12.338-5.885-16.85-3.839-3.318-9.683,1.87-6.985,6.132,3.296,6.103,3.746,14.429,4.489,24.317.99,2.802,4.961,3.499,6.982,1.386,2.731-4.236,1.798-10.155,1.399-14.984Z"/>
      <path class="cls-3" d="M533.485,573.807c-2.792-2.989-8.25-.733-8.115,3.361.217,6.567-.324,6.576-1.279,12.769-.075.506.095-.652.129-.954-.073.987-.511,1.963-.265,2.946.09,1.419,1.181,2.829,2.519,3.297,5.524,2.053,7.201-5.629,7.906-9.6.285-3.793,1.752-8.627-.895-11.819Z"/>
      <path class="cls-3" d="M524.764,616.284c-2.792-2.989-8.249-.732-8.115,3.361-.151,2.679-.548,4.494-1.973,9.443-.871,2.324-.621,5.464,2.05,6.411,5.005,1.924,7.074-4.805,8.29-8.418.515-3.44,2.432-7.886-.252-10.796Z"/>
      <path class="cls-3" d="M509.963,587.353c-2.867-4.176-9.825-.66-8.317,4.144.395-1.244.277,14.855-.384,15.136.026-.2.033-.266-.006.01-.003,0-.005.012-.008.012-.028.216-.04.312-.057.445-.009.063-.011.076-.021.15-.044.295-.094.588-.138.883-.109,1.48-.722,3.101.028,4.489.843,2.425,4.097,3.434,6.245,2.105,3.189-2.385,3.137-7.094,3.788-10.711.294-5.397,1.247-11.709-1.13-16.663Z"/>
      <path class="cls-3" d="M381.223,313.724c-3.664-1.341-7.238-4.494-11.234-4.125-4.005.967-4.012,7.094,0,8.06,4.024,1.673,8.017,3.48,12.197,4.731,1.196.367,2.53.603,3.651-.107,4.792-3.927-1.111-7.007-4.614-8.56Z"/>
      <path class="cls-3" d="M413.909,333.796c-2.752-2.556-5.361-5.526-8.512-7.542-3.707-1.818-7.232,3.481-4.229,6.275,3.343,2.269,11.857,13.043,15.32,7.622,1.44-2.48-.978-4.685-2.579-6.355Z"/>
      <path class="cls-3" d="M389.99,342.766c-2.472-2.099-5.522-5.202-9.013-4.627-3.245.781-3.868,5.539-.932,7.133,3.734,1.973,2.999,1.61,5.663,4.142,1.364,2.009,3.982,3.754,6.201,1.872,3.273-2.488.176-6.369-1.918-8.52Z"/>
      <path class="cls-2" d="M811.655,171.169c-.485-8.633-3.994-16.893-8.151-24.374-1.202-1.877-2.164-4.325-4.535-4.915-3.933-1.223-7.561,3.488-5.367,6.983,5.284,8.337,6.591,12.45,9.079,22.559.645,1.763.973,3.95,2.747,4.948,3.701,1.983,6.642-1.562,6.227-5.201Z"/>
      <path class="cls-2" d="M811.776,195.391c-3.487-2.195-8.204,1.428-6.983,5.368,1.568,4.649,1.202,8.105.881,10.832-.028.397-.074.791-.121,1.186-.037.274-.075.587-.102.87-.303,2.481.564,5.71,3.489,5.935,4.847.415,6.105-5.944,6.408-9.685.028-4.42.267-11.643-3.573-14.506Z"/>
      <path class="cls-2" d="M800.882,243.388c-2.038,4.751-14.157,18.454-4.099,20.187,3.345-.105,4.869-3.657,6.654-5.978,1.953-3.738,5.006-7.158,6.217-11.177.969-4.956-6.401-7.451-8.773-3.031Z"/>
      <path class="cls-2" d="M789.402,204.678c-.244-4.617-.021-9.474-1.045-13.958-1.688-4.744-9.283-3.171-9.098,1.831.382,5.087.682,10.19,1.554,15.222.151,2.139.963,4.365,3.249,4.956,1.792.516,3.745-.329,4.695-1.911.98-1.86.494-4.11.644-6.141Z"/>
      <path class="cls-2" d="M773.655,236.33c-1.127,4.708-5.662,13.332,2.274,14.101,2.079.024,4.049-1.482,4.583-3.49.674-3.314,2.491-6.596,2.395-9.98-.378-5.013-8.104-5.488-9.252-.632Z"/>
      <path class="cls-2" d="M430.769,237.697c-.098-1.464-.126-3.079-1.287-4.145-2.943-2.778-6.746-.22-7.198,3.33-1.255,7.214-1.888,14.974-.53,22.167,1.688,4.742,9.282,3.172,9.098-1.831-.671-6.494-.341-13.017-.082-19.52Z"/>
      <path class="cls-2" d="M431.233,198.918c-1.384-2.558-5.534-2.018-6.219.813-1.476,4.528-2.727,9.123-3.967,13.72-.28,1.008-.133,2.122.395,3.024,1.597,2.95,6.382,2.327,7.172-.937.858-3.763,1.737-7.522,2.464-11.313.201-1.747,1.147-3.657.156-5.306Z"/>
      <path class="cls-2" d="M429.978,161.395c-1.63,4.48-2.819,9.097-3.957,13.723-.338,1.221-.161,2.571.479,3.663,1.934,3.574,7.731,2.819,8.688-1.135,1.175-4.625,2.3-9.266,2.973-13.995,1.448-5.348-6.672-7.581-8.183-2.256Z"/>
      <path class="cls-2" d="M445.72,222.488c-1.349,5.149-4.973,23.957,4.84,21.309,2.307-.77,2.708-3.369,2.77-5.488.195-6.891.111-7.502,1.557-13.293,1.623-5.99-7.474-8.494-9.167-2.527Z"/>
      <path class="cls-2" d="M530.992,50.893c-3.151.44-5.777,2.776-8.459,4.367-3.747,2.848-8.011,5.219-11.438,8.402-3.321,3.836,1.872,9.684,6.132,6.985,4.905-3.545,9.93-6.937,14.587-10.811.992-1.051,2.411-1.87,2.92-3.271,1.259-2.554-.94-5.732-3.742-5.671Z"/>
      <path class="cls-2" d="M571.209,40.122c-2.79-1.251-6.001.276-8.921.486-2.818.816-6.692.23-8.406,3.066-2.015,3.197,1.31,7.525,4.924,6.405,3.833-.822,7.668-1.631,11.45-2.669.994-.271,1.864-.945,2.383-1.833,1.114-1.817.426-4.411-1.431-5.456Z"/>
      <path class="cls-2" d="M557.618,67.381c-2.851-1.584-5.9.556-8.722,1.26-2.34,1.106-5.478,1.301-6.903,3.708-2.197,3.486,1.429,8.204,5.368,6.983,3.77-1.722,8.457-2.499,11.525-5.309,1.736-1.978,1.001-5.39-1.268-6.641Z"/>
      <path class="cls-1" d="M106.249,520.887c-1.088-5.479-1.55-9.475-1.174-16.541-.106-3.695,1.299-3.929.199-7.443-1.363-2.516-5.449-1.988-6.123.8-1.395,4.307-2.149,37.88,7.381,28.661.975-1.734-.07-3.666-.283-5.477Z"/>
      <path class="cls-1" d="M233.012,459.792c-1.402-2.588-5.603-2.044-6.297.823-.682,2.357-1.384,4.709-2.077,7.064-11.341.396-22.67,1.38-33.953,2.831,1.765-6.181,3.903-12.274,5.403-18.403-.255-3.296-5.364-3.651-6.127-.419-2.355,6.464-4.349,13.054-6.053,19.719-12.708,1.847-25.335,4.287-37.834,7.113,0-12.636.859-24.725,2.627-36.637,12.6-2.177,25.112-3.887,37.365-4.998,3.017-.629,6.72.272,9.266-1.643,1.603-1.535,1.222-4.385-.706-5.478-7.745-1.096-18.075,1.535-26.167,2.127-6.224.814-12.423,1.805-18.608,2.873,1.826-10.247,4.279-20.455,7.379-30.903,7.038-1.087,13.932-2.099,20.58-3.009,4.746-1.243,3.345-6.752-1.394-6.366-5.672.766-11.34,1.569-17.002,2.408.631-1.974,1.217-3.927,1.892-5.924,1.39-4.666-4.171-7.406-6.617-2.977-1.375,3.354-2.593,6.769-3.738,10.211-12.827,1.985-25.624,4.155-38.385,6.528.879-4.068,1.802-8.182,2.81-12.433-.273-3.573-5.8-3.94-6.624-.452-1.228,4.704-2.349,9.462-3.401,14.243-11.785,2.263-23.534,4.702-35.247,7.31,1.509-9.14,4.105-18.12,6.084-27.079-.218-2.812-4.584-3.124-5.237-.358-2.788,9.427-4.953,19.03-6.545,28.727-7.94,1.809-15.868,3.67-23.769,5.643-1.876.605-4.294.529-5.386,2.429-1.579,2.544,1.024,6.005,3.927,5.108,7.862-2.059,15.946-4.046,24.148-5.961-1.616,12.125-2.3,24.372-2.098,36.603-3.279,1.241-6.566,2.463-9.797,3.809-2.839,1.965-.482,6.778,2.855,5.731,2.323-.91,4.689-1.731,7.031-2.604-.054,2.656-.015,5.337,1.109,7.165,2.217,2.175,5.573-.303,4.778-3.134-.178-2.005-.315-4.027-.42-6.057,10.609-3.807,21.371-7.231,32.215-10.281-.157,4.331-.181,8.659-.048,12.976,1.211,3.382,6.644,2.28,6.513-1.311.01-4.655.147-9.157.394-13.564,11.692-3.107,23.429-5.75,35.12-7.964-1.628,12.261-2.397,24.634-2.291,37.003-9.347,2.342-18.627,4.948-27.803,7.889-.831.226-1.54.783-1.976,1.52-1.507,2.421.979,5.711,3.735,4.858,9.072-2.931,18.017-5.391,26.912-7.545.094.12.138.259.256.369,1.982,2.103,5.652.821,6.179-1.853,12.065-2.71,24.06-4.846,36.114-6.566-2.479,11.43-3.998,23.066-4.591,34.746-14.229,1.566-28.48,3.67-42.112,7.377-3.347,2.306-.543,7.916,3.337,6.699,13.831-2.88,26.164-4.935,38.552-6.542-.014.903-.077,1.805-.08,2.709.044,3.609-.121,7.248.429,10.826.283,1.098,1.177,1.912,2.243,2.243,2.951.741,4.471-2.104,4.107-4.691-.169-4.102-.208-8.035-.166-11.891,1.717-.201,3.437-.399,5.171-.587,3.489-.887,9.334.337,10.994-3.593.878-3.718-3.279-4.515-6.085-4.184-3.278.302-6.572.62-9.871.95.545-11.439,2.046-22.236,4.504-33.674.08-.439.211-.868.299-1.305,11.185-1.464,22.472-2.642,33.946-3.676-.523,2.018-1.414,4.335-.156,6.093,1.357,1.963,4.594,1.328,5.311-.897,2.336-5.51,3.623-11.408,5.422-17.107.245-.886.116-1.863-.347-2.655ZM99.365,446.168c-11.039,3.079-22.024,6.437-32.802,10.315-.177-12.385.814-24.827,2.396-35.871,11.511-2.622,23.217-5.091,34.903-7.388-2.145,10.888-3.736,21.911-4.497,32.944ZM142.07,436.171c-11.018,2.089-21.974,4.51-32.84,7.282-.962.254-1.921.535-2.883.793.932-11.008,2.565-21.541,4.734-32.423,12.771-2.435,25.43-4.651,37.695-6.628-2.931,10.147-5.038,20.555-6.707,30.976Z"/>
      <path class="cls-1" d="M289.45,546.202c2.979-2.073.755-7.08-2.796-6.356-7.479.911-14.937,1.983-22.381,3.148.237-5.831.588-11.658,1.064-17.473.574-7.363,1.757-17.468,2.415-22.017.229-.834.109-1.738-.325-2.483-1.311-2.406-5.24-1.923-5.889.77-2.038,14.004-3.319,28.113-3.877,42.252-10.73,1.788-21.414,3.854-32.049,6.147.036-.58.027-1.142.07-1.724.507-6.213.806-8.525,1.642-13.703.233-.845.111-1.769-.33-2.524-1.332-2.452-5.327-1.95-5.986.782-1.093,6.165-1.783,12.389-2.15,18.63-13.696,3.094-27.301,6.589-40.791,10.47-4.59,1.28-2.73,8.369,1.962,7.116,12.314-3.799,25.376-7.065,38.554-9.956-.126,10.234.667,20.48,2.41,30.576.229,1.375.471,3.018,1.278,4.179-.951.146-1.906.261-2.855.416-4.14.677-8.265,1.445-12.372,2.299-.889.242-1.657.841-2.123,1.632-1.631,2.603,1.06,6.131,4.011,5.217,16.868-3.429,29.854-5.034,47.644-5.784.773-.1,1.577-.114,2.39-.105.015.172.023.345.038.517.067,1.97.721,4.348,2.809,4.999,2.511.716,4.315-1.838,4.157-4.14-.078-.741-.123-1.485-.196-2.227.025-.014.053-.02.078-.034,2.723-2.002,1.629-4.582-.587-5.736-1.116-13.49-1.519-27.033-1.216-40.566,8.837-1.533,17.38-2.959,25.403-4.323ZM227.954,593.208c.476-1.622.12-3.629-.081-4.23-1.843-9.457-2.751-20.038-2.57-31.138,10.819-2.266,21.641-4.297,32.133-6.155-.154,7.538-.121,15.081.15,22.617.163,5.464.476,10.921.858,16.374-10.2.311-20.378,1.166-30.49,2.532Z"/>
      <path class="cls-4" d="M165.141,572.911c-8.163-8.021-12.549-15.131-15.644-25.313-1.509-5.404-9.763-3.146-8.306,2.29,3.6,12.25,10.757,23.752,21.035,31.47,2.423,1.49,5.408,4.38,8.378,2.882,5.252-4.105-2.952-8.277-5.462-11.328Z"/>
      <path class="cls-4" d="M195.682,591.723c-1.764-3.014-5.383-4.169-8.188-6.001-1.092-.641-2.443-.816-3.663-.479-3.952.95-4.71,6.747-1.135,8.688,3.025,1.497,5.884,4.034,9.396,4.049,3.107.101,5.245-3.625,3.59-6.257Z"/>
      <g>
        <path class="cls-8" d="M54.845,262.327c-1.853,0-3.516-1.296-3.91-3.184-12.627-60.886,40.446-100.349,79.203-112.016,56.18-16.912,96.568-15.773,154.3,4.359,2.084.726,3.184,3.005,2.458,5.088-.726,2.088-3.02,3.192-5.088,2.458-55.926-19.503-95.007-20.619-149.368-4.249-35.939,10.817-85.22,47.107-73.677,102.737.449,2.162-.94,4.277-3.102,4.726-.273.055-.546.082-.816.082Z"/>
        <path class="cls-8" d="M75.312,364.166c-3.102,0-6.232-.503-9.225-1.565-9.943-3.52-18.282-12.526-22.301-24.096-3.957-11.383-3.438-23.557-2.7-31.725,2.041-22.613,8.877-45.956,20.315-69.385.968-1.986,3.375-2.806,5.342-1.838,1.982.968,2.806,3.36,1.838,5.342-11.008,22.555-17.583,44.961-19.534,66.599-.671,7.43-1.163,18.457,2.287,28.385,3.231,9.295,9.744,16.467,17.423,19.187,8.316,2.931,17.997.02,22.036-6.673,1.143-1.893,3.598-2.505,5.486-1.358,1.889,1.143,2.497,3.598,1.358,5.486-4.421,7.32-13.248,11.64-22.324,11.64Z"/>
        <path class="cls-8" d="M82.629,373.816c-1.167,0-2.326-.507-3.114-1.487-2.852-3.539-4.207-8.163-3.711-12.682.242-2.193,2.177-3.797,4.41-3.535,2.193.242,3.777,2.217,3.535,4.409-.261,2.384.48,4.925,1.986,6.79,1.385,1.717,1.116,4.234-.601,5.619-.741.597-1.627.886-2.505.886Z"/>
        <path class="cls-8" d="M116.418,396.304c-9.471.004-18.992-3.028-26.562-8.682-2.973,2.373-7.043,3.399-10.84,2.482-3.805-.936-7.239-3.485-10.493-7.797-4.819-6.368-7.863-13.931-8.8-21.868-.257-2.189,1.307-4.179,3.5-4.437,2.197-.269,4.175,1.307,4.437,3.5.773,6.524,3.274,12.745,7.239,17.985,2.103,2.786,4.074,4.374,6.021,4.854,1.643.378,4.015-.371,4.952-2.142.581-1.097,1.635-1.861,2.856-2.072,1.214-.215,2.474.156,3.383.995,9.393,8.636,23.772,11.558,35.771,7.254,8.398-3.005,15.706-9.295,21.899-14.957,1.631-1.483,4.156-1.377,5.646.254,1.487,1.627,1.374,4.156-.254,5.646-6.766,6.185-14.805,13.076-24.599,16.581-4.53,1.623-9.338,2.404-14.157,2.404Z"/>
        <path class="cls-8" d="M196.269,457.214c-.199,0-.402-.016-.605-.047-2.181-.332-3.68-2.369-3.348-4.55,2.232-14.661-.991-30.277-8.838-42.85-7.843-12.577-20.455-22.336-34.605-26.773-2.103-.659-3.274-2.903-2.614-5.01.659-2.099,2.868-3.282,5.01-2.614,15.94,5.003,30.152,15.995,38.991,30.168,8.842,14.165,12.471,31.764,9.954,48.282-.3,1.978-2.002,3.395-3.945,3.395Z"/>
        <path class="cls-8" d="M242.244,470.294c-1.073,0-2.142-.429-2.93-1.28-10.832-11.679-25.481-19.394-41.246-21.72-2.185-.32-3.695-2.353-3.372-4.534.32-2.181,2.345-3.719,4.534-3.371,17.56,2.591,33.875,11.18,45.944,24.194,1.498,1.615,1.405,4.144-.215,5.646-.769.714-1.744,1.065-2.716,1.065Z"/>
        <path class="cls-8" d="M45.348,474.54c-1.495,0-2.927-.839-3.61-2.279-13.049-27.386-17.259-58.915-11.851-88.775,1.081-5.947,2.728-12.042,7.453-16.331,9.369-8.519,21.638-3.836,29.75-.741,2.064.788,3.094,3.098,2.31,5.159-.788,2.064-3.106,3.098-5.159,2.31-10.235-3.906-16.697-5.202-21.528-.812-2.962,2.689-4.136,7.278-4.96,11.839-5.112,28.225-1.135,58.026,11.195,83.917.952,1.99.105,4.374-1.889,5.323-.554.265-1.139.39-1.713.39Z"/>
        <path class="cls-8" d="M124.66,578.771c-30.429,0-63.005-15.64-90.464-43.693-5.494-5.611-11.601-12.471-15.254-20.783-4.105-9.318-4.359-19.175-.695-27.034,4.343-9.326,14.614-16.159,26.8-17.837,10.836-1.491,21.844.816,30.695,2.677,4.054.851,9.108,1.908,13.291,4.971,5.178,3.793,7.562,10.142,5.806,15.433-.367,1.104-1.198,1.994-2.275,2.435-13.334,5.479-27.975,8.117-42.389,7.781-2.205-.062-3.945-1.896-3.887-4.105s1.834-3.816,4.105-3.887c12.514.347,25.282-1.85,37.016-6.341-.199-1.842-1.565-3.746-3.098-4.87-2.79-2.041-6.731-2.868-10.212-3.598-10.481-2.205-19.203-3.797-27.959-2.583-7.469,1.03-16.815,5.065-20.65,13.299-2.689,5.775-2.411,13.225.765,20.44,3.141,7.141,8.663,13.314,13.654,18.414,27.944,28.541,61.206,43.537,91.194,41.024,2.236-.179,4.132,1.456,4.312,3.656.179,2.201-1.459,4.128-3.656,4.312-2.349.191-4.722.289-7.098.289Z"/>
        <path class="cls-8" d="M215.44,623.35c-25.29,0-50.857-10.438-69.853-28.845-19.944-19.32-32.49-47.209-34.425-76.518-.144-2.201,1.522-4.105,3.726-4.25,2.22-.121,4.105,1.518,4.249,3.727,1.803,27.354,13.47,53.343,32.01,71.305,19.554,18.937,46.584,28.74,72.358,26.195,23.355-2.302,44.13-17.942,54.217-40.817,10.891-24.713,7.434-52.785-9.252-75.098-1.323-1.768-.96-4.269.808-5.592,1.768-1.327,4.273-.96,5.592.808,18.438,24.65,22.239,55.719,10.165,83.105-11.246,25.509-34.523,42.963-60.749,45.546-2.934.289-5.892.433-8.846.433Z"/>
        <path class="cls-8" d="M115.009,534.204c-21.107,0-41.695-12.608-51.275-31.421-.999-1.967-.219-4.374,1.748-5.377,1.971-.995,4.374-.215,5.377,1.748,8.245,16.198,25.973,27.058,44.149,27.058.051,0,.129.004.156,0,2.201,0,3.988,1.779,3.996,3.984.008,2.205-1.775,4-3.984,4.008h-.168Z"/>
        <path class="cls-8" d="M353.547,555.569c-21.423,0-42.237-10.536-53.355-27.514-2.049-3.129-3.762-6.415-5.42-9.595-1.9-3.641-3.695-7.079-5.916-10.224-2.111-2.985-7.824-9.908-15.421-9.908h-.094c-5.377.043-10.579,3.653-15.609,7.141l-1.491,1.034c-9.56,6.571-19.921,11.988-30.796,16.093-5.545,2.088-13.537,3.336-19.355.57-3.063-1.456-5.237-3.883-6.282-7.016-2.119-6.349,1.639-12.464,4.655-16.514,28.49-38.265,75.823-62.732,123.528-63.852,2.119-.074,4.039,1.697,4.09,3.902.051,2.205-1.698,4.035-3.902,4.09-45.301,1.061-90.25,24.295-117.308,60.636-1.943,2.61-4.417,6.404-3.485,9.205.363,1.081,1.022,1.803,2.134,2.33,2.845,1.354,8.222,1.007,13.104-.827,10.271-3.879,20.061-8.995,29.091-15.203l1.463-1.011c5.744-3.988,12.253-8.507,20.1-8.569h.148c7.992,0,15.983,4.835,21.954,13.287,2.532,3.586,4.538,7.426,6.474,11.141,1.643,3.145,3.192,6.115,5.026,8.913,10.723,16.381,31.92,25.864,52.824,23.565,19.601-2.15,38.53-14.102,50.635-31.971,11.004-16.245,16.608-37.426,15.784-59.637-.082-2.205,1.639-4.058,3.844-4.14,2.271-.191,4.062,1.639,4.14,3.844.89,23.897-5.202,46.776-17.15,64.414-13.404,19.784-34.48,33.032-56.383,35.436-2.341.257-4.69.382-7.028.382Z"/>
        <path class="cls-8" d="M318.79,218.064c-.55,0-1.112-.113-1.647-.355-2.01-.913-2.899-3.282-1.99-5.291,12.76-28.135,15.457-61.382,7.406-91.21-1.124-4.183-3.629-8.319-5.83-7.824-1.506.285-2.915,2.474-4.21,4.796l-38.222,68.468c-1.073,1.928-3.512,2.615-5.436,1.541-1.928-1.077-2.618-3.508-1.541-5.436l38.222-68.472c1.506-2.7,4.316-7.722,9.685-8.749,6.579-1.257,12.487,4.078,15.051,13.595,8.647,32.053,5.865,66.357-7.843,96.591-.671,1.475-2.123,2.345-3.645,2.345Z"/>
        <path class="cls-8" d="M110.44,161.623c-.335,0-.671-.043-1.011-.129-2.134-.558-3.414-2.739-2.86-4.874,8.495-32.634,33.114-60.964,64.246-73.931,5.424-2.263,10.001-1.444,12.241,2.181,1.896,3.087.816,6.505.297,8.148-1.822,5.752-4.027,11.988-6.161,18.013-4.179,11.812-8.499,24.022-9.915,32.572-.359,2.174-2.423,3.672-4.593,3.29-2.177-.359-3.652-2.415-3.289-4.593,1.53-9.244,5.97-21.798,10.263-33.933,2.115-5.966,4.296-12.136,6.08-17.759.16-.503.258-.878.32-1.151-.503.059-1.249.226-2.166.609-28.876,12.031-51.708,38.304-59.587,68.569-.468,1.799-2.088,2.989-3.863,2.989Z"/>
        <path class="cls-8" d="M374.057,898.396c-2.021,0-4.074-.203-6.107-.71-7.078-1.772-13.931-8.39-13.15-16.401.999-10.251,12.756-14.504,17.185-16.104l50.686-18.317c-38.191-10.505-70.544-42.842-79.694-81.439-10.278-43.342,9.135-92.771,46.163-117.534,1.83-1.225,4.312-.741,5.541,1.1,1.229,1.834.734,4.316-1.101,5.541-34.351,22.976-52.363,68.839-42.83,109.051,9.537,40.212,46.225,73.104,87.233,78.208,1.834.226,3.274,1.682,3.481,3.52.203,1.838-.878,3.574-2.614,4.203l-64.148,23.183c-7.804,2.821-11.601,5.799-11.948,9.365-.347,3.555,3.41,6.938,7.133,7.871,4.761,1.178,10.282-.105,15.152-1.241l81.813-19.117c7.145-1.67,16.038-3.75,21.357-9.392,8.741-9.28,5.806-23.382,2.696-38.308-.991-4.761-2.013-9.681-2.614-14.407-3.844-30.3,11.367-57.842,26.078-84.478,2.556-4.628,5.096-9.229,7.519-13.81,35.619-67.446,46.588-146.559,30.094-217.059-17.302-73.919-65.451-139.238-128.8-174.721-3.984-2.228-8.081-4.41-12.21-6.606-23.074-12.272-46.932-24.966-57.07-49.175-1.885-4.507-2.794-10.735-3.848-17.946-2.435-16.658-5.764-39.471-23.429-58.833-1.487-1.631-1.37-4.156.261-5.647,1.627-1.483,4.152-1.374,5.646.262,19.308,21.169,22.847,45.382,25.427,63.063.976,6.677,1.818,12.44,3.317,16.019,9.034,21.575,31.612,33.586,53.448,45.203,4.179,2.224,8.327,4.433,12.358,6.692,65.276,36.56,114.877,103.798,132.678,179.871,16.928,72.347,5.701,153.485-30.812,222.608-2.443,4.628-5.006,9.272-7.586,13.943-14.091,25.513-28.662,51.895-25.146,79.609.558,4.409,1.506,8.963,2.509,13.782,3.235,15.519,6.895,33.106-4.706,45.418-6.969,7.399-17.162,9.779-25.353,11.695l-81.813,19.117c-3.793.886-8.226,1.924-12.799,1.924Z"/>
        <path class="cls-8" d="M23.636,879.154c-10.52,0-21.197-4.199-23.296-14.36-2.599-12.6,10.196-21.259,21.942-24.841,23.413-7.145,47.88-9.119,71.777-10.571-12.795-17.841-28.537-42.909-35.787-71.235-8.035-31.401-4.203-62.802,10.52-86.145,6.255-9.919,14.387-18.387,22.25-26.578,5.537-5.767,11.266-11.73,16.163-18.052,10.493-13.541,18.902-33.84,11.028-50.202-.956-1.99-.121-4.374,1.869-5.334,1.99-.956,4.374-.121,5.334,1.869,8.027,16.682,3.574,38.577-11.917,58.56-5.155,6.657-11.031,12.776-16.713,18.692-7.937,8.265-15.433,16.073-21.255,25.306-13.552,21.497-17.029,50.619-9.537,79.901,7.746,30.265,25.852,56.949,38.796,74.391.874,1.179,1.034,2.739.414,4.07-.62,1.331-1.92,2.213-3.387,2.298-25.723,1.51-52.325,3.075-77.221,10.669-6.4,1.955-18.071,7.722-16.448,15.585,1.483,7.18,12.627,8.565,19.327,7.75,10.278-1.256,20.533-4.804,30.449-8.234,12.889-4.456,26.215-9.065,40.321-9.065h.187c6.122.016,12.183.913,18.04,1.783,8.288,1.225,16.12,2.388,23.815,1.171,13.63-2.142,26.426-11.976,35.104-26.976,7.999-13.829,11.722-29.903,15.32-45.449.499-2.15,2.653-3.481,4.796-2.993,2.15.499,3.488,2.646,2.993,4.796-3.734,16.116-7.594,32.782-16.194,47.65-9.888,17.095-24.752,28.346-40.778,30.87-8.905,1.393-17.712.09-26.223-1.167-5.838-.862-11.351-1.678-16.896-1.693h-.168c-12.764,0-24.876,4.191-37.703,8.628-10.313,3.567-20.974,7.254-32.095,8.608-1.584.195-3.204.297-4.827.297Z"/>
        <path class="cls-8" d="M372.788,817.425c-.293,0-.585-.031-.882-.097-59.505-13.408-122.533-14.04-182.295-1.83-2.15.445-4.273-.952-4.714-3.114-.441-2.162.952-4.273,3.114-4.714,60.859-12.436,125.061-11.796,185.651,1.861,2.154.484,3.504,2.622,3.02,4.776-.418,1.857-2.068,3.118-3.894,3.118Z"/>
        <path class="cls-8" d="M224.938,366.535c-1.877,0-3.75-.07-5.619-.215-2.201-.168-3.847-2.088-3.68-4.289.168-2.201,2.138-3.867,4.288-3.68,14.403,1.104,29.001-2.583,41.141-10.384,12.144-7.804,21.571-19.558,26.547-33.102.761-2.068,3.067-3.13,5.128-2.373,2.072.761,3.133,3.055,2.372,5.127-5.572,15.168-16.128,28.334-29.727,37.071-12.015,7.719-26.195,11.843-40.45,11.843Z"/>
        <path class="cls-8" d="M302.857,326.209c-.546,0-1.104-.113-1.635-.351-2.013-.905-2.911-3.27-2.006-5.283,1.978-4.398,2.525-9.412,1.537-14.122-.453-2.162.933-4.277,3.09-4.729,2.15-.449,4.277.925,4.729,3.091,1.331,6.353.597,13.111-2.068,19.039-.667,1.479-2.123,2.357-3.649,2.357Z"/>
        <path class="cls-8" d="M314.973,314.054c-.652,0-1.315-.16-1.928-.499-1.932-1.065-2.634-3.496-1.565-5.428,1.682-3.052,1.596-7.11-.222-10.091-1.151-1.885-.554-4.343,1.331-5.49,1.873-1.151,4.347-.55,5.49,1.331,3.313,5.436,3.469,12.546.394,18.114-.726,1.319-2.092,2.064-3.5,2.064Z"/>
        <path class="cls-8" d="M714.695,346.957c-9.627,0-19.277-.995-28.771-3.067-53.491-11.668-100.126-53.655-121.713-109.574-.796-2.06.23-4.374,2.287-5.166,2.053-.8,4.37.23,5.166,2.287,20.631,53.444,65.065,93.543,115.961,104.649,54.186,11.804,113.85-13.424,138.809-58.712,12.073-21.911,17.575-49.109,16.346-80.838-1.217-31.428-8.815-60.987-21.977-85.481-26.683-49.659-80.935-86.535-145.119-98.647-49.019-9.252-99.763-3.855-142.89,15.203-45.191,19.968-82.828,55.751-103.272,98.171-26.164,54.299-25.505,118.256-24.919,174.682.023,2.209-1.748,4.015-3.953,4.039h-.043c-2.189,0-3.972-1.76-3.996-3.953-.593-57.304-1.264-122.252,25.716-178.24,21.251-44.103,60.336-81.283,107.236-102.011,44.594-19.702,97.009-25.302,147.604-15.741,66.532,12.553,122.861,50.951,150.675,102.713,13.732,25.559,21.661,56.32,22.921,88.954,1.288,33.208-4.546,61.807-17.33,85.005-22.207,40.298-70.079,65.728-118.74,65.728Z"/>
        <path class="cls-8" d="M191.239,296.916c-17.876,0-27.893-16.756-29.653-32.505-1.592-14.235,3.266-29.91,17.696-32.845h0c8.952-1.826,17.384,1.678,23.772,9.837,9.404,11.999,12.366,31.666,6.602,43.845-3.473,7.344-9.791,11.484-17.782,11.66-.215.004-.429.008-.636.008ZM183.821,239.093c-.94,0-1.924.094-2.946.3h0c-9.435,1.92-12.495,13.853-11.348,24.127,1.389,12.432,9.006,25.864,22.168,25.395,5.022-.109,8.534-2.427,10.739-7.086,4.523-9.553,1.924-25.809-5.67-35.498-2.704-3.453-7.024-7.238-12.943-7.238ZM180.079,235.479h.039-.039Z"/>
        <path class="cls-8" d="M188.378,294.094c-.769,0-1.545-.222-2.228-.683-1.83-1.233-2.314-3.715-1.081-5.545,4.71-6.993,6.025-16.319,3.434-24.346-2.591-8.027-9.115-14.824-17.025-17.739-2.072-.765-3.129-3.063-2.369-5.131.765-2.072,3.063-3.126,5.131-2.369,10.313,3.805,18.489,12.319,21.864,22.781,3.379,10.466,1.733,22.153-4.409,31.268-.769,1.147-2.033,1.764-3.317,1.764Z"/>
        <path class="cls-8" d="M525.801,719.941c-1.463,0-2.868-.804-3.57-2.197-.995-1.971-.203-4.374,1.768-5.365,50.366-25.395,105.98-90.285,111.017-196.261,3.82-80.354-20.689-158.316-44.391-233.71-.659-2.103.507-4.347,2.614-5.01,2.115-.671,4.347.511,5.01,2.614,22.797,72.518,48.637,154.71,44.75,236.488-5.202,109.406-63.024,176.606-115.403,203.012-.577.293-1.19.429-1.795.429Z"/>
      </g>
    </g>
  </g>
</svg>