<?xml version="1.0" encoding="UTF-8"?>
<svg id="Layer_2" data-name="Layer 2" xmlns="http://www.w3.org/2000/svg" viewBox="0 0 623.636 975.258">
  <defs>
    <style>
      .cls-1 {
        fill: #8c5830;
      }

      .cls-2 {
        fill: #d27a3d;
      }

      .cls-3 {
        fill: #531139;
      }

      .cls-4 {
        fill: #f2975e;
      }

      .cls-5 {
        fill: #f4d1ba;
      }

      .cls-6 {
        fill: #fff8ee;
      }
    </style>
  </defs>
  <g id="Layer_1-2" data-name="Layer 1">
    <g>
      <g>
        <path class="cls-4" d="M358.225,72.72c6.643-21.655,26.576-38.615,49.016-41.704-2.665,6.981-7.235,14.446-10.415,22.544s-4.927,16.945-3.604,25.543c33.768,9.518,63.939,27.439,88.896,50.929,24.787-10.521,46.969-25.086,65.981-43.02,2.397.613-.468,37.806-8.626,58.216-8.157,20.41-30.579,26.668-30.579,26.668,8.278,13.662,10.418,46.295,4.622,67.914-5.796,21.619-17.111,49.495-16.569,76.077.542,26.583,25.927,64.195,50.387,103.324,24.46,39.129,34.123,69.154,28.382,109.384-5.74,40.229-36.27,44.733-36.27,44.733,32.72,41.977,50.575,95.308,49.727,148.524-.297,18.637-2.865,37.421-9.7,54.761-6.835,17.34-18.156,33.215-33.627,43.61,21.103,14.76,41.865,10.273,54.614,10.42,12.749.147,22.31,5.884,19.613,16.181-2.697,10.297-25.645,11.768-72.57,13.484-46.925,1.716-81.396-13.484-81.396-13.484,0,0-47.072,26.565-108.119,29.665-61.047,3.1-105.092-7.508-105.092-7.508-17.287,11.361-18.069,34.739-3.981,49.886,9.329,10.031,23.363,13.8,35.543,20.069,12.18,6.269,35.684,21.518,24.252,29.066-17.873,11.801-64.301-11.588-92.833-25.148-11.36-5.399-22.97-11.991-29.233-22.898-7.566-13.177-5.664-29.441-6.683-44.601-3.251-48.345-37.304-88.502-53.737-134.084-15.826-43.899-14.883-92.525-4.504-138.021,10.379-45.496,29.767-88.399,50.386-130.261-15.083-20.005-31.036-40.702-29.649-64.316,1.222-20.807,15.774-38.26,30.895-52.605,25.795-24.471,55.45-44.865,87.53-60.196-18.715-17.859-29.662-41.8-30.266-66.166-10.585-15.623-8.115-38.748,4.329-51.774-3.749-8.257-1.654-18.225,3.127-25.93s11.915-13.609,18.919-19.369c30.078-24.732,61.744-50.251,101.231-59.915Z"/>
        <path class="cls-2" d="M291.277,106.864c-20.525,12.06-41.991,25.058-53.602,45.84-4.223,7.559-6.823,17.362-2.041,24.581-13.058,14.354-15.657,37.232-2.551,54.048-3.54,23.746,7.481,49.07,29.312,62.875-30.242,17.034-58.89,36.895-85.45,59.24-15.797,13.291-31.794,29.189-34.5,49.656-3.286,24.854,13.879,47.28,30.021,68.479-23.043,43.929-40.561,90.752-53.028,138.881-16.939-77.656-69.133-142.82-95.829-217.684C-8.802,301.891-.936,197.445,44.723,112.436c18.153-33.798,42.62-65.14,75.22-85.367S194.066-1.07,230.129,12.021c36.063,13.091,64.126,49.498,61.148,94.843Z"/>
        <path class="cls-5" d="M284.599,311.713c-16.036-6.794-29.71-19.025-38.243-34.207-8.533-15.182-11.872-33.222-9.338-50.452-12.928-4.36-15.177-15.213-13.391-24.682,1.786-9.47,6.91-17.924,11.941-26.143,3.815,11.158,17.435,12.139,28.585,9.616,11.15-2.524,21.984-7.618,33.402-7.064,12.085.585,23.042,7.515,31.716,15.95s15.616,18.472,23.797,27.386c27.676,30.156,70.053,46.14,110.751,41.773-4.086,19.579-18.04,36.834-33.282,45.285,30.256,72.697,47.785,150.671,50.581,230.25-31.724,20.079-60.621,44.616-85.576,72.666-5.629,6.326-11.162,16.028-5.659,22.464,5.566,6.51,16.095,2.382,23.371-2.137,23.871-14.825,47.741-29.65,71.612-44.475,13.244,39.08,26.599,78.698,29.435,119.864s2.503,84.752-24.242,116.175c-26.56,31.204-76.299,46.908-117.083,50.879-40.784,3.971-81.78-2.542-124.882-11.397,28.283-31.444,57.953-67.321,57.577-109.612-.328-36.992-23.661-69.158-43.75-100.221-20.089-31.063-38.427-68.34-24.289-107.175,5.331,8.874,11.178,18.229,20.528,22.671,9.35,4.442,23.074,1.139,25.691-8.877,2.006-7.678-3.005-15.222-7.387-21.838-43.454-65.612-44.06-156.96,8.136-226.697Z"/>
        <path class="cls-5" d="M488.67,147.544c6.774-7.458,14.834-13.745,23.717-18.5,2.863-1.532,6.663-2.814,9.1-.669,1.705,1.501,1.908,4.186,1.093,6.306-.815,2.12-2.44,3.81-4.025,5.437-4.363,4.48-8.725,8.959-13.088,13.439-2.34,2.403-4.752,4.858-7.796,6.266-3.044,1.409-6.904,1.563-9.549-.498-2.645-2.061-3.713-7.09.548-11.782Z"/>
        <path class="cls-6" d="M404.279,173.02c1.047-6.043-1.033-12.543-5.393-16.857-4.36-4.313-10.882-6.322-16.914-5.21-6.254,1.153-11.572,5.373-15.56,10.326-6.979,8.666-10.576,19.985-9.881,31.09.416,6.645,2.756,13.778,8.437,17.249,5.833,3.565,13.503,2.212,19.604-.873,11.7-5.915,16.676-18.231,19.707-35.726Z"/>
        <path class="cls-3" d="M382.684,152.587c6.194,7.387,5.391,18.988-.106,26.907-5.496,7.92-14.712,12.566-24.084,14.823-1.032-15.881,7.234-32.029,24.19-41.73Z"/>
        <path class="cls-3" d="M169.759,425.186c-.055-.127-.084-.196-.118-.273-.088-.221-.218-.532-.339-.82-1.977-4.702-2.896-9.091-3.036-11.856-.202-6.242-.015-7.851,1.897-13.836.254-.917.121-1.926-.359-2.745-1.449-2.675-5.794-2.115-6.511.851-3.201,9.195-2.942,19.666.972,28.604,1.039,2.532,3.041,6.42,6.315,4.571,1.522-.889,2.099-2.974,1.179-4.496Z"/>
        <g>
          <path class="cls-3" d="M544.302,533.089c-.548,5.03-6.694,12.098-8.649,13.339-2.542,1.886-1.404,1.094-2.79,2.072-.42.319-.832.649-1.245.977.117-.09.224-.171.315-.24-1.68.957-2.521,3.303-1.645,5.058,3.103,5.814,10.385-.11,13.682-2.967,4.609-4.673,8.927-10.937,9.295-17.626-.37-4.852-7.848-5.319-8.963-.612Z"/>
          <path class="cls-3" d="M498.902,720.571c-.838-3.071-.752-6.64-2.345-9.402-2.417-3.523-8.287-.556-7.014,3.495.745,3.496,1.4,7.017,2.383,10.456.533,2.455,2.637,5.082,5.375,3.804,3.37-1.371,1.921-5.597,1.601-8.352Z"/>
          <path class="cls-3" d="M531.617,549.478c-.122.094-.235.182-.294.231.098-.077.197-.153.294-.231Z"/>
        </g>
        <path class="cls-3" d="M280.163,756.502c-.277-1.021-.97-1.913-1.881-2.447-3.003-1.891-7.065,1.229-6.014,4.623.581,3.328.635,8.398-1.238,13.742-.302,1.964-2.405,2.705-.414,6.101,5.327,5.347,8.387-4.175,9.323-8.288,1.059-4.506,1.11-9.192.224-13.732Z"/>
        <path class="cls-3" d="M501.732,747.383c-.366-2.818.226-6.613-2.603-8.274-3.214-2.023-7.561,1.315-6.436,4.948.456.102.211,11.987-.286,12.105-.261,1.681-.826,3.393-.319,5.081.235.701.571,1.254.795,1.529.805,1.244,2.37,1.96,3.847,1.52.567-.221.96-.436,1.207-.602,1.418-.784,2.327-2.374,2.653-3.939.92-4.044,1.308-8.225,1.142-12.369Z"/>
        <path class="cls-3" d="M480.974,728.05c-2.903-2.509-7.321,1.415-5.282,4.637,1.995,3.122,2.578,8.653,1.876,11.536-.501,2.605-2.32,6.426,1.101,7.771,4.581,1.699,5.859-4.692,6.253-7.984.529-5.396-.353-11.754-3.948-15.961Z"/>
        <path class="cls-3" d="M282.651,379.894c-1.37,4.649-2.737,9.3-3.963,13.99-.36,3.129-3.298,7.466-.352,9.963,4.083,2.675,5.637-2.154,6.565-5.269,1.833-5.511,3.496-11.076,5.112-16.655,1.302-4.808-6.002-6.824-7.362-2.029Z"/>
        <path class="cls-3" d="M273.893,426.34c-1.203,4.906-2.155,10.125-1.156,15.146.29,1.437.836,3.099,2.36,3.607,1.313.66,3.199.159,4.02-1.057,1.428-2.338,1.007-5.449,1.401-8.101-.083-1.994,1.089-4.674,1.407-9.045-.328-4.349-7.035-4.765-8.031-.548Z"/>
        <path class="cls-3" d="M300.169,408.015c-1.871-3.454-7.523-1.93-7.392,2.002.067,4.169-4.02,13.889,2.996,13.723,3.618-.414,3.31-4.902,3.991-7.61.149-2.677,1.66-5.567.405-8.116Z"/>
        <path class="cls-5" d="M143.42,628.603c-.753-3.128-5.343-3.732-6.881-.899-2.443,4.038-7.656,26.564,2.659,20.87.604-.681,1.03-1.498,1.006-2.429.508-7.012-.045-5.22,2.043-12.571.6-2.633,1.449-1.404,1.172-4.971Z"/>
        <path class="cls-5" d="M141.594,683.407c-1.319-6.99-2.26-8.565-1.678-15.594-.016-5.301-8.091-5.301-8.124,0-.754,4.689,1.111,25.07,9.103,18.637.728-.82.797-1.993.699-3.043Z"/>
        <path class="cls-5" d="M153.411,716.895c-1.467-1.531-4.054-5.601-4.632-8.098-1.472-5.253-9.47-3.046-8.06,2.222,1.831,5.482,5.065,11.587,10.773,13.705,1.937.512,4.171-.82,4.327-2.882-.039-3.115-1.191-3.038-2.408-4.946Z"/>
        <path class="cls-5" d="M163.424,690.659c-1.6-3.059-2.475-6.833-4.841-9.352-3.203-2.772-8.08,1.563-5.829,5.117,1.744,3.373,3.477,6.754,5.481,9.983.458.784,1.227,1.378,2.104,1.618,1.852.502,3.815-.608,4.33-2.459.499-1.739-.697-3.322-1.245-4.907Z"/>
        <path class="cls-5" d="M522.11,405.098c-2.108-3.54-3.482-7.772-6.16-10.866-3.133-2.711-7.907,1.528-5.704,5.007,2.272,4.05,4.345,8.222,6.815,12.156,1.098,1.936,2.958,4.298,5.44,3.094,4.162-1.871.873-6.573-.392-9.391Z"/>
        <path class="cls-5" d="M538.752,433.884c-.664-2.383-.428-5.549-2.847-6.939-3.065-1.931-7.213,1.255-6.139,4.72.774,3.546,1.409,7.158,2.695,10.563.535,1.497,1.556,3.142,3.3,3.248,1.451.301,3.153-.679,3.64-2.075.965-3.065-.283-6.411-.649-9.516Z"/>
        <path class="cls-5" d="M517.906,435.639c-.461-1.984-.372-4.335-1.552-6.041-2.199-3.207-7.539-.504-6.382,3.18.895,3.272.755,9.828,5.736,8.779,2.718-.732,2.821-3.646,2.197-5.919Z"/>
        <path class="cls-1" d="M67.347,415.171c-2.165-5.446-3.351-6.432-5.355-15.804-1.674-5.973-10.771-3.466-9.167,2.527.995,5.273,7.544,28.194,15.24,19.447,1.257-1.999,0-4.215-.718-6.17Z"/>
        <path class="cls-1" d="M86.137,452.644c-6.761-6.269-7.005-8.834-10.28-17.744-2.864-4.176-9.827-.66-8.317,4.144.809,6.203,9.683,23.92,17.31,21.169,3.079-1.1,3.574-5.424,1.288-7.569Z"/>
        <path class="cls-1" d="M105.946,490.101c-3.524-3.929-3.189-3.362-5.903-7.678-2.693-3.872-1.15-4.767-4.545-7.743-3.337-2.102-7.856,1.367-6.686,5.14,1.821,5.199,11.31,23.241,18.102,17.472,2.216-2.162.998-5.335-.968-7.191Z"/>
        <path class="cls-1" d="M95.232,428.463c-1.695-3.823-1.49-8.411-3.365-12.037-2.769-4.037-9.496-.637-8.038,4.005.765,5.078,5.281,25.417,12.887,16.916,1.524-2.921-.84-6.002-1.484-8.884Z"/>
        <path class="cls-1" d="M117.111,461.513c-2.109-2.899-3.569-6.441-6.098-8.961-3.838-3.322-9.683,1.873-6.985,6.132,2.725,3.641,4.377,8.513,8.27,11.065,1.926,1.177,4.646.462,5.747-1.507,1.284-2.175.159-4.726-.935-6.729Z"/>
        <path class="cls-1" d="M118.306,65.28c-3.1-3.768-8.229-.177-11.023,2.267-2.919,3.181-7.024,7.27-6.39,11.903.952,3.952,6.746,4.711,8.688,1.136,2.334-4.616,1.935-3.9,5.74-7.514.135-.108.187-.151.272-.22.072-.055.101-.075.195-.147,2.409-1.515,4.729-4.802,2.517-7.425Z"/>
        <path class="cls-1" d="M144.08,45.666c-1.344-.664-2.935-.119-4.351.035-4.969,1.344-10.663,3.687-13.605,8.05-2.073,4.228,3.968,8.245,7.154,4.821.201-.425,4.99-3.472,8.536-5.012.518-.162,4.3-1.682,4.256-3.003.88-1.764-.126-4.242-1.99-4.891Z"/>
        <path class="cls-1" d="M169.906,34.024c-4.466.369-11.211.855-14.144,4.554-2.196,3.486,1.428,8.204,5.368,6.983,4.041-1.825,8.54-2.199,12.644-3.771,4.418-3.282,1.053-8.24-3.868-7.766Z"/>
        <path class="cls-1" d="M148.056,65.055c-3.322,3.838,1.872,9.682,6.132,6.985,3.157-2.364,6.71-4.089,10.276-5.734,1.867-.878,4.226-1.983,4.368-4.321-.043-10.543-17.157-.615-20.776,3.071Z"/>
      </g>
      <g>
        <path class="cls-3" d="M255.625,191.577c-10.626,0-20.042-4.905-24.396-12.862-4.16-7.59-3.551-17.876,1.58-26.839,4.367-7.625,11.133-13.443,17.103-18.574,28.381-24.412,63.703-54.791,106.694-59.711,50.545-5.795,96.486,25.38,126.095,52.555,1.627,1.491,1.736,4.019.242,5.643-1.487,1.623-4.027,1.736-5.643.242-28.384-26.043-72.241-55.899-119.786-50.502-40.552,4.644-74.84,34.136-102.39,57.83-5.752,4.944-11.695,10.06-15.379,16.491-2.95,5.147-4.893,12.85-1.51,19.027,3.617,6.61,12.253,9.115,19.14,8.651,8.245-.542,16.128-4.292,23.753-7.922,1.998-.94,4.374-.101,5.326,1.893.948,1.994.101,4.378-1.893,5.327-7.917,3.766-16.889,8.035-26.664,8.678-.765.051-1.522.074-2.275.074Z"/>
        <path class="cls-3" d="M263.945,241.841c-.144,0-.293-.008-.441-.023-8.132-.898-15.574-6.162-19.515-13.303-4.125,3.383-9.221,5.818-14.727,3.446-5.151-2.224-8.218-7.695-8.87-15.823-1.175-14.731,2.767-29.567,11.102-41.769,1.249-1.83,3.738-2.287,5.553-1.05,1.826,1.245,2.294,3.73,1.05,5.553-7.309,10.704-10.766,23.714-9.736,36.63.226,2.849,1.061,7.824,4.07,9.123,2.248.976,5.678-.976,10.157-5.818,1.003-1.089,2.529-1.53,3.953-1.151,1.432.379,2.536,1.514,2.872,2.954,1.619,6.907,7.914,12.487,14.965,13.264,2.197.242,3.777,2.216,3.535,4.409-.226,2.045-1.959,3.559-3.969,3.559Z"/>
        <path class="cls-3" d="M247.751,208.828c-2.174,0-3.957-1.744-3.996-3.926-.105-5.982.835-11.89,2.794-17.556.722-2.084,2.993-3.184,5.084-2.47,2.084.722,3.192,3.001,2.47,5.085-1.654,4.776-2.447,9.756-2.357,14.801.039,2.205-1.717,4.027-3.926,4.066h-.07Z"/>
        <path class="cls-3" d="M285.173,310.933c-.39,0-.784-.055-1.178-.18-16.612-5.128-31.221-15.819-41.133-30.105-9.912-14.286-14.813-31.713-13.798-49.078.125-2.201,1.873-3.906,4.222-3.754,2.201.129,3.883,2.017,3.754,4.222-.909,15.585,3.493,31.229,12.386,44.052,8.901,12.827,22.012,22.426,36.926,27.03,2.107.648,3.29,2.888,2.638,4.995-.527,1.717-2.107,2.817-3.816,2.817Z"/>
        <path class="cls-3" d="M366.998,327.994c-14.836,0-29.637-3.028-43.022-9.178-2.002-.921-2.884-3.293-1.959-5.299.917-2.006,3.286-2.888,5.299-1.959,28.705,13.189,64.511,10.821,91.222-6.029,1.857-1.175,4.331-.62,5.51,1.249,1.178,1.865.62,4.331-1.249,5.51-16.483,10.399-36.169,15.706-55.801,15.706Z"/>
        <path class="cls-3" d="M436.992,307.125c-.702,0-1.413-.183-2.056-.574-1.892-1.136-2.501-3.594-1.362-5.483,2.454-4.082,3.781-8.757,3.832-13.517.023-2.193,1.807-3.953,3.996-3.953h.043c2.209.023,3.976,1.83,3.953,4.039-.066,6.185-1.787,12.253-4.979,17.552-.749,1.245-2.072,1.935-3.426,1.935Z"/>
        <path class="cls-3" d="M452.382,299.242c-.937,0-1.873-.324-2.63-.987-1.662-1.452-1.83-3.976-.378-5.639,2.072-2.369,2.56-6.134,1.159-8.952-.983-1.978-.176-4.374,1.799-5.358,1.986-.991,4.374-.176,5.358,1.799,2.821,5.685,1.877,12.99-2.298,17.771-.788.901-1.896,1.366-3.009,1.366Z"/>
        <path class="cls-3" d="M498.221,177.482c-1.963,0-3.672-1.444-3.953-3.438-.308-2.185,1.213-4.207,3.399-4.515,15.757-2.216,30.773-14.251,39.19-31.413,6.989-14.255,9.166-30.168,9.841-43.946-22.051,18.59-46.541,33.968-72.92,45.769-2.025.898-4.382-.004-5.28-2.017-.901-2.014.004-4.378,2.017-5.28,28.416-12.713,54.584-29.684,77.779-50.444,1.182-1.057,2.876-1.319,4.32-.659,1.444.655,2.361,2.103,2.341,3.688-.207,16.315-1.635,37.473-10.926,56.41-9.568,19.507-26.906,33.227-45.246,35.806-.191.027-.379.039-.562.039Z"/>
        <path class="cls-3" d="M396.467,640.505c-3.859,0-7.121-1.272-9.615-3.82-7.574-7.738-1.736-19.359,5.561-26.956,31.26-32.544,66.326-61.491,104.224-86.035,1.853-1.206,4.327-.671,5.525,1.178,1.202,1.854.671,4.328-1.178,5.526-37.383,24.213-71.972,52.765-102.803,84.865-3.617,3.766-9.447,11.921-5.615,15.835,3.356,3.418,10.957-.164,14.075-1.861,9.841-5.365,19.585-11.519,29.009-17.47,19.714-12.444,40.095-25.31,62.977-32.119,5.428-1.615,11.039-2.907,16.467-4.156,13.505-3.11,26.266-6.044,36.751-13.595,11.968-8.62,20.213-23.316,22.613-40.314,2.017-14.313.199-30.082-5.564-48.204-8.581-27.003-23.464-52.063-37.859-76.299-6.052-10.193-12.311-20.732-18.055-31.323-9.603-17.704-19.441-38.85-19.616-61.421-.129-16.58,4.761-30.125,9.486-43.225,7.964-22.063,16.202-44.879,3.383-86.043-.656-2.107.523-4.347,2.63-5.003,2.099-.644,4.343.523,5.003,2.63,13.615,43.724,4.523,68.909-3.496,91.132-4.698,13.01-9.131,25.298-9.014,40.446.16,20.814,9.518,40.837,18.649,57.674,5.67,10.454,11.89,20.924,17.903,31.05,14.625,24.623,29.746,50.085,38.604,77.962,6.134,19.289,8.05,36.212,5.861,51.739-2.704,19.144-12.128,35.795-25.86,45.683-11.792,8.491-25.942,11.749-39.623,14.895-5.311,1.221-10.797,2.486-15.983,4.027-21.825,6.497-41.734,19.066-60.987,31.221-9.533,6.017-19.386,12.241-29.45,17.728-5.19,2.833-9.927,4.249-14.001,4.253Z"/>
        <path class="cls-3" d="M392.144,81.223c-.23,0-.46-.02-.695-.059-2.173-.382-3.625-2.454-3.247-4.628,2.509-14.302,6.786-28.174,12.744-41.367-18.391,8.007-33.851,23.401-41.539,41.855-.851,2.041-3.192,3.001-5.225,2.15-2.037-.847-3.001-3.188-2.15-5.225,9.966-23.932,30.788-42.518,55.696-49.71,1.53-.441,3.188.07,4.203,1.311,1.011,1.237,1.186,2.962.449,4.378-7.878,15.086-13.365,31.229-16.303,47.989-.343,1.939-2.029,3.305-3.933,3.305Z"/>
        <path class="cls-3" d="M272.452,576.567c-.55,0-1.093-.027-1.627-.086-5.857-.613-10.758-3.824-14.891-6.786-26.164-18.754-61.342-64.363-84.619-94.542-3.344-4.339-6.45-8.366-9.252-11.956-9.681-12.393-22.937-29.364-23.721-48.937-.956-23.811,15.815-43.385,30.531-57.776,26.277-25.696,55.989-47.599,88.318-65.1,1.928-1.042,4.363-.332,5.416,1.615,1.05,1.939.328,4.363-1.615,5.416-31.67,17.146-60.784,38.604-86.531,63.781-13.533,13.236-28.962,31.081-28.135,51.743.632,15.722,10.353,29.383,22.036,44.341,2.81,3.598,5.927,7.637,9.283,11.992,22.992,29.809,57.737,74.86,82.949,92.931,3.297,2.365,7.149,4.921,11.067,5.334,2.907.312,6.567-1.116,7.309-3.734.542-1.912-.324-4.48-1.253-6.95-12.846-34.082-40.587-83.956-67.457-121.292-.702-.972-.929-2.209-.617-3.368.308-1.155,1.12-2.115,2.213-2.607,9.467-4.277,26.351-16.639,31.366-31.608.702-2.095,2.97-3.211,5.057-2.521,2.092.702,3.223,2.966,2.521,5.057-5.159,15.398-20.229,27.955-31.35,34.172,26.375,37.375,53.109,85.829,65.744,119.349,1.338,3.551,2.669,7.695,1.463,11.945-1.818,6.435-8.366,9.588-14.204,9.588Z"/>
        <path class="cls-3" d="M299.217,975.258c-5.565,0-10.809-1.596-12.862-2.302l-61.167-21.115c-12.397-4.281-29.372-10.142-38.858-23.561-9.166-12.971-9.139-28.849-9.112-44.2.012-6.243.023-12.698-.613-18.723-2.497-23.64-15.055-43.911-28.349-65.374-6.056-9.775-12.319-19.889-17.49-30.285-27.167-54.654-22.972-114.81-14.664-155.651,10.532-51.825,32.38-100.591,53.507-147.757.905-2.014,3.266-2.899,5.284-2.014,2.013.905,2.915,3.27,2.013,5.284-20.951,46.764-42.616,95.124-52.976,146.079-8.054,39.615-12.167,97.879,13.993,150.5,5.003,10.064,11.168,20.014,17.127,29.637,13.185,21.279,26.816,43.287,29.5,68.741.683,6.45.671,13.123.659,19.573-.023,14.75-.051,28.685,7.644,39.576,7.399,10.466,20.202,15.531,34.94,20.619l61.167,21.115c6.275,2.162,12.643,2.47,15.858.753,1.194-.636,1.873-1.491,2.212-2.767.968-3.656-3.157-7.734-4.444-8.897-7.324-6.622-17.614-10.45-27.565-14.149-14.645-5.451-29.793-11.082-36.716-25.797-6.372-13.533-3.399-30.297,8.831-49.827,5.549-8.862,11.89-17.353,18.02-25.567,10.224-13.693,20.799-27.85,27.456-43.576,15.944-37.668,7.274-84.553-21.091-114.022-1.53-1.588-1.483-4.121.109-5.65,1.584-1.53,4.121-1.483,5.65.109,30.515,31.705,39.849,82.153,22.691,122.677-7.036,16.619-17.903,31.171-28.412,45.246-6.037,8.081-12.276,16.44-17.65,25.021-7.352,11.742-14.774,28.591-8.374,42.187,5.537,11.761,18.524,16.596,32.271,21.708,10.657,3.965,21.677,8.066,30.141,15.71,5.779,5.229,8.261,11.375,6.809,16.869-.901,3.41-3.036,6.099-6.177,7.773-2.86,1.53-6.165,2.056-9.365,2.056Z"/>
        <path class="cls-3" d="M523.222,831.837c-2.006,0-3.734-1.506-3.968-3.547-.246-2.193,1.331-4.171,3.524-4.421,17.173-1.935,33.898-13.342,44.742-30.503,8.916-14.11,14.317-32.017,16.518-54.748,5.619-58.139-11.687-117.956-47.486-164.103-1.354-1.744-1.034-4.257.706-5.608,1.748-1.358,4.257-1.034,5.607.706,37.036,47.747,54.939,109.624,49.125,169.777-2.322,23.998-8.117,43.053-17.712,58.244-12.128,19.191-31.046,31.971-50.604,34.179-.152.016-.304.023-.453.023Z"/>
        <path class="cls-3" d="M547.221,863.573c-28.217,0-57.518-2.743-83.706-12.908-2.057-.8-3.075-3.114-2.279-5.174.804-2.06,3.126-3.067,5.174-2.279,41.199,15.999,91.401,12.819,131.746,10.263,3.883-.246,16.619-1.604,17.451-8.772.449-3.871-3.34-7.637-7.266-9.041-4.172-1.491-8.885-1.389-13.896-1.284l-2.411.047c-.453.004-.905.008-1.358.008-20.365,0-40.481-5.959-48.305-8.565-2.092-.695-3.223-2.958-2.525-5.053.698-2.092,2.938-3.227,5.053-2.525,7.445,2.478,26.578,8.152,45.761,8.152.425,0,.847,0,1.268-.008l2.349-.043c5.49-.109,11.195-.238,16.756,1.748,6.938,2.482,13.463,9.283,12.51,17.486-1.057,9.123-10.126,14.895-24.88,15.827-15.987,1.011-33.496,2.123-51.443,2.123Z"/>
        <path class="cls-3" d="M347.401,880.954c-26.188,0-52.523-2.798-78.036-5.51-6.79-.718-13.576-1.44-20.362-2.111-2.197-.219-3.801-2.174-3.582-4.37.215-2.189,2.08-3.812,4.37-3.582,6.805.671,13.611,1.397,20.416,2.119,26.488,2.814,54.002,5.697,80.814,5.444,38.195-.398,70.79-7.547,96.884-21.251,31.588-16.584,54.092-43.287,61.74-73.252.542-2.142,2.72-3.442,4.858-2.884,2.138.546,3.43,2.72,2.884,4.858-8.206,32.158-32.177,60.718-65.767,78.356-27.226,14.294-61.042,21.751-100.513,22.164-1.233.012-2.47.019-3.707.019Z"/>
        <path class="cls-3" d="M374.572,215.482c-3.461,0-6.895-.808-10.189-2.482-7.477-3.793-11.496-11.328-11.32-21.22.293-16.354,11.8-35.393,25.13-41.578,7.953-3.676,16.03-2.689,22.765,2.81h0c12.464,10.173,9.233,30.96-.137,45.351-7.211,11.07-16.807,17.119-26.25,17.119ZM387.652,155.981c-1.955,0-3.98.492-6.095,1.471-10.497,4.87-20.268,21.298-20.502,34.468-.082,4.714,1.054,10.965,6.946,13.954,10.185,5.174,20.174-2.739,26.125-11.874,7.574-11.636,10.31-27.83,1.779-34.8h-.004c-2.63-2.146-5.362-3.219-8.249-3.219Z"/>
        <path class="cls-3" d="M361.87,197.836c-1.073,0-2.15-.062-3.223-.191-2.189-.265-3.754-2.252-3.492-4.445.265-2.189,2.201-3.758,4.445-3.492,7.679.944,15.808-3.036,19.827-9.623,4.011-6.583,3.797-15.644-.527-22.032-1.237-1.83-.757-4.312,1.069-5.549,1.838-1.237,4.316-.753,5.549,1.069,6.115,9.034,6.407,21.361.73,30.671-5.116,8.39-14.625,13.591-24.377,13.591Z"/>
        <path class="cls-3" d="M120.777,618.824c-1.947,0-3.652-1.424-3.949-3.407-7.059-47.209-32.552-93.297-57.202-137.864-8.409-15.203-16.354-29.563-23.639-44.028C-16.592,329.114-11.183,197.192,49.769,97.436c22.707-37.161,49.452-64.222,79.495-80.428,36.692-19.796,78.442-22.477,111.661-7.176,37.332,17.189,60.226,58.166,53.253,95.311-.406,2.173-2.486,3.594-4.663,3.188-2.17-.406-3.598-2.493-3.188-4.663,6.314-33.653-14.637-70.872-48.742-86.578-30.952-14.255-70.025-11.656-104.528,6.95-28.783,15.527-54.51,41.625-76.467,77.564C-2.957,199.053-8.241,327.931,43.128,429.927c7.215,14.329,15.121,28.623,23.491,43.755,24.993,45.191,50.838,91.92,58.115,140.557.324,2.181-1.178,4.214-3.364,4.542-.199.027-.398.043-.593.043Z"/>
      </g>
    </g>
  </g>
</svg>