<?xml version="1.0" encoding="UTF-8"?>
<svg id="Layer_2" data-name="Layer 2" xmlns="http://www.w3.org/2000/svg" viewBox="0 0 861.835 978.939">
  <defs>
    <style>
      .cls-1 {
        fill: #8b5d39;
      }

      .cls-2 {
        fill: #8c5830;
      }

      .cls-3 {
        fill: #d27a3d;
      }

      .cls-4 {
        fill: #531139;
      }

      .cls-5 {
        fill: #ba8b70;
      }

      .cls-6 {
        fill: #c6a491;
      }

      .cls-7 {
        fill: #f2975e;
      }

      .cls-8 {
        fill: #f4d1ba;
      }

      .cls-9 {
        fill: #fff8ee;
      }
    </style>
  </defs>
  <g id="Layer_1-2" data-name="Layer 1">
    <g>
      <g>
        <path class="cls-3" d="M385.965,652.736c-43.545-17.924-65.973-67.194-69.174-113.652-3.201-46.459,8.493-92.52,12.729-138.898,4.236-46.378-.421-96.978-30.896-132.526-40.543-47.292-117.223-51.927-172.533-22.641-55.309,29.286-98.064,75.889-116.095,135.227-24.688,81.245,10.19,144.015,82.3,148.153,38.266,2.196,79.125-23.645,105.731-57.255-8.597,55.999,9.249,115.409,47.382,157.733,38.133,42.325,95.828,66.76,153.182,64.875-5.639-10.16-8.378-21.868-12.625-41.017Z"/>
        <path class="cls-7" d="M718.116,600.126c18.213,19.276,35.119,40.155,46.468,64.013,11.349,23.859,16.866,51.033,11.675,76.888-2.556,12.733-9.561,27.853-10.4,40.807-.839,12.954,6.777,21.878,18.589,27.586,13.186,6.372,52.974-1.294,65.523,3.379,15.98,5.951,10.388,25.239-17.314,27.23-23.585,1.695-47.009,2.199-69.688-3.56-14.824-3.765-33.284-6.558-42.514-18.611-7.053-9.209-6.76-23.07-14.149-32.019-12.693-15.373-29.844-13.439-52.851-1.111-25.034,13.414-51.953,29.005-76.167,43.815-24.213,14.809-51.843,26.767-80.238,24.526-61.24,53.85-147.01,105.366-172.905,119.692-2.577,1.426-5.816.169-6.37-2.695-2.911-15.061,5.382-21.305,23.335-40.547,8.377-8.979,17.128-17.617,26.266-25.842,42.354-38.123,53.74-100.359,47.432-156.586-6.306-56.206-27.441-109.639-40.168-164.776-22.005-95.331-17.762-198.696,27.651-288.03-20.181-10.755-33.134-33.512-31.942-56.118,1.064-20.193,12.192-38.341,22.999-55.519,8.964-14.249,17.928-28.498,24.167-46.119-10.965-21.364-14.419-46.396-9.642-69.876,4.777-23.48,17.753-45.256,38.294-61.373-5.879,24.427-3.608,50.694,7.575,75.28,21.444-17.397,49.225-27.014,76.98-26.649,27.756.365,55.267,10.71,78.452,28.304,15.177-17.086,27.052-37.019,34.8-58.416,14.187,36.513,14.184,78.202,2.267,115.07-2.775,21.114,7.475,41.499,16.811,60.692,9.336,19.193,18.233,40.631,12.701,61.209-3.735,13.896-13.799,25.516-25.725,33.772-11.925,8.256-25.688,13.504-41.674,12.33,12.271,39.688,31.522,77.264,59.362,113.091,5.928,58.86,2.547,129.519,50.396,180.162Z"/>
        <g>
          <path class="cls-8" d="M602.098,312.485c16.709-6.262,30.477-19.77,36.921-36.224,2.682-6.849,3.981-15.071-.158-21.173-4.213-6.211-12.433-8.059-19.78-9.872-23.236-5.736-45.3-16.057-64.51-30.178-6.054,6.028-15.607,6.95-22.319,4.322-6.712-2.628-12.591-7.545-19.736-8.574-10.231-1.474-19.583,5.316-29.49,8.237-22.18,6.54-48.894-6.041-68.015,6.837-13.798,9.293-17.016,29.175-10.873,44.507,6.143,15.332,19.571,26.69,42.874,37.558-10.476,21.711-7.18,47.75,1.94,70.049,9.12,22.299,23.54,42.017,35.793,62.802,12.253,20.785,22.617,43.723,22.173,67.009,19.03,2.996,37.278,10.716,52.445,24.248-.711-23.183,6.076-46.533,22.434-64.142l-16.367-.65c7.764-11.482,15.646-23.1,26.088-32.284,10.442-9.184,23.905-15.815,40.547-13.002,5.638-13.193-3.301-28.008-13.568-38.125-10.267-10.116-22.839-19.349-26.876-33.103-3.754-12.79.862-26.356,10.476-38.243Z"/>
          <path class="cls-8" d="M682.648,633.544c22.931,45.314,31.074,97.778,22.94,147.79-5.157-10.421-20.611-8.68-31.999-4.578-59.209,21.327-108.39,71.485-171.285,75.521,27.543-32.475,37.786-76.843,36.701-119.448-1.086-42.605-12.489-84.216-24.023-128.801,15.111,1.065,30.222,2.131,46.356,3.355,5.187,22.86,12.492,45.252,21.795,66.804,2.647,6.133,6.536,13.03,13.236,13.874,4.457.562,8.688-1.841,12.505-4.179,23.668-14.495,46.695-30.01,73.774-50.338Z"/>
        </g>
        <path class="cls-8" d="M225.626,424.227c-10.356,84.05,22.1,206.087,102.477,254.857-88.899-20.373-138.169-127.721-133.024-200.055,8.009-17.257,16.018-34.514,30.547-54.802Z"/>
        <path class="cls-9" d="M482.082,136.734c-11.318-4.625-25,1.239-32.163,11.047-7.163,9.808-8.914,22.529-8.438,34.61.419,10.637,3.496,22.751,13.178,27.442,8.127,3.937,18.38.871,24.933-5.295,6.552-6.165,10.065-14.81,12.614-23.383,2.313-7.78,4.002-15.943,2.854-23.971s-4.932-17.161-12.979-20.45Z"/>
        <path class="cls-9" d="M613.978,143.973c-5.331-4.368-13.424-4.47-19.563-1.299-6.138,3.171-10.447,9.111-12.895,15.509-2.448,6.397-3.224,13.285-3.787,20.1-.716,8.68-1.058,17.745,2.431,25.743s11.904,14.557,20.619,13.198c7.73-1.205,13.305-7.992,16.762-14.921,8.659-17.354,14.294-43.693-3.568-58.33Z"/>
        <path class="cls-4" d="M460.132,139.387c7.994,8.223,11.06,20.8,7.732,31.712-3.328,10.912-12.92,19.728-24.185,22.229-5.343-20.583,2.104-43.872,16.452-53.942Z"/>
        <path class="cls-4" d="M589.738,144.763c5.459,9.895,9.182,21.137,7.959,32.339s-8.188,22.226-18.915,26.079c-5.822-19.932-1.826-42.422,10.956-58.418Z"/>
        <path class="cls-4" d="M533.746,251.431c-3.127,4.617-6.4,9.928-5.195,15.353.388,1.746,1.301,3.451,2.82,4.425,1.519.974,3.699,1.037,5.055-.148,1.216-1.063,1.527-2.802,1.607-4.404.235-4.724-.924-9.507-4.287-15.226Z"/>
        <path class="cls-8" d="M424.797,118.097c-6.182-13.096-7.447-28.386-3.5-42.299.506-1.784,1.134-3.612,2.437-4.945s3.464-2.022,5.112-1.136c1.622.872,2.199,2.85,2.625,4.625,2.013,8.389,4.026,16.777,6.039,25.166-5.327,4.683-9.49,10.646-12.713,18.589Z"/>
        <path class="cls-8" d="M621.55,95.309c3.786-7.245,7.572-14.491,11.358-21.736.981-1.878,2.267-3.98,4.386-4.279,1.899-.268,3.712,1.148,4.505,2.871.794,1.723.796,3.686.763,5.579-.234,13.192-1.723,26.895-8.702,38.149-2.159-7.042-5.855-13.621-12.311-20.584Z"/>
        <path class="cls-1" d="M747.166,517.91c8.213-14.635,6.236-33.4-2.003-48.021-8.239-14.62-21.94-25.564-36.61-33.944-23.091-13.189-50.278-20.921-76.619-16.748-26.341,4.173-51.254,21.808-62,45.572,60.224,3.143,119.646,20.386,177.233,53.14Z"/>
        <path class="cls-6" d="M742.859,519.313c-13.96,70.37-64.637,132.627-131.253,161.245-6.066,2.606-13.134,4.934-19.093,2.098-4.121-1.961-6.758-5.994-9.057-9.898-11.657-19.8-20.141-41.415-25.041-63.798,19.91,1.067,34.349,1.877,48.787,2.687,2.743.154,5.936.122,7.651-1.997,1.813-2.24.942-5.519-.09-8.2-11.343-29.457-32.456-55.159-59.311-72.202,4.71-23.923,10.087-43.975,19.023-64.584,57.202,1.31,113.923,18.975,168.383,54.65Z"/>
        <path class="cls-4" d="M543.342,284.352c-1.3-1.909-3.74-1.064-5.618-.745-.223.045-.448.076-.673.111q-.052.006-.116.012c-.564.16-2.545.046-3.256.01-.2-.032-.402-.061-.601-.101-1.831-.322-3.715-1.611-5.504-.452-2.727,1.456-2.151,5.823.866,6.543,3.981,2.015,18.653,1.79,14.902-5.378Z"/>
        <path class="cls-5" d="M684.82,601.444c-.741-2.995-5.193-3.591-6.695-.864-14.059,30.285-32.664,52.063-56.841,74.66-2.769,2.596.808,7.238,4.091,5.233,15.843-11.084,28.378-26.282,39.726-41.684,7.226-10.169,13.031-21.25,18.391-32.465.63-1.572,1.865-3.118,1.328-4.881Z"/>
        <path class="cls-5" d="M699.392,493.39c-2.216-1.914-6.063-.595-6.748,2.203-3.562,15.903-8.523,27.885-14.551,40.998-.248,1.476-1.438,1.171-1.25,4.72.693,2.836,4.91,3.386,6.324.815,6.974-10.449,11.493-22.369,15.18-34.285.904-3.849,2.571-7.743,2.662-11.685-.057-1.087-.701-2.167-1.617-2.767Z"/>
        <path class="cls-5" d="M676.91,555.548c-1.533-2.779-6.111-2.207-6.87.886-6.314,18.512-15.294,36.477-20.042,55.362.219,2.916,4.555,3.75,5.944,1.182,3.587-6.913,5.942-14.362,8.793-21.585,4.168-11.001,8.359-21.995,12.554-32.987.269-.957.126-2.004-.379-2.859Z"/>
        <path class="cls-5" d="M644.962,631.803c-.678-2.74-4.751-3.286-6.126-.79-8.372,18.491-18.315,32.791-31.245,46.467-.2.238-.418.469-.647.696,7.59-25.749,15.318-51.463,22.868-77.226,1.944-6.574,3.916-13.139,5.871-19.709.247-.88.116-1.836-.347-2.622-1.407-2.543-5.604-2.029-6.301.813-9.868,33.472-21.178,66.787-30.419,100.327-.047-.127-.089-.272-.138-.393-4.423-16.228-5.79-29.361-4.696-46.983.371-4.657.697-7.179,1.132-10.019.244-.875.117-1.831-.346-2.613-1.397-2.538-5.588-2.019-6.279.81-3.172,18.779-2.579,38.14,1.678,56.706,1.31,3.622.869,9.897,5.495,10.951,3.168.194,4.087-1.764,4.057-4.08,1.015.718,2.394.945,3.621.617.76,2.577,4.36,3.664,6.427,1.596,14.198-14.571,25.851-31.585,34.197-50.054.555-1.454,1.689-2.877,1.2-4.495Z"/>
        <path class="cls-5" d="M663.911,484.017c-1.436-2.598-5.721-2.069-6.432.83-7.818,20.021-14.838,40.351-21.015,60.924-1.227,4.067-2.337,8.176-3.129,12.348-.254.903-.12,1.896.358,2.704,2.666,3.698,6.636,1.003,7.168-2.745,5.578-18.572,10.729-37.284,17.481-55.493,1.912-5.319,3.887-10.616,5.924-15.891.252-.898.118-1.875-.355-2.677Z"/>
        <path class="cls-5" d="M631.378,475.432c-1.497-2.722-5.976-2.155-6.717.866-2.624,7.069-5.184,14.162-7.855,21.214-1.066,4.056-4.54,8.418-3.006,12.642,3.038,4.021,6.746.5,7.708-3.156,3.364-9.607,6.782-19.197,10.24-28.771.262-.934.124-1.961-.37-2.795Z"/>
        <path class="cls-5" d="M614.574,522.602c-1.565-2.844-6.249-2.254-7.023.906-3.07,14.348-6.174,28.689-9.22,43.042-.442,2.061-1.226,4.558.565,6.212,2.105,2.15,6.027,1.021,6.664-1.899,1.327-5.831,2.441-11.718,3.679-17.571,1.907-9.256,3.814-18.512,5.722-27.768.274-.977.13-2.049-.387-2.922Z"/>
        <path class="cls-5" d="M593.62,469.663c-9.082,20.699-14.933,42.748-17.451,65.163.117,3.641-2.466,8.762,1.08,11.33,2.993,1.716,5.965-1.265,5.621-4.311,1.048-17.707,4.194-34.092,10.177-52.567,1.732-6.811,6.302-14.309,6.504-18.85-.653-2.65-4.602-3.182-5.93-.765Z"/>
        <path class="cls-9" d="M463.041,151.998c-3.382-2.096-8.184.607-8.051,4.56-.209,2.694-1.146,5.967.65,8.297,2.002,2.86,6.735,1.985,7.911-1.194,1.564-3.626,3.934-9.109-.51-11.663Z"/>
        <path class="cls-9" d="M592.276,163.216c-2.176-3.972-8.703-3.131-9.78,1.262-1.242,3.7-2.16,9.237,2.7,10.639,3.602.949,6.422-2.121,7.001-5.394.562-2.129,1.395-4.481.078-6.507Z"/>
        <path class="cls-4" d="M753.612,504.073c-.694-.35-1.401-.676-2.096-1.024.105-.47.134-.972-.035-1.525-4.546-10.827-9.701-21.427-15.486-31.676,1.659-.77,3.287-1.604,4.959-2.345,1.209-.527,2.584-1.202,2.934-2.572.399-6.767-7.508-2.176-11.138-.727-1.953-3.261-3.943-6.501-6.052-9.668-1.943-2.885-4.009-5.687-6.072-8.49,1.036-.597,2.086-1.175,3.111-1.787,1.416-1.608.435-4.329-1.623-4.842-1.864-.176-3.587.656-5.285,1.571-2.308-2.982-4.634-5.951-7.063-8.837-.608-.603-1.451-.946-2.311-.945-2.805-.083-4.369,3.597-2.311,5.506,1.918,2.262,3.851,4.655,5.782,7.149-6.251,3.135-12.608,6.148-18.945,9.194-3.297-4.789-6.557-9.654-9.766-14.681-.213-.337-.407-.685-.619-1.022,4.236-1.843,8.448-3.712,12.613-5.739.421-.689.569-1.316.607-1.902.039.009.078.018.117.026.097-15.395,5.581-30.707,15.309-42.741,1.402-1.734,2.923-3.462,3.615-5.573.692-2.111.311-4.755-1.532-6.026-1.877-1.294-4.454-.734-6.581.103-8.933,3.514-15.854,10.903-20.568,19.176-4.713,8.273-7.461,17.469-10.17,26.576,4.412,3.522,8.569,5.398,12.629,6.655-3.114,1.31-6.244,2.617-9.374,3.939-1.597-2.627-3.236-5.23-4.777-7.89-.39-.657-1.032-1.144-1.774-1.347-2.448-.743-4.728,2.142-3.352,4.304,1.414,2.462,2.937,4.861,4.401,7.295-7.518,3.234-14.991,6.594-22.194,10.357-2.663-4.08-5.22-8.435-7.266-12.573-.161-.321-.285-.584-.436-.89,8.067-3.635,16.297-6.863,24.697-9.655,2.324-1.575.377-5.426-2.317-4.589-8.401,2.657-16.683,5.71-24.774,9.189-.764-1.715-1.46-3.396-2.228-5.358-.204-.736-.705-1.373-1.37-1.758-2.181-1.351-5.148.877-4.378,3.322.809,2.113,1.674,4.204,2.585,6.277-5.941,2.731-11.804,5.628-17.477,8.872-1.135.648-2.23,1.364-3.354,2.031-1.1-2.825-2.821-8.361-3.303-11.799-.21-.758-.728-1.418-1.414-1.815-2.255-1.399-5.311.909-4.519,3.429.796,4.589,2.138,9.084,3.929,13.399-3.857,2.431-7.661,4.942-11.366,7.593-.529.305-.903.792-1.164,1.333-6.909-1.017-13.83-1.744-20.709-1.943-3.331,1.178-2.246,6.458,1.291,6.332,16.004,1.532,29.819,3.657,46.848,7.137,2.403.252,5.096,1.514,7.415.573,1.608-.88,1.895-3.212.584-4.472-1.208-1.008-2.933-1.2-4.4-1.695-1.54-.33-3.103-.65-4.653-.979.475-1.578-.583-3.624-1.885-4.962-1.54-2.161-2.87-4.455-4.103-6.801,6.736-4.09,13.659-7.728,20.688-11.102,2.314,4.738,4.872,9.359,7.709,13.811-.795.45-1.628.845-2.414,1.307-2.254,2.58,1.268,6.526,4.185,4.705.56-.311,1.113-.586,1.671-.889,3.093,4.409,6.451,8.632,10.045,12.654-4.12-1.242-8.253-2.442-12.406-3.575-.912-.251-1.898-.116-2.712.35-2.626,1.421-2.102,5.644.841,6.349,38.676,10.332,72.397,23.634,107.026,41.934,3.557.684,5.375-4.547,2.183-6.236ZM604.312,452.862c2.365-1.655,4.754-3.251,7.162-4.804,1.283,2.424,2.727,4.76,4.311,7-3.809-.775-7.636-1.519-11.473-2.196ZM668.479,466.519c-3.468-3.39-6.71-7.004-9.769-10.757-1.455-1.761-3.019-3.82-4.605-6.032,7.456-3.748,14.773-6.895,21.987-9.995,3.364,5.407,6.837,10.744,10.439,16-5.876,2.883-11.701,5.832-17.303,9.061-.471.54-.694,1.131-.75,1.723ZM703.291,479.389c-.475.274-.836.682-1.129,1.137-9.349-3.781-18.8-7.312-28.387-10.489.029-.017.058-.015.087-.033,5.517-2.908,11.137-5.682,16.767-8.443,4.229,5.958,8.624,11.798,13.146,17.542-.16.098-.325.187-.485.285ZM696.08,458.883c6.347-3.118,12.663-6.284,18.843-9.639,4.085,5.588,8.091,11.533,11.884,17.686-6.05,2.798-12.013,5.778-17.791,9.089-4.459-5.557-8.756-11.273-12.937-17.136ZM716.335,484.904c-.993-1.154-1.923-2.353-2.899-3.519,5.474-3.13,11.084-6.016,16.751-8.79,5.186,8.886,9.763,17.919,13.33,26.547-8.511-4.142-17.072-8.185-25.741-11.991-.229-.847-.717-1.662-1.442-2.247Z"/>
        <path class="cls-4" d="M459.221,553.391c-5.861-3.872-4.103-1.916-9.658-8.015-.626-.929-2.264-3.331-2.523-4.113-1.065-1.407-.738-3.255-2.771-7.047-2.983-4.296-10.247-.68-8.671,4.264,2.299,9.544,8.74,18.404,17.669,22.891,3.135,1.737,8.459,2.588,9.691-1.77.355-4.689-1.64-4.459-3.737-6.212Z"/>
        <path class="cls-4" d="M753.242,691.293c-.696-1.177-1.865-2.067-3.198-2.427-4.429-1.361-8.511,3.877-6.043,7.758,4.448,7.26,3.939,12.429,4.883,22.987,1.144,3.198,5.736,3.993,8.073,1.581,1.816-1.8,1.585-4.579,2.015-6.914.362-8.003-1.727-16.033-5.73-22.985Z"/>
        <path class="cls-2" d="M32.954,381.776c-5.39,8.428-8.769,18.615-7.79,28.647.167,2.416.923,6.079,4.137,5.559,3.848-.562,2.657-5.328,3.175-8.082.391-8.696,3.045-14.937,7.681-23.668.795-4.011-5.255-6.041-7.203-2.456Z"/>
        <path class="cls-2" d="M32.671,446.371c-.944-3.172-.474-10.213-1.084-16.249-1.411-3.913-7.762-2.619-7.607,1.511-.121,4.744-1.163,27.667,7.976,21.915,2.359-3.342.639-5.056.714-7.178Z"/>
        <path class="cls-2" d="M49.832,415.484c.186-2.262,1.828-4.649.538-6.813-1.543-2.814-6.172-2.222-6.935.895-2.048,4.307-3.664,28.138,5.504,22.766,1.59-1.626.667-4.131.709-6.153-.465-3.943-.116-9.831.184-10.695Z"/>
        <path class="cls-2" d="M58.396,463.244c-2.18-3.453-1.609-4.34-3.694-8.863-2.287-3.291-7.845-.519-6.639,3.265.955,4.5,7.364,20.559,12.632,11.664.593-2.307-1.375-4.121-2.299-6.066Z"/>
        <path class="cls-2" d="M107.539,285.077c-3.719-4.064-8.284,2.199-11.497,4.176-4.044,3.498-7.589,7.527-10.817,11.762-.556.934-.706,2.088-.415,3.132.825,3.378,5.843,4.028,7.526.971.755-1.281,8.295-9.438,12.196-12.909,2.04-1.777,5.348-4.284,3.007-7.131Z"/>
        <path class="cls-2" d="M139.473,262.285c-2.343-1.334-4.875.505-7.067,1.359-4.312,2.351-9.349,4.008-13.095,7.127-2.993,3.414,1.688,8.617,5.528,6.215,4.076-2.194,8.163-4.373,12.132-6.754,3.195-1.575,6.466-5.178,2.502-7.947Z"/>
        <path class="cls-2" d="M133.696,286.076c-2.673-1.423-5.493.739-7.952,1.74-6.24,3.57-12.538,8.948-15.29,15.597-.866,4.385,5.737,6.593,7.865,2.682,4.933-7.391,8.14-8.544,16.445-14.499,1.462-1.644.844-4.481-1.068-5.521Z"/>
        <path class="cls-2" d="M307.621,319.724c-1.43-7.485-4.849-14.569-9.352-20.723-.825-1.399-2.584-2.346-4.222-1.997-2.91.193-4.629,3.815-3.096,6.218,5.864,8.326,7.464,13.257,9.956,23.444.169,1.623,1.127,3.098,2.778,3.548,6.262,1.007,4.521-6.76,3.936-10.491Z"/>
        <path class="cls-2" d="M312.568,359.497c-.354-4.506-.177-9.217-1.102-13.613-1.453-4.032-7.995-2.696-7.836,1.557.323,5.326.492,10.668,1.228,15.96-.059,2.753,2.528,5.469,5.357,4.164,3.224-1.272,2.226-5.345,2.353-8.067Z"/>
        <path class="cls-2" d="M290.283,340.878c-1.175-3.606-1.337-8.409-4.476-10.898-3.151-1.959-7.417,1.274-6.313,4.79,2.149,5.36,3.39,10.997,4.519,16.635.666,2.719,4.464,3.705,6.402,1.668,2.528-3.441.285-8.325-.133-12.195Z"/>
        <path class="cls-2" d="M311.657,383.92c-2.511-2.651-7.417-.651-7.296,2.983.656,9.661-.697,12.542-1.475,17.72-.866,2.758,2.008,5.589,4.8,4.738,4.467-1.983,4.237-8.66,5.113-12.814.039-4.064,1.385-9.143-1.142-12.626Z"/>
        <path class="cls-2" d="M291.137,377.029c.007-1.143-.474-2.269-1.29-3.074-2.586-2.733-7.645-.671-7.52,3.074.726,5.58,1.341,11.184,2.421,16.71.352,5.036,7.822,5.203,7.988.05-.084-5.613-.98-11.186-1.599-16.76Z"/>
        <path class="cls-4" d="M498.771,388.281c-2.425-3.239-5.033-7.904-9.321-8.659-3.369-.114-5.228,4.32-2.768,6.596,3.982,3.417,4.109,3.775,6.517,7.722,1.048,1.927,3.026,4.119,5.44,2.955,3.71-1.56,1.697-6.132.132-8.614Z"/>
        <path class="cls-4" d="M511.166,415.093c-1.341-2.805-1.325-6.709-4.036-8.601-3.054-1.898-7.19,1.235-6.12,4.643,1.282,3.74,2.404,7.539,3.778,11.246.557,1.484,1.346,3.089,2.975,3.629,1.775.908,3.992.06,4.871-1.67,1.513-3.037-.672-6.283-1.468-9.247Z"/>
        <path class="cls-4" d="M526.255,397.992c-1.445-3.966-3.598-8.496-7.31-10.77-4.163-2.014-8.118,3.856-4.747,6.952,2.017,2.099,3.126,4.347,4.409,7.202,1.146,3.144,2.482,7.527,7.251,4.367,1.951-2.113.9-5.26.397-7.752Z"/>
        <path class="cls-4" d="M577.794,741.089c-2.713-2.868-8.019-.703-7.888,3.225.044,4.101-.033,8.219.435,12.3-.129,4.173,5.9,5.767,7.941,2.122,1.336-3.513.686-7.546.885-11.254-.082-2.184.425-4.736-1.373-6.393Z"/>
        <path class="cls-4" d="M573.049,776.453c-2.06-3.757-8.236-2.964-9.255,1.194-.872,5.029-2.703,10.047-2.851,15.133.208,3.974,5.685,5.84,8.349,2.879,2.113-2.438,2.013-5.899,2.869-8.868.357-3.381,2.604-7.089.888-10.338Z"/>
        <path class="cls-4" d="M597.147,762.313c-.595-2.692-.668-6.146-3.352-7.685-3.652-2.271-8.594,1.477-7.315,5.55,1.44,5.666,1.171,4.972,1.558,9.905-.197,2.985,2.058,6.166,5.352,5.56,5.983-1.07,4.118-9.009,3.757-13.33Z"/>
        <path class="cls-9" d="M713.316,527.052c-2.187,7.528-5.032,14.91-6.674,22.575-1.598,4.473,2.102,9.127,6.813,6.738,3.515-2.781,4.027-7.919,5.619-11.877,1.339-5.573,4.292-11.057,4.657-16.733-.427-5.565-9.122-6.101-10.415-.702Z"/>
        <path class="cls-9" d="M707.286,568.879c-2.177-3.971-8.703-3.131-9.78,1.262.721,2.321-8.032,9.01-1.667,13.556,3.864,2.208,7.569-1.462,9.446-4.562,1.537-3.044,3.875-6.917,2-10.256Z"/>
        <path class="cls-8" d="M416.955,676.353c-.817-3.454-.366-7.494-2.064-10.615-2.439-3.509-8.364-.554-7.079,3.481.689,4.059,1.082,8.181,2.058,12.185.262,2.045,2.11,3.949,4.303,3.514,4.269-.557,3.159-5.565,2.782-8.565Z"/>
        <path class="cls-8" d="M428.044,711.356c-1.923-3.67-3.07-9.03-7.29-10.676-4.122-1.267-7.921,3.609-5.624,7.22,3.211,4.903,4.302,8.501,4.793,9.451.911,2.679,3.145,6.003,6.448,5.061,4.749-1.524,3.132-7.635,1.673-11.057Z"/>
        <path class="cls-8" d="M442.018,686.563c-.336-1.219-1.175-2.286-2.277-2.923-3.635-2.262-8.553,1.471-7.28,5.524.843,4.582,2.015,11.059,8.317,8.275,4.056-2.353,1.613-7.276,1.24-10.875Z"/>
      </g>
      <g>
        <path class="cls-4" d="M595.82,316.424c-2.086,0-3.842-1.615-3.982-3.727-.148-2.205,1.516-4.109,3.719-4.257,19.273-1.296,37.943-7.352,53.993-17.513,43.318-27.432,21.148-70.2,13.322-82.656-8.725-13.888-11.638-27.194-14.723-41.277-1.727-7.894-3.514-16.058-6.431-24.759-9.092-27.14-22.321-46.003-42.895-61.167-23.991-17.677-56.035-25.403-85.731-20.654-29.965,4.788-57.29,21.587-74.969,46.093-5.9,8.179-10.959,19.769-16.315,32.037-6.242,14.294-12.694,29.079-20.943,38.858-20.584,24.404-35.409,61.955-15.287,94.148,12.534,20.053,41.662,33.305,66.351,30.172,2.144-.246,4.187,1.272,4.468,3.461.277,2.189-1.272,4.187-3.461,4.468-27.495,3.512-60.078-11.375-74.136-33.863-22.395-35.838-6.443-76.982,15.954-103.537,7.5-8.893,13.716-23.132,19.729-36.903,5.287-12.116,10.756-24.642,17.158-33.516,18.914-26.219,48.141-44.188,80.19-49.308,32.218-5.167,65.67,2.899,91.733,22.114,21.981,16.198,36.083,36.263,45.732,65.061,3.053,9.108,4.887,17.486,6.661,25.587,3.057,13.966,5.697,26.028,13.681,38.733,18.176,28.927,23.567,68.722-15.812,93.66-17.172,10.871-37.135,17.353-57.735,18.738-.09.004-.181.008-.271.008Z"/>
        <path class="cls-4" d="M416.993,140.588c-1.522,0-2.975-.874-3.643-2.349-10.431-23.089-12.996-49.367-7.227-73.993,5.767-24.623,19.757-47.115,39.389-63.329,1.245-1.03,2.983-1.206,4.406-.457,1.426.749,2.261,2.287,2.119,3.89-2.152,24.088-4.591,51.392,3.939,75.531.736,2.08-.355,4.363-2.437,5.096-2.074.745-4.361-.351-5.098-2.435-7.892-22.332-7.055-46.498-5.245-68.749-14.403,14.329-24.675,32.572-29.292,52.278-5.371,22.922-2.981,47.38,6.727,68.874.909,2.014.016,4.378-1.996,5.287-.533.242-1.093.355-1.643.355Z"/>
        <path class="cls-4" d="M646.728,141.282c-.458,0-.923-.078-1.377-.246-2.072-.761-3.134-3.055-2.373-5.127,11.974-32.591,12.229-69.221.96-102.038-7.59,18.18-18.53,35.155-32.008,49.566-1.508,1.612-4.035,1.698-5.648.187-1.612-1.51-1.695-4.039-.189-5.65,15.137-16.178,26.909-35.752,34.047-56.609.537-1.565,1.984-2.638,3.639-2.696,1.684-.152,3.176.909,3.822,2.431,15.685,37.005,16.735,79.854,2.878,117.565-.593,1.615-2.123,2.618-3.75,2.618Z"/>
        <path class="cls-4" d="M634.612,419.52c-1.779,0-3.403-1.194-3.867-2.997-3.666-14.2-10.518-27.752-19.819-39.186-1.393-1.713-1.133-4.23.579-5.619,1.711-1.397,4.226-1.136,5.621.578,10.021,12.319,17.406,26.925,21.357,42.229.552,2.138-.734,4.316-2.87,4.87-.336.086-.671.125-1.001.125Z"/>
        <path class="cls-4" d="M606.657,618.24c-2.25,0-4.267-.281-5.631-.472l-86.679-12.105c-20.016-2.794-42.702-5.959-61.5-17.513-14.101-8.667-26.279-22.051-38.331-42.12-32.534-54.182-34.433-113.534-31.637-169.601.111-2.201,2.031-3.933,4.189-3.793,2.205.109,3.902,1.986,3.791,4.191-3.157,63.34.823,115.653,30.509,165.09,11.365,18.93,22.697,31.456,35.662,39.428,17.374,10.676,39.182,13.72,58.422,16.405l86.679,12.105c3.502.488,8.356.878,10.099-1.385,1.229-1.596.962-4.538-.817-8.998-17.004-42.616-55.598-75.745-100.723-86.461-1.444-.343-2.577-1.456-2.948-2.891-8.645-33.649-23.265-67.09-42.278-96.716-1.19-1.858-.652-4.328,1.206-5.522,1.855-1.194,4.328-.652,5.522,1.206,19.031,29.653,33.764,63.048,42.688,96.724,46.608,11.882,86.301,46.444,103.956,90.699,1.861,4.659,3.857,11.48-.277,16.842-3.071,3.98-7.857,4.889-11.9,4.889Z"/>
        <path class="cls-4" d="M323.282,978.939c-1.077,0-2.185-.148-3.311-.488-3.531-1.073-6.064-3.578-7.127-7.055-1.967-6.415,1.438-15.238,5.814-20.635,9.556-11.773,20.416-22.804,30.919-33.469,19.97-20.284,38.829-39.44,50.356-63.895,24.779-52.563,7.804-116.796-5.836-168.411-16.379-61.983-32.63-128.183-35.734-196.214-3.381-74.036,10.411-141.349,39.886-194.653,1.069-1.928,3.504-2.63,5.43-1.565,1.932,1.069,2.632,3.5,1.563,5.428-28.759,52.016-42.208,117.862-38.895,190.423,3.069,67.246,19.208,132.975,35.477,194.536,13.972,52.871,31.36,118.666,5.338,173.866-12.106,25.684-32.332,46.225-51.889,66.091-10.37,10.532-21.093,21.423-30.408,32.896-3.321,4.097-5.326,10.169-4.38,13.26.291.952.798,1.444,1.807,1.748,2.148.655,5.088-1.108,7.939-3.118l108.356-76.19c26.662-18.746,54.231-38.132,73.586-64.655,20.908-28.65,27.618-62.974,17.513-89.575-.782-2.064.254-4.37,2.318-5.155,2.06-.788,4.369.25,5.155,2.314,11.219,29.543,4.292,65.853-18.531,97.129-20.133,27.588-48.251,47.361-75.443,66.482l-108.356,76.19c-2.48,1.74-6.706,4.714-11.545,4.714Z"/>
        <path class="cls-4" d="M497.368,856.098c-.739,0-1.475-.008-2.216-.023-2.207-.047-3.959-1.869-3.914-4.078.045-2.205,1.885-4.004,4.078-3.914,37.516.952,73.923-19.921,112.401-41.828,16.984-9.67,34.544-19.667,52.734-28.08,19.536-9.045,34.675-8.511,46.278,1.608,5.264,4.597,6.759,11.277,8.077,17.174.509,2.287.991,4.441,1.654,6.442,6.599,19.917,32.439,26.871,52.955,29.196,23.659,2.669,47.689,3.102,71.426,1.284,4.819-.371,10.592-1.253,12.464-4.807,1.734-3.293-.935-7.957-4.478-9.927-4.511-2.501-10.522-2.427-15.802-2.166-2.445.121-4.897.281-7.352.441-11.287.734-22.951,1.494-34.32-1.268-13.851-3.368-28.626-13.868-30.408-29.739-.993-8.831,2.257-16.9,5.399-24.705.763-1.896,1.524-3.785,2.216-5.678,8.946-24.451,6.741-54.354-6.208-84.198-11.765-27.128-30.386-51.056-48.395-74.196-1.356-1.74-1.042-4.253.698-5.607,1.74-1.362,4.247-1.046,5.607.698,18.315,23.534,37.252,47.868,49.421,75.925,13.769,31.729,16.034,63.738,6.38,90.125-.72,1.967-1.512,3.937-2.306,5.916-2.899,7.2-5.639,14.001-4.872,20.83,1.344,11.964,13.568,20.241,24.355,22.863,10.179,2.474,20.736,1.783,31.91,1.061,2.495-.164,4.987-.328,7.471-.453,6.376-.312,13.726-.367,20.084,3.165,6.924,3.848,11.658,13.057,7.668,20.635-3.693,7.016-12.052,8.522-18.922,9.053-24.234,1.861-48.775,1.424-72.938-1.315-32.743-3.707-53.366-15.679-59.641-34.62-.788-2.38-1.338-4.835-1.869-7.211-1.151-5.155-2.24-10.025-5.531-12.897-5.726-4.995-15.862-10.458-37.668-.379-17.884,8.277-35.297,18.188-52.137,27.776-38.725,22.047-75.345,42.893-114.301,42.897Z"/>
        <path class="cls-4" d="M746.385,522c-.71,0-1.428-.187-2.076-.585-51.066-31.147-111.023-49.113-173.392-51.946-1.229-.055-2.363-.675-3.075-1.678-.712-.999-.925-2.275-.574-3.453,6.402-21.532,26.679-39.662,51.655-46.186,20.492-5.354,44.005-3.847,69.88,4.476,24.599,7.914,43.066,19.589,54.892,34.698,12.994,16.6,19.889,42.499,5.998,62.927-.771,1.132-2.027,1.748-3.309,1.748ZM576.666,461.765c60.388,3.578,118.402,21.068,168.376,50.764,8.893-16.573,2.872-36.849-7.64-50.28-10.821-13.825-27.996-24.599-51.045-32.014-24.414-7.851-46.419-9.315-65.412-4.351-20.395,5.327-37.229,19.125-44.278,35.881Z"/>
        <path class="cls-4" d="M669.849,425.452c-.995,0-1.992-.371-2.767-1.112-27.994-26.847-49.776-66.657-61.331-112.094-.544-2.138.749-4.312,2.888-4.854,2.148-.562,4.314.745,4.858,2.888,11.189,44.005,32.185,82.465,59.118,108.294,1.592,1.526,1.645,4.058.117,5.65-.784.816-1.834,1.229-2.884,1.229Z"/>
        <path class="cls-4" d="M695.859,431.5h-.08c-2.207-.043-3.961-1.869-3.918-4.074.341-17.259,6.747-34.019,18.04-47.193.322-.379.62-.722.874-1.038-7.728,2.201-14.875,7.871-20.164,16.007-5.328,8.199-8.224,17.798-10.352,26.11-.546,2.142-2.72,3.434-4.862,2.88-2.138-.546-3.428-2.724-2.88-4.862,2.291-8.94,5.434-19.316,11.394-28.482,6.47-9.954,15.437-16.877,25.247-19.495,1.19-.32,4.821-1.288,7.754.999,2.374,1.865,3.233,5.209,2.148,8.323-.687,1.963-1.932,3.41-2.934,4.577-10.245,11.953-15.97,26.921-16.272,42.331-.043,2.181-1.824,3.918-3.994,3.918Z"/>
        <path class="cls-4" d="M559.635,532.028c-.09,0-.181-.004-.271-.008-2.203-.148-3.867-2.052-3.719-4.257,1.426-21.228,6.622-41.835,15.439-61.253.911-2.014,3.278-2.915,5.291-1.986,2.01.909,2.897,3.278,1.986,5.287-8.421,18.543-13.381,38.222-14.744,58.49-.14,2.111-1.898,3.727-3.982,3.727Z"/>
        <path class="cls-4" d="M598.77,692.241c-1.155,0-2.232-.14-3.241-.425-5.761-1.631-9.709-9.486-16.245-22.5-1.493-2.97-3.098-6.165-4.848-9.517-6.821-13.076-15.972-32.498-16.688-50.132-.09-2.209,1.625-4.066,3.83-4.156,2.16-.23,4.064,1.627,4.154,3.828.652,16.034,9.324,34.367,15.79,46.76,1.77,3.395,3.393,6.626,4.903,9.631,3.967,7.898,8.905,17.724,11.281,18.399,6.368,1.76,26.244-11.656,42.227-22.469,4.142-2.802,8.304-5.619,12.378-8.292,26.849-17.63,45.742-36.302,57.758-57.074,14.709-25.415,23.068-53.245,29.305-77.115.556-2.131,2.728-3.407,4.876-2.856,2.134.558,3.412,2.743,2.854,4.878-6.37,24.385-14.932,52.855-30.117,79.097-12.655,21.876-32.376,41.418-60.291,59.75-4.045,2.654-8.173,5.448-12.286,8.23-21.599,14.614-36.167,23.963-45.642,23.963Z"/>
        <path class="cls-4" d="M387.8,656.286c-.492,0-.991-.09-1.475-.285-49.554-19.71-70.247-76.475-72.912-119.095-1.941-31.085,2.638-62.287,7.067-92.466,2.392-16.288,4.864-33.13,6.263-49.69,3.37-39.834.23-94.851-33.85-130.731-21.585-22.73-55.267-36.169-90.141-35.873-31.536.242-64.263,10.848-94.644,30.667-50.777,33.122-87.243,88.233-97.545,147.429-4.412,25.337-5.325,61.163,15.376,87.948,26.314,34.047,78.294,37.508,113.349,21.173,34.257-15.96,62.224-49.449,78.746-94.293.763-2.072,3.057-3.13,5.131-2.369,2.07.765,3.131,3.059,2.369,5.131-17.257,46.838-46.688,81.919-82.871,98.772-43.238,20.147-97.286,9.81-123.048-23.53C-2.864,469.987-1.995,431.789,2.689,404.868c10.676-61.335,48.454-118.439,101.053-152.751,31.664-20.654,65.881-31.709,98.948-31.963.355-.004.716-.004,1.069-.004,36.653,0,72.07,14.298,94.929,38.366,28.591,30.101,41.047,77.443,36.019,136.904-1.422,16.807-3.912,33.774-6.32,50.182-4.37,29.77-8.889,60.554-6.999,90.804,1.506,24.108,8.284,47.981,19.082,67.223,12.066,21.501,28.944,37.047,48.809,44.949,2.051.816,3.051,3.137,2.236,5.186-.622,1.569-2.125,2.521-3.715,2.521Z"/>
        <path class="cls-4" d="M395.628,695.565c-56.147,0-112.375-24.178-150.591-64.788-38.437-40.848-58.736-98.413-54.305-153.988.176-2.197,2.064-3.812,4.302-3.668,2.199.176,3.84,2.103,3.666,4.3-4.257,53.366,15.24,108.649,52.155,147.877,36.934,39.248,91.292,62.494,145.655,62.271h.019c2.199,0,3.986,1.775,3.996,3.976.01,2.209-1.77,4.004-3.976,4.015-.304,0-.616.004-.921.004Z"/>
        <path class="cls-4" d="M462.843,214.152c-.258,0-.515-.004-.775-.008-9.047-.234-16.067-4.694-20.303-12.893-7.373-14.278-4.593-38.963,6.199-55.029,7.022-10.454,16.42-15.726,26.449-14.824,14.834,1.323,23.959,16.838,22.709,38.612-1.27,22.079-13.439,44.142-34.279,44.142ZM472.209,139.292c-8.185,0-14.058,6.095-17.61,11.387-9.18,13.666-11.804,35.147-5.73,46.908,2.854,5.529,7.365,8.409,13.408,8.565.181.008.363.008.542.008,15.905,0,25.273-18.309,26.326-36.61.819-14.27-3.637-29.138-15.441-30.191h0c-.505-.047-1.005-.066-1.495-.066Z"/>
        <path class="cls-4" d="M597.896,219.814c-.172,0-.341,0-.515-.004-9.67-.207-17.121-4.905-21.548-13.591-8.349-16.378-3.451-42.518,6.361-56.656,6.105-8.792,13.925-13.15,22.075-12.19h0c17.694,2.029,24.289,22.465,22.974,41.824-1.333,19.655-11.082,40.618-29.346,40.618ZM602.095,145.239c-5.886,0-10.464,4.741-13.336,8.881-9.371,13.502-12.085,36.15-5.806,48.469,3.051,5.982,7.962,9.088,14.598,9.229.103.004.207.004.308.004,12.581,0,20.287-16.615,21.411-33.169,1.022-15.062-3.522-31.924-15.911-33.344-.427-.047-.849-.07-1.264-.07Z"/>
        <path class="cls-4" d="M537.211,227.138c-.716,0-1.432-.035-2.146-.105-7.873-.761-15.209-5.795-18.686-12.823-.979-1.978-.17-4.374,1.807-5.354,1.974-.979,4.376-.168,5.354,1.811,2.283,4.609,7.108,7.91,12.296,8.413,5.188.523,10.587-1.815,13.74-5.904,1.344-1.756,3.859-2.08,5.603-.726,1.748,1.346,2.074,3.855.726,5.604-4.359,5.654-11.517,9.084-18.693,9.084Z"/>
        <path class="cls-4" d="M533.978,276.365c-2.01,0-4.064-.663-5.769-1.971-2.302-1.76-3.873-4.554-4.413-7.863-1.206-7.356,2.642-13.927,6.32-18.93,2.359-7.902,2.786-15.07,1.391-23.148-.377-2.173,1.083-4.242,3.256-4.616,2.179-.371,4.244,1.081,4.618,3.258,1.426,8.253,1.169,15.952-.829,23.948,4.078,5.97,5.699,13.599,4.343,20.682-.238,1.245-.966,5.026-4.142,7.203-1.403.96-3.073,1.436-4.774,1.436ZM534.176,255.89c-1.746,2.958-3.007,6.22-2.493,9.35.207,1.272.712,2.294,1.383,2.806.441.343,1.036.363,1.176.289.014-.012.464-.34.806-2.115.656-3.426.326-7.036-.872-10.329Z"/>
        <path class="cls-4" d="M444.889,196.077c-1.863,0-3.529-1.307-3.912-3.204-.439-2.162.96-4.273,3.124-4.71,9.656-1.951,18.143-9.486,21.121-18.746,2.971-9.24.447-20.198-6.283-27.269-1.52-1.6-1.457-4.129.14-5.65,1.598-1.514,4.128-1.452,5.65.14,8.821,9.272,12.001,23.097,8.101,35.225-3.896,12.116-14.551,21.587-27.146,24.135-.267.055-.535.078-.796.078Z"/>
        <path class="cls-4" d="M580.054,203.69c-1.959,0-3.67-1.44-3.951-3.438-.308-2.185,1.214-4.207,3.399-4.515,8.78-1.237,14.403-10.403,15.236-18.399.997-9.537-2.854-19.277-6.753-27.542-.942-1.998-.088-4.378,1.91-5.319,1.994-.944,4.376-.086,5.317,1.908,4.37,9.268,8.675,20.287,7.475,31.779-1.176,11.285-9.135,23.663-22.069,25.485-.189.027-.376.039-.564.039Z"/>
      </g>
    </g>
  </g>
</svg>