<?xml version="1.0" encoding="UTF-8"?>
<svg id="Layer_2" data-name="Layer 2" xmlns="http://www.w3.org/2000/svg" viewBox="0 0 1395.537 605.197">
  <defs>
    <style>
      .cls-1 {
        fill: #8c5830;
      }

      .cls-2 {
        fill: #d27a3d;
      }

      .cls-3 {
        fill: #531139;
      }

      .cls-4 {
        fill: #f2975e;
      }

      .cls-5 {
        fill: #f4d1ba;
      }

      .cls-6 {
        fill: #fff8ee;
      }
    </style>
  </defs>
  <g id="Layer_1-2" data-name="Layer 1">
    <g>
      <g>
        <path class="cls-4" d="M317.29,346.87s19.878-36.372,32.456-52.811c-8.883-.881-17.986.558-26.164,4.136.456-5.631,1.375-9.912,2.295-14.194-32.495,3.213-61.973,27.227-71.688,58.402-24.737.746-46.889,18.452-64.788,37.324-17.9,18.872-34.206,40.226-57.024,52.712-6.662,3.646-13.817,6.49-19.896,11.042-6.079,4.552-11.12,11.335-11.164,18.929s6.575,15.3,14.11,14.347c-3.93,13.924.61,26.389,9.965,31.442-27.283,22.281-59.559,37.001-93.387,42.586-8.674,1.432-19.234,3.698-21.425,15.938-5.781-.549-8.143,8.497-4.29,12.841,3.854,4.344,10.315,4.924,16.115,5.204,70.94,3.415,141.879,6.831,212.819,10.246,23.137,1.114,46.432,2.222,69.381-.923s46.202-8.812,61.963-22.157c0,0,30.336,15.55,81.149,11.524,50.813-4.026,131.017-10.17,176.187-20.296,45.17-10.126,117.866-17.091,165.108-7.161,47.242,9.93,149.45,41.427,202.869,44.504,53.419,3.078,104.88-15.92,138.328-26.18,33.448-10.26,88.881-17.553,118.163-4.953,29.282,12.6,73.905,26.18,81.37,17.512,7.465-8.668-6.368-33.098-92.691-49.529,0,0,15.861-4.257,38.916-6.368,23.054-2.111,47.513-4.032,45.284-15.212-2.23-11.181-10.012-9.198-35.732-7.429-25.72,1.769-113.004.318-168.399-35.024,0,0-30.214-47.78-76.595-80.644-46.382-32.864-94.178-47.437-140.759-47.94,0,0,12.75-28.56,44.37-44.37,0,0-23.817,3.99-48.45-6.63-24.633-10.62-35.7-25.5-35.7-25.5,0,0-15.657,29.27-19.38,58.135,0,0-56.401-3.964-125.642,20.027-69.241,23.992-111.102,55.207-182.76,65.571-71.659,10.364-116.731,7.986-141.272-11.352-24.541-19.338-52.008-43.685-73.641-53.749Z"/>
        <path class="cls-2" d="M848.248,306.919c27.908-100.29,89.871-192.408,177.631-248.4,87.76-55.992,201.546-72.95,299.039-36.454,26.733,10.007,54.275,26.33,63.056,53.49,10.134,31.349-8.207,64.105-25.821,91.947-27.205,43.001-55.224,86.912-95.43,118.101-19.693,15.277-43.35,27.502-68.257,26.551-29.11-1.111-54.192-19.601-81.005-30.989-70.281-29.851-158.301-6.701-207.739,51.492-10.487-16.829-29.217-28.239-61.474-25.739Z"/>
        <path class="cls-5" d="M286.531,345.706c3.743-5.569,8.042-10.763,12.814-15.48,1.563-1.545,4.018-3.106,5.743-1.744,1.331,1.051,1.137,3.103.699,4.742-1.554,5.801-4.547,11.097-7.511,16.321-1.413,2.49-2.897,5.062-5.23,6.723s-5.771,2.136-7.98.314c-2.209-1.822-1.753-6.087,1.465-10.876Z"/>
        <path class="cls-5" d="M115.697,476.509c12.524,4.475,26.224,4.178,39.46,2.89,13.236-1.288,26.478-3.516,39.753-2.715,13.275.802,26.94,5.036,36.06,14.716-19.097,2.741-37.842,7.922-55.635,15.376-13.626,5.709-28.409,12.895-42.488,8.418-14.076-4.476-22.607-21.644-17.15-38.685Z"/>
        <path class="cls-5" d="M948.493,594.925c-98.329-65.426-221.044-93.226-337.969-76.566-71.923,10.248-142.87,36.659-213.653,29.452-6.317,11.585-16.915,20.773-29.279,25.384,0,0,31.892,16.122,100.779,8.56,68.887-7.562,146.793-23.324,210.258-27.958,63.466-4.633,140.058,3.83,178.471,18.383,38.413,14.554,91.394,22.745,91.394,22.745Z"/>
        <path class="cls-5" d="M1343.247,193.871c-69.945,65.262-171.528,94.912-255.679,79.019,21.606,10.509,43.352,21.072,66.465,27.631,23.114,6.56,47.907,8.966,71.175,2.977,24.105-6.204,45.268-21.086,62.62-38.931,17.352-17.845,31.281-38.671,55.418-70.696Z"/>
        <path class="cls-6" d="M260.709,405.566c-3.514-6.642-12.376-9.184-19.581-7.05-7.205,2.134-12.794,7.99-16.535,14.507-4.087,7.121-6.162,16.579-1.362,23.24,4.04,5.607,12.039,7.378,18.668,5.425,6.629-1.953,11.971-6.99,15.886-12.684,4.42-6.43,7.415-14.95,2.924-23.438Z"/>
        <path class="cls-3" d="M241.657,399.526c2.576,7.092,2.04,15.254-1.442,21.949-3.481,6.695-9.855,11.82-17.141,13.785-1.967-6.565-1.436-13.847,1.463-20.057,2.899-6.21,8.139-11.294,17.12-15.676Z"/>
        <path class="cls-3" d="M285.901,572.085c-1.041-2.94-4.435-2.493-6.926-2.228-5.645.437-11.327.751-16.974.173-5.856.018-5.857,8.938,0,8.975,6.251.571,12.603.469,18.76-.841,3.118-.361,6.693-2.487,5.14-6.079Z"/>
        <path class="cls-3" d="M1045.084,568.89c-2.216-1.23-4.597.395-6.89.618-4.597.905-8.235,1.342-14.822.761-1.259.367-4.171-1.739-7.706-.378-2.98,1.614-2.354,6.452.947,7.25,4.756,2.272,38.435,1.796,28.471-8.251Z"/>
        <path class="cls-3" d="M511.359,558.658c-3.904.553-7.759,1.39-11.617,2.193-.92.251-1.725.874-2.205,1.696-1.705,2.706,1.109,6.369,4.167,5.421,3.331-.789,6.676-1.533,9.965-2.484,5.277-.422,5.074-7.633-.31-6.826Z"/>
        <path class="cls-3" d="M539.931,556.938c-1.866-1.669-4.617-.522-6.863-.522-2.192.498-4.844-.014-6.636,1.532-2.476,2.32.067,6.697,3.311,5.688,3.553-.882,14.208-.609,10.188-6.697Z"/>
        <path class="cls-3" d="M756.509,533.166c-1.709-.682-3.716-1.794-5.487-.716-2.551,1.38-2.011,5.517.811,6.2,3.059.872,2.685.79,6.056,2.64,1.463.908,3.659.214,4.239-1.429,1.252-3.348-3.182-5.456-5.619-6.696Z"/>
        <path class="cls-3" d="M778.318,537.857c-.694-1.988-2.921-2.934-4.46-4.215-1.36-.909-2.808-2.165-4.556-1.605-2.883.693-3.435,4.92-.828,6.336,2.023,1.242,3.992,2.933,6.32,3.492,2.199.438,4.153-1.898,3.524-4.008Z"/>
        <path class="cls-5" d="M992.547,394.53c-4.819-3.383-10.284-5.84-15.985-7.298-1.142-.317-2.404-.15-3.425.448-3.341,1.81-2.637,7.229,1.062,8.124,6.993,1.66,13.247,5.304,18.553,9.556,1.118,1.126,3.007,1.582,4.449.842,6.485-3.571-1.075-9.254-4.654-11.672Z"/>
        <path class="cls-5" d="M1025.445,422.554c-3.656-2.813-7.121-6.055-11-8.501-4.327-2.123-8.445,4.064-4.937,7.326,4.35,3.383,8.664,6.823,13.198,9.959,2.274,1.92,6.322,2.671,7.628-.705,1.554-3.585-2.67-5.985-4.889-8.079Z"/>
        <path class="cls-5" d="M996.418,426.271c-2.602-3.059-5.885-5.533-9.474-7.322-1.008-.593-2.256-.754-3.384-.443-3.652.879-4.352,6.233-1.049,8.027,5.086,2.724,5.932,3.515,10.315,8.383,2.023,2.159,5.986,1.107,6.683-1.764.675-2.706-1.601-4.887-3.09-6.881Z"/>
        <path class="cls-5" d="M667.201,381.251c-2.383-.618-4.346,1.232-6.439,2.069-6.801,3.355-5.171,2.018-11.496,5.116-4.131,2.833-.651,9.716,4.097,8.224,4.683-1.694,24.277-9.917,13.837-15.408Z"/>
        <path class="cls-5" d="M686.873,372.502c-4.179,2.865-.658,9.826,4.144,8.317,4.063-1.953,11.273-2.426,12.526-7.46.243-8.784-12.437-2.855-16.67-.856Z"/>
        <path class="cls-5" d="M736.009,360.038c-1.932-2.569-5.583-1.684-8.328-1.344-3.591.818-7.794.556-10.995,2.406-4.177,2.866-.659,9.826,4.144,8.317,4.847-1.338,19.68-1.058,15.179-9.379Z"/>
        <path class="cls-5" d="M686.315,396.319c-2.678.862-5.796,1.048-8.163,2.591-4.179,2.866-.658,9.825,4.144,8.317,3.218-.88,6.456-1.685,9.554-2.936,1.64-.448,3.081-1.951,3.177-3.686.363-5.483-4.757-5.432-8.711-4.285Z"/>
        <path class="cls-5" d="M370.705,404.789c-.623-.45-1.254-.889-1.865-1.355-2.179-1.737-1.041-.634-4.006-3.319-1.883-1.621-3.265-4.37-6.089-4.253-4.091-.141-6.348,5.314-3.361,8.114,3.306,3.784,7.308,7.143,12.032,8.977,1.551.741,3.392,1.221,4.95.234,3.817-2.562,1.851-6.729-1.661-8.398Z"/>
        <path class="cls-5" d="M398.19,418.92c-.983-1.62-2.931-2.266-4.536-3.11-2.766-1.3-6.267-3.416-8.878-.665-2.572,2.411-1.336,7.114,2.097,7.944,2.676.779,5.391,2.317,8.217,2.14,2.937-.211,4.613-3.845,3.1-6.309Z"/>
        <path class="cls-5" d="M373.043,429.971c-2.783-.733-5.645-2.237-8.539-2.077-5.013.378-5.488,8.104-.632,9.252,4.149.629,10.518,4.739,13.774.724,2.851-3.733-.791-7.296-4.603-7.899Z"/>
        <path class="cls-1" d="M932.132,185.041c-1.423-2.542-5.378-2.563-6.795,0-4.322,5.944-7.412,12.648-11.004,19.036-.642,1.092-.816,2.442-.479,3.663.952,3.95,6.745,4.712,8.688,1.136,2.743-5.512,5.858-10.851,8.273-16.518.817-2.305,2.748-4.9,1.317-7.316Z"/>
        <path class="cls-1" d="M954.209,148.142c-3.923,2.754-6.746,6.741-9.88,10.309-1.527,2.194-4.285,3.964-4.308,6.856-.14,4.09,5.314,6.348,8.114,3.361,4.053-5.241,9.137-9.957,11.933-16.024,1.026-3.294-2.937-6.349-5.859-4.503Z"/>
        <path class="cls-1" d="M980.233,124.468c-5.334,2.396-11.78,7.178-13.729,12.808-.967,4.957,6.401,7.45,8.774,3.031-.12-.373,6.162-6.582,7.375-6.962,1.943-1.598,4.716-2.652,5.626-5.158.873-5.136-4.536-5.536-8.046-3.719Z"/>
        <path class="cls-1" d="M951.974,180.521c-5.206,4.492-11.139,11.628-11.911,18.57.38,5.012,8.103,5.489,9.253.632-.968,1.047,6.289-10.924,6.858-10.741,1.227-1.7,3.322-3.067,3.243-5.379.129-3.751-4.875-5.823-7.443-3.083Z"/>
        <path class="cls-1" d="M982.506,151.788c-5.517,1.129-11.041,6.377-12.678,11.725-.969,4.959,6.402,7.449,8.774,3.031,2.074-3.821,4.049-4.782,7.32-7.772,2.322-2.639.038-7.084-3.416-6.985Z"/>
        <path class="cls-1" d="M1120.248,46.919c-1.031-5.429-8.376-3.274-12.144-2.385-4.441,1.797-11.426,3.909-13.502,8.492-1.225,3.935,3.49,7.561,6.983,5.369,5.699-3.838,6.462-3.788,12.227-5.874,2.736-.928,7.09-1.804,6.436-5.601Z"/>
        <path class="cls-1" d="M1148.945,37.203c-5.232-.86-11.273-.485-16.004,1.961-4.178,2.866-.659,9.825,4.144,8.317,7.754-1.961,6.264-1.012,12.402-1.947,5.802-.591,4.982-7.942-.542-8.331Z"/>
        <path class="cls-1" d="M1132.952,64.59c-3.388,1.059-7.255,1.361-10.316,3.151-4.179,2.866-.658,9.826,4.144,8.317,4.227-1.553,8.824-2.529,12.78-4.642.916-.607,1.558-1.704,1.616-2.803.438-5.049-4.546-5.472-8.225-4.024Z"/>
        <path class="cls-1" d="M1325.15,54.586c-4.619.349-5.059,7.47-.583,8.528,3.835.707,7.574,1.862,11.243,3.168,2.433,1.143,6.015,1.844,7.198-1.321,2.914-6.074-13.625-10.342-17.858-10.375Z"/>
        <path class="cls-1" d="M1359.693,72.734c-4.554-2.234-8.88,4.275-5.193,7.705,3.849,2.66,7.496,7.679,12.588,7.21,8.475-3.909-3.474-12.266-7.396-14.915Z"/>
        <path class="cls-1" d="M1302.458,46.865c-4.215-.92-8.496-2.548-12.791-2.691-4.742.358-5.194,7.669-.598,8.756,5.355,1.151,10.737,2.168,16.17,2.879,2.43.729,4.994-1.264,4.967-3.784-.027-4.038-4.826-4.195-7.748-5.16Z"/>
        <path class="cls-1" d="M1342.163,88.516c-1.285-1.889-3.621-2.721-5.388-4.098-1.863-.963-3.61-2.547-5.712-2.867-4.837-.947-7.265,6.245-2.957,8.557,2.643,1.589,5.392,2.97,8.179,4.285,1.444.85,3.498.808,4.771-.336,1.755-1.192,2.14-3.748,1.106-5.542Z"/>
      </g>
      <g>
        <path class="cls-3" d="M306.319,365.677c-.562,0-1.136-.117-1.678-.371-2.002-.929-2.872-3.305-1.943-5.307,10.095-21.747,22.882-42.093,38.085-60.605-29.345,3.719-56.976,23.437-69.272,50.307-.913,2.006-3.278,2.892-5.295,1.971-2.006-.917-2.888-3.29-1.971-5.295,15.055-32.903,49.484-55.247,85.673-55.606,1.654.09,3.012.898,3.672,2.33.655,1.436.41,3.122-.632,4.304-17.431,19.831-31.9,42.027-43.01,65.959-.679,1.459-2.119,2.314-3.629,2.314Z"/>
        <path class="cls-3" d="M128.247,484.058c-5.252,0-10.871-.73-16.124-3.126-8.093-3.691-15.562-12.729-14.165-22.867,1.631-11.898,13.322-17.876,22.719-22.68l2.427-1.249c19.292-10.025,34.589-26.788,49.378-42.998,4.839-5.299,9.841-10.782,14.934-15.979,27.698-28.275,54.923-40.989,80.943-37.758,2.189.269,3.746,2.267,3.473,4.456-.269,2.189-2.22,3.773-4.456,3.473-23.413-2.903-48.387,9.018-74.251,35.424-4.995,5.092-9.947,10.52-14.739,15.773-15.261,16.725-31.042,34.019-51.599,44.703l-2.474,1.268c-8.542,4.371-17.376,8.885-18.438,16.651-.855,6.204,4.288,12.105,9.564,14.508,6.755,3.087,14.875,2.587,21.185,1.83,2.236-.289,4.183,1.292,4.448,3.481.269,2.193-1.292,4.183-3.481,4.449-2.849.347-6.025.64-9.346.64Z"/>
        <path class="cls-3" d="M140.898,519.923c-.226,0-.453-.02-.683-.059-9.26-1.596-17.81-6.829-23.456-14.352-5.643-7.519-8.273-17.193-7.219-26.543.246-2.193,2.174-3.738,4.421-3.524,2.193.25,3.769,2.228,3.524,4.421-.831,7.344,1.237,14.941,5.666,20.845,4.437,5.912,11.148,10.021,18.422,11.277,2.174.375,3.633,2.443,3.258,4.616-.336,1.943-2.025,3.317-3.933,3.317Z"/>
        <path class="cls-3" d="M263.934,598.318c-11.547,0-22.89-.406-33.77-.796l-206.028-7.375c-11.574-.414-23.994-4.808-24.135-15.898-.098-7.711,6.72-13.334,13.505-14.898,4.519-1.046,8.94-.722,13.217-.414,1.37.102,2.743.199,4.109.25,19.554.738,38.07-9.201,55.981-18.777l5.541-2.95c62.903-33.239,133.713-52.574,204.779-55.918,2.181-.055,4.074,1.6,4.179,3.805.101,2.205-1.6,4.074-3.805,4.179-69.9,3.29-139.55,22.305-201.423,54.998l-5.506,2.934c-18.844,10.075-38.32,20.483-60.035,19.714-1.459-.051-2.93-.156-4.398-.262-3.855-.277-7.496-.546-10.844.23-3.625.835-7.352,3.688-7.309,7.008.074,5.865,10.364,7.797,16.432,8.015l206.028,7.375c34.815,1.245,70.829,2.532,104.415-8.249,22.5-7.227,43.244-19.858,59.992-36.536,1.565-1.561,4.097-1.545,5.654.012,1.557,1.565,1.549,4.097-.012,5.654-17.642,17.564-39.494,30.87-63.192,38.48-23.694,7.609-48.988,9.42-73.377,9.42Z"/>
        <path class="cls-3" d="M1008.312,605.197c-45.016.004-89.446-12.479-132.667-24.615-32.302-9.073-65.705-18.453-98.967-22.531-62.096-7.617-126.072,2.95-187.933,13.166-73.396,12.116-149.298,24.646-222.433,6.825-2.146-.523-3.461-2.685-2.938-4.827.523-2.142,2.689-3.465,4.827-2.938,71.554,17.431,146.633,5.038,219.245-6.946,62.419-10.31,126.958-20.97,190.208-13.209,33.863,4.148,67.563,13.615,100.15,22.765,51.489,14.462,104.727,29.411,157.797,22.629,24.545-3.137,48.719-10.953,72.093-18.512,10.594-3.426,21.552-6.969,32.454-10.052,45.23-12.807,80.089-13.658,109.718-2.673,6.692,2.478,13.143,5.608,19.378,8.64,6.739,3.27,13.708,6.653,20.791,9.092,11.039,3.789,29.095,5.545,35.838,2.131.503-.258,1.377-.773,1.561-1.366.628-2.021.23-4.128-1.221-6.439-8.8-14.04-48.598-27.066-72.737-30.699-6.63-.999-13.49-1.822-20.124-2.614-23.741-2.845-48.293-5.787-69.744-17.454-25.306-13.771-42.448-37.481-59.021-60.406-5.646-7.808-11.484-15.882-17.517-23.366-45.788-56.808-115.563-91.21-186.654-92.018-1.444-.016-2.767-.812-3.457-2.08-.695-1.268-.652-2.809.117-4.035,39.884-63.805,124.137-95.057,195.972-72.694,13.014,4.05,25.774,9.724,38.117,15.211,24.264,10.786,47.146,20.908,72.214,20.131,45.488-1.541,81.15-39.986,104.013-68.768,23.823-29.984,45.324-62.154,63.906-95.615,10.481-18.871,19.558-38.998,15.055-58.33-4.129-17.708-18.972-32.767-45.39-46.038C1248.632-8.84,1127.403-.107,1032.123,59.8c-87.175,54.814-152.213,148.143-188.086,269.895-.55,1.885-2.361,3.055-4.335,2.837-67.574-8.558-133.662,19.21-197.576,46.054-4.788,2.01-9.56,4.015-14.317,5.998-121.616,50.682-178.814,42.92-218.73,28.642-18.278-6.54-31.694-17.817-45.894-29.762-14.204-11.949-28.892-24.299-49.527-32.377-2.056-.808-3.071-3.126-2.267-5.178.808-2.053,3.133-3.071,5.178-2.267,21.86,8.557,37.063,21.341,51.762,33.707,13.634,11.465,26.511,22.297,43.439,28.353,68.561,24.517,146.133-.648,212.962-28.494,4.753-1.982,9.517-3.984,14.298-5.99,63.836-26.812,129.795-54.537,198.302-47.014,36.626-122.072,102.464-215.791,190.536-271.171,97.59-61.366,221.89-70.247,316.682-22.613,28.665,14.403,44.883,31.206,49.581,51.368,5.12,21.966-4.593,43.751-15.851,64.019-18.793,33.844-40.54,66.38-64.632,96.708-23.85,30.024-61.206,70.13-109.999,71.781-26.949.921-51.712-10.134-75.734-20.814-12.132-5.393-24.678-10.969-37.243-14.879-66.216-20.615-143.515,6.56-182.923,63.379,70.918,3.005,139.827,38.081,185.538,94.796,6.166,7.648,12.066,15.812,17.771,23.702,16.054,22.203,32.653,45.164,56.363,58.068,20.108,10.934,43.884,13.783,66.88,16.538,6.692.804,13.611,1.631,20.358,2.646,25.286,3.809,67.668,17.361,78.325,34.359,2.685,4.281,3.403,8.796,2.08,13.057-.554,1.783-1.971,4.292-5.576,6.119-9.775,4.96-30.702,2.201-42.054-1.701-7.543-2.591-14.731-6.083-21.684-9.459-6.064-2.946-12.335-5.99-18.664-8.335-27.948-10.353-61.241-9.443-104.762,2.868-10.762,3.044-21.645,6.563-32.174,9.97-23.725,7.672-48.254,15.601-73.537,18.836-9.451,1.206-18.895,1.752-28.303,1.752Z"/>
        <path class="cls-3" d="M1210.785,539.972c-2.095,0-3.855-1.635-3.984-3.754-.133-2.205,1.545-4.097,3.746-4.23,23.823-1.444,47.638-2.934,71.453-4.476,9.912-.636,20.159-1.296,29.274-5.061,1.417-.585,6.041-2.72,6.158-5.615.062-1.565-1.456-3.403-3.535-4.277-2.607-1.1-5.998-1.065-8.975-1.046-5.525.051-11.055.133-16.588.215-27.077.41-55.064.823-82.488-2.494-38.031-4.601-69.521-16.058-93.598-34.058-1.768-1.319-2.131-3.824-.808-5.592,1.319-1.768,3.824-2.135,5.592-.808,22.945,17.15,53.148,28.092,89.774,32.521,26.882,3.255,54.6,2.841,81.411,2.443,5.545-.082,11.09-.168,16.631-.218,3.594-.027,8.027-.066,12.155,1.67,4.355,1.838,8.643,6.247,8.413,11.964-.211,5.307-4.148,9.81-11.09,12.678-10.337,4.273-21.747,5.006-31.811,5.654-23.823,1.541-47.654,3.032-71.484,4.476-.082.004-.164.008-.246.008Z"/>
        <path class="cls-3" d="M10.01,569.075c-1.736,0-3.336-1.139-3.84-2.891-2.138-7.422,3.387-14.598,9.966-17.244,4.811-1.935,9.755-1.971,14.536-2.002.894-.004,1.779-.012,2.665-.031,31.51-.702,58.853-19.257,88.787-41.609,1.768-1.319,4.273-.956,5.596.812,1.319,1.772.956,4.273-.812,5.596-31.058,23.183-59.52,42.436-93.395,43.193-.925.019-1.853.027-2.786.031-4.218.027-8.206.055-11.609,1.424-3.161,1.272-6.103,4.714-5.268,7.621.609,2.119-.613,4.335-2.735,4.944-.367.105-.741.156-1.104.156Z"/>
        <path class="cls-3" d="M255.275,343.111c-.492,0-.991-.09-1.475-.281-2.053-.816-3.052-3.141-2.24-5.19,12.432-31.268,43.279-54.533,76.764-57.889,1.444-.133,2.86.507,3.684,1.705.827,1.194.94,2.747.293,4.047l-7.215,14.528c-.979,1.978-3.368,2.786-5.358,1.799-1.975-.983-2.782-3.379-1.799-5.358l3.812-7.672c-27.671,5.459-52.317,25.536-62.751,51.79-.624,1.569-2.127,2.521-3.715,2.521Z"/>
        <path class="cls-3" d="M236.958,446.144c-2.614,0-5.233-.535-7.777-1.725-7.925-3.711-12.362-10.259-12.495-18.446-.18-10.989,7.734-23.366,18.411-28.794,7.996-4.058,16.397-3.528,23.054,1.498h0c9.322,7.032,10.735,19.234,3.598,31.081-5.37,8.917-15.043,16.385-24.791,16.385ZM245.82,402.451c-2.681,0-5.147.859-7.102,1.853-8.007,4.07-14.173,13.529-14.04,21.536.082,5.112,2.736,8.928,7.89,11.336,7.391,3.473,17.365-3.29,22.336-11.543,1.885-3.126,7.34-13.857-1.569-20.58-2.532-1.912-5.112-2.603-7.516-2.603Z"/>
        <path class="cls-3" d="M225.321,439.292c-1.623,0-3.149-.995-3.746-2.607-.769-2.068.289-4.367,2.357-5.135,5.697-2.111,10.591-6.684,13.092-12.226,2.497-5.545,2.685-12.237.495-17.903-.796-2.06.23-4.374,2.287-5.166,2.049-.796,4.37.226,5.166,2.287,2.985,7.734,2.743,16.506-.663,24.069-3.414,7.562-9.826,13.552-17.599,16.432-.457.172-.929.25-1.389.25Z"/>
      </g>
    </g>
  </g>
</svg>