<?xml version="1.0" encoding="UTF-8"?>
<svg id="Layer_2" data-name="Layer 2" xmlns="http://www.w3.org/2000/svg" viewBox="0 0 612.348 980.594">
  <defs>
    <style>
      .cls-1 {
        fill: #8c5830;
      }

      .cls-2 {
        fill: #d27a3d;
      }

      .cls-3 {
        fill: #531139;
      }

      .cls-4 {
        fill: #f2975e;
      }

      .cls-5 {
        fill: #f4d1ba;
      }

      .cls-6 {
        fill: #fff8ee;
      }
    </style>
  </defs>
  <g id="Layer_1-2" data-name="Layer 1">
    <g>
      <g>
        <path class="cls-4" d="M452.649,695.844c6.891-19.196,24.897-33.936,45.075-36.902-4.647,11.747-7.459,24.218-8.302,36.823,20.22-12.185,42.964-11.705,60.287-1.403-15.098,9.337-28.197,21.275-38.725,35.168,12.184,7.051,15.132,17.095,17.722,26.555,7.522,27.47,15.044,54.941,22.566,82.412,2.442,8.919,4.903,18.232,3.109,27.304-1.794,9.072-9.252,17.744-18.499,17.632-.44,6.323-5.424,12.291-11.876,15.036s-14.208,2.196-20.21-1.43c-8.718,4.306-22.078,1.241-29.782-7.417-33.215-1.041-67.155-2.957-99.754-11.57s-64.176-24.514-88.257-49.921c-27.445,15.882-60.309,20.467-87.663,36.506-35.447,20.785-57.712,58.562-71.676,97.207-1.405,3.889-2.786,7.884-5.349,11.13-2.562,3.246-6.598,5.656-10.698,5.112-4.523-.6-7.974-4.67-9.222-9.059-1.247-4.389-.722-9.066-.088-13.585,11.271-80.342,52.938-152.993,95.619-222.784-24.162-21.142-36.735-52.998-41.243-84.786-4.509-31.788-1.801-64.088-.185-96.154,1.616-32.066,2.062-64.758-6.73-94.454-30.288-15.609-53.693-44.048-63.184-76.773-9.491-32.725-4.933-69.274,10.5-103.345-28.314,21.847-49.713,52.524-60.436,86.641-1.567,4.987-2.956,10.139-5.878,14.474s-7.779,7.785-12.995,7.441c-6.351-.419-11.223-6.406-12.441-12.653-1.218-6.247.397-12.669,2.179-18.779,18.714-64.188,47.598-115.74,101.94-155.894,13.11-10.422,40.54-22.325,56.716-20.651,5.15-26.245,15.897-51.377,30.932-81.257,4.53,12.847,16.06,22.355,28.827,27.105,12.767,4.751,26.716,5.284,43.077,6.18-7.235,3.833-14.61,7.771-20.229,13.726-5.619,5.955-9.27,14.396-7.442,22.377,2.357,10.292,12.57,16.385,21.456,22.088,104.301,66.942,134.899,152.239,132.3,251.621-2.217,84.766-18.429,139.469-19.395,180.324-.471,19.923,8.454,39.789,21.562,54.799,13.109,15.01,22.704,29.844,56.393,21.156Z"/>
        <path class="cls-2" d="M173.582,142.555C199.551,67.55,271.667,10.75,350.668,3.078s160.699,34.19,200.615,102.796c10.581,18.185,18.353,37.868,25.091,57.8,12.537,37.085,21.63,75.334,27.124,114.093,5.6,39.506,7.126,81.41-9.627,117.623-16.754,36.213-56.514,64.373-95.56,56.158-33.057-6.955-56.958-37.811-65.403-70.518s-4.261-67.219.783-100.62c5.044-33.402,10.907-67.381,5.668-100.753-3.467-22.083-12.328-44.111-29.005-58.996-16.302-14.551-38.623-20.939-60.462-21.711-46.839-1.656-94.994,23.51-115.749,65.532-9.987-19.735-34.742-30.651-60.562-21.927Z"/>
        <path class="cls-5" d="M233.961,690.314c-24.378-37.223-20.585-86.031-10.285-129.318,10.3-43.287,26.3-86.399,24.461-133.736-21.126,29.395-63.356,41.423-96.8,27.57,8.299,31.372,6.746,64.426,4.302,96.785-2.444,32.359-5.708,65.056-.668,97.113s19.547,64.065,45.992,82.872c5.864-15.899,15.522-30.385,32.997-41.286Z"/>
        <path class="cls-5" d="M522.963,871.47c2.148-8.588-4.107-17.57-12.182-21.197-8.075-3.627-17.381-3.056-26.118-1.635-8.737,1.422-17.478,3.631-26.311,3.051-32.058-2.106-55.707-28.448-64.13-63.432-8.728,47.498-62.295,20.279-77.805,14.736-4.356,8.601-14.999,19.112-23.678,23.31,19.138,27.384,50.283,44.507,82.558,53.14,32.274,8.632,66.029,9.624,99.674,12.397,8.258,6.131,19.613,7.838,29.309,4.405,4.583,4.402,12.34,3.732,17.637.221,5.297-3.51,8.713-9.164,11.955-14.629-4.763.074-12.735-3.065-10.908-10.368Z"/>
        <path class="cls-5" d="M244.611,40.51c75.718-21.116,160.256-8.17,226.185,34.637,65.929,42.807,112.153,114.763,123.673,192.521,10.18-84.917-30.954-173.974-102.206-221.278s-169.292-50.646-247.652-5.88Z"/>
        <path class="cls-6" d="M494.586,820.581c8.501-4.097,14.429-13.073,14.859-22.499.185-4.046-.625-8.237-2.911-11.58-2.286-3.344-6.188-5.706-10.235-5.54-5.867.241-10.262,5.298-13.652,10.093-3.124,4.417-6.105,9.089-7.353,14.353-1.249,5.264-.497,11.276,3.148,15.273,3.645,3.998,9.246,3.225,16.145-.1Z"/>
        <path class="cls-3" d="M506.359,792.652c-6.299,1.121-12.039,5.068-15.34,10.549-3.301,5.48-4.106,12.4-2.151,18.492,11.616-3.916,20.156-15.598,17.491-29.041Z"/>
        <path class="cls-3" d="M176.843,484.015c-.241-.886-.842-1.659-1.632-2.123-2.605-1.64-6.13,1.066-5.218,4.011.378,1.889.814,7.251.8,11.832-.075,2.302-.006,5.644,2.958,5.911,3.96.525,4.043-4.28,4.135-7.076.099-4.207-.372-8.408-1.043-12.555Z"/>
        <path class="cls-3" d="M177.052,516.054c-2.386-2.554-7.05-.626-6.935,2.872.237,5.153.15,4.791-.969,9.375-1.003,2.404-1.773,6.002,1.323,7.162,4.615,1.762,6.305-4.496,7.185-7.836.471-3.674,1.81-8.396-.604-11.573Z"/>
        <path class="cls-3" d="M191.939,496.391c-3.416-2.152-8.039,1.399-6.842,5.26,1.559,5.067,1.263,4.614,1.311,10.438-.421,2.605.358,5.981,3.478,6.231,5.318.511,5.698-6.72,5.79-10.56-.495-3.805-.358-8.902-3.737-11.37Z"/>
        <path class="cls-3" d="M182.707,676.579c-1.104-2.039-4.41-1.608-4.956.648-.37,3.067-2.476,10.316,3.174,8.402,1.495-.865,1.358-2.766,1.669-4.258.072-1.581.932-3.309.113-4.791Z"/>
        <path class="cls-3" d="M192.417,691.738c.061-.794.836-.653.488-3.079-.669-2.785-4.755-3.319-6.123-.8-1.534,2.935-1.575,6.566.046,9.473,1.121,2.064,4.369,2.061,5.491,0,.75-1.205.3-2.485-.024-3.738.021-.386-.127-.912.121-1.856Z"/>
        <path class="cls-3" d="M320.656,831.161c-.285-.076-.971-3.302-2.055-5.285-1.82-2.654-6.243-.418-5.284,2.633.707,2.712,1.864,5.334,3.603,7.545.54.928,1.693,1.557,2.765,1.325,3.465-.598,2.351-4.121.97-6.218Z"/>
        <path class="cls-3" d="M336.907,841.568c-1.158-2.368-1.467-1.762-2.108-2.991-1.122-1.245-1.374-3.149-2.683-4.188-2.653-2.297-6.693,1.295-4.828,4.239,1.296,2.501,3.045,5.103,5.529,6.515,2.206,1.103,4.799-1.259,4.09-3.575Z"/>
        <path class="cls-5" d="M477.138,726.05c4.537-8.937,12.137-16.283,21.224-20.511,2.01-.935,4.616-1.641,6.254-.147,1.858,1.694.97,4.736-.051,7.034-3.266,7.353-6.532,14.707-9.799,22.06-5.418-2.205-10.835-4.411-17.629-8.435Z"/>
        <path class="cls-1" d="M460.949,372.203c-3.886-10.396-2.847-13.713-1.481-23.114-.377-5.008-8.105-5.491-9.252-.632-2.664,9.683-2.082,21.675,4.722,29.518,3.79,2.94,8.428-1.807,6.012-5.772Z"/>
        <g>
          <path class="cls-1" d="M482.002,404.284c-.758-1.968-3.111-2.543-4.846-3.398,1.973.867-.048-.038-1.139-.76-.01-.007-.02-.015-.029-.023-.032-.018-.079-.06-.115-.084.037.029.083.064.114.088-.119-.079-.21-.151-.298-.223-.068-.055-.134-.107-.209-.174.127.099.252.195.485.376-.163-.126-.329-.255-.486-.377-.632-.562-1.427-1.455-1.694-1.744-1.602-2.19-.358-1.708-2.331-5.31-2.864-4.178-9.827-.658-8.317,4.144,1.205,5.986,5.905,11.124,11.842,12.658,3.378,1.037,8.777-.885,7.022-5.173Z"/>
          <path class="cls-1" d="M475.989,400.104c-.011-.009-.012-.009-.023-.018.007.006.015.012.022.017h0Z"/>
          <path class="cls-1" d="M475.69,399.884c.066.052.126.096.183.135-.114-.088-.177-.136-.35-.269.039.04.111.09.166.134Z"/>
        </g>
        <path class="cls-1" d="M483.03,376.888c-1.225-1.912-1.926-4.368-3.696-5.836-3.658-3.167-9.227,1.785-6.656,5.844,2.377,3.551,3.766,8.758,7.795,10.689,2.182.591,4.496-.717,5.102-2.897.592-2.792-1.529-5.326-2.545-7.8Z"/>
        <path class="cls-1" d="M462.597,318.397c-1.89-3.494-7.558-2.756-8.494,1.11-.711,4.042-1.633,8.084-1.681,12.202-.042,4.729,6.921,5.675,8.146,1.102,1.314-3.483,1.796-7.195,2.497-10.834.331-1.193.157-2.514-.469-3.581Z"/>
        <path class="cls-1" d="M474.065,327.485c-1.086,5.241-3.178,13.184.814,17.508,1.644,1.445,4.589,1.063,5.815-.75,1.582-2.187.961-5.229,1.327-7.78-.198-1.334,1.124-4.141,1.297-8.346-.378-5.012-8.105-5.489-9.252-.632Z"/>
        <path class="cls-1" d="M245.521,78.156c-1.549-6.869-11.752-1.421-15.563.699-3.42,2.13-6.262,5.062-8.572,8.344-1.051,1.296-1.664,2.997-1.171,4.648.94,3.898,6.655,4.648,8.571,1.12,2.641-3.839,5.663-6.83,12.255-9.874.153-.065.308-.131.456-.195,2.173-.613,4.544-2.162,4.023-4.743Z"/>
        <path class="cls-1" d="M269.762,58.621c-4.309,1.249-9.481,2.09-12.841,5.154-3.321,3.839,1.873,9.682,6.132,6.985.032-.014.038-.016.068-.03,3.38-1.389,6.8-2.677,10.239-3.909,2.269-1.011,5.771-1.58,6.045-4.571.51-5.462-6.137-4.514-9.643-3.629Z"/>
        <path class="cls-1" d="M270.991,89.02c-1.177-6.342-9.314-3.099-13.423-1.828-3.671,1.742-8.797,3.115-10.46,7.15-1.226,3.935,3.49,7.561,6.983,5.368,5.564-3.567,6.086-3.618,11.724-5.369,2.762-.269,5.785-2.175,5.177-5.322Z"/>
        <path class="cls-3" d="M152.939,412.724c-1.451-1.336-3.602-1.429-5.348-2.246-1.683-.813-4.954-1.696-10.026-5.473-.972-.888-4.236-3.885-5.266-5.328-.685-1.186-2.564-4.404-3.403-5.829-1.159-2.235-1.119-5.019-2.553-7.06-2.86-4.173-9.83-.662-8.317,4.144,2.809,12.473,12.418,23.252,24.482,27.475,3.476.652,8.631,2.795,11.059-.812.927-1.549.623-3.594-.629-4.871Z"/>
        <path class="cls-3" d="M210.202,760.381c-7.587,4.755-14.112,11.329-18.384,19.229-.848,1.959-2.434,3.955-1.793,6.188.673,2.671,3.977,3.984,6.327,2.574,6.803-8.746,10.085-14.705,18.649-19.781,5.343-3.152.579-11.3-4.799-8.209Z"/>
        <path class="cls-5" d="M323.928,275.908c-3.722-3.996-7.732-8.893-12.944-10.742-4.956-.966-7.452,6.399-3.032,8.773,5.278,3.477,10.819,10.175,15.541,17.236,1.632,3.503,6.394,4.229,7.773.154.167-5.778-3.994-10.997-7.339-15.421Z"/>
        <path class="cls-5" d="M352.317,323.43c-1.874-4.243-3.219-8.833-5.405-12.887-2.864-4.176-9.827-.66-8.317,4.144,2.604,4.506,6.816,23.611,13.461,20.515,4.671-2.189,1.295-8.209.26-11.772Z"/>
        <path class="cls-5" d="M328.237,325.327c-1.657-4.696-3.733-9.257-6.217-13.573-1.603-2.303-2.617-5.644-5.545-6.515-3.933-1.224-7.561,3.489-5.368,6.983,4.18,6.295,6.253,10.941,7.965,15.554,1.121,2.282,1.559,5.577,4.179,6.616,2.033,1.013,4.889-.146,5.637-2.293.896-2.139-.132-4.629-.65-6.77Z"/>
        <path class="cls-5" d="M364.615,370.871c-.36-4.666-1.146-9.31-2.386-13.824-.323-1.185-1.126-2.221-2.184-2.841-3.486-2.194-8.204,1.427-6.983,5.368,1.968,7.654,1.891,9.144,2.61,16.986.452,1.858-.725,5.24,3.848,6.423,6.243.457,5.008-7.975,5.095-12.112Z"/>
      </g>
      <g>
        <path class="cls-3" d="M473.493,705.181c-.527,0-1.061-.101-1.577-.324-12.089-5.194-22.106-4.39-31.795-3.621-9.08.722-17.634,1.401-26.308-3.102-7.578-3.937-25.637-25.181-28.958-32.134-17.267-36.123-12.745-67.578-7.508-104.001,1.495-10.376,3.036-21.103,4.109-32.361,1.015-10.676,2.232-21.532,3.41-32.029,4.331-38.581,8.807-78.481,4.054-117.261-9.697-79.035-59.313-151.495-129.49-189.108-10.349-5.545-23.226-12.448-25.641-25.493-2.15-11.601,4.862-23.23,20.845-34.558,25.302-17.935,47.419-28.525,69.611-33.329,27.924-6.044,55.743-1.822,76.339,11.566,31.53,20.502,48.426,63.809,45.195,115.852-1.112,17.903-4.07,35.853-6.934,53.214-3.871,23.48-7.875,47.763-7.188,71.715,1.128,39.486,19.78,84.838,58.915,97.149,40.985,12.905,84.166-18.356,100.684-54.701,18.204-40.048,14.056-86.484,7.601-126.63-16.623-103.404-51.774-174.377-107.451-216.977C435.908,6.587,358.156-3.968,293.353,22.146c-64.819,26.121-113.515,87.632-124.066,156.712-.32,2.095-2.189,3.563-4.339,3.371-17.302-1.693-35.362,4.242-48.29,15.886-1.631,1.471-4.164,1.35-5.643-.297-1.475-1.639-1.346-4.164.297-5.643,13.634-12.28,32.302-18.937,50.666-18.161,12.093-70.329,62.142-132.585,128.386-159.284,67.391-27.148,148.205-16.175,205.899,27.971,57.382,43.9,93.52,116.531,110.487,222.05,6.645,41.324,10.864,89.227-8.218,131.211-17.923,39.443-65.229,73.209-110.354,59.017-42.885-13.49-63.301-62.228-64.511-104.548-.706-24.72,3.364-49.386,7.297-73.24,2.829-17.162,5.756-34.909,6.841-52.406,3.048-49.133-12.491-89.751-41.574-108.657-18.828-12.241-44.466-16.042-70.29-10.458-21.103,4.566-42.292,14.746-66.685,32.033-13.217,9.369-19.14,18.317-17.607,26.586,1.713,9.272,12.257,14.918,21.56,19.901,72.429,38.823,123.637,113.612,133.642,195.18,4.874,39.713.339,80.085-4.043,119.13-1.175,10.462-2.388,21.282-3.399,31.893-1.089,11.449-2.646,22.274-4.152,32.739-5.053,35.139-9.416,65.483,6.809,99.42,2.903,6.076,19.862,25.595,25.431,28.486,6.642,3.453,13.747,2.892,21.989,2.232,10.161-.812,21.673-1.725,35.584,4.242,2.029.87,2.966,3.219,2.095,5.248-.652,1.514-2.123,2.419-3.672,2.419Z"/>
        <path class="cls-3" d="M504.122,741.683c-.714,0-1.432-.191-2.084-.589-1.885-1.155-2.474-3.613-1.319-5.494,10.228-16.674,24.034-31.046,40.243-41.96-12.912-3.547-26.707-3.524-39.611.152-15.55,4.425-29.395,14.028-38.987,27.042-1.303,1.775-3.812,2.154-5.588.843-1.775-1.307-2.154-3.809-.843-5.588,10.633-14.43,25.989-25.079,43.228-29.984,17.236-4.909,35.892-3.937,52.535,2.724,1.416.57,2.384,1.893,2.497,3.414.113,1.522-.648,2.974-1.963,3.746-18.211,10.665-33.668,25.805-44.7,43.787-.753,1.229-2.068,1.908-3.41,1.908Z"/>
        <path class="cls-3" d="M451.306,699.906c-.499,0-1.003-.094-1.491-.289-2.049-.823-3.04-3.149-2.216-5.198,7.683-19.101,24.787-34.347,44.637-39.794,6.021-1.639,8.429,1.635,9.03,2.681,1.413,2.493.613,5.104.269,6.22l-9.369,30.624c-.648,2.107-2.891,3.313-4.987,2.654-2.111-.644-3.301-2.88-2.654-4.987l8.94-29.231c-17.119,5.003-31.795,18.27-38.452,34.815-.628,1.561-2.127,2.505-3.707,2.505Z"/>
        <path class="cls-3" d="M534.383,884.803c-4.316,0-8.6-1.069-12.3-3.336-1.881-1.151-2.474-3.609-1.319-5.494,1.151-1.877,3.609-2.47,5.494-1.319,7.02,4.292,17.654,2.017,22.297-4.796,4.749-6.985,3.328-16.147,2.056-20.99-1.307-4.975-3.383-9.693-5.576-14.692-1.206-2.743-2.412-5.486-3.489-8.277-4.788-12.378-7.043-25.516-9.221-38.222-.745-4.324-1.487-8.647-2.326-12.94-2.782-14.231-7.477-32.216-19.179-45.141-1.483-1.635-1.358-4.16.281-5.643,1.635-1.487,4.16-1.358,5.643.281,13.025,14.38,18.118,33.723,21.099,48.965.851,4.355,1.604,8.741,2.357,13.127,2.115,12.319,4.3,25.056,8.799,36.692,1.034,2.677,2.193,5.311,3.352,7.941,2.22,5.061,4.523,10.294,5.986,15.878,2.794,10.626,1.666,20.397-3.176,27.514-4.566,6.704-12.717,10.45-20.779,10.45Z"/>
        <path class="cls-3" d="M495.065,902.453c-3.368,0-6.731-.511-9.939-1.577-11.398-3.773-20.229-14.298-21.973-26.18-.254-1.732.648-3.426,2.224-4.183,1.576-.761,3.465-.398,4.655.882l.761.819c1.05,1.128,1.319,2.7.839,4.054,2.138,7.816,8.292,14.465,16.007,17.021,8.593,2.852,18.688.46,25.095-5.939,6.407-6.407,8.803-16.491,5.963-25.095-.695-2.095.445-4.355,2.54-5.046,2.092-.71,4.355.441,5.046,2.54,3.769,11.398.593,24.763-7.898,33.251-6.103,6.103-14.723,9.451-23.319,9.451Z"/>
        <path class="cls-3" d="M514.092,903.343c-3.77,0-7.543-.816-10.961-2.439-1.994-.944-2.845-3.329-1.897-5.323.944-1.994,3.329-2.841,5.323-1.896,4.581,2.177,10.087,2.232,14.723.156,4.632-2.08,8.249-6.228,9.674-11.102.62-2.119,2.825-3.34,4.956-2.716,2.119.62,3.336,2.841,2.716,4.956-2.072,7.094-7.336,13.131-14.075,16.151-3.286,1.475-6.872,2.212-10.458,2.212Z"/>
        <path class="cls-3" d="M474.102,895.086c-.078,0-.152-.004-.23-.008-33.36-1.881-67.855-3.824-100.891-12.893-26.055-7.145-62.267-22.192-86.82-53.269-1.37-1.733-1.077-4.246.656-5.611,1.74-1.374,4.246-1.077,5.611.655,23.214,29.38,57.768,43.689,82.668,50.518,32.22,8.842,66.283,10.766,99.229,12.624,2.201.121,3.887,2.01,3.762,4.214-.117,2.127-1.881,3.77-3.984,3.77Z"/>
        <path class="cls-3" d="M111.518,980.594c-.683,0-1.385-.039-2.111-.117-3.551-.394-6.489-2.193-8.499-5.206-6.314-9.467-3.914-31.541,7.777-71.578,15.012-51.404,43.958-102.273,67.215-143.14,29.157-51.248,64.827-89.259,106.011-112.972,1.916-1.104,4.355-.445,5.455,1.467,1.104,1.912.445,4.355-1.467,5.455-39.935,22.996-74.606,60.008-103.053,109.999-23.05,40.509-51.743,90.925-66.489,141.431-13.111,44.891-12.023,60.07-8.799,64.901.706,1.057,1.518,1.565,2.724,1.697,8.284.894,12.253-8.952,17.377-24.112,2.419-7.149,4.917-14.54,8.479-20.065,13.611-21.103,29.04-45.02,51.322-60.843,16.034-11.383,34.718-18.016,52.789-24.428,5.658-2.006,11.309-4.012,16.881-6.158,29.434-11.351,47.525-24.802,56.929-42.339,1.038-1.943,3.461-2.681,5.408-1.631,1.943,1.042,2.677,3.465,1.631,5.408-13.607,25.38-41.387,38.417-61.097,46.015-5.635,2.174-11.355,4.207-17.08,6.236-17.556,6.232-35.709,12.67-50.834,23.413-21.029,14.934-36.013,38.163-49.23,58.658-3.028,4.694-5.365,11.605-7.629,18.293-4.706,13.923-10.013,29.614-23.71,29.614Z"/>
        <path class="cls-3" d="M180.493,464.541c-16.241,0-32.782-4.152-47.209-12.518-27.963-16.225-48.188-46.842-54.104-81.907-4.472-26.543-1.178-55.118,9.525-83.429-25.876,21.509-42.257,46.471-48.766,74.364l-.601,2.661c-1.167,5.221-2.372,10.622-5.276,15.542-3.543,6.009-10.735,11.519-18.738,10.36-7.812-1.151-12.924-8.101-14.52-14.481-1.573-6.294-.578-12.709.734-18.707,8.823-40.481,31.698-76.206,54.369-109.32,11.59-16.924,22.375-31.904,37.001-43.825,17.033-13.88,37.106-20.611,55.029-18.387,15.281,1.861,30.004,9.994,41.461,22.898,9.588,10.801,16.865,24.814,21.622,41.644.601,2.127-.632,4.335-2.755,4.932-2.131.613-4.332-.628-4.932-2.755-4.429-15.667-11.129-28.623-19.913-38.515-10.013-11.281-23.3-18.668-36.45-20.276-15.788-1.908-33.664,4.14-49.012,16.655-13.802,11.246-24.221,25.739-35.455,42.144-22.227,32.462-44.637,67.43-53.156,106.51-1.104,5.049-1.963,10.364-.792,15.062.921,3.672,3.797,7.906,7.937,8.515,4.304.644,8.573-2.927,10.688-6.517,2.263-3.832,3.282-8.394,4.359-13.221l.62-2.739c7.91-33.898,29.38-63.582,63.805-88.225,1.479-1.061,3.477-.987,4.878.176,1.401,1.163,1.838,3.122,1.069,4.769-10.228,21.88-21.103,55.743-14.848,92.837,5.522,32.743,24.303,61.276,50.233,76.319,27.788,16.124,64.043,15.176,88.174-2.271,25.688-18.578,35.327-55.271,21.482-81.794-1.019-1.959-.261-4.37,1.694-5.393,1.959-1.026,4.37-.261,5.393,1.694,15.605,29.899,4.893,71.157-23.885,91.971-13.993,10.118-31.643,15.226-49.659,15.226Z"/>
        <path class="cls-3" d="M195.369,736.153c-1.089,0-2.174-.441-2.962-1.315-53.144-58.662-46.12-128.331-40.993-179.204l.39-3.898c3.024-30.176,4.546-65.178-7.071-96.014-.781-2.064.265-4.37,2.33-5.147,2.064-.78,4.37.265,5.147,2.33,12.202,32.376,10.661,68.53,7.547,99.627l-.394,3.902c-5.252,52.133-11.792,117.011,38.967,173.043,1.483,1.635,1.358,4.16-.281,5.643-.765.691-1.725,1.034-2.681,1.034Z"/>
        <path class="cls-3" d="M404.784,818.778c-1.096,0-2.193-.453-2.981-1.334-8.21-9.209-12.827-21.564-12.667-33.902.164-12.339,5.108-24.572,13.56-33.559,1.518-1.608,4.043-1.678,5.65-.172,1.608,1.514,1.682,4.043.172,5.65-7.102,7.547-11.25,17.821-11.39,28.186-.137,10.364,3.742,20.744,10.637,28.474,1.471,1.651,1.327,4.175-.32,5.642-.765.679-1.713,1.015-2.661,1.015Z"/>
        <path class="cls-3" d="M406.415,832.756c-.425,0-.858-.066-1.284-.211-4.866-1.651-8.803-5.533-10.528-10.38-.738-2.076.347-4.363,2.427-5.104,2.068-.734,4.359.343,5.104,2.427.897,2.525,3.032,4.628,5.565,5.486,2.092.71,3.208,2.977,2.501,5.069-.566,1.666-2.119,2.712-3.785,2.712Z"/>
        <path class="cls-3" d="M411.175,845.532c-.094,0-.187-.004-.281-.008-3.145-.222-6.24-1.202-8.952-2.837-1.889-1.143-2.497-3.598-1.358-5.486,1.143-1.893,3.598-2.501,5.486-1.358,1.631.987,3.493,1.577,5.377,1.705,2.201.156,3.863,2.064,3.711,4.265-.148,2.107-1.904,3.719-3.984,3.719Z"/>
        <path class="cls-3" d="M486.823,828.015c-2.158,0-4.363-.429-6.579-1.366-4.608-1.951-7.504-6.146-8.156-11.812-1.225-10.68,5.537-25.38,14.766-32.095,5.272-3.828,10.946-4.687,15.983-2.396h0c9.447,4.3,12.023,16.46,6.267,29.571-4.339,9.873-12.846,18.098-22.281,18.098ZM497.047,787.081c-1.705,0-3.543.706-5.49,2.123-6.813,4.96-12.417,16.975-11.527,24.724.476,4.152,2.622,5.061,3.328,5.362,7.157,3.024,14.676-4.043,18.426-12.585,3.184-7.25,3.836-16.311-2.256-19.086-.792-.359-1.619-.539-2.482-.539Z"/>
        <path class="cls-3" d="M488.595,826.067c-1.623,0-3.149-.995-3.746-2.607-2.568-6.93-2.01-14.953,1.491-21.462,3.5-6.505,9.888-11.394,17.084-13.076,2.142-.492,4.3.835,4.8,2.981.503,2.15-.831,4.296-2.981,4.8-4.999,1.167-9.432,4.562-11.863,9.08-2.431,4.519-2.817,10.091-1.038,14.899.769,2.072-.289,4.37-2.357,5.135-.46.172-.929.25-1.389.25Z"/>
      </g>
    </g>
  </g>
</svg>