<?xml version="1.0" encoding="UTF-8"?>
<svg id="Layer_2" data-name="Layer 2" xmlns="http://www.w3.org/2000/svg" viewBox="0 0 857.616 991.105">
  <defs>
    <style>
      .cls-1 {
        fill: #8c5830;
      }

      .cls-2 {
        fill: #d27a3d;
      }

      .cls-3 {
        fill: #531139;
      }

      .cls-4 {
        fill: #f2975e;
      }

      .cls-5 {
        fill: #f4d1ba;
      }

      .cls-6 {
        fill: #fff8ee;
      }
    </style>
  </defs>
  <g id="Layer_1-2" data-name="Layer 1">
    <g>
      <g>
        <path class="cls-4" d="M720.851,455.28c-44.713-38.513-110.849-44.59-167.436-27.843-56.586,16.747-105.181,53.27-149.015,92.78-18.963,17.092-37.876,35.257-61.486,44.965-23.611,9.709-53.598,8.917-71.626-9.157,14.402-16.488,23.183-42.075,21.397-67.076-.097-1.361-.467-3.028-1.786-3.381-1.056-.283-2.08.482-2.907,1.197-18.254,15.778-36.508,31.555-54.762,47.333-10.055-8.886-22.585-12.343-34.764-11.263,4.586-11.404,5.727-22.256,4.459-32.826-.114-.954-.314-2.018-1.105-2.563-1.123-.774-2.636-.029-3.773.725-12.623,8.372-24.059,18.531-33.859,30.081-15.785-3.18-34.481,7.672-51.133,17.813-16.652,10.14-35.95,20.376-54.719,15.1-7.591-2.134-15.256-6.773-22.807-4.502-6.147,1.849-10.197,8.021-11.41,14.324-1.212,6.303-.109,12.795.995,19.118-5.852,4.212-10.559,10.154-13.48,17.032-2.921,6.878-3.883,14.929-.912,21.785,2.971,6.856,10.532,11.943,16.641,11.062,6.117,12.026,21.742,18.218,34.436,13.646-6.173,8.496-15.251,14.84-23.396,16.488,20.471,34.856,48.99,64.954,84.294,87.277-14.223,49.838-55.806,90.918-105.814,104.533-5.987,1.63-13.793,5.851-11.52,11.624,1.811,4.599,8.278,4.476,13.13,3.535,33.907-6.573,68.019-13.203,100.258-25.594,32.239-12.391,62.833-30.98,77.707-61.685,19.6,8.911,41.202,13.384,59.991,13.447,22.055,28.358,45.179,56.556,59.993,89.285,30.678,67.775,13.192,84.415,23.605,104.393,4.689,8.995,10.85-10.658,13.019-20.567,12.351-56.433,16.234-114.712,11.327-171.338,56.753-6.783,113.516-46.416,163.615-56.563,8.902,13.507,22.721,23.695,38.257,28.204,5.696,1.653,15.132,3.401,16.999,9.031,1.243,3.747-2.994,7.951-5.692,10.833-2.698,2.882-6.277,4.744-9.699,6.713-7.917,4.556-15.345,9.96-22.117,16.09-2.636,2.386-5.403,5.635-4.473,9.067.766,2.825,3.912,4.463,6.838,4.461,2.927-.001,5.688-1.262,8.341-2.498,6.458-3.009,12.916-6.017,19.374-9.026,25.978-12.103,45.256-26.831,66.851-50.689,50.375,11.411,104.6,5.011,153.961-16.601,7.462,22.1-2.083,48.73-21.885,61.058-4.36,2.714-9.184,4.834-12.832,8.448-3.648,3.614-5.868,9.379-3.536,13.954,2.118,4.155,7.372,5.936,11.993,5.309,4.622-.627,8.739-3.171,12.579-5.818,37.725-26.008,63.543-68.623,69.13-114.103.546-4.443.728-9.485-2.286-12.795-3.657-4.016-10.2-3.436-15.201-1.319-5.001,2.118-9.624,5.464-15.015,6.121-8.675,1.058-16.858-5.448-20.553-13.367-3.696-7.919-3.885-16.966-3.896-25.704-.062-48.119,2.807-98.44-17.703-141.969-10.424-22.123-25.629-41.92-56.59-68.588Z"/>
        <path class="cls-2" d="M662.464,237.414c1.225,25.224,23.53,49.563,44.166,64.119s44.153,25.244,62.516,42.581c22.395,21.144,35.579,51.725,35.579,82.524,0,30.799-13.184,61.38-35.578,82.524-9.361-22.026-21.202-39.334-41.987-55.32-3.067-20.048-21.838-38.171-39.632-47.903-17.794-9.732-38.001-13.896-57.794-18.323-39.035-8.731-78.024-19.052-114.05-36.431-36.026-17.379-69.204-42.291-91.303-75.631-22.099-33.341-32.163-75.695-21.988-114.378,6.52-24.789,20.82-46.932,37.642-66.271C508.442,16.267,623.929-17.814,724.068,11.087c30.844,8.901,61.571,24.523,78.762,51.635,24.1,38.008,14.421,91.144-15.3,124.939-29.72,33.795-78.791,46.783-125.067,49.753Z"/>
        <path class="cls-5" d="M278.361,654.132c-48.587,17.343-112.969,21.376-155.246,2.198-28.615-12.981-44.333-44.55-68.292-51.794-12.003-3.629-22.694-12.338-28.228-23.591-6.096,3.585-11.262,8.755-14.742,15.053-3.48,6.298-5.107,13.99-2.695,20.768,2.413,6.779,9.601,12.041,19.319,9.718-.044,6.766,3.617,13.442,9.345,17.043s13.331,4.006,21.681,0c-3.939,8.064-11.822,14.083-18.177,19.128,18.813,40.172,53.743,71.278,93.08,91.78,39.336,20.502,83.049,31.191,126.806,38.474-4.778-9.939-40.12-80.807,17.15-138.779Z"/>
        <path class="cls-5" d="M576.066,735.994c-19.133-18.073-44.952-28.9-71.253-29.878-50.593-1.882-110.881,31.24-155.224,3.1,8.582,18.315,14.795,66.506,14.632,87.02,35.729-3.556,71.903-20.468,104.66-35.171,32.757-14.703,68.236-27.693,107.185-25.07Z"/>
        <path class="cls-5" d="M619.18,227.039c13.283,7.788,29.151,11.076,39.839,6.421.926,21.061,14.535,39.675,30.736,53.163,16.201,13.489,35.221,23.125,52.373,35.381,17.152,12.257,33.044,28.183,43.595,45.215-28.524-12.288-57.049-24.576-85.573-36.864-20.162-8.685-40.713-17.615-57.059-32.269-16.347-14.653-28.045-36.303-23.91-71.048Z"/>
        <path class="cls-6" d="M177.303,607.752c6.786-7.666,14.037-16.793,12.514-26.916-1.251-8.311-8.75-14.908-17.033-16.333-8.283-1.425-16.935,1.768-23.293,7.265-6.357,5.497-10.619,13.083-13.44,21-2.095,5.88-3.339,12.825.079,18.048,2.936,4.486,8.574,6.43,13.914,6.908,9.267.828,19.55-1.264,27.258-9.971Z"/>
        <path class="cls-3" d="M133.631,595.321c9.737,2.637,20.649.502,28.675-5.609,8.026-6.111,12.986-16.062,13.035-26.149-18.166,1.788-34.848,14.392-41.71,31.758Z"/>
        <path class="cls-3" d="M125.063,722.85c-3.265-1.681-6.477-3.487-9.452-5.648-3.568-2.065-6.731,3.348-3.188,5.454,3.417,2.425,7.14,4.423,11.095,5.816,1.696.8,4.204,1.12,4.998-1.031,1.126-2.489-1.565-3.794-3.453-4.592Z"/>
        <path class="cls-3" d="M154.255,737.61c-.676-1.73-2.864-1.917-4.433-2.386-4.544-1.052-5.199-1.84-8.615-2.969-3.448-.675-5.184,4.454-2.109,6.104,2.929,1.432,6.014,2.628,9.273,3,2.587.682,7.234-.149,5.883-3.749Z"/>
        <path class="cls-3" d="M144.896,718.781c-2.763-1.558-5.331-3.85-8.342-4.81-3.393-.664-5.1,4.382-2.075,6.006,3.073,1.838,6.155,3.663,9.333,5.315.691.406,1.546.517,2.319.303,4.095-1.728,1.844-5.43-1.235-6.814Z"/>
        <path class="cls-3" d="M435.627,751.197c-.999.384-4.597,1.785-5.559,1.994-2.491,1.025-5.496.865-7.786,2.22-3.205,2.198-.506,7.54,3.18,6.382,4.066-.687,8.035-1.915,11.79-3.618,1.818-1.012,4.427-1.581,5.059-3.822.735-4.421-3.613-5.183-6.684-3.157Z"/>
        <path class="cls-3" d="M450.047,739.975c-1.82-1.704-4.547-.945-6.817-1.178-2.288.2-5.08-.685-6.893,1.103-2.368,2.21-.58,6.533,2.662,6.426,3.255-.168,6.717.377,9.871-.421,2.381-.81,2.977-4.24,1.177-5.93Z"/>
        <path class="cls-3" d="M348.324,839.598c.048-6.325-.879-12.649-2.357-18.79-.305-1.122-1.066-2.102-2.067-2.688-3.299-2.077-7.764,1.35-6.608,5.08,1.783,7.707,1.974,10.21,2.347,18.775.005,2.182.225,4.948,2.658,5.746,5.442,1.882,6.189-4.166,6.027-8.123Z"/>
        <path class="cls-3" d="M687.697,736.341c-1.605-5.638-5.785-2.908-8.594-2.05-.751.343-3.9.95-5.018,1.172-9.254.984-11.441-.709-18.846-3.646-4.93-.966-7.42,6.374-3.017,8.734,9.18,5.288,20.997,6.22,30.602,1.518,2.251-1.13,5.474-2.705,4.873-5.728Z"/>
        <path class="cls-5" d="M241.161,545.121c7.604-5.499,15.209-10.997,22.813-16.496.441-.319.92-.65,1.463-.657.853-.01,1.523.828,1.63,1.674.107.846-.205,1.684-.526,2.474-3.158,7.76-7.851,14.893-13.727,20.864-4.129-1.294-7.834-3.906-11.653-7.859Z"/>
        <path class="cls-1" d="M526.615,321.353c-4.833-3.493-8.256-3.157-13.268-6.525-4.86-2.99-5.642-3.606-9.554-7.176-.676-.678-1.62-1.073-2.579-1.069-3.136-.107-4.873,4.077-2.579,6.227,7.265,6.429,16.273,13.249,26.235,13.82,2.213-.528,3.257-3.549,1.746-5.277Z"/>
        <path class="cls-1" d="M562.591,334.89c-8.077-.284-11.208-1.061-15.822-5.344-3.548-4.867-10.511.62-6.466,5.1,5.195,5.562,13.16,8.92,20.787,7.901,2.108-.486,4.846-1.142,5.568-3.469.729-2.542-1.739-4.299-4.067-4.188Z"/>
        <path class="cls-1" d="M604.07,349.019c-1.418-1.412-3.524-.726-5.31-.994-.943-.082-1.444-.175-.164.005-.331-.048-.663-.089-.994-.132-.186-.029-.847-.131-1.275-.226-2.974-.703-3.558-1.029-4.641-1.533-3.57-1.443-2.935-3.02-6.556-3.686-3.147-.108-4.886,4.091-2.587,6.245,4.648,4.22,11.071,6.679,17.37,6.01,3.36.006,6.821-2.297,4.156-5.689Z"/>
        <path class="cls-1" d="M548.03,307.156c-7.015-2.634-9.33-3.137-15.324-6.585-1.607-.935-3.238-2.395-5.227-1.754-3.278.79-3.911,5.599-.942,7.211,3.737,2.649,24.091,13.373,23.916,3.939-.082-1.311-1.177-2.47-2.422-2.811Z"/>
        <path class="cls-1" d="M585.495,321.743c-.604-2.206-3.075-2.686-4.917-3.497-3.223-.991-6.504-2.797-9.884-2.845-4.16.314-4.555,6.726-.525,7.679,3.049.966,6.107,1.906,9.232,2.6,3.12,1.074,6.868.013,6.094-3.938Z"/>
        <path class="cls-1" d="M476.437,80.771c-3.249,4.529-8.093,8.443-9.9,13.775-.267,5.178,5.289,5.834,8.193,2.157,2.82-3.08,5.386-6.378,8.039-9.601.831-.829,1.318-1.99,1.311-3.166.132-3.852-5.005-5.979-7.643-3.166Z"/>
        <path class="cls-1" d="M451.065,112.124c-3.94,4.729-7.893,10.043-8.951,16.236-1.075,4.448,4.97,7.096,7.342,3.12,1.445-2.449,6.626-11.344,9.109-14.302,2.173-4.43-4.16-8.644-7.499-5.053Z"/>
        <path class="cls-1" d="M477.422,106.487c-3.471,3.175-6.147,7.217-7.543,11.719-1.625,3.323.581,7.326,4.427,5.517,2.088-1.772.998-1.308,1.943-2.831,2.561-5.381,3.88-5.69,7.345-10.245,1.789-3.646-3.424-7.113-6.171-4.159Z"/>
        <path class="cls-1" d="M515.809,61.026c-2.001-4.951-9.16-1.438-12.693-.08-3.421,1.523-6.578,3.583-9.498,5.917-.778.776-1.233,1.862-1.227,2.963-.123,3.605,4.684,5.595,7.152,2.962-.502-.14,10.236-6.169,10.708-5.985-.086-.299,6.621-1.576,5.558-5.777Z"/>
        <path class="cls-1" d="M707.437,38.838c-4.674-4.823-12.093-5.978-18.509-6.823-2.481-.052-5.537-.973-7.519.953-2.512,2.348-.618,6.939,2.827,6.825,7.097-.458,12.158,2.539,20.66,4.216,2.406-.174,3.782-3.152,2.54-5.171Z"/>
        <path class="cls-1" d="M736.373,50.149c-3.163-2.885-7.38-5.479-11.757-5.461-4.261.323-4.666,6.888-.537,7.865,4.936,1.382,5.119,1.532,9.302,6.145-.018-.023-.024-.03-.041-.052.104.132.213.27.321.405.176.284.767,1.091,1.151,1.291.916.806,2.442,1.004,3.531.458,4.709-2.296.572-8.175-1.97-10.652Z"/>
        <path class="cls-1" d="M711.798,59.71c-3.854-2.333-8.117-3.997-12.538-4.862-1.166-.323-2.456-.154-3.499.458-3.413,1.848-2.693,7.385,1.085,8.299,6.704,1.479,7.65,2.245,13.019,4.901,1.281.777,2.881.706,4.175,0,4.174-2.883,1.296-7.009-2.242-8.796Z"/>
        <path class="cls-1" d="M769.11,85.546c-2.165-5.554-6.501-11.242-12.232-13.257-4.314-.842-6.483,5.57-2.638,7.635,3.785,2.529,5.816,4.573,8.913,10.679.773,2.928,4.945,3.647,6.459.938,1.013-1.891.085-4.099-.502-5.995Z"/>
        <path class="cls-1" d="M744.027,89.135c-2.639-2.161-5.671-5.789-9.386-5.19-3.263.785-3.889,5.569-.938,7.172,3.528,2.14,3.1,1.899,6.448,5.053,1.389,1.849,3.961,3.36,6.028,1.588,3.353-2.581-.036-6.453-2.152-8.624Z"/>
        <path class="cls-5" d="M503.728,479.052c-4.061-2.892-7.901,2.63-11.261,4.459-4.231,3.755-9.847,6.52-13.214,11.007-2.136,4.359,4.092,8.505,7.378,4.972,4.937-3.887,9.916-7.727,14.685-11.821,2.824-2.134,6.1-5.534,2.412-8.618Z"/>
        <path class="cls-5" d="M541.853,460.287c-3.807-.373-7.614,1.23-11.316,2.017-3.448,1.207-7.4,1.522-10.548,3.356-4.176,2.865-.66,9.826,4.144,8.317,6.38-1.996,13.23-3.175,19.16-6.285,2.816-1.898,1.803-6.609-1.44-7.405Z"/>
        <path class="cls-5" d="M590.873,450.234c-2.591-3.016-7.23-1.16-10.6-.772-4.71,1.278-10.035,1.423-14.377,3.594-4.175,2.865-.66,9.826,4.144,8.317,4.862-1.85,26.033-2.724,20.833-11.139Z"/>
        <path class="cls-5" d="M538.793,485.683c-7.49,2.596-14.951,6.267-20.903,11.511-3.319,3.837,1.872,9.684,6.132,6.985,5.863-4.319,12.314-7.767,18.861-10.923,2.143-.834,4.558-1.977,4.495-4.649-.368-4.98-5.124-4.406-8.585-2.924Z"/>
      </g>
      <g>
        <path class="cls-3" d="M56.567,606.083h-.107c-19.597-.523-37.287-17.486-38.632-37.043-.726-10.532,4.197-22.668,15.004-25.489,6.661-1.74,12.996.737,18.584,2.93,1.832.718,3.662,1.436,5.492,1.998,11.152,3.411,24.716.929,40.327-7.379,4.419-2.353,8.84-5.018,13.117-7.598,8.581-5.17,17.452-10.52,27.235-13.966,19.659-6.919,59.159-6.45,93.635,8.046,2.033.855,2.989,3.2,2.134,5.233-.855,2.037-3.196,2.985-5.233,2.135-32.624-13.712-69.627-14.29-87.883-7.875-9.01,3.172-17.148,8.078-25.764,13.271-4.365,2.634-8.879,5.354-13.488,7.808-17.544,9.338-33.167,12.015-46.419,7.964-2.021-.617-4.045-1.405-6.068-2.197-4.889-1.912-9.513-3.727-13.654-2.638-6.528,1.705-9.535,10.138-9.049,17.209,1.075,15.628,15.213,29.185,30.87,29.598,2.207.058,3.947,1.896,3.888,4.101-.056,2.17-1.834,3.89-3.992,3.89Z"/>
        <path class="cls-3" d="M263.026,797.267c-.062,0-.123,0-.185-.004-92.556-4.218-180.66-55.583-229.929-134.048-.611-.972-.775-2.158-.449-3.258.324-1.1,1.104-2.006,2.144-2.49,5.479-2.556,10.214-5.365,14.268-8.483-4.755-.254-9.51-1.752-13.572-4.48-7.838-5.268-12.99-14.828-13.445-24.951-.099-2.205,1.608-4.074,3.812-4.172,2.185-.16,4.072,1.608,4.171,3.812.343,7.641,4.144,14.797,9.917,18.676,6.033,4.05,14.161,4.281,19.77.562,1.627-1.069,3.789-.823,5.12.597,1.334,1.42,1.448,3.598.271,5.151-5.543,7.313-13.047,13.396-22.855,18.516,48.321,74.173,132.637,122.552,221.137,126.583,2.205.102,3.91,1.971,3.81,4.175-.098,2.142-1.865,3.812-3.988,3.812Z"/>
        <path class="cls-3" d="M265.116,564.408c-.968,0-1.939-.351-2.706-1.057-1.623-1.495-1.725-4.023-.23-5.647,18.713-20.295,28.221-44.512,26.307-66.185-18.902,17.646-38.827,34.542-59.323,50.299-1.746,1.346-4.255,1.019-5.603-.734-1.344-1.748-1.016-4.257.734-5.604,22.293-17.138,43.909-35.643,64.244-54.994,1.046-.999,2.554-1.346,3.931-.925,1.379.425,2.423,1.565,2.73,2.977,5.605,25.942-4.54,56.067-27.142,80.58-.788.854-1.861,1.288-2.94,1.288Z"/>
        <path class="cls-3" d="M197.733,524.485c-.655,0-1.321-.16-1.935-.503-1.93-1.069-2.626-3.504-1.555-5.432,4.585-8.257,6.513-17.931,5.557-27.315-11.113,8.956-21.87,18.524-32.045,28.502-1.576,1.549-4.103,1.518-5.65-.055-1.545-1.576-1.522-4.105.055-5.65,11.978-11.746,24.75-22.933,37.957-33.251,1.067-.835,2.486-1.073,3.764-.628,1.278.441,2.248,1.499,2.575,2.814,3.278,13.193,1.375,27.577-5.223,39.463-.732,1.315-2.094,2.056-3.498,2.056Z"/>
        <path class="cls-3" d="M770.056,836.231c-4.355,0-8.749-1.654-11.968-4.546-2.899-2.607-4.55-6.017-4.659-9.603-.281-9.849,9.428-14.938,16.514-18.653l1.499-.788c16.686-8.854,29.567-29.657,22.512-51.899-44.251,19.172-94.421,24.771-141.798,15.757-48.781-9.291-94.624-34.097-129.085-69.849-1.532-1.592-1.485-4.121.105-5.65,1.588-1.533,4.123-1.483,5.65.102,33.323,34.573,77.654,58.56,124.827,67.547,47.162,8.998,97.211,2.977,140.916-16.924.979-.441,2.107-.48,3.11-.086,1.007.394,1.811,1.178,2.228,2.177,10.329,24.599-.301,52.921-24.72,65.885l-1.534.808c-7.012,3.676-12.362,6.844-12.233,11.344.051,1.768,1.12,3.091,2.01,3.887,1.889,1.701,4.78,2.661,7.313,2.474,5.155-.398,10.036-3.859,14.54-7.539,32.224-26.328,55.407-64.827,63.602-105.621,1.299-6.482.905-10.505-1.241-12.651-2.942-2.942-7.071-1.752-15.156,1.491-4.659,1.869-9.482,3.801-14.461,4.05-11.956.531-21.528-9.471-24.83-19.726-3.005-9.35-2.205-19.035-1.432-28.4l.148-1.822c3.329-41.098.027-78.126-9.822-110.061-11.504-37.32-32.86-69.381-60.133-90.277-44.114-33.812-108.114-42.647-171.201-23.636-64.209,19.355-117.926,63.59-152.747,95.175l-4.129,3.762c-16.74,15.262-34.049,31.046-55.636,39.291-22.182,8.476-53.911,7.644-71.149-14.224-1.368-1.733-1.069-4.246.663-5.611,1.733-1.362,4.248-1.065,5.611.663,14.081,17.86,41.857,19.413,62.021,11.703,20.174-7.703,36.915-22.968,53.103-37.73l4.144-3.769c35.393-32.111,90.053-77.088,155.811-96.907,65.541-19.757,132.218-10.43,178.369,24.939,28.576,21.899,50.92,55.376,62.911,94.265,10.146,32.911,13.56,70.95,10.15,113.066l-.152,1.83c-.71,8.589-1.444,17.466,1.077,25.294,2.306,7.176,8.885,14.676,16.822,14.192,3.645-.184,7.836-1.861,11.89-3.485,7.859-3.153,16.779-6.727,23.776.277,5.533,5.533,4.605,13.993,3.426,19.874-8.678,43.205-32.252,82.352-66.38,110.237-5.514,4.503-11.628,8.749-18.98,9.318-.433.031-.866.051-1.303.051Z"/>
        <path class="cls-3" d="M342.374,991.105c-.109,0-.218-.004-.33-.004-2.921-.094-5.414-1.323-7.215-3.551-4.296-5.319-3.198-14.481-2.527-18.172,6.971-38.347-14.188-77.177-33.401-106.721-2.396-3.684-4.833-7.371-7.276-11.071-19.515-29.543-39.693-60.094-43.902-95.612-.259-2.189,1.307-4.175,3.498-4.437,2.193-.242,4.179,1.307,4.439,3.5,3.984,33.629,23.632,63.376,42.633,92.142,2.454,3.715,4.901,7.418,7.307,11.121,20.018,30.78,42.036,71.387,34.564,112.504-.915,5.03-.544,9.958.88,11.722.285.351.581.562,1.251.585h.051c2.082,0,3.887-3.961,4.757-7.914,19.587-89.11,18.904-183.161-1.974-271.983-.503-2.146.827-4.296,2.975-4.804,2.146-.492,4.3.827,4.806,2.977,21.15,89.977,21.841,185.253,1.998,275.526-1.988,9.041-6.546,14.188-12.534,14.188Z"/>
        <path class="cls-3" d="M364.85,799.597c-2,0-3.727-1.498-3.963-3.535-.256-2.193,1.315-4.175,3.508-4.429,30.521-3.547,59.585-16.459,87.69-28.95,6.63-2.942,13.25-5.885,19.888-8.71,32.121-13.673,74.175-28.135,114.58-18.532,2.148.507,3.475,2.661,2.964,4.811-.511,2.146-2.667,3.477-4.81,2.962-38.158-9.073-78.618,4.921-109.605,18.11-6.599,2.81-13.182,5.736-19.77,8.663-28.656,12.733-58.285,25.899-90.016,29.583-.156.02-.312.027-.466.027Z"/>
        <path class="cls-3" d="M548.224,825.948c-.355,0-.714-.012-1.077-.039-4.788-.359-8.813-3.52-9.783-7.68-1.108-4.772,1.516-9.33,7.8-13.544l28.369-19.039c5.104-3.422,7.434-6.368,6.93-8.756-.728-3.446-7.133-4.647-11.81-5.529-17.298-3.247-32.862-13.482-42.7-28.084-1.233-1.83-.749-4.312,1.081-5.545,1.834-1.233,4.316-.749,5.545,1.081,8.651,12.838,22.338,21.841,37.549,24.697,6.501,1.221,16.325,3.067,18.155,11.73,1.873,8.881-7.287,15.023-10.296,17.041l-28.371,19.039c-4.538,3.048-4.568,4.675-4.468,5.1.148.636,1.255,1.42,2.605,1.522,1.887.152,3.937-.593,6.257-1.491,31.385-12.14,60.273-31.401,83.546-55.712,1.526-1.596,4.062-1.651,5.65-.125,1.596,1.526,1.651,4.058.125,5.65-24.08,25.15-53.967,45.082-86.435,57.639-2.693,1.042-5.565,2.045-8.673,2.045Z"/>
        <path class="cls-3" d="M11.916,874.507c-6.187,0-9.223-2.735-10.71-5.408-2.798-5.018-.341-11.094,3.391-14.263,3.141-2.665,6.969-3.797,10.347-4.792l.546-.164c47.946-14.208,87.951-52.371,104.409-99.592.728-2.084,3.005-3.192,5.088-2.458,2.084.726,3.184,3.005,2.458,5.088-17.289,49.605-59.317,89.696-109.683,104.626l-.556.164c-2.872.847-5.586,1.651-7.439,3.223-1.409,1.194-2.162,3.235-1.58,4.277.835,1.506,4.234,1.721,8.872.585,32.078-7.902,65.251-16.073,96.162-28.904,34.409-14.278,61.83-32.853,81.501-55.204,1.452-1.647,3.98-1.815,5.639-.359,1.656,1.459,1.818,3.984.359,5.642-20.483,23.273-48.89,42.554-84.436,57.304-31.473,13.061-64.946,21.306-97.315,29.278-2.718.667-5.051.956-7.053.956Z"/>
        <path class="cls-3" d="M259.686,681.528c-1.288,0-2.552-.62-3.323-1.772-1.229-1.834-.739-4.316,1.094-5.545,17.423-11.675,25.331-35.405,18.397-55.197-.73-2.084.367-4.363,2.451-5.092,2.082-.745,4.361.367,5.092,2.447,8.099,23.124-1.139,50.846-21.491,64.484-.683.457-1.455.675-2.22.675Z"/>
        <path class="cls-3" d="M240.915,693.364c-.568,0-1.143-.121-1.692-.379-1.998-.933-2.86-3.313-1.926-5.311,2.724-5.822,4.38-12.296,4.788-18.719.139-2.205,2.051-3.84,4.242-3.734,2.203.14,3.875,2.041,3.734,4.242-.478,7.52-2.337,14.785-5.525,21.599-.679,1.452-2.119,2.302-3.621,2.302Z"/>
        <path class="cls-3" d="M224.791,698.87c-.833,0-1.676-.261-2.394-.8-1.766-1.323-2.123-3.828-.798-5.596,2.259-3.008,3.401-6.891,3.132-10.649-.156-2.201,1.5-4.113,3.701-4.269,2.25-.16,4.113,1.498,4.271,3.699.404,5.65-1.313,11.488-4.712,16.019-.784,1.046-1.984,1.596-3.2,1.596Z"/>
        <path class="cls-3" d="M150.598,623.901c-3.563,0-7.071-.64-10.405-2.033-6.552-2.743-10.413-8.234-10.873-15.46-.884-13.931,11.176-33.087,26.336-41.832,10.031-5.791,19.913-6.076,27.828-.8,11.431,7.613,13.859,20.362,6.493,34.101-7.543,14.067-23.959,26.02-39.379,26.024ZM171.034,568.01c-4.205,0-8.243,1.674-11.385,3.485-12.389,7.149-23.042,23.55-22.354,34.406.267,4.211,2.224,7.02,5.984,8.593,13.211,5.541,32.164-6.419,39.654-20.393,3.11-5.803,6.745-16.6-3.879-23.675-2.614-1.74-5.352-2.415-8.021-2.415Z"/>
        <path class="cls-3" d="M144.493,599.61c-2.367,0-4.726-.234-7.034-.71-2.16-.449-3.551-2.56-3.104-4.722s2.554-3.543,4.724-3.106c7.356,1.522,15.419-.148,21.563-4.464,6.144-4.32,10.446-11.34,11.504-18.773.314-2.185,2.355-3.699,4.521-3.395,2.185.312,3.703,2.333,3.393,4.519-1.366,9.58-6.905,18.621-14.822,24.19-5.99,4.207-13.392,6.462-20.744,6.462Z"/>
        <path class="cls-3" d="M727.514,460.844h-.094c-2.205-.051-3.953-1.881-3.902-4.09.425-18.262-12.831-33.504-25.38-41.675-15.066-9.814-33.723-14.29-50.182-18.239l-1.522-.367c-57.073-13.693-116.088-27.854-165.574-60.585-56.098-37.098-89.218-96.404-84.377-151.081,4.347-49.117,35.822-87.479,61.461-111.014,41.338-37.941,94.177-63.059,148.785-70.731,85.325-11.988,185.225,10.704,210.949,77.295,8.495,21.997,6.962,48.984-4.214,74.04-14.719,33.013-43.256,58.962-80.354,73.065-28.201,10.723-70.755,20.767-113.304,7.718-2.111-.648-3.297-2.88-2.65-4.991.644-2.111,2.884-3.297,4.991-2.65,40.376,12.374,81.088,2.728,108.122-7.547,35.096-13.342,62.049-37.793,75.898-68.85,10.314-23.128,11.792-47.88,4.058-67.906-18.34-47.462-93.766-87.542-202.387-72.261-53.017,7.449-104.331,31.846-144.488,68.702-34.771,31.916-55.69,69.502-58.906,105.831-4.585,51.798,27.142,108.208,80.826,143.714,48.311,31.955,106.631,45.948,163.03,59.481l1.522.363c17.088,4.101,36.458,8.749,52.68,19.316,18.309,11.925,29.427,30.531,29.009,48.559-.051,2.173-1.83,3.902-3.996,3.902Z"/>
        <path class="cls-3" d="M772.253,512.232c-.964,0-1.928-.343-2.696-1.046-1.627-1.487-1.744-4.015-.254-5.646,20.658-22.617,31.877-54.377,30.012-84.955-1.861-30.578-16.857-60.738-40.111-80.682-10.774-9.24-23.437-16.6-35.682-23.714-8.14-4.733-16.561-9.627-24.49-15.09-17.724-12.206-39.303-32.568-41.476-60.23-.172-2.201,1.471-4.125,3.672-4.296,2.173-.137,4.125,1.471,4.296,3.672,2.025,25.817,24.705,45.086,38.042,54.276,7.676,5.288,15.96,10.103,23.971,14.758,12.557,7.297,25.54,14.84,36.872,24.56,25.232,21.638,40.864,53.082,42.881,86.262,2.025,33.176-9.67,66.283-32.088,90.831-.788.862-1.869,1.299-2.95,1.299Z"/>
      </g>
    </g>
  </g>
</svg>